<svg width="600" height="521" viewBox="0 0 600 521" fill="none" xmlns="http://www.w3.org/2000/svg">
<g clip-path="url(#clip0_363_13825)">
<mask id="mask0_363_13825" style="mask-type:luminance" maskUnits="userSpaceOnUse" x="0" y="0" width="600" height="521">
<path d="M600 0.751465H0V520.751H600V0.751465Z" fill="white"/>
</mask>
<g mask="url(#mask0_363_13825)">
<path d="M600 0.983398H0V600.983H600V0.983398Z" fill="url(#paint0_linear_363_13825)"/>
<path style="mix-blend-mode:overlay" opacity="0.43" d="M488.383 421.92H117.626L256.209 121.989H349.8L488.383 421.92Z" fill="url(#paint1_linear_363_13825)"/>
<path d="M109.537 338.048L114.236 315.653L138.937 310.053" stroke="#121330" stroke-width="8" stroke-linecap="round" stroke-linejoin="round"/>
<path d="M92.073 423.855H121.533C122.555 423.856 123.542 423.483 124.309 422.808C125.076 422.132 125.57 421.2 125.699 420.187L133.568 358.446H80.04L87.9096 420.187C88.0386 421.2 88.5324 422.132 89.2992 422.807C90.0654 423.482 91.0518 423.855 92.073 423.855Z" fill="#EAD57D"/>
<path d="M88.2288 358.448L94.4724 415.469C94.6008 416.642 95.1576 417.726 96.0366 418.514C96.915 419.301 98.0532 419.737 99.2334 419.737H125.76L125.703 420.187C125.574 421.201 125.08 422.133 124.312 422.808C123.545 423.484 122.558 423.856 121.537 423.856H92.0766C91.0548 423.856 90.0678 423.483 89.301 422.808C88.5342 422.133 88.0398 421.201 87.9108 420.187L80.04 358.448H88.2288Z" fill="#E5C66E"/>
<path d="M92.073 423.855H121.533C122.555 423.856 123.542 423.483 124.309 422.808C125.076 422.132 125.57 421.2 125.699 420.187L133.568 358.446H80.04L87.9096 420.187C88.0386 421.2 88.5324 422.132 89.2992 422.807C90.0654 423.482 91.0518 423.855 92.073 423.855Z" stroke="#121330" stroke-width="6" stroke-linecap="round" stroke-linejoin="round"/>
<path d="M131.55 406.082L135.356 376.221H78.252L82.0578 406.082H131.55Z" fill="#2DFFC9"/>
<path d="M131.55 406.082L135.356 376.221H78.252L82.0578 406.082H131.55Z" fill="#4FB277"/>
<path d="M131.314 402.632L134.505 376.221H86.6201L89.5601 400.536C89.6303 401.114 89.9093 401.646 90.3449 402.032C90.7805 402.418 91.3427 402.631 91.9247 402.632H131.314Z" fill="#2DFFC9"/>
<path d="M131.55 406.082L135.356 376.221H78.252L82.0578 406.082H131.55Z" stroke="#121330" stroke-width="6" stroke-linecap="round" stroke-linejoin="round"/>
<path d="M76.601 358.448H137.008C140.653 358.448 143.608 355.493 143.608 351.848C143.608 348.203 140.653 345.248 137.008 345.248H76.601C72.956 345.248 70.001 348.203 70.001 351.848C70.001 355.493 72.956 358.448 76.601 358.448Z" fill="#2DFFC9"/>
<path d="M76.601 358.448H137.008C140.653 358.448 143.608 355.493 143.608 351.848C143.608 348.203 140.653 345.248 137.008 345.248H76.601C72.956 345.248 70.001 348.203 70.001 351.848C70.001 355.493 72.956 358.448 76.601 358.448Z" fill="#4FB277"/>
<path d="M83.4265 355.598H138.432C141.29 355.598 143.607 353.281 143.607 350.423C143.607 347.565 141.29 345.248 138.432 345.248H83.4265C80.5681 345.248 78.2515 347.565 78.2515 350.423C78.2515 353.281 80.5681 355.598 83.4265 355.598Z" fill="#2DFFC9"/>
<path d="M76.601 358.448H137.008C140.653 358.448 143.608 355.493 143.608 351.848C143.608 348.203 140.653 345.248 137.008 345.248H76.601C72.956 345.248 70.001 348.203 70.001 351.848C70.001 355.493 72.956 358.448 76.601 358.448Z" stroke="#121330" stroke-width="6" stroke-linecap="round" stroke-linejoin="round"/>
<path d="M82.8037 345.248H130.804L129.854 338.048H83.7541L82.8037 345.248Z" fill="#2DFFC9"/>
<path d="M83.7541 338.048H97.8373L94.5037 345.248H82.8037L83.7541 338.048Z" fill="#54AF79"/>
<path d="M82.8037 345.248H130.804L129.854 338.048H83.7541L82.8037 345.248Z" stroke="#121330" stroke-width="6" stroke-linecap="round" stroke-linejoin="round"/>
<path d="M186.42 262.496H389.087C391.81 262.496 394.422 263.577 396.348 265.503C398.273 267.428 399.355 270.04 399.355 272.763V406.496H176.155V272.763C176.155 270.04 177.237 267.429 179.161 265.503C181.086 263.578 183.697 262.496 186.42 262.496Z" fill="#D2DCE6"/>
<path d="M186.42 262.496H389.087C391.81 262.496 394.422 263.577 396.348 265.503C398.273 267.428 399.355 270.04 399.355 272.763V406.496H176.155V272.763C176.155 270.04 177.237 267.429 179.161 265.503C181.086 263.578 183.697 262.496 186.42 262.496Z" stroke="#121330" stroke-width="6" stroke-linecap="round" stroke-linejoin="round"/>
<path d="M382.555 389.865V279.465H192.955V389.865H382.555Z" fill="#2DFFC9"/>
<path opacity="0.3" d="M303.004 372.252H334.204" stroke="white" stroke-width="6" stroke-linecap="round" stroke-linejoin="round"/>
<g opacity="0.3">
<path opacity="0.3" d="M379.068 337.935C379.669 337.897 380.264 338.063 380.759 338.405C381.254 338.747 381.619 339.246 381.796 339.821V332.948C381.138 332.755 380.455 332.656 379.768 332.652H379.068C377.559 332.652 376.804 333.407 376.804 334.916V335.724C376.804 337.18 377.559 337.935 379.068 337.935Z" fill="white"/>
<path opacity="0.3" d="M381.796 370.88C381.616 371.452 381.25 371.947 380.755 372.286C380.26 372.626 379.666 372.79 379.068 372.752C377.559 372.752 376.804 373.506 376.804 375.015V375.824C376.804 377.333 377.559 378.087 379.068 378.088H379.768C380.455 378.085 381.138 377.985 381.796 377.792V370.88Z" fill="white"/>
</g>
<path d="M382.555 389.865V279.465H192.955V389.865H382.555Z" stroke="#121330" stroke-width="6" stroke-linecap="round" stroke-linejoin="round"/>
<path d="M151.526 406.583H423.986C424.623 406.583 425.233 406.836 425.683 407.287C426.133 407.737 426.386 408.347 426.386 408.983V411.858C426.386 415.041 425.122 418.093 422.871 420.343C420.621 422.594 417.568 423.858 414.386 423.858H161.126C157.944 423.858 154.891 422.594 152.641 420.343C150.39 418.093 149.126 415.041 149.126 411.858V408.983C149.126 408.347 149.379 407.737 149.829 407.287C150.279 406.836 150.889 406.583 151.526 406.583Z" fill="#E5E5E5"/>
<path d="M414.384 418.455H161.124C158.246 418.454 155.465 417.417 153.288 415.535C151.111 413.652 149.685 411.05 149.267 408.203C149.176 408.453 149.129 408.717 149.126 408.983V411.858C149.126 415.041 150.39 418.093 152.641 420.343C154.891 422.594 157.944 423.858 161.126 423.858H414.386C417.568 423.858 420.621 422.594 422.871 420.343C425.122 418.093 426.386 415.041 426.386 411.858V408.983C426.383 408.717 426.336 408.453 426.245 408.203C425.827 411.051 424.399 413.654 422.222 415.536C420.044 417.419 417.262 418.455 414.384 418.455Z" fill="#CFD1D0"/>
<path d="M151.526 406.583H423.986C424.623 406.583 425.233 406.836 425.683 407.287C426.133 407.737 426.386 408.347 426.386 408.983V411.858C426.386 415.041 425.122 418.093 422.871 420.343C420.621 422.594 417.568 423.858 414.386 423.858H161.126C157.944 423.858 154.891 422.594 152.641 420.343C150.39 418.093 149.126 415.041 149.126 411.858V408.983C149.126 408.347 149.379 407.737 149.829 407.287C150.279 406.836 150.889 406.583 151.526 406.583Z" stroke="#121330" stroke-width="6" stroke-linecap="round" stroke-linejoin="round"/>
<path d="M262.555 406.496H312.955C312.955 407.769 312.449 408.99 311.549 409.89C310.648 410.79 309.428 411.296 308.155 411.296H267.355C266.081 411.296 264.86 410.79 263.96 409.89C263.06 408.99 262.555 407.769 262.555 406.496Z" fill="#686B6D"/>
<path d="M262.555 406.496H312.955C312.955 407.769 312.449 408.99 311.549 409.89C310.648 410.79 309.428 411.296 308.155 411.296H267.355C266.081 411.296 264.86 410.79 263.96 409.89C263.06 408.99 262.555 407.769 262.555 406.496Z" stroke="#121330" stroke-width="4" stroke-linecap="round" stroke-linejoin="round"/>
<path d="M287.283 275.555C289.933 275.555 292.083 273.405 292.083 270.755C292.083 268.104 289.933 265.955 287.283 265.955C284.631 265.955 282.483 268.104 282.483 270.755C282.483 273.405 284.631 275.555 287.283 275.555Z" fill="#686B6D"/>
<path d="M287.283 275.555C289.933 275.555 292.083 273.405 292.083 270.755C292.083 268.104 289.933 265.955 287.283 265.955C284.631 265.955 282.483 268.104 282.483 270.755C282.483 273.405 284.631 275.555 287.283 275.555Z" stroke="#121330" stroke-width="4" stroke-linecap="round" stroke-linejoin="round"/>
<path d="M432.681 423.915C432.708 419.32 434.552 414.922 437.811 411.682C441.07 408.442 445.479 406.623 450.074 406.623C454.669 406.623 459.078 408.442 462.337 411.682C465.597 414.922 467.441 419.32 467.468 423.915H432.681Z" fill="#E5E5E5"/>
<path d="M450.075 418.421C452.562 418.445 455.026 417.936 457.3 416.928C459.574 415.921 461.607 414.438 463.26 412.58C461.629 410.679 459.606 409.155 457.33 408.109C455.054 407.064 452.579 406.522 450.074 406.522C447.57 406.522 445.095 407.064 442.819 408.109C440.543 409.155 438.52 410.679 436.888 412.58C438.542 414.438 440.574 415.921 442.849 416.928C445.123 417.936 447.587 418.445 450.075 418.421Z" fill="#CFD1D0"/>
<path d="M432.681 423.915C432.708 419.32 434.552 414.922 437.811 411.682C441.07 408.442 445.479 406.623 450.074 406.623C454.669 406.623 459.078 408.442 462.337 411.682C465.597 414.922 467.441 419.32 467.468 423.915H432.681Z" stroke="#121330" stroke-width="6" stroke-linecap="round" stroke-linejoin="round"/>
<g style="mix-blend-mode:multiply" opacity="0.14">
<path d="M316.2 300.852H225.009C222.355 300.852 220.204 303.004 220.204 305.657V376.447C220.204 379.101 222.355 381.252 225.009 381.252H316.2C318.853 381.252 321.004 379.101 321.004 376.447V305.657C321.004 303.004 318.853 300.852 316.2 300.852Z" fill="black"/>
</g>
<path d="M311.5 296.652H220.309C217.656 296.652 215.505 298.803 215.505 301.457V372.247C215.505 374.901 217.656 377.052 220.309 377.052H311.5C314.154 377.052 316.305 374.901 316.305 372.247V301.457C316.305 298.803 314.154 296.652 311.5 296.652Z" fill="#353F49"/>
<path d="M311.5 296.652H220.309C217.656 296.652 215.505 298.803 215.505 301.457V372.247C215.505 374.901 217.656 377.052 220.309 377.052H311.5C314.154 377.052 316.305 374.901 316.305 372.247V301.457C316.305 298.803 314.154 296.652 311.5 296.652Z" stroke="#121330" stroke-width="4" stroke-linecap="round" stroke-linejoin="round"/>
<path d="M220.309 296.652H311.5C312.774 296.652 313.996 297.158 314.897 298.059C315.798 298.961 316.305 300.182 316.305 301.457V308.652H215.505V301.457C215.505 300.183 216.01 298.961 216.912 298.059C217.813 297.158 219.034 296.652 220.309 296.652Z" fill="#EAEEEF"/>
<path d="M220.309 296.652H311.5C312.774 296.652 313.996 297.158 314.897 298.059C315.798 298.961 316.305 300.182 316.305 301.457V308.652H215.505V301.457C215.505 300.183 216.01 298.961 216.912 298.059C217.813 297.158 219.034 296.652 220.309 296.652Z" stroke="#121330" stroke-width="4" stroke-linecap="round" stroke-linejoin="round"/>
<path opacity="0.35" d="M224.104 304.527C225.14 304.527 225.979 303.687 225.979 302.652C225.979 301.616 225.14 300.777 224.104 300.777C223.069 300.777 222.229 301.616 222.229 302.652C222.229 303.687 223.069 304.527 224.104 304.527Z" fill="#121330"/>
<path opacity="0.35" d="M230.004 304.527C231.04 304.527 231.879 303.687 231.879 302.652C231.879 301.616 231.04 300.777 230.004 300.777C228.969 300.777 228.129 301.616 228.129 302.652C228.129 303.687 228.969 304.527 230.004 304.527Z" fill="#121330"/>
<path opacity="0.35" d="M235.604 304.527C236.64 304.527 237.479 303.687 237.479 302.652C237.479 301.616 236.64 300.777 235.604 300.777C234.569 300.777 233.729 301.616 233.729 302.652C233.729 303.687 234.569 304.527 235.604 304.527Z" fill="#121330"/>
<path d="M220.204 312.852H226.804" stroke="#46BB86" stroke-width="3" stroke-miterlimit="10"/>
<path d="M229.204 312.852H247.204" stroke="#46BB86" stroke-width="3" stroke-miterlimit="10"/>
<path d="M220.204 317.652H247.204" stroke="#389ABE" stroke-width="3" stroke-miterlimit="10"/>
<path d="M225.604 322.452H238.804" stroke="#E5C689" stroke-width="3" stroke-miterlimit="10"/>
<path d="M241.204 322.452H255.604" stroke="#F2F3F4" stroke-width="3" stroke-miterlimit="10"/>
<path d="M232.804 327.251H260.404" stroke="#F2F3F4" stroke-width="3" stroke-miterlimit="10"/>
<path d="M232.804 332.051H253.204" stroke="#FFA49F" stroke-width="3" stroke-miterlimit="10"/>
<path d="M225.604 336.853H255.604" stroke="#F2F3F4" stroke-width="3" stroke-miterlimit="10"/>
<path d="M220.204 341.052H236.404" stroke="#389ABE" stroke-width="3" stroke-miterlimit="10"/>
<g opacity="0.3">
<path opacity="0.3" d="M359.786 364.297C359.786 361.925 358.869 360.255 357.037 359.231C355.743 358.53 355.204 357.991 355.204 356.752V354.652C355.204 353.197 355.851 352.873 356.983 352.118C358.869 351.31 359.786 349.586 359.786 346.999V342.417C359.786 338.752 361.133 336.057 363.073 334.925C364.524 333.89 366.25 333.309 368.032 333.254H368.733C370.241 333.254 370.996 334.009 370.996 335.518V336.323C370.996 337.778 370.242 338.533 368.733 338.533C366.633 338.533 365.607 340.042 365.607 343.114V348.773C365.66 350.147 365.317 351.508 364.62 352.693C363.922 353.878 362.899 354.837 361.672 355.457L361.187 355.618V355.726C361.74 355.889 362.254 356.165 362.696 356.535C364.044 357.343 365.607 359.23 365.607 362.517V368.823C365.607 371.841 366.631 373.351 368.733 373.351C370.241 373.351 370.996 374.105 370.996 375.614V376.423C370.996 377.932 370.242 378.686 368.733 378.686H368.032C366.25 378.632 364.524 378.05 363.073 377.015C361.133 375.884 359.786 373.135 359.786 369.524V364.297Z" fill="white"/>
</g>
<path d="M89.354 393.193L90.554 392.026C95.1074 395.717 100.791 397.731 106.653 397.731C112.515 397.731 118.198 395.717 122.752 392.026L124.252 393.492" stroke="#121330" stroke-width="3" stroke-linecap="round" stroke-linejoin="round"/>
<path d="M102.975 387.143C102.975 386.462 102.704 385.809 102.222 385.327C101.74 384.845 101.087 384.575 100.406 384.575C99.725 384.575 99.0716 384.845 98.5898 385.327C98.108 385.809 97.8374 386.462 97.8374 387.143V389.496" stroke="#121330" stroke-width="3" stroke-linecap="round" stroke-linejoin="round"/>
<path d="M110.633 387.143C110.633 386.462 110.903 385.809 111.385 385.327C111.866 384.845 112.52 384.575 113.201 384.575C113.882 384.575 114.536 384.845 115.018 385.327C115.499 385.809 115.77 386.462 115.77 387.143V389.496" stroke="#121330" stroke-width="3" stroke-linecap="round" stroke-linejoin="round"/>
<path d="M545.08 417.336L539.137 418.163L542.936 423.692L545.08 417.336Z" fill="#E5E5E5"/>
<path d="M545.08 417.336L539.137 418.163L542.936 423.692L545.08 417.336Z" stroke="#121330" stroke-width="4" stroke-linecap="round" stroke-linejoin="round"/>
<path d="M528.385 345.915H481.705C478.689 345.915 476.245 348.359 476.245 351.375V418.455C476.245 421.471 478.689 423.915 481.705 423.915H528.385C531.4 423.915 533.845 421.471 533.845 418.455V351.375C533.845 348.359 531.4 345.915 528.385 345.915Z" fill="#E5E5E5"/>
<path d="M528.385 345.915H527.693C527.793 346.328 527.844 346.75 527.845 347.175V414.255C527.845 415.703 527.269 417.092 526.246 418.115C525.222 419.14 523.833 419.715 522.385 419.715H476.4C476.683 420.91 477.362 421.975 478.325 422.737C479.288 423.499 480.48 423.914 481.708 423.915H528.388C529.836 423.915 531.225 423.34 532.249 422.315C533.273 421.292 533.848 419.903 533.848 418.455V351.375C533.848 350.657 533.707 349.947 533.433 349.285C533.158 348.622 532.755 348.02 532.248 347.513C531.741 347.006 531.138 346.604 530.475 346.33C529.812 346.055 529.102 345.914 528.385 345.915Z" fill="#CFD1D0"/>
<path d="M528.385 345.915H481.705C478.689 345.915 476.245 348.359 476.245 351.375V418.455C476.245 421.471 478.689 423.915 481.705 423.915H528.385C531.4 423.915 533.845 421.471 533.845 418.455V351.375C533.845 348.359 531.4 345.915 528.385 345.915Z" stroke="#121330" stroke-width="6" stroke-linecap="round" stroke-linejoin="round"/>
<path d="M514.645 341.389H509.845V339.589C509.845 338.315 509.339 337.094 508.439 336.194C507.539 335.294 506.318 334.789 505.045 334.789C503.771 334.789 502.551 335.294 501.65 336.194C500.75 337.094 500.245 338.315 500.245 339.589V341.389H495.445C494.171 341.389 492.951 341.894 492.05 342.794C491.15 343.694 490.645 344.915 490.645 346.189C490.645 347.462 491.15 348.682 492.05 349.583C492.951 350.483 494.171 350.989 495.445 350.989H514.645C515.918 350.989 517.139 350.483 518.039 349.583C518.939 348.682 519.445 347.462 519.445 346.189C519.445 344.915 518.939 343.694 518.039 342.794C517.139 341.894 515.918 341.389 514.645 341.389Z" fill="#F7B66F"/>
<path d="M516.875 341.941C517.07 342.652 517.097 343.398 516.956 344.123C516.815 344.846 516.508 345.527 516.059 346.113C515.611 346.698 515.033 347.172 514.372 347.498C513.71 347.823 512.982 347.991 512.245 347.989H493.045C492.268 347.989 491.502 347.8 490.814 347.437C491.089 348.456 491.691 349.356 492.528 349.998C493.365 350.639 494.39 350.988 495.445 350.989H514.645C515.717 350.988 516.758 350.628 517.602 349.966C518.446 349.304 519.044 348.379 519.301 347.337C519.557 346.296 519.458 345.199 519.019 344.221C518.579 343.243 517.824 342.44 516.875 341.941Z" fill="#EDA762"/>
<path d="M507.445 336.589V338.389H509.687C509.52 337.74 509.219 337.134 508.804 336.609C508.388 336.085 507.867 335.652 507.275 335.341C507.387 335.748 507.444 336.167 507.445 336.589Z" fill="#EDA762"/>
<path d="M514.645 341.389H509.845V339.589C509.845 338.315 509.339 337.094 508.439 336.194C507.539 335.294 506.318 334.789 505.045 334.789C503.771 334.789 502.551 335.294 501.65 336.194C500.75 337.094 500.245 338.315 500.245 339.589V341.389H495.445C494.171 341.389 492.951 341.894 492.05 342.794C491.15 343.694 490.645 344.915 490.645 346.189C490.645 347.462 491.15 348.682 492.05 349.583C492.951 350.483 494.171 350.989 495.445 350.989H514.645C515.918 350.989 517.139 350.483 518.039 349.583C518.939 348.682 519.445 347.462 519.445 346.189C519.445 344.915 518.939 343.694 518.039 342.794C517.139 341.894 515.918 341.389 514.645 341.389Z" stroke="#121330" stroke-width="6" stroke-linecap="round" stroke-linejoin="round"/>
<path d="M505.045 368.389C507.806 368.389 510.044 366.15 510.044 363.389C510.044 360.628 507.806 358.389 505.045 358.389C502.284 358.389 500.045 360.628 500.045 363.389C500.045 366.15 502.284 368.389 505.045 368.389Z" fill="#8EAFBF"/>
<path d="M505.045 368.389C507.806 368.389 510.044 366.15 510.044 363.389C510.044 360.628 507.806 358.389 505.045 358.389C502.284 358.389 500.045 360.628 500.045 363.389C500.045 366.15 502.284 368.389 505.045 368.389Z" stroke="#121330" stroke-width="6" stroke-linecap="round" stroke-linejoin="round"/>
<path d="M485.979 378.789H497.979" stroke="#121330" stroke-width="6" stroke-linecap="round" stroke-linejoin="round"/>
<path d="M485.979 395.089H497.979" stroke="#121330" stroke-width="6" stroke-linecap="round" stroke-linejoin="round"/>
<path d="M485.979 411.389H497.979" stroke="#121330" stroke-width="6" stroke-linecap="round" stroke-linejoin="round"/>
<path d="M505.907 378.147L509.035 382.308L518.398 375.27" stroke="#2DFFC9" stroke-width="4" stroke-linecap="round" stroke-linejoin="round"/>
<path d="M505.907 394.447L509.035 398.608L518.398 391.57" stroke="#2DFFC9" stroke-width="4" stroke-linecap="round" stroke-linejoin="round"/>
<path d="M539.787 379.302L533.844 380.129L539.137 418.162L545.08 417.336L539.787 379.302Z" fill="#3BBC88"/>
<path d="M539.787 379.302L533.844 380.129L539.137 418.162L545.08 417.336L539.787 379.302Z" stroke="#121330" stroke-width="4" stroke-linecap="round" stroke-linejoin="round"/>
<path d="M537.592 373.261L534.028 373.758L534.856 379.698L538.42 379.201L537.592 373.261Z" fill="#E5E5E5"/>
<path d="M537.592 373.261L534.028 373.758L534.856 379.698L538.42 379.201L537.592 373.261Z" stroke="#121330" stroke-width="4" stroke-linecap="round" stroke-linejoin="round"/>
<path d="M545.16 394.31C544.488 393.203 544.012 391.989 543.752 390.72C543.089 387.46 544.726 385.597 543.841 383.741C543.488 383.002 543.317 381.991 540.667 381.608" stroke="#121330" stroke-width="4" stroke-linecap="round" stroke-linejoin="round"/>
<path d="M552.45 423.915H567.9" stroke="#121330" stroke-width="6" stroke-linecap="round" stroke-linejoin="round"/>
<path d="M140.6 423.915H545.7" stroke="#121330" stroke-width="6" stroke-linecap="round" stroke-linejoin="round"/>
<path d="M68.8501 423.915H133.57" stroke="#121330" stroke-width="6" stroke-linecap="round" stroke-linejoin="round"/>
<path d="M48.1997 423.915H62.0999" stroke="#121330" stroke-width="6" stroke-linecap="round" stroke-linejoin="round"/>
<path d="M303.004 137.533C310.957 137.533 317.404 131.086 317.404 123.133C317.404 115.18 310.957 108.733 303.004 108.733C295.051 108.733 288.604 115.18 288.604 123.133C288.604 131.086 295.051 137.533 303.004 137.533Z" fill="white"/>
<path d="M261.667 126.384C260.935 126.381 260.211 126.223 259.544 125.921C258.877 125.618 258.282 125.178 257.798 124.628C257.314 124.078 256.951 123.432 256.735 122.733C256.519 122.033 256.454 121.295 256.544 120.568C259.343 96.8035 279.076 78.3835 303.004 78.3835C326.932 78.3835 346.666 96.8035 349.464 120.568C349.554 121.296 349.489 122.033 349.273 122.733C349.057 123.433 348.694 124.079 348.21 124.629C347.726 125.178 347.131 125.619 346.463 125.922C345.796 126.224 345.073 126.381 344.34 126.384H261.667Z" fill="#F7B66F"/>
<path d="M310.204 78.9499C310.049 78.9253 309.893 78.9079 309.737 78.8851C309.192 78.8047 308.644 78.7321 308.092 78.6709C307.841 78.6427 307.59 78.6199 307.338 78.5959C306.881 78.5527 306.423 78.5137 305.965 78.4873C305.698 78.4717 305.434 78.4519 305.167 78.4393C304.45 78.4057 303.727 78.3835 303.007 78.3835C302.287 78.3835 301.567 78.4051 300.854 78.4393C300.524 78.4549 300.197 78.4807 299.87 78.5029C299.516 78.5275 299.162 78.5527 298.81 78.5857C298.378 78.6247 297.948 78.6715 297.52 78.7231C297.31 78.7483 297.1 78.7765 296.893 78.8047C275.279 81.6985 258.297 99.7063 256.386 122.154C256.339 122.691 256.403 123.231 256.576 123.742C256.748 124.252 257.025 124.721 257.388 125.118C257.752 125.516 258.193 125.834 258.686 126.052C259.179 126.27 259.711 126.382 260.25 126.384H345.761C346.295 126.385 346.823 126.276 347.314 126.063C347.803 125.851 348.244 125.539 348.607 125.148C348.971 124.756 349.249 124.294 349.426 123.789C349.601 123.285 349.671 122.75 349.63 122.217C347.777 100.116 331.32 82.2943 310.204 78.9499ZM272.419 113.141C274.459 105.724 278.268 98.9131 283.518 93.2911C288.768 87.6691 295.303 83.4043 302.563 80.8609C309.829 83.3989 316.37 87.6619 321.626 93.2845C326.882 98.9071 330.695 105.721 332.739 113.141C332.998 114.1 333.033 115.106 332.84 116.08C332.647 117.055 332.231 117.972 331.627 118.76C331.021 119.548 330.242 120.186 329.351 120.623C328.459 121.061 327.478 121.287 326.485 121.284H278.674C277.68 121.287 276.699 121.061 275.807 120.624C274.915 120.186 274.136 119.548 273.531 118.761C272.926 117.972 272.51 117.055 272.317 116.081C272.125 115.106 272.159 114.1 272.419 113.141Z" fill="#EFAA65"/>
<path d="M261.707 126.384C260.969 126.382 260.24 126.223 259.568 125.919C258.897 125.614 258.297 125.17 257.81 124.617C257.322 124.063 256.957 123.413 256.739 122.708C256.522 122.003 256.456 121.26 256.547 120.528C259.365 96.7801 279.09 78.3835 303.004 78.3835C326.918 78.3835 346.643 96.7801 349.459 120.528C349.55 121.26 349.484 122.003 349.267 122.708C349.049 123.413 348.685 124.063 348.197 124.617C347.709 125.17 347.11 125.614 346.438 125.919C345.766 126.223 345.037 126.382 344.299 126.384H261.707Z" stroke="#121330" stroke-width="6" stroke-linecap="round" stroke-linejoin="round"/>
<path d="M303.004 0.983398V78.3834" stroke="#121330" stroke-width="6" stroke-linejoin="round"/>
</g>
</g>
<defs>
<linearGradient id="paint0_linear_363_13825" x1="-7.58321e-08" y1="277" x2="600" y2="274" gradientUnits="userSpaceOnUse">
<stop stop-color="#FCF8FD"/>
<stop offset="1" stop-color="#8588E0"/>
</linearGradient>
<linearGradient id="paint1_linear_363_13825" x1="303.004" y1="117.818" x2="303.004" y2="432.506" gradientUnits="userSpaceOnUse">
<stop stop-color="white"/>
<stop offset="0.093" stop-color="white" stop-opacity="0.864"/>
<stop offset="0.284" stop-color="white" stop-opacity="0.605"/>
<stop offset="0.466" stop-color="white" stop-opacity="0.389"/>
<stop offset="0.633" stop-color="white" stop-opacity="0.221"/>
<stop offset="0.784" stop-color="white" stop-opacity="0.1"/>
<stop offset="0.911" stop-color="white" stop-opacity="0.026"/>
<stop offset="1" stop-color="white" stop-opacity="0"/>
</linearGradient>
<clipPath id="clip0_363_13825">
<rect width="600" height="520" fill="white" transform="translate(0 0.751465)"/>
</clipPath>
</defs>
</svg>
