<svg width="822" height="391" viewBox="0 0 822 391" fill="none" xmlns="http://www.w3.org/2000/svg">
<path d="M721.1 153.939C697.192 92.094 652.243 37.9111 589.809 14.099C581.688 11.0067 573.397 8.38326 564.975 6.24222C520.431 -5.10414 471.699 -1.15735 430.637 19.5173C413.21 28.299 397.319 39.9029 379.828 48.5585C362.338 57.2141 342.364 62.8794 323.327 58.6068C306.936 54.928 293.107 44.3857 279.183 34.9944C246.359 12.8535 206.891 -4.66798 168.022 2.93655C150.137 6.43138 132.526 16.1118 124.22 32.2931C105.862 68.0665 140.485 110.598 133.473 150.161C128.986 175.481 108.492 194.442 95.7512 216.788C73.9473 255.011 76.5248 305.783 102.09 341.598C127.655 377.413 174.85 396.412 218.121 388.287C270.887 378.375 310.782 333.763 362.091 317.975C394.178 308.111 429.017 311.054 459.664 324.045C509.179 345.04 577.205 377.24 632.927 371.995C662.559 369.205 691.622 356.066 711.179 333.631C735.903 305.31 743.315 265.101 739.191 227.756C736.361 202.476 730.28 177.666 721.1 153.939Z" fill="#A0A3FC"/>
<path d="M127.71 110.41L105.9 99.94L109.62 80.9L117.39 82.42L114.84 95.44L131.15 103.27L127.71 110.41Z" fill="#F9B117"/>
<path d="M128.46 112.52L104.11 100.84L108.37 79.04L119.25 81.17L116.63 94.55L133.26 102.53L128.45 112.52H128.46ZM107.69 99.05L126.98 108.3L129.04 104.01L113.06 96.35L115.54 83.67L110.87 82.76L107.69 99.05Z" fill="#121330"/>
<path d="M113.51 85.66C118.956 85.66 123.37 81.2455 123.37 75.8C123.37 70.3545 118.956 65.94 113.51 65.94C108.064 65.94 103.65 70.3545 103.65 75.8C103.65 81.2455 108.064 85.66 113.51 85.66Z" fill="#0E394F"/>
<path d="M113.51 87.24C107.2 87.24 102.06 82.11 102.06 75.79C102.06 69.47 107.19 64.34 113.51 64.34C119.83 64.34 124.96 69.47 124.96 75.79C124.96 82.11 119.83 87.24 113.51 87.24ZM113.51 67.51C108.94 67.51 105.23 71.22 105.23 75.79C105.23 80.36 108.94 84.07 113.51 84.07C118.08 84.07 121.79 80.36 121.79 75.79C121.79 71.22 118.08 67.51 113.51 67.51Z" fill="#121330"/>
<path d="M101.61 130.27C105.83 111.5 124.46 99.71 143.23 103.93C149.23 105.28 154.77 108.2 159.28 112.38L177.5 129.32L240.07 187.17L158.68 212.5L77.31 237.83L96.13 154.49L101.61 130.27Z" fill="#FACA3F"/>
<path d="M179.99 131.37L99.41 156.38L100.64 150.92C109.09 149.38 117.24 146.47 124.75 142.31C138.2 135.13 149.12 123.99 156.05 110.41C158.33 111.75 160.46 113.35 162.38 115.16L179.98 131.37H179.99Z" fill="#F99F00"/>
<path d="M718.6 340.11C708.06 340.11 698.14 336.01 690.67 328.57L683.54 321.44C669.34 307.24 646.24 307.24 632.05 321.44C624.57 328.89 614.66 332.99 604.11 332.99H570.67V329.82H604.1C613.81 329.82 622.93 326.05 629.8 319.2C645.23 303.77 670.34 303.77 685.77 319.2L692.89 326.32C699.76 333.17 708.89 336.94 718.59 336.94H770.23V340.11H718.58H718.6Z" fill="#121330"/>
<path d="M808.49 323.83C800.8 309.09 787.02 298.04 769.24 298.04C748.84 298.07 730.88 311.5 725.09 331.06C723.53 336.51 726.69 342.19 732.14 343.74C733.07 344 734.03 344.14 734.99 344.13H791.52L809.98 342.55" fill="#2C6E9B"/>
<path opacity="0.3" d="M739.51 331.07C737.94 336.51 741.08 342.18 746.52 343.75C747.45 344.02 748.42 344.15 749.39 344.15H734.92C729.25 344.17 724.65 339.59 724.63 333.92C724.63 332.96 724.76 332 725.02 331.07C730.82 311.48 748.81 298.05 769.24 298.05C771.67 298.05 774.09 298.24 776.49 298.62C758.94 301.42 744.56 314.04 739.51 331.07Z" fill="#0E3964"/>
<path d="M803.6 345.73H734.94C733.8 345.73 732.67 345.56 731.58 345.24C725.3 343.38 721.71 336.75 723.58 330.48C723.76 329.89 723.94 329.31 724.14 328.73C728.26 316.67 736.83 306.95 748.27 301.34C759.71 295.73 772.65 294.91 784.71 299.03C800.5 304.66 811.16 319.39 811.68 336.02H811.71V337.6C811.71 342.09 808.07 345.72 803.6 345.72V345.73ZM769.23 299.61C762.53 299.61 755.86 301.14 749.66 304.18C738.98 309.42 730.98 318.5 727.13 329.76C726.95 330.3 726.77 330.84 726.61 331.39C725.24 335.99 727.88 340.85 732.48 342.21C733.28 342.45 734.11 342.57 734.94 342.57H803.6C806.19 342.57 808.33 340.56 808.52 338.01V337.6C808.65 321.67 798.66 307.38 783.65 302.03C778.94 300.42 774.07 299.62 769.23 299.62V299.61Z" fill="#121330"/>
<path d="M110.13 273.54L136.7 265.3L152.34 315.74C154.62 323.09 150.51 330.89 143.16 333.17C135.81 335.45 128.01 331.34 125.73 323.99L110.09 273.55H110.14L110.13 273.54Z" fill="#FBD766"/>
<path d="M206.92 242.17L233.53 233.92L249.17 284.36C251.45 291.71 247.34 299.51 239.99 301.79C232.64 304.07 224.84 299.96 222.56 292.61L206.92 242.17Z" fill="#FBD766"/>
<path d="M139.02 335.4C136.54 335.4 134.07 334.8 131.81 333.61C128.14 331.68 125.45 328.44 124.22 324.48L108.11 272.54L109.66 272.04L137.74 263.33L153.85 315.29C156.38 323.46 151.8 332.17 143.63 334.7C142.11 335.17 140.56 335.4 139.01 335.4H139.02ZM112.07 274.6L127.25 323.53C128.23 326.68 130.37 329.26 133.29 330.8C136.21 332.34 139.55 332.64 142.7 331.67C149.2 329.65 152.85 322.72 150.84 316.22L135.66 267.29L112.07 274.61V274.6Z" fill="#121330"/>
<path d="M235.88 304C229.26 304 223.11 299.73 221.05 293.08L204.94 241.12L234.58 231.93L250.69 283.89C251.92 287.85 251.53 292.05 249.6 295.72C247.67 299.39 244.43 302.08 240.47 303.31C238.94 303.78 237.4 304.01 235.88 304.01V304ZM208.9 243.21L224.07 292.14C226.09 298.64 233.02 302.3 239.52 300.28C242.67 299.3 245.25 297.16 246.79 294.24C248.33 291.32 248.64 287.98 247.66 284.83L232.48 235.9L208.89 243.22L208.9 243.21Z" fill="#121330"/>
<path opacity="0.7" d="M125.32 304.98C124.37 304.98 123.5 304.37 123.2 303.42L117.96 286.51C117.6 285.34 118.25 284.1 119.42 283.74C120.59 283.38 121.83 284.03 122.19 285.2L127.43 302.11C127.79 303.28 127.14 304.52 125.97 304.88C125.75 304.95 125.53 304.98 125.31 304.98H125.32Z" fill="white"/>
<path d="M118.23 251.35L214.16 221.6L233.39 283.6C238.05 298.63 229.65 314.6 214.61 319.26L173.03 332.16C158 336.82 142.03 328.42 137.37 313.38L118.14 251.38L118.23 251.35Z" fill="#FACA3F"/>
<path d="M222.583 248.848L126.65 278.599L130.299 290.366L226.232 260.615L222.583 248.848Z" fill="#F7B000"/>
<path d="M164.6 335.02C151.77 335.02 139.85 326.73 135.85 313.85L116.16 250.35L117.76 249.84L215.2 219.62L234.9 283.13C239.81 298.97 230.92 315.86 215.08 320.77L173.5 333.67C170.54 334.59 167.55 335.02 164.61 335.02H164.6ZM120.12 252.42L138.88 312.91C143.28 327.08 158.38 335.04 172.56 330.64L214.14 317.74C228.31 313.34 236.27 298.24 231.87 284.06L213.11 223.58L120.11 252.42H120.12Z" fill="#121330"/>
<path d="M76.79 240.16L94.58 154.17L100.06 129.92C102.19 120.43 107.89 112.34 116.11 107.14C124.33 101.94 134.08 100.25 143.57 102.38C149.84 103.79 155.64 106.85 160.35 111.22L178.57 128.16L241.51 187.87L76.78 240.16H76.79ZM135.52 104.66C129.3 104.66 123.19 106.42 117.8 109.83C110.3 114.58 105.09 121.97 103.14 130.63L97.66 154.85L80.97 235.51L235.44 186.48L176.4 130.48L158.19 113.55C153.89 109.56 148.59 106.77 142.87 105.48C140.42 104.93 137.96 104.66 135.51 104.66H135.52Z" fill="#121330"/>
<path d="M199.321 121.809L76.0665 160.316C65.1017 163.742 58.9899 175.408 62.4156 186.372L88.4909 269.834C91.9166 280.799 103.582 286.911 114.547 283.485L237.802 244.977C248.767 241.552 254.879 229.886 251.453 218.921L225.378 135.459C221.952 124.495 210.286 118.383 199.321 121.809Z" fill="#F9B117"/>
<path opacity="0.5" d="M247.59 212.49L249.55 218.82C252.93 229.72 246.84 241.3 235.93 244.69L113.3 282.69C102.39 286.07 90.81 279.98 87.42 269.07L85.46 262.74C88.85 273.64 100.43 279.74 111.33 276.36L233.98 238.36C244.85 235.04 250.97 223.53 247.65 212.66C247.63 212.6 247.61 212.55 247.6 212.49H247.59Z" fill="#E59303"/>
<path d="M199.693 133.293L82.3176 169.964C75.7387 172.019 72.0716 179.019 74.127 185.598L98.5562 263.79C100.612 270.369 107.611 274.036 114.19 271.981L231.565 235.31C238.144 233.255 241.811 226.256 239.756 219.677L215.326 141.484C213.271 134.905 206.271 131.238 199.693 133.293Z" fill="#0E394F"/>
<path d="M234.45 208.48L237.92 219.56C239.95 226.11 236.29 233.06 229.74 235.09L112.98 271.3C106.43 273.33 99.47 269.67 97.43 263.12L93.98 252.04C96.01 258.58 102.97 262.24 109.51 260.21L226.28 223.99C232.81 221.96 236.47 215.03 234.45 208.49V208.48Z" fill="#062538"/>
<path d="M133.35 191.97C135.91 191.17 138.64 192.61 139.43 195.17L145.38 214.36C146.18 216.92 144.74 219.65 142.18 220.44C139.62 221.24 136.89 219.8 136.1 217.24L130.15 198.05C129.35 195.49 130.79 192.76 133.35 191.97Z" fill="#2DFFC9"/>
<path d="M168.02 181.22C170.58 180.42 173.31 181.86 174.1 184.42L180.05 203.61C180.85 206.17 179.41 208.9 176.85 209.69C174.29 210.49 171.56 209.05 170.77 206.49L164.82 187.3C164.02 184.74 165.46 182.01 168.02 181.22Z" fill="#2DFFC9"/>
<path d="M105.72 176.43C106.39 178.58 105.18 180.87 103.03 181.54L87.44 186.38C85.29 187.05 83 185.84 82.33 183.69C81.66 181.54 82.87 179.25 85.02 178.58L100.61 173.74C102.76 173.07 105.05 174.28 105.72 176.43Z" fill="#185472"/>
<path d="M112.45 178.41C114.598 178.41 116.34 176.668 116.34 174.52C116.34 172.372 114.598 170.63 112.45 170.63C110.302 170.63 108.56 172.372 108.56 174.52C108.56 176.668 110.302 178.41 112.45 178.41Z" fill="#185472"/>
<path d="M89.5 158.53L114.45 150.79C115.96 150.32 117.57 151.16 118.03 152.67C118.5 154.18 117.65 155.78 116.14 156.25L91.19 163.99C89.68 164.46 88.07 163.62 87.61 162.11C87.14 160.6 87.99 159 89.5 158.53Z" fill="#FFCB6E"/>
<path d="M122.38 154.15C124.026 154.15 125.36 152.816 125.36 151.17C125.36 149.524 124.026 148.19 122.38 148.19C120.734 148.19 119.4 149.524 119.4 151.17C119.4 152.816 120.734 154.15 122.38 154.15Z" fill="#FFCB6E"/>
<path d="M123.06 123.83L136.88 119.54C137.83 119.24 138.84 119.78 139.14 120.73C139.44 121.68 138.9 122.69 137.95 122.99L124.13 127.28C123.18 127.58 122.17 127.04 121.87 126.09C121.57 125.14 122.11 124.13 123.06 123.83Z" fill="#F7B40D"/>
<path d="M121.35 118.3L135.17 114.01C136.12 113.71 137.13 114.25 137.43 115.2C137.73 116.15 137.19 117.16 136.24 117.46L122.42 121.75C121.47 122.05 120.46 121.51 120.16 120.56C119.86 119.61 120.4 118.6 121.35 118.3Z" fill="#F7B40D"/>
<path d="M194.319 291.805L173.172 298.363C171.716 298.815 170.902 300.361 171.354 301.817L171.356 301.826C171.808 303.282 173.354 304.097 174.81 303.645L195.957 297.087C197.413 296.636 198.227 295.089 197.775 293.633L197.772 293.624C197.321 292.168 195.774 291.354 194.319 291.805Z" fill="#F7B40D"/>
<path d="M172.31 290.4L193.54 283.76C195.01 283.3 196.57 284.12 197.03 285.58C197.49 287.04 196.67 288.6 195.2 289.06L173.97 295.7C172.5 296.16 170.94 295.34 170.48 293.88C170.02 292.42 170.84 290.86 172.31 290.4Z" fill="#F7B40D"/>
<path d="M108.37 286.02C98.84 286.02 89.98 279.88 86.99 270.31L60.91 186.84C59.13 181.13 59.67 175.07 62.45 169.77C65.23 164.47 69.9 160.57 75.6 158.79L198.86 120.27C204.56 118.49 210.63 119.03 215.93 121.81C221.23 124.59 225.13 129.26 226.91 134.96L252.99 218.43C254.77 224.14 254.23 230.2 251.45 235.5C248.67 240.8 244 244.7 238.3 246.48L115.04 285C112.83 285.69 110.58 286.02 108.38 286.02H108.37ZM205.56 122.43C203.63 122.43 201.7 122.72 199.81 123.31L76.55 161.83C71.65 163.36 67.65 166.7 65.27 171.25C62.89 175.8 62.42 180.99 63.95 185.89L90.03 269.36C93.19 279.47 103.98 285.12 114.09 281.96L237.35 243.44C242.25 241.91 246.25 238.57 248.63 234.02C251.01 229.47 251.48 224.28 249.95 219.38L223.87 135.91C222.34 131.01 219 127.01 214.45 124.63C211.66 123.17 208.62 122.43 205.56 122.43Z" fill="#121330"/>
<path opacity="0.2" d="M647.52 346.9C647.52 356.08 459.57 363.52 296.06 363.52C132.55 363.52 0 356.08 0 346.9C0 337.72 132.54 330.28 296.05 330.28C459.56 330.28 647.51 337.72 647.51 346.9H647.52Z" fill="#0E394F"/>
<path opacity="0.2" d="M821.97 346.9C821.97 350.62 791.89 353.64 765.72 353.64C739.55 353.64 718.34 350.62 718.34 346.9C718.34 343.18 739.55 340.16 765.72 340.16C791.89 340.16 821.97 343.18 821.97 346.9Z" fill="#0E394F"/>
<path d="M590.14 48.58H264.94C260.2 48.58 256.14 52 255.33 56.67L217.59 304.63C216.68 309.94 220.25 314.98 225.56 315.89C226.1 315.98 226.65 316.03 227.2 316.03H564.83C569.48 316 573.46 312.68 574.33 308.11L613.39 76.71C615.81 63.82 607.33 51.41 594.44 48.99C593.03 48.72 591.59 48.59 590.15 48.58H590.14Z" fill="#0E3964"/>
<path d="M227.2 317.61C226.56 317.61 225.92 317.55 225.29 317.45C219.13 316.39 214.98 310.52 216.03 304.36L253.77 56.43C254.72 50.96 259.42 47 264.94 47H590.15C591.68 47 593.22 47.15 594.72 47.44C601.37 48.69 607.13 52.45 610.95 58.04C614.77 63.63 616.18 70.36 614.93 77.01L575.88 308.38C574.87 313.71 570.22 317.58 564.83 317.62H227.2V317.61ZM264.94 50.17C260.96 50.17 257.57 53.03 256.89 56.95L219.15 304.87C218.38 309.34 221.38 313.57 225.82 314.33C226.27 314.41 226.73 314.45 227.2 314.45H564.82C568.69 314.42 572.04 311.64 572.76 307.82L611.81 76.46C612.91 70.61 611.67 64.72 608.33 59.83C604.99 54.94 599.94 51.65 594.13 50.56C592.82 50.31 591.47 50.19 590.13 50.18H264.94V50.17Z" fill="#121330"/>
<path d="M590.52 48.58H251.34C244.07 48.58 237.86 53.81 236.63 60.98L197.65 316.03H555.68L598.91 58.7C599.78 54.07 596.74 49.61 592.11 48.73C591.59 48.63 591.05 48.58 590.52 48.58Z" fill="#2C6E9B"/>
<path d="M557.03 317.61H195.82L196.1 315.79L235.07 60.74C236.44 52.77 243.27 47 251.33 47H590.52C591.15 47 591.79 47.06 592.4 47.18C595.06 47.68 597.36 49.19 598.88 51.42C600.4 53.65 600.97 56.34 600.46 59L557.02 317.62L557.03 317.61ZM199.5 314.44H554.35L597.35 58.44C597.7 56.58 597.31 54.73 596.27 53.2C595.22 51.67 593.64 50.63 591.82 50.29C591.4 50.21 590.96 50.17 590.53 50.17H251.34C244.82 50.17 239.3 54.83 238.2 61.25L199.51 314.45L199.5 314.44Z" fill="#121330"/>
<path d="M581.24 67.58H253.7L219.14 297.03H543.33L581.24 67.58Z" fill="#0E394F"/>
<path d="M582.18 67.93L580.39 77.43H252.99L254.62 67.93H582.18Z" fill="#062538"/>
<path d="M263.04 67.58L228.47 297.03H218.97L253.54 67.58H263.04Z" fill="#062538"/>
<path d="M300.28 93.02H282.67L280.43 99.69H299.41L300.28 93.02Z" fill="#2DFFC9"/>
<path d="M325.61 93.02H306.42L304.17 99.69H323.16L325.61 93.02Z" fill="#2DFFC9"/>
<path d="M347.77 93.02H330.17L329.51 99.69H345.32L347.77 93.02Z" fill="#2DFFC9"/>
<path d="M362.81 93.02H356.29L354.04 99.69H361.94L362.81 93.02Z" fill="#2DFFC9"/>
<path d="M277.32 93.02H270.8L268.55 99.69L275.8 99.91L277.32 93.02Z" fill="#2DFFC9"/>
<path d="M297.11 107.27H279.51L277.26 113.94H296.24L297.11 107.27Z" fill="#2DFFC9"/>
<path d="M320.86 107.27H303.26L301.01 113.94H319.99L320.86 107.27Z" fill="#2DFFC9"/>
<path d="M344.61 107.27H327L326.34 113.94H343.74L344.61 107.27Z" fill="#2DFFC9"/>
<path d="M358.07 107.27H351.54L349.29 113.94H357.19L358.07 107.27Z" fill="#2DFFC9"/>
<path d="M274.16 107.27H267.63L265.39 113.94H273.03L274.16 107.27Z" fill="#2DFFC9"/>
<path d="M43.65 314.44H405.05V347.69H55.87C43.91 347.69 34.21 338.01 34.2 326.05C34.2 326.05 34.2 326.04 34.2 326.03V323.89C34.23 318.68 38.44 314.46 43.65 314.44Z" fill="#19517F"/>
<path opacity="0.3" d="M405.05 335.03V347.7H55.85C43.89 347.7 34.2 338 34.19 326.04V323.9C34.19 322.47 34.51 321.06 35.14 319.78C37.97 328.84 46.36 335.01 55.85 335.03H405.05Z" fill="#0E3964"/>
<path opacity="0.3" d="M560.22 304.95V314.44H197.94L199.26 304.95H560.22Z" fill="#0E3964"/>
<path d="M143.83 314.44H272.07C272.07 324.06 264.27 331.85 254.66 331.85H161.25C151.63 331.85 143.84 324.05 143.84 314.44H143.83Z" fill="#0E3964"/>
<path d="M254.65 333.44H161.24C150.76 333.44 142.24 324.92 142.24 314.44V312.86H273.64V314.44C273.64 324.92 265.12 333.44 254.64 333.44H254.65ZM145.49 316.03C146.29 324.02 153.05 330.28 161.24 330.28H254.65C262.84 330.28 269.61 324.02 270.4 316.03H145.49Z" fill="#121330"/>
<path d="M581.1 67.58L543.19 297.03H219.06L576.65 67.58H581.1Z" fill="#062538"/>
<path d="M591.375 135.146L588.463 153.851C588.226 155.373 589.266 156.799 590.786 157.036C592.306 157.272 593.73 156.23 593.967 154.707L596.879 136.003C597.116 134.48 596.076 133.054 594.557 132.818C593.037 132.581 591.613 133.623 591.375 135.146Z" fill="#062C4C"/>
<path d="M596.858 99.9326L593.946 118.637C593.708 120.16 594.748 121.586 596.268 121.822C597.788 122.059 599.212 121.017 599.449 119.494L602.362 100.79C602.599 99.267 601.559 97.8409 600.039 97.6043C598.519 97.3677 597.095 98.4101 596.858 99.9326Z" fill="#062C4C"/>
<path d="M211.46 320.37H192.53C190.989 320.37 189.74 321.617 189.74 323.155C189.74 324.693 190.989 325.94 192.53 325.94H211.46C213.001 325.94 214.25 324.693 214.25 323.155C214.25 321.617 213.001 320.37 211.46 320.37Z" fill="#121330"/>
<path d="M60.29 314.54H98.78C101.11 314.54 102.99 316.43 102.99 318.75C102.99 321.08 101.1 322.96 98.78 322.96H60.29C57.96 322.96 56.08 321.07 56.08 318.75C56.08 316.42 57.97 314.54 60.29 314.54Z" fill="#2C6E9B"/>
<path d="M110.81 322.96C113.135 322.96 115.02 321.075 115.02 318.75C115.02 316.425 113.135 314.54 110.81 314.54C108.485 314.54 106.6 316.425 106.6 318.75C106.6 321.075 108.485 322.96 110.81 322.96Z" fill="#2C6E9B"/>
<path d="M215.19 227.47L221.13 189.44C221.49 187.14 223.64 185.57 225.94 185.93C228.24 186.29 229.81 188.44 229.45 190.74L223.51 228.77C223.15 231.07 221 232.64 218.7 232.28C216.4 231.92 214.83 229.77 215.19 227.47Z" fill="#4D9AC4"/>
<path d="M227.14 182.41C229.465 182.41 231.35 180.525 231.35 178.2C231.35 175.875 229.465 173.99 227.14 173.99C224.815 173.99 222.93 175.875 222.93 178.2C222.93 180.525 224.815 182.41 227.14 182.41Z" fill="#4D9AC4"/>
<path d="M299.84 53.32H261.35C259.025 53.32 257.14 55.2049 257.14 57.53C257.14 59.8551 259.025 61.74 261.35 61.74H299.84C302.165 61.74 304.05 59.8551 304.05 57.53C304.05 55.2049 302.165 53.32 299.84 53.32Z" fill="#4D9AC4"/>
<path d="M311.87 61.74C314.195 61.74 316.08 59.8551 316.08 57.53C316.08 55.2049 314.195 53.32 311.87 53.32C309.545 53.32 307.66 55.2049 307.66 57.53C307.66 59.8551 309.545 61.74 311.87 61.74Z" fill="#4D9AC4"/>
<path d="M389.22 62.72C391.843 62.72 393.97 60.5934 393.97 57.97C393.97 55.3466 391.843 53.22 389.22 53.22C386.597 53.22 384.47 55.3466 384.47 57.97C384.47 60.5934 386.597 62.72 389.22 62.72Z" fill="#F95D5D"/>
<path d="M149.72 306.53H113.31V314.45H149.72V306.53Z" fill="#033156"/>
<path d="M94.75 306.53H58.34V314.45H94.75V306.53Z" fill="#033156"/>
<path d="M204.67 306.53H168.26V314.45H204.67V306.53Z" fill="#033156"/>
<path d="M259.64 306.53H223.23V314.45H259.64V306.53Z" fill="#033156"/>
<path d="M314.59 306.53H278.18V314.45H314.59V306.53Z" fill="#033156"/>
<path d="M369.56 306.53H333.15V314.45H369.56V306.53Z" fill="#033156"/>
<path d="M424.51 306.53H388.1V314.45H424.51V306.53Z" fill="#033156"/>
<path d="M534.87 306.53H498.46V314.45H534.87V306.53Z" fill="#033156"/>
<path d="M479.68 306.77H443.27V314.69H479.68V306.77Z" fill="#033156"/>
<path d="M151.3 316.03H111.72V304.95H151.3V316.03ZM114.89 312.86H148.14V308.11H114.89V312.86Z" fill="#121330"/>
<path d="M96.34 316.03H56.76V304.95H96.34V316.03ZM59.93 312.86H93.18V308.11H59.92V312.86H59.93Z" fill="#121330"/>
<path d="M206.25 316.03H166.67V304.95H206.25V316.03ZM169.84 312.86H203.09V308.11H169.84V312.86Z" fill="#121330"/>
<path d="M261.22 316.03H221.64V304.95H261.22V316.03ZM224.81 312.86H258.06V308.11H224.81V312.86Z" fill="#121330"/>
<path d="M316.17 316.03H276.59V304.95H316.17V316.03ZM279.76 312.86H313.01V308.11H279.76V312.86Z" fill="#121330"/>
<path d="M371.14 316.03H331.56V304.95H371.14V316.03ZM334.73 312.86H367.98V308.11H334.73V312.86Z" fill="#121330"/>
<path d="M426.09 316.03H386.51V304.95H426.09V316.03ZM389.68 312.86H422.93V308.11H389.68V312.86Z" fill="#121330"/>
<path d="M536.46 316.03H496.88V304.95H536.46V316.03ZM500.05 312.86H533.3V308.11H500.05V312.86Z" fill="#121330"/>
<path d="M481.27 316.27H441.69V305.19H481.27V316.27ZM444.86 313.1H478.11V308.35H444.86V313.1Z" fill="#121330"/>
<path d="M544.51 298.61H217.14L252.18 66H582.95L544.51 298.62V298.61ZM220.82 295.44H541.82L579.21 69.16H254.91L220.83 295.44H220.82Z" fill="#121330"/>
<path d="M536.2 93.81H400.05C393.36 93.8 387.68 98.69 386.69 105.3L373.47 193.01C372.36 200.39 377.44 207.26 384.81 208.37C385.48 208.47 386.15 208.52 386.83 208.52H521.76C528.38 208.53 534.03 203.75 535.11 197.22L549.61 109.51C550.83 102.15 545.85 95.2 538.49 93.99C537.73 93.87 536.97 93.8 536.2 93.81Z" fill="white"/>
<path d="M549.36 109.54L534.87 197.23C533.79 203.75 528.15 208.53 521.54 208.53H386.62C380.26 208.53 374.76 204.1 373.4 197.89L535.61 93.81H536.04C543.51 93.82 549.55 99.89 549.53 107.36C549.53 108.09 549.47 108.82 549.35 109.54H549.36Z" fill="#F4F3F2"/>
<path d="M55.85 349.27C49.65 349.27 43.82 346.86 39.43 342.48C35.04 338.09 32.62 332.26 32.61 326.05V323.9C32.64 317.84 37.59 312.9 43.64 312.87H406.64V349.28H55.85V349.27ZM43.64 316.02C39.32 316.05 35.79 319.58 35.77 323.9V326.03C35.77 331.41 37.87 336.45 41.66 340.24C45.45 344.03 50.49 346.11 55.85 346.11H403.47V316.03H43.65L43.64 316.02Z" fill="#121330"/>
<path d="M388.43 314.44H572.08C581.26 314.44 588.7 321.88 588.7 331.06C588.7 340.24 581.26 347.68 572.08 347.68H388.43C379.25 347.68 371.81 340.24 371.81 331.06C371.81 321.88 379.25 314.44 388.43 314.44Z" fill="#0E3964"/>
<path d="M566.92 328.28H547.99C546.449 328.28 545.2 329.527 545.2 331.065C545.2 332.603 546.449 333.85 547.99 333.85H566.92C568.461 333.85 569.71 332.603 569.71 331.065C569.71 329.527 568.461 328.28 566.92 328.28Z" fill="#121330"/>
<path d="M531.26 328.28H512.33C510.789 328.28 509.54 329.527 509.54 331.065C509.54 332.603 510.789 333.85 512.33 333.85H531.26C532.801 333.85 534.05 332.603 534.05 331.065C534.05 329.527 532.801 328.28 531.26 328.28Z" fill="#121330"/>
<path d="M572.08 349.27H388.43C378.39 349.27 370.22 341.1 370.22 331.06C370.22 321.02 378.39 312.85 388.43 312.85H572.08C582.12 312.85 590.29 321.02 590.29 331.06C590.29 341.1 582.12 349.27 572.08 349.27ZM388.43 316.02C380.14 316.02 373.39 322.77 373.39 331.06C373.39 339.35 380.14 346.1 388.43 346.1H572.08C580.37 346.1 587.12 339.35 587.12 331.06C587.12 322.77 580.37 316.02 572.08 316.02H388.43Z" fill="#121330"/>
<path d="M103.52 141.5C103.47 141.5 103.42 141.5 103.37 141.49C102.94 141.41 102.66 140.99 102.75 140.56L104.13 133.55C104.21 133.12 104.63 132.84 105.06 132.93C105.49 133.01 105.77 133.43 105.68 133.86L104.3 140.87C104.23 141.25 103.89 141.51 103.52 141.51V141.5Z" fill="white"/>
<path d="M105.34 132.04C105.898 132.04 106.35 131.588 106.35 131.03C106.35 130.472 105.898 130.02 105.34 130.02C104.782 130.02 104.33 130.472 104.33 131.03C104.33 131.588 104.782 132.04 105.34 132.04Z" fill="white"/>
<path d="M220.38 164.82C219.7 164.82 219.08 164.38 218.87 163.7L212.22 142.23C210.45 136.61 204.42 133.4 198.77 135.09L171.46 143.57C170.63 143.83 169.74 143.36 169.48 142.53C169.22 141.7 169.69 140.81 170.52 140.55L197.85 132.06C205.17 129.87 212.97 134.01 215.25 141.28L221.9 162.75C222.16 163.58 221.69 164.47 220.86 164.73C220.7 164.78 220.55 164.8 220.39 164.8L220.38 164.82Z" fill="#121330"/>
<path d="M141.57 152.76C140.9 152.76 140.27 152.32 140.06 151.65C139.8 150.82 140.27 149.93 141.1 149.67L159.2 144.05C160.03 143.79 160.92 144.26 161.18 145.09C161.44 145.92 160.97 146.81 160.14 147.07L142.04 152.69C141.88 152.74 141.73 152.76 141.57 152.76Z" fill="#121330"/>
<path d="M109.29 273.44C103.31 273.44 97.76 269.58 95.9 263.58L71.79 185.81C69.51 178.43 73.65 170.57 81.02 168.28L131.51 152.62C132.34 152.36 133.23 152.83 133.49 153.66C133.75 154.5 133.28 155.38 132.45 155.64L81.96 171.3C76.25 173.07 73.05 179.16 74.82 184.87L98.93 262.63C100.7 268.34 106.79 271.54 112.5 269.77L207.49 240.31C208.32 240.05 209.21 240.52 209.47 241.35C209.73 242.19 209.26 243.07 208.43 243.33L113.44 272.79C112.06 273.22 110.67 273.42 109.3 273.42L109.29 273.44Z" fill="#121330"/>
<path d="M420.16 167.95H402.55L400.3 174.64H419.29L420.16 167.95Z" fill="#A0A3FC"/>
<path d="M445.49 167.95H426.3L424.07 174.64H443.03L445.49 167.95Z" fill="#A0A3FC"/>
<path d="M467.65 167.95H450.05L449.4 174.64H465.2L467.65 167.95Z" fill="#A0A3FC"/>
<path d="M482.69 167.95H476.17L473.94 174.64H481.82L482.69 167.95Z" fill="#A0A3FC"/>
<path d="M397.2 167.95H390.68L388.43 174.64L395.68 174.84L397.2 167.95Z" fill="#A0A3FC"/>
<path d="M416.99 182.2H399.39L397.14 188.88H416.12L416.99 182.2Z" fill="#A0A3FC"/>
<path d="M440.74 182.2H423.13L420.9 188.88H439.87L440.74 182.2Z" fill="#A0A3FC"/>
<path d="M464.49 182.2H446.88L446.23 188.88H463.62L464.49 182.2Z" fill="#A0A3FC"/>
<path d="M477.94 182.2H471.42L469.19 188.88H477.07L477.94 182.2Z" fill="#A0A3FC"/>
<path d="M394.04 182.2H387.51L385.26 188.88H392.91L394.04 182.2Z" fill="#A0A3FC"/>
<path d="M521.79 209.56H386.82C386.1 209.56 385.38 209.51 384.66 209.4C376.74 208.21 371.26 200.79 372.45 192.86L385.67 105.15C386.72 98.09 392.89 92.78 400.03 92.78H536.2C537.02 92.78 537.85 92.84 538.66 92.97C546.57 94.28 551.94 101.77 550.63 109.68L536.13 197.39C534.97 204.44 528.94 209.55 521.79 209.55V209.56ZM386.83 207.5H521.79C527.92 207.5 533.1 203.11 534.1 197.06L548.6 109.35C549.72 102.56 545.11 96.13 538.32 95.01C537.62 94.9 536.91 94.85 536.21 94.84H400.03C393.91 94.84 388.61 99.4 387.71 105.46L374.49 193.17C373.47 199.97 378.17 206.34 384.97 207.36C385.59 207.45 386.24 207.47 386.83 207.5Z" fill="#121330"/>
</svg>
