<svg width="600" height="500" viewBox="0 0 600 500" fill="none" xmlns="http://www.w3.org/2000/svg">
<g clip-path="url(#clip0_471_8543)">
<mask id="mask0_471_8543" style="mask-type:luminance" maskUnits="userSpaceOnUse" x="0" y="0" width="600" height="500">
<path d="M600 0H0V500H600V0Z" fill="white"/>
</mask>
<g mask="url(#mask0_471_8543)">
<path style="mix-blend-mode:overlay" opacity="0.43" d="M488.383 351.071H117.626L256.209 101.127H349.8L488.383 351.071Z" fill="url(#paint0_linear_471_8543)"/>
<path d="M109.537 281.177L114.236 262.514L138.937 257.848" stroke="#121330" stroke-width="8" stroke-linecap="round" stroke-linejoin="round"/>
<path d="M92.073 352.683H121.533C122.555 352.684 123.542 352.373 124.309 351.81C125.076 351.247 125.57 350.471 125.699 349.626L133.568 298.176H80.04L87.9096 349.626C88.0386 350.47 88.5324 351.247 89.2992 351.809C90.0654 352.372 91.0518 352.683 92.073 352.683Z" fill="#EAD57D"/>
<path d="M88.2288 298.178L94.4724 345.695C94.6008 346.672 95.1576 347.576 96.0366 348.232C96.915 348.889 98.0532 349.252 99.2334 349.252H125.76L125.703 349.627C125.574 350.472 125.08 351.248 124.312 351.811C123.545 352.374 122.558 352.684 121.537 352.684H92.0766C91.0548 352.684 90.0678 352.374 89.301 351.811C88.5342 351.248 88.0398 350.472 87.9108 349.627L80.04 298.178H88.2288Z" fill="#E5C66E"/>
<path d="M92.073 352.683H121.533C122.555 352.684 123.542 352.373 124.309 351.81C125.076 351.247 125.57 350.471 125.699 349.626L133.568 298.176H80.04L87.9096 349.626C88.0386 350.47 88.5324 351.247 89.2992 351.809C90.0654 352.372 91.0518 352.683 92.073 352.683Z" stroke="#121330" stroke-width="6" stroke-linecap="round" stroke-linejoin="round"/>
<path d="M131.55 337.872L135.356 312.988H78.252L82.0578 337.872H131.55Z" fill="#2DFFC9"/>
<path d="M131.55 337.872L135.356 312.988H78.252L82.0578 337.872H131.55Z" fill="#4FB277"/>
<path d="M131.314 334.997L134.505 312.988H86.6201L89.5601 333.25C89.6303 333.732 89.9093 334.175 90.3449 334.497C90.7805 334.819 91.3427 334.996 91.9247 334.997H131.314Z" fill="#2DFFC9"/>
<path d="M131.55 337.872L135.356 312.988H78.252L82.0578 337.872H131.55Z" stroke="#121330" stroke-width="6" stroke-linecap="round" stroke-linejoin="round"/>
<path d="M76.601 298.177H137.008C140.653 298.177 143.608 295.715 143.608 292.677C143.608 289.639 140.653 287.177 137.008 287.177H76.601C72.956 287.177 70.001 289.639 70.001 292.677C70.001 295.715 72.956 298.177 76.601 298.177Z" fill="#2DFFC9"/>
<path d="M76.601 298.177H137.008C140.653 298.177 143.608 295.715 143.608 292.677C143.608 289.639 140.653 287.177 137.008 287.177H76.601C72.956 287.177 70.001 289.639 70.001 292.677C70.001 295.715 72.956 298.177 76.601 298.177Z" fill="#4FB277"/>
<path d="M83.4265 295.802H138.432C141.29 295.802 143.607 293.871 143.607 291.489C143.607 289.108 141.29 287.177 138.432 287.177H83.4265C80.5681 287.177 78.2515 289.108 78.2515 291.489C78.2515 293.871 80.5681 295.802 83.4265 295.802Z" fill="#2DFFC9"/>
<path d="M76.601 298.177H137.008C140.653 298.177 143.608 295.715 143.608 292.677C143.608 289.639 140.653 287.177 137.008 287.177H76.601C72.956 287.177 70.001 289.639 70.001 292.677C70.001 295.715 72.956 298.177 76.601 298.177Z" stroke="#121330" stroke-width="6" stroke-linecap="round" stroke-linejoin="round"/>
<path d="M82.8037 287.177H130.804L129.854 281.177H83.7541L82.8037 287.177Z" fill="#2DFFC9"/>
<path d="M83.7541 281.177H97.8373L94.5037 287.177H82.8037L83.7541 281.177Z" fill="#54AF79"/>
<path d="M82.8037 287.177H130.804L129.854 281.177H83.7541L82.8037 287.177Z" stroke="#121330" stroke-width="6" stroke-linecap="round" stroke-linejoin="round"/>
<path d="M186.42 218.217H389.087C391.81 218.217 394.422 219.118 396.348 220.723C398.273 222.327 399.355 224.504 399.355 226.773V338.217H176.155V226.773C176.155 224.504 177.237 222.328 179.161 220.723C181.086 219.119 183.697 218.217 186.42 218.217Z" fill="#D2DCE6"/>
<path d="M186.42 218.217H389.087C391.81 218.217 394.422 219.118 396.348 220.723C398.273 222.327 399.355 224.504 399.355 226.773V338.217H176.155V226.773C176.155 224.504 177.237 222.328 179.161 220.723C181.086 219.119 183.697 218.217 186.42 218.217Z" stroke="#121330" stroke-width="6" stroke-linecap="round" stroke-linejoin="round"/>
<path d="M382.555 324.358V232.358H192.955V324.358H382.555Z" fill="#2DFFC9"/>
<path opacity="0.3" d="M303.004 309.681H334.204" stroke="white" stroke-width="6" stroke-linecap="round" stroke-linejoin="round"/>
<g opacity="0.3">
<path opacity="0.3" d="M379.068 281.083C379.669 281.052 380.264 281.19 380.759 281.475C381.254 281.76 381.62 282.176 381.797 282.655V276.927C381.138 276.767 380.455 276.684 379.769 276.681H379.068C377.559 276.681 376.804 277.31 376.805 278.568V279.241C376.805 280.454 377.559 281.083 379.068 281.083Z" fill="white"/>
<path opacity="0.3" d="M381.797 308.537C381.617 309.014 381.25 309.427 380.755 309.709C380.261 309.992 379.667 310.129 379.068 310.097C377.559 310.097 376.804 310.726 376.805 311.983V312.657C376.805 313.915 377.559 314.543 379.068 314.544H379.769C380.455 314.541 381.138 314.458 381.797 314.298V308.537Z" fill="white"/>
</g>
<path d="M382.555 324.358V232.358H192.955V324.358H382.555Z" stroke="#121330" stroke-width="6" stroke-linecap="round" stroke-linejoin="round"/>
<path d="M151.526 338.291H423.986C424.623 338.291 425.233 338.501 425.683 338.877C426.133 339.252 426.386 339.76 426.386 340.291V342.686C426.386 345.338 425.122 347.882 422.871 349.757C420.621 351.633 417.568 352.686 414.386 352.686H161.126C157.944 352.686 154.891 351.633 152.641 349.757C150.39 347.882 149.126 345.338 149.126 342.686V340.291C149.126 339.76 149.379 339.252 149.829 338.877C150.279 338.501 150.889 338.291 151.526 338.291Z" fill="#E5E5E5"/>
<path d="M414.384 348.184H161.124C158.246 348.182 155.465 347.318 153.288 345.75C151.111 344.181 149.685 342.013 149.267 339.64C149.176 339.849 149.129 340.069 149.126 340.29V342.686C149.126 345.338 150.39 347.882 152.641 349.757C154.891 351.632 157.944 352.686 161.126 352.686H414.386C417.568 352.686 420.621 351.632 422.871 349.757C425.122 347.882 426.386 345.338 426.386 342.686V340.29C426.383 340.069 426.336 339.849 426.245 339.64C425.827 342.014 424.399 344.183 422.222 345.751C420.044 347.32 417.262 348.183 414.384 348.184Z" fill="#CFD1D0"/>
<path d="M151.526 338.291H423.986C424.623 338.291 425.233 338.501 425.683 338.877C426.133 339.252 426.386 339.76 426.386 340.291V342.686C426.386 345.338 425.122 347.882 422.871 349.757C420.621 351.633 417.568 352.686 414.386 352.686H161.126C157.944 352.686 154.891 351.633 152.641 349.757C150.39 347.882 149.126 345.338 149.126 342.686V340.291C149.126 339.76 149.379 339.252 149.829 338.877C150.279 338.501 150.889 338.291 151.526 338.291Z" stroke="#121330" stroke-width="6" stroke-linecap="round" stroke-linejoin="round"/>
<path d="M262.555 338.217H312.955C312.955 339.278 312.449 340.295 311.549 341.045C310.648 341.796 309.428 342.217 308.155 342.217H267.355C266.081 342.217 264.86 341.796 263.96 341.045C263.06 340.295 262.555 339.278 262.555 338.217Z" fill="#686B6D"/>
<path d="M262.555 338.217H312.955C312.955 339.278 312.449 340.295 311.549 341.045C310.648 341.796 309.428 342.217 308.155 342.217H267.355C266.081 342.217 264.86 341.796 263.96 341.045C263.06 340.295 262.555 339.278 262.555 338.217Z" stroke="#121330" stroke-width="4" stroke-linecap="round" stroke-linejoin="round"/>
<path d="M287.282 229.1C289.933 229.1 292.082 227.309 292.082 225.1C292.082 222.891 289.933 221.1 287.282 221.1C284.631 221.1 282.482 222.891 282.482 225.1C282.482 227.309 284.631 229.1 287.282 229.1Z" fill="#686B6D"/>
<path d="M287.282 229.1C289.933 229.1 292.082 227.309 292.082 225.1C292.082 222.891 289.933 221.1 287.282 221.1C284.631 221.1 282.482 222.891 282.482 225.1C282.482 227.309 284.631 229.1 287.282 229.1Z" stroke="#121330" stroke-width="4" stroke-linecap="round" stroke-linejoin="round"/>
<path d="M432.681 352.733C432.708 348.904 434.552 345.239 437.811 342.539C441.07 339.839 445.479 338.323 450.074 338.323C454.669 338.323 459.078 339.839 462.337 342.539C465.597 345.239 467.441 348.904 467.468 352.733H432.681Z" fill="#E5E5E5"/>
<path d="M450.075 348.155C452.563 348.175 455.026 347.75 457.3 346.911C459.575 346.071 461.607 344.835 463.26 343.287C461.629 341.703 459.606 340.433 457.33 339.561C455.054 338.69 452.579 338.239 450.074 338.239C447.57 338.239 445.095 338.69 442.819 339.561C440.543 340.433 438.52 341.703 436.889 343.287C438.542 344.836 440.574 346.071 442.849 346.911C445.124 347.751 447.587 348.175 450.075 348.155Z" fill="#CFD1D0"/>
<path d="M432.681 352.733C432.708 348.904 434.552 345.239 437.811 342.539C441.07 339.839 445.479 338.323 450.074 338.323C454.669 338.323 459.078 339.839 462.337 342.539C465.597 345.239 467.441 348.904 467.468 352.733H432.681Z" stroke="#121330" stroke-width="6" stroke-linecap="round" stroke-linejoin="round"/>
<g style="mix-blend-mode:multiply" opacity="0.14">
<path d="M316.199 250.181H225.009C222.355 250.181 220.204 251.974 220.204 254.185V313.177C220.204 315.388 222.355 317.181 225.009 317.181H316.199C318.853 317.181 321.004 315.388 321.004 313.177V254.185C321.004 251.974 318.853 250.181 316.199 250.181Z" fill="black"/>
</g>
<path d="M311.5 246.68H220.31C217.656 246.68 215.505 248.473 215.505 250.684V309.676C215.505 311.888 217.656 313.68 220.31 313.68H311.5C314.154 313.68 316.305 311.888 316.305 309.676V250.684C316.305 248.473 314.154 246.68 311.5 246.68Z" fill="#353F49"/>
<path d="M311.5 246.68H220.31C217.656 246.68 215.505 248.473 215.505 250.684V309.676C215.505 311.888 217.656 313.68 220.31 313.68H311.5C314.154 313.68 316.305 311.888 316.305 309.676V250.684C316.305 248.473 314.154 246.68 311.5 246.68Z" stroke="#121330" stroke-width="4" stroke-linecap="round" stroke-linejoin="round"/>
<path d="M220.309 246.68H311.5C312.774 246.68 313.997 247.102 314.897 247.853C315.798 248.604 316.305 249.622 316.305 250.684V256.68H215.505V250.684C215.505 249.623 216.011 248.604 216.912 247.853C217.813 247.102 219.035 246.681 220.309 246.68Z" fill="#EAEEEF"/>
<path d="M220.309 246.68H311.5C312.774 246.68 313.997 247.102 314.897 247.853C315.798 248.604 316.305 249.622 316.305 250.684V256.68H215.505V250.684C215.505 249.623 216.011 248.604 216.912 247.853C217.813 247.102 219.035 246.681 220.309 246.68Z" stroke="#121330" stroke-width="4" stroke-linecap="round" stroke-linejoin="round"/>
<path opacity="0.35" d="M224.104 253.243C225.14 253.243 225.979 252.543 225.979 251.68C225.979 250.817 225.14 250.118 224.104 250.118C223.069 250.118 222.229 250.817 222.229 251.68C222.229 252.543 223.069 253.243 224.104 253.243Z" fill="#121330"/>
<path opacity="0.35" d="M230.004 253.243C231.04 253.243 231.879 252.543 231.879 251.68C231.879 250.817 231.04 250.118 230.004 250.118C228.968 250.118 228.129 250.817 228.129 251.68C228.129 252.543 228.968 253.243 230.004 253.243Z" fill="#121330"/>
<path opacity="0.35" d="M235.604 253.243C236.64 253.243 237.479 252.543 237.479 251.68C237.479 250.817 236.64 250.118 235.604 250.118C234.569 250.118 233.729 250.817 233.729 251.68C233.729 252.543 234.569 253.243 235.604 253.243Z" fill="#121330"/>
<path d="M220.204 260.181H226.804" stroke="#46BB86" stroke-width="3" stroke-miterlimit="10"/>
<path d="M229.204 260.181H247.204" stroke="#46BB86" stroke-width="3" stroke-miterlimit="10"/>
<path d="M220.204 264.181H247.204" stroke="#389ABE" stroke-width="3" stroke-miterlimit="10"/>
<path d="M225.604 268.181H238.804" stroke="#E5C689" stroke-width="3" stroke-miterlimit="10"/>
<path d="M241.204 268.181H255.604" stroke="#F2F3F4" stroke-width="3" stroke-miterlimit="10"/>
<path d="M232.805 272.18H260.405" stroke="#F2F3F4" stroke-width="3" stroke-miterlimit="10"/>
<path d="M232.805 276.18H253.205" stroke="#FFA49F" stroke-width="3" stroke-miterlimit="10"/>
<path d="M225.604 280.181H255.604" stroke="#F2F3F4" stroke-width="3" stroke-miterlimit="10"/>
<path d="M220.204 283.68H236.404" stroke="#389ABE" stroke-width="3" stroke-miterlimit="10"/>
<g opacity="0.3">
<path opacity="0.3" d="M359.786 303.051C359.786 301.075 358.869 299.683 357.036 298.83C355.743 298.246 355.204 297.796 355.204 296.764V295.014C355.204 293.801 355.851 293.532 356.982 292.903C358.869 292.229 359.786 290.792 359.786 288.636V284.818C359.786 281.764 361.133 279.518 363.073 278.575C364.524 277.713 366.249 277.228 368.031 277.183H368.732C370.241 277.183 370.996 277.812 370.996 279.069V279.74C370.996 280.953 370.241 281.582 368.732 281.582C366.632 281.582 365.606 282.839 365.606 285.399V290.115C365.66 291.26 365.317 292.394 364.62 293.381C363.922 294.369 362.899 295.168 361.672 295.685L361.187 295.819V295.909C361.74 296.045 362.253 296.275 362.696 296.583C364.043 297.256 365.606 298.829 365.606 301.568V306.823C365.606 309.338 366.63 310.596 368.732 310.596C370.241 310.596 370.996 311.225 370.996 312.482V313.156C370.996 314.414 370.241 315.043 368.732 315.043H368.031C366.249 314.998 364.524 314.513 363.073 313.65C361.133 312.707 359.786 310.417 359.786 307.407V303.051Z" fill="white"/>
</g>
<path d="M89.354 327.132L90.554 326.159C95.1074 329.235 100.791 330.913 106.653 330.913C112.515 330.913 118.198 329.235 122.752 326.159L124.252 327.381" stroke="#121330" stroke-width="3" stroke-linecap="round" stroke-linejoin="round"/>
<path d="M102.975 322.09C102.975 321.522 102.704 320.978 102.222 320.576C101.74 320.175 101.087 319.949 100.406 319.949C99.725 319.949 99.0716 320.175 98.5898 320.576C98.108 320.978 97.8374 321.522 97.8374 322.09V324.05" stroke="#121330" stroke-width="3" stroke-linecap="round" stroke-linejoin="round"/>
<path d="M110.633 322.09C110.633 321.522 110.903 320.978 111.385 320.576C111.866 320.175 112.52 319.949 113.201 319.949C113.882 319.949 114.536 320.175 115.018 320.576C115.499 320.978 115.77 321.522 115.77 322.09V324.05" stroke="#121330" stroke-width="3" stroke-linecap="round" stroke-linejoin="round"/>
<path d="M545.08 347.25L539.137 347.939L542.936 352.547L545.08 347.25Z" fill="#E5E5E5"/>
<path d="M545.08 347.25L539.137 347.939L542.936 352.547L545.08 347.25Z" stroke="#121330" stroke-width="4" stroke-linecap="round" stroke-linejoin="round"/>
<path d="M528.385 287.733H481.705C478.689 287.733 476.245 289.77 476.245 292.283V348.183C476.245 350.696 478.689 352.733 481.705 352.733H528.385C531.4 352.733 533.845 350.696 533.845 348.183V292.283C533.845 289.77 531.4 287.733 528.385 287.733Z" fill="#E5E5E5"/>
<path d="M528.385 287.733H527.693C527.793 288.077 527.844 288.429 527.845 288.783V344.683C527.845 345.889 527.27 347.047 526.246 347.9C525.222 348.753 523.833 349.233 522.385 349.233H476.4C476.684 350.229 477.362 351.116 478.325 351.751C479.288 352.386 480.48 352.732 481.709 352.733H528.389C529.836 352.733 531.225 352.253 532.25 351.4C533.273 350.547 533.849 349.389 533.849 348.183V292.283C533.849 291.685 533.707 291.093 533.433 290.541C533.158 289.989 532.755 289.487 532.248 289.064C531.741 288.642 531.138 288.307 530.475 288.078C529.812 287.85 529.103 287.732 528.385 287.733Z" fill="#CFD1D0"/>
<path d="M528.385 287.733H481.705C478.689 287.733 476.245 289.77 476.245 292.283V348.183C476.245 350.696 478.689 352.733 481.705 352.733H528.385C531.4 352.733 533.845 350.696 533.845 348.183V292.283C533.845 289.77 531.4 287.733 528.385 287.733Z" stroke="#121330" stroke-width="6" stroke-linecap="round" stroke-linejoin="round"/>
<path d="M514.645 283.961H509.845V282.461C509.845 281.4 509.339 280.382 508.439 279.632C507.539 278.882 506.318 278.461 505.045 278.461C503.771 278.461 502.551 278.882 501.65 279.632C500.75 280.382 500.245 281.4 500.245 282.461V283.961H495.445C494.171 283.961 492.951 284.382 492.05 285.132C491.15 285.882 490.645 286.9 490.645 287.961C490.645 289.022 491.15 290.039 492.05 290.789C492.951 291.539 494.171 291.961 495.445 291.961H514.645C515.918 291.961 517.139 291.539 518.039 290.789C518.939 290.039 519.445 289.022 519.445 287.961C519.445 286.9 518.939 285.882 518.039 285.132C517.139 284.382 515.918 283.961 514.645 283.961Z" fill="#F7B66F"/>
<path d="M516.875 284.421C517.07 285.013 517.097 285.635 516.956 286.239C516.815 286.842 516.508 287.409 516.059 287.897C515.611 288.385 515.033 288.78 514.372 289.051C513.71 289.323 512.982 289.463 512.245 289.461H493.045C492.268 289.461 491.502 289.303 490.814 289.001C491.089 289.85 491.691 290.6 492.528 291.135C493.365 291.669 494.39 291.96 495.445 291.961H514.645C515.717 291.96 516.758 291.66 517.602 291.108C518.446 290.557 519.044 289.786 519.301 288.918C519.557 288.05 519.458 287.136 519.019 286.321C518.579 285.506 517.824 284.837 516.875 284.421Z" fill="#EDA762"/>
<path d="M507.445 279.961V281.461H509.687C509.52 280.92 509.219 280.415 508.804 279.978C508.388 279.541 507.867 279.18 507.275 278.921C507.387 279.26 507.444 279.609 507.445 279.961Z" fill="#EDA762"/>
<path d="M514.645 283.961H509.845V282.461C509.845 281.4 509.339 280.382 508.439 279.632C507.539 278.882 506.318 278.461 505.045 278.461C503.771 278.461 502.551 278.882 501.65 279.632C500.75 280.382 500.245 281.4 500.245 282.461V283.961H495.445C494.171 283.961 492.951 284.382 492.05 285.132C491.15 285.882 490.645 286.9 490.645 287.961C490.645 289.022 491.15 290.039 492.05 290.789C492.951 291.539 494.171 291.961 495.445 291.961H514.645C515.918 291.961 517.139 291.539 518.039 290.789C518.939 290.039 519.445 289.022 519.445 287.961C519.445 286.9 518.939 285.882 518.039 285.132C517.139 284.382 515.918 283.961 514.645 283.961Z" stroke="#121330" stroke-width="6" stroke-linecap="round" stroke-linejoin="round"/>
<path d="M505.045 306.461C507.806 306.461 510.044 304.595 510.044 302.294C510.044 299.993 507.806 298.128 505.045 298.128C502.284 298.128 500.045 299.993 500.045 302.294C500.045 304.595 502.284 306.461 505.045 306.461Z" fill="#8EAFBF"/>
<path d="M505.045 306.461C507.806 306.461 510.044 304.595 510.044 302.294C510.044 299.993 507.806 298.128 505.045 298.128C502.284 298.128 500.045 299.993 500.045 302.294C500.045 304.595 502.284 306.461 505.045 306.461Z" stroke="#121330" stroke-width="6" stroke-linecap="round" stroke-linejoin="round"/>
<path d="M485.979 315.128H497.979" stroke="#121330" stroke-width="6" stroke-linecap="round" stroke-linejoin="round"/>
<path d="M485.979 328.711H497.979" stroke="#121330" stroke-width="6" stroke-linecap="round" stroke-linejoin="round"/>
<path d="M485.979 342.294H497.979" stroke="#121330" stroke-width="6" stroke-linecap="round" stroke-linejoin="round"/>
<path d="M505.907 314.593L509.035 318.06L518.398 312.195" stroke="#2DFFC9" stroke-width="4" stroke-linecap="round" stroke-linejoin="round"/>
<path d="M505.907 328.176L509.035 331.644L518.398 325.778" stroke="#2DFFC9" stroke-width="4" stroke-linecap="round" stroke-linejoin="round"/>
<path d="M539.787 315.555L533.844 316.244L539.136 347.939L545.079 347.25L539.787 315.555Z" fill="#3BBC88"/>
<path d="M539.787 315.555L533.844 316.244L539.136 347.939L545.079 347.25L539.787 315.555Z" stroke="#121330" stroke-width="4" stroke-linecap="round" stroke-linejoin="round"/>
<path d="M537.591 310.521L534.027 310.935L534.855 315.885L538.419 315.471L537.591 310.521Z" fill="#E5E5E5"/>
<path d="M537.591 310.521L534.027 310.935L534.855 315.885L538.419 315.471L537.591 310.521Z" stroke="#121330" stroke-width="4" stroke-linecap="round" stroke-linejoin="round"/>
<path d="M545.16 328.062C544.488 327.14 544.012 326.128 543.752 325.07C543.089 322.354 544.726 320.801 543.841 319.255C543.488 318.638 543.317 317.796 540.667 317.477" stroke="#121330" stroke-width="4" stroke-linecap="round" stroke-linejoin="round"/>
<path d="M552.45 352.732H567.9" stroke="#121330" stroke-width="6" stroke-linecap="round" stroke-linejoin="round"/>
<path d="M140.6 352.732H545.7" stroke="#121330" stroke-width="6" stroke-linecap="round" stroke-linejoin="round"/>
<path d="M68.8501 352.732H133.57" stroke="#121330" stroke-width="6" stroke-linecap="round" stroke-linejoin="round"/>
<path d="M48.1997 352.732H62.0999" stroke="#121330" stroke-width="6" stroke-linecap="round" stroke-linejoin="round"/>
<path d="M303.004 114.081C310.957 114.081 317.405 108.709 317.405 102.081C317.405 95.4536 310.957 90.0811 303.004 90.0811C295.051 90.0811 288.604 95.4536 288.604 102.081C288.604 108.709 295.051 114.081 303.004 114.081Z" fill="white"/>
<path d="M261.667 104.79C260.935 104.788 260.211 104.656 259.544 104.404C258.877 104.152 258.282 103.785 257.798 103.327C257.314 102.869 256.951 102.33 256.735 101.747C256.519 101.164 256.454 100.549 256.544 99.9438C259.343 80.1398 279.076 64.7898 303.004 64.7898C326.932 64.7898 346.666 80.1398 349.464 99.9438C349.554 100.55 349.489 101.164 349.273 101.748C349.057 102.331 348.694 102.869 348.21 103.327C347.726 103.785 347.131 104.152 346.464 104.405C345.797 104.657 345.073 104.788 344.34 104.79H261.667Z" fill="#F7B66F"/>
<path d="M310.204 65.2618C310.05 65.2413 309.893 65.2268 309.738 65.2078C309.192 65.1408 308.644 65.0803 308.092 65.0293C307.842 65.0058 307.59 64.9868 307.338 64.9668C306.881 64.9308 306.423 64.8983 305.965 64.8763C305.698 64.8633 305.434 64.8468 305.167 64.8363C304.45 64.8083 303.727 64.7898 303.007 64.7898C302.287 64.7898 301.567 64.8078 300.854 64.8363C300.525 64.8493 300.198 64.8708 299.87 64.8893C299.516 64.9098 299.162 64.9308 298.81 64.9583C298.378 64.9908 297.948 65.0298 297.52 65.0728C297.31 65.0938 297.1 65.1173 296.893 65.1408C275.279 67.5523 258.297 82.5588 256.386 101.265C256.339 101.712 256.403 102.163 256.576 102.588C256.748 103.013 257.025 103.404 257.388 103.735C257.752 104.067 258.193 104.332 258.686 104.513C259.179 104.695 259.711 104.789 260.25 104.79H345.761C346.295 104.791 346.824 104.7 347.314 104.523C347.803 104.346 348.244 104.086 348.607 103.76C348.971 103.433 349.249 103.048 349.426 102.628C349.602 102.208 349.671 101.762 349.63 101.318C347.778 82.8998 331.32 68.0488 310.204 65.2618ZM272.419 93.7543C274.459 87.5738 278.268 81.8978 283.518 77.2128C288.768 72.5278 295.303 68.9738 302.563 66.8543C309.829 68.9693 316.371 72.5218 321.627 77.2073C326.883 81.8928 330.696 87.5708 332.739 93.7543C332.998 94.5533 333.033 95.3918 332.84 96.2038C332.647 97.0158 332.232 97.7803 331.627 98.4368C331.021 99.0933 330.243 99.6248 329.351 99.9893C328.459 100.354 327.478 100.542 326.485 100.54H278.674C277.68 100.543 276.699 100.354 275.807 99.9898C274.915 99.6248 274.137 99.0938 273.531 98.4373C272.926 97.7803 272.511 97.0163 272.317 96.2043C272.125 95.3918 272.159 94.5533 272.419 93.7543Z" fill="#EFAA65"/>
<path d="M261.707 104.79C260.969 104.788 260.24 104.656 259.568 104.402C258.897 104.148 258.297 103.779 257.81 103.317C257.322 102.856 256.957 102.314 256.739 101.727C256.522 101.139 256.456 100.52 256.547 99.9103C259.365 80.1203 279.09 64.7898 303.004 64.7898C326.918 64.7898 346.643 80.1203 349.459 99.9103C349.55 100.52 349.484 101.139 349.267 101.727C349.049 102.314 348.685 102.856 348.197 103.318C347.709 103.779 347.11 104.149 346.438 104.402C345.766 104.656 345.037 104.788 344.299 104.79H261.707Z" stroke="#121330" stroke-width="6" stroke-linecap="round" stroke-linejoin="round"/>
<path d="M303.004 0.290039V64.79" stroke="#121330" stroke-width="6" stroke-linejoin="round"/>
</g>
</g>
<defs>
<linearGradient id="paint0_linear_471_8543" x1="303.004" y1="97.6519" x2="303.004" y2="359.892" gradientUnits="userSpaceOnUse">
<stop stop-color="white"/>
<stop offset="0.093" stop-color="white" stop-opacity="0.864"/>
<stop offset="0.284" stop-color="white" stop-opacity="0.605"/>
<stop offset="0.466" stop-color="white" stop-opacity="0.389"/>
<stop offset="0.633" stop-color="white" stop-opacity="0.221"/>
<stop offset="0.784" stop-color="white" stop-opacity="0.1"/>
<stop offset="0.911" stop-color="white" stop-opacity="0.026"/>
<stop offset="1" stop-color="white" stop-opacity="0"/>
</linearGradient>
<clipPath id="clip0_471_8543">
<rect width="600" height="500" fill="white"/>
</clipPath>
</defs>
</svg>
