<svg width="600" height="500" viewBox="0 0 600 500" fill="none" xmlns="http://www.w3.org/2000/svg">
<g clip-path="url(#clip0_469_8314)">
<g clip-path="url(#clip1_469_8314)">
<mask id="mask0_469_8314" style="mask-type:luminance" maskUnits="userSpaceOnUse" x="0" y="1" width="600" height="500">
<path d="M0 1H600V501H0V1Z" fill="white"/>
</mask>
<g mask="url(#mask0_469_8314)">
<path d="M303.92 149.052C296.116 153.387 288.879 158.612 282.536 164.763C296.405 161.08 311.388 161.079 325.256 164.721C318.961 158.611 311.725 153.387 303.92 149.052Z" fill="#00C297" stroke="#00C297"/>
<path d="M326.963 165.71C312.06 161.415 295.721 161.415 280.818 165.76C287.581 158.918 295.422 153.175 303.921 148.48C312.419 153.175 320.26 158.918 326.963 165.71Z" fill="#00C297" stroke="#00C297" stroke-width="6" stroke-miterlimit="10" stroke-linecap="round" stroke-linejoin="round"/>
<path d="M278.963 312.087C278.963 324.508 281.297 336.395 285.606 348.482C285.726 348.883 285.905 349.283 286.085 349.751C290.394 361.237 296.559 372.723 304.04 379.468C311.761 372.523 318.045 360.569 322.414 348.749C322.474 348.682 322.474 348.615 322.534 348.482C326.843 336.395 329.177 324.508 329.177 312.087C329.177 308.28 328.938 304.541 328.519 300.668C327.082 287.712 319.182 272.086 309.307 270.416C309.187 270.416 309.068 270.349 308.948 270.349C305.836 269.949 302.664 269.949 299.551 270.283C299.432 270.283 299.252 270.283 299.132 270.349C289.077 271.752 280.998 287.579 279.561 300.668C279.202 304.541 278.963 308.28 278.963 312.087Z" fill="#F4A045"/>
<path d="M278.963 312.087C278.963 324.508 281.297 336.395 285.606 348.482C285.726 348.883 285.905 349.283 286.085 349.751C290.394 361.237 296.559 372.723 304.04 379.468C311.761 372.523 318.045 360.569 322.414 348.749C322.474 348.682 322.474 348.615 322.534 348.482C326.843 336.395 329.177 324.508 329.177 312.087C329.177 308.28 328.938 304.541 328.519 300.668C327.082 287.712 319.182 272.086 309.307 270.416C309.187 270.416 309.068 270.349 308.948 270.349C305.836 269.949 302.664 269.949 299.551 270.283C299.432 270.283 299.252 270.283 299.132 270.349C289.077 271.752 280.998 287.579 279.561 300.668C279.202 304.541 278.963 308.28 278.963 312.087Z" stroke="#121330" stroke-width="6" stroke-miterlimit="10" stroke-linecap="round" stroke-linejoin="round"/>
<path d="M-1.59144e-05 500.272C9.47629 508.62 -10.9726 443.039 17.9551 412.141C25.1685 404.436 36.409 397.637 44.8878 396.429C68.828 396.429 89.8953 410.186 102.105 430.954C108.449 427.615 115.511 425.812 122.993 425.812C126.284 425.812 129.456 426.146 132.509 426.881C132.509 426.547 132.509 426.213 132.509 425.812C132.509 408.784 143.282 394.559 157.586 391.154C163.092 370.118 180.449 354.692 201.097 354.692C218.274 354.692 233.237 365.377 240.898 381.07C246.225 375.527 253.347 372.055 261.187 372.055C265.676 372.055 269.925 373.19 273.756 375.127C278.424 367.046 282.554 358.565 286.085 349.617C294.823 327.579 299.671 303.004 299.671 277.227C299.671 274.89 299.611 272.619 299.551 270.282C298.534 240.431 291.052 212.451 278.544 188.009H330.314C317.806 212.451 310.324 240.498 309.307 270.349C309.247 272.619 309.187 274.89 309.187 277.16C309.187 302.537 313.915 326.778 322.414 348.682C327.98 362.973 335.102 376.329 343.661 388.416C350.903 378.399 361.975 372.055 374.364 372.055C386.813 372.055 397.885 378.465 405.127 388.482C410.933 384.676 417.636 382.472 424.878 382.472C436.489 382.472 446.963 388.215 454.085 397.231C464.619 379.801 482.454 368.315 502.683 368.315C535.003 368.315 561.217 397.565 561.217 433.626C561.217 433.826 561.217 434.026 561.217 434.227C583.122 446.648 598.504 471.356 600 500.272H458.753H169.137H-1.59144e-05Z" fill="white"/>
<path d="M306.793 270.216C312.419 271.017 316.908 279.832 317.746 287.111C317.985 289.248 318.105 291.318 318.105 293.455C318.105 300.4 316.788 307.011 314.394 313.756C312 320.367 308.409 327.112 304.1 330.985C299.731 327.112 296.2 320.367 293.806 313.756C291.412 307.011 290.095 300.4 290.095 293.455C290.095 291.318 290.215 289.248 290.454 287.111C291.292 279.765 295.781 271.017 301.407 270.216C303.142 270.015 304.998 270.015 306.793 270.216Z" fill="#E36535"/>
<path d="M306.793 270.216C312.419 271.017 316.908 279.832 317.746 287.111C317.985 289.248 318.105 291.318 318.105 293.455C318.105 300.4 316.788 307.011 314.394 313.756C312 320.367 308.409 327.112 304.1 330.985C299.731 327.112 296.2 320.367 293.806 313.756C291.412 307.011 290.095 300.4 290.095 293.455C290.095 291.318 290.215 289.248 290.454 287.111C291.292 279.765 295.781 271.017 301.407 270.216C303.142 270.015 304.998 270.015 306.793 270.216Z" stroke="#121330" stroke-width="6" stroke-miterlimit="10" stroke-linecap="round" stroke-linejoin="round"/>
<path d="M376.28 168.243L395.791 176.724V135.388L335.881 83.2324V161.432L350.365 169.913C358.085 165.372 367.482 164.437 376.28 168.243Z" fill="#00C297"/>
<path d="M402.134 187.543C408.239 177.66 411.77 165.973 411.77 153.485C411.77 137.659 406.204 123.167 396.927 112.015C387.65 123.167 382.024 137.659 381.965 153.485C381.965 166.04 385.496 177.66 391.541 187.543H402.134Z" fill="#00C297"/>
<path opacity="0.72" d="M395.791 176.724L376.4 168.31C376.16 162.567 376.519 156.69 377.477 150.813C378.913 141.998 381.606 133.718 385.317 126.238L395.791 135.387V176.724Z" fill="#2DFFC9"/>
<path opacity="0.23" d="M393.277 146.94L335.821 96.9891V83.2324L395.791 135.321V176.724L393.277 175.656V146.94Z" fill="#F4A15D"/>
<path opacity="0.72" d="M359.701 166.373C356.41 166.974 353.297 168.176 350.365 169.913L335.881 161.432V83.2324L361.138 105.203C362.395 113.684 362.993 122.566 362.993 131.715C362.933 143.802 361.796 155.488 359.701 166.373Z" fill="#2DFFC9"/>
<path d="M376.28 168.243L395.791 176.724V135.388L335.881 83.2324V161.432L350.365 169.913C358.085 165.372 367.482 164.437 376.28 168.243Z" stroke="#121330" stroke-width="6" stroke-miterlimit="10" stroke-linecap="round" stroke-linejoin="round"/>
<path d="M402.134 187.543C408.239 177.66 411.77 165.973 411.77 153.485C411.77 137.659 406.204 123.167 396.927 112.015C387.65 123.167 382.024 137.659 381.965 153.485C381.965 166.04 385.496 177.66 391.541 187.543H402.134Z" fill="#00C297"/>
<path opacity="0.23" d="M397.825 112.015C397.107 112.883 396.389 113.818 395.731 114.753C401.955 125.438 405.546 137.993 405.606 151.348C405.606 164.571 403.811 176.925 397.706 187.61H403.212C409.257 177.727 412.788 166.04 412.788 153.552C412.728 137.659 407.102 123.167 397.825 112.015Z" fill="#F4A15D"/>
<path opacity="0.32" d="M397.825 112.015C397.586 112.282 397.347 112.616 397.107 112.95C404.11 124.503 408.12 138.059 408.18 152.617C408.18 165.239 405.127 177.126 399.801 187.61H403.212C409.257 177.727 412.788 166.04 412.788 153.552C412.728 137.659 407.102 123.167 397.825 112.015Z" fill="#F4A15D"/>
<path opacity="0.37" d="M381.966 153.485C381.966 137.659 387.592 123.234 396.929 112.015C397.647 112.883 398.365 113.818 399.023 114.753C392.799 125.438 389.208 137.993 389.148 151.348C389.148 164.571 392.619 176.925 398.724 187.61H391.542C385.497 177.66 381.966 165.973 381.966 153.485Z" fill="#2DFFC9"/>
<path opacity="0.72" d="M381.966 153.485C381.966 137.659 387.592 123.234 396.928 112.015C397.168 112.282 397.407 112.616 397.646 112.95C390.644 124.503 386.634 138.059 386.574 152.617C386.574 165.239 389.627 177.126 394.953 187.61H391.542C385.497 177.66 381.966 165.973 381.966 153.485Z" fill="#2DFFC9"/>
<path opacity="0.37" d="M396.929 112.015C397.647 112.883 398.365 113.818 399.023 114.753C392.799 125.438 389.208 137.993 389.148 151.348C389.148 164.571 392.619 176.925 398.724 187.61H391.542C385.497 177.727 381.966 166.04 381.966 153.552C382.026 137.659 387.652 123.167 396.929 112.015Z" fill="#2DFFC9"/>
<path opacity="0.72" d="M396.928 112.015C397.168 112.282 397.407 112.616 397.646 112.95C390.644 124.503 386.634 138.059 386.574 152.617C386.574 165.239 389.627 177.126 394.953 187.61H391.542C385.497 177.727 381.966 166.04 381.966 153.552C382.026 137.659 387.651 123.167 396.928 112.015Z" fill="#2DFFC9"/>
<path d="M390.104 124.035C392.319 119.695 394.952 115.688 398.005 111.948C401.057 115.621 403.69 119.695 405.905 124.035H390.104Z" fill="#121330"/>
<path d="M402.134 187.543C408.239 177.66 411.77 165.973 411.77 153.485C411.77 137.659 406.204 123.167 396.927 112.015C387.65 123.167 382.024 137.659 381.965 153.485C381.965 166.04 385.496 177.66 391.541 187.543H402.134Z" stroke="#121330" stroke-width="6" stroke-miterlimit="10" stroke-linecap="round" stroke-linejoin="round"/>
<path d="M324.389 239.097C324.389 239.097 331.631 240.833 342.045 252.453C345.816 256.66 351.741 265.208 356.11 271.685C357.905 274.357 361.736 273.021 361.796 269.682L363.232 198.561C363.531 196.558 363.053 194.488 361.915 192.952L346.235 171.182L324.389 239.097Z" fill="#00C297"/>
<path opacity="0.32" d="M361.915 271.084C358.504 270.55 355.93 267.278 355.871 263.405L355.212 197.293C355.511 195.289 355.033 193.219 353.895 191.683L344.08 177.993L346.294 171.182L361.915 192.885C363.053 194.488 363.531 196.491 363.232 198.495L361.915 271.084Z" fill="#F4A15D"/>
<path opacity="0.72" d="M324.389 239.097L346.235 171.182L354.913 183.269C350.245 203.303 342.883 223.671 332.948 243.972C327.681 239.898 324.389 239.097 324.389 239.097Z" fill="#2DFFC9"/>
<path d="M324.389 239.097C324.389 239.097 331.631 240.833 342.045 252.453C345.816 256.66 351.741 265.208 356.11 271.685C357.905 274.357 361.736 273.021 361.796 269.682L363.232 198.561C363.531 196.558 363.053 194.488 361.915 192.952L346.235 171.182L324.389 239.097Z" stroke="#121330" stroke-width="6" stroke-miterlimit="10" stroke-linecap="round" stroke-linejoin="round"/>
<path d="M407.82 178.728H388.13" stroke="#121330" stroke-width="4" stroke-miterlimit="10" stroke-linecap="round" stroke-linejoin="round"/>
<path d="M402.134 187.543C408.239 177.66 411.77 165.973 411.77 153.485C411.77 137.659 406.204 123.167 396.927 112.015C387.65 123.167 382.024 137.659 381.965 153.485C381.965 166.04 385.496 177.66 391.541 187.543H402.134Z" fill="#00C297"/>
<path d="M402.134 187.543C408.239 177.66 411.77 165.973 411.77 153.485C411.77 137.659 406.204 123.167 396.927 112.015C387.65 123.167 382.024 137.659 381.965 153.485C381.965 166.04 385.496 177.66 391.541 187.543H402.134Z" fill="#00C297"/>
<path opacity="0.23" d="M397.825 112.015C397.107 112.883 396.389 113.818 395.731 114.753C401.955 125.438 405.546 137.993 405.606 151.348C405.606 164.571 403.811 176.925 397.706 187.61H403.212C409.257 177.727 412.788 166.04 412.788 153.552C412.728 137.659 407.102 123.167 397.825 112.015Z" fill="#2DFFC9"/>
<path opacity="0.32" d="M397.825 112.015C397.586 112.282 397.347 112.616 397.107 112.95C404.11 124.503 408.12 138.059 408.18 152.617C408.18 165.239 405.127 177.126 399.801 187.61H403.212C409.257 177.727 412.788 166.04 412.788 153.552C412.728 137.659 407.102 123.167 397.825 112.015Z" fill="#F4A15D"/>
<path opacity="0.37" d="M381.966 153.485C381.966 137.659 387.592 123.234 396.929 112.015C397.647 112.883 398.365 113.818 399.023 114.753C392.799 125.438 389.208 137.993 389.148 151.348C389.148 164.571 392.619 176.925 398.724 187.61H391.542C385.497 177.66 381.966 165.973 381.966 153.485Z" fill="#2DFFC9"/>
<path opacity="0.72" d="M381.966 153.485C381.966 137.659 387.592 123.234 396.928 112.015C397.168 112.282 397.407 112.616 397.646 112.95C390.644 124.503 386.634 138.059 386.574 152.617C386.574 165.239 389.627 177.126 394.953 187.61H391.542C385.497 177.66 381.966 165.973 381.966 153.485Z" fill="#2DFFC9"/>
<path opacity="0.37" d="M396.929 112.015C397.647 112.883 398.365 113.818 399.023 114.753C392.799 125.438 389.208 137.993 389.148 151.348C389.148 164.571 392.619 176.925 398.724 187.61H391.542C385.497 177.727 381.966 166.04 381.966 153.552C382.026 137.659 387.652 123.167 396.929 112.015Z" fill="#2DFFC9"/>
<path opacity="0.72" d="M396.928 112.015C397.168 112.282 397.407 112.616 397.646 112.95C390.644 124.503 386.634 138.059 386.574 152.617C386.574 165.239 389.627 177.126 394.953 187.61H391.542C385.497 177.727 381.966 166.04 381.966 153.552C382.026 137.659 387.651 123.167 396.928 112.015Z" fill="#2DFFC9"/>
<path d="M389.027 124.035C391.241 119.695 393.875 115.688 396.927 111.948C399.979 115.621 402.613 119.695 404.827 124.035H389.027Z" fill="#121330"/>
<path d="M402.134 187.543C408.239 177.66 411.77 165.973 411.77 153.485C411.77 137.659 406.204 123.167 396.927 112.015C387.65 123.167 382.024 137.659 381.965 153.485C381.965 166.04 385.496 177.66 391.541 187.543H402.134Z" stroke="#121330" stroke-width="6" stroke-miterlimit="10" stroke-linecap="round" stroke-linejoin="round"/>
<path d="M407.82 178.728H388.13" stroke="#121330" stroke-width="4" stroke-miterlimit="10" stroke-linecap="round" stroke-linejoin="round"/>
<path d="M235.331 168.243L215.82 176.724V135.388L275.73 83.2324V161.432L261.247 169.913C253.526 165.372 244.129 164.437 235.331 168.243Z" fill="#00C297"/>
<path opacity="0.72" d="M215.821 176.724L235.212 168.31C235.452 162.567 235.093 156.69 234.135 150.813C232.699 141.998 230.005 133.718 226.295 126.238L215.821 135.387V176.724Z" fill="#2DFFC9"/>
<path opacity="0.23" d="M218.274 146.94L275.73 96.9891V83.2324L215.82 135.321V176.724L218.274 175.656V146.94Z" fill="#2DFFC9"/>
<path opacity="0.72" d="M251.91 166.373C255.202 166.974 258.314 168.176 261.247 169.913L275.73 161.432V83.2324L250.474 105.203C249.217 113.684 248.618 122.566 248.618 131.715C248.618 143.802 249.755 155.488 251.91 166.373Z" fill="#2DFFC9"/>
<path d="M235.331 168.243L215.82 176.724V135.388L275.73 83.2324V161.432L261.247 169.913C253.526 165.372 244.129 164.437 235.331 168.243Z" stroke="#121330" stroke-width="6" stroke-miterlimit="10" stroke-linecap="round" stroke-linejoin="round"/>
<path d="M287.163 239.097C287.163 239.097 279.921 240.833 269.507 252.453C265.736 256.66 259.811 265.208 255.442 271.685C253.646 274.357 249.816 273.021 249.756 269.682L248.32 198.561C248.02 196.558 248.499 194.488 249.636 192.952L265.317 171.182L287.163 239.097Z" fill="#00C297"/>
<path opacity="0.72" d="M249.695 271.084C253.107 270.55 255.68 267.278 255.74 263.405L256.399 197.293C256.099 195.289 256.578 193.219 257.715 191.683L267.531 177.993L265.316 171.182L249.636 192.952C248.498 194.555 248.02 196.558 248.319 198.561L249.695 271.084Z" fill="#2DFFC9"/>
<path opacity="0.72" d="M287.163 239.097L265.317 171.182L256.639 183.269C261.307 203.303 268.669 223.671 278.604 243.972C283.871 239.898 287.163 239.097 287.163 239.097Z" fill="#2DFFC9"/>
<path d="M287.163 239.097C287.163 239.097 279.921 240.833 269.507 252.453C265.736 256.66 259.811 265.208 255.442 271.685C253.646 274.357 249.816 273.021 249.756 269.682L248.32 198.561C248.02 196.558 248.499 194.488 249.636 192.952L265.317 171.182L287.163 239.097Z" stroke="#121330" stroke-width="6" stroke-miterlimit="10" stroke-linecap="round" stroke-linejoin="round"/>
<path d="M287.462 277.295C286.804 269.348 287.761 261.869 299.732 242.169C301.707 239.03 306.435 239.03 308.41 242.169C320.38 261.936 321.337 269.415 320.679 277.295C320.559 278.297 318.943 279.432 317.926 279.031C311.043 275.091 297.098 275.091 290.215 279.031C289.198 279.432 287.582 278.364 287.462 277.295Z" fill="#4E8280"/>
<g opacity="0.32">
<g opacity="0.32">
<g opacity="0.32">
<path opacity="0.32" d="M314.634 277.295C315.293 269.348 314.335 261.869 302.365 242.169C302.006 241.568 301.527 241.1 301.048 240.766C303.323 239.097 306.794 239.564 308.41 242.169C320.38 261.936 321.337 269.415 320.679 277.295C320.559 278.297 318.943 279.432 317.926 279.031C316.909 278.497 315.771 277.963 314.574 277.562C314.574 277.495 314.634 277.428 314.634 277.295Z" fill="#F4A15D"/>
</g>
<g opacity="0.32">
<path opacity="0.32" d="M301.047 276.226C296.918 276.56 293.027 277.495 290.214 279.031C289.317 279.431 287.88 278.496 287.521 277.562C291.471 276.293 296.379 275.825 301.047 276.226Z" fill="#F4A15D"/>
</g>
</g>
</g>
<path d="M306.314 242.169C306.494 241.902 306.673 241.702 306.853 241.501C304.639 239.03 300.509 239.297 298.713 242.169C286.743 261.936 285.786 269.415 286.444 277.295C286.564 278.296 288.18 279.432 289.197 279.032C290.574 278.23 292.25 277.629 294.045 277.162C293.387 269.282 294.404 261.802 306.314 242.169Z" fill="#37605D"/>
<path d="M287.462 277.295C286.804 269.348 287.761 261.869 299.732 242.169C301.707 239.03 306.435 239.03 308.41 242.169C320.38 261.936 321.337 269.415 320.679 277.295C320.559 278.297 318.943 279.432 317.926 279.031C311.043 275.091 297.098 275.091 290.215 279.031C289.198 279.432 287.582 278.364 287.462 277.295Z" stroke="#121330" stroke-width="6" stroke-miterlimit="10" stroke-linecap="round" stroke-linejoin="round"/>
<path d="M290.574 253.321C262.384 201.834 252.15 151.281 258.494 109.143C264 72.548 281.716 46.1699 304.1 29.6753C326.484 46.1699 344.2 72.548 349.706 109.143C356.05 151.281 345.756 201.834 317.626 253.321H290.574Z" fill="#00C297"/>
<path opacity="0.23" d="M328.28 109.877C324.689 76.7542 315.352 50.443 302.783 30.7429C303.202 30.409 303.681 30.0751 304.1 29.7412C326.484 46.2358 344.2 72.6139 349.706 109.209C356.05 151.347 345.756 201.9 317.626 253.387H311.941C327.562 201.9 332.828 152.416 328.28 109.877Z" fill="#2DFFC9"/>
<path opacity="0.37" d="M258.494 109.143C263.941 72.8143 281.417 46.5698 303.622 30.0752C299.492 37.4878 294.225 48.1726 289.796 61.7289C281.716 86.3707 280.819 106.672 280.34 119.427C278.185 176.791 297.876 240.231 302.006 253.387H290.574C262.385 201.833 252.15 151.281 258.494 109.143Z" fill="#2DFFC9"/>
<path opacity="0.72" d="M258.494 109.143C264.001 72.548 281.716 46.1699 304.1 29.6753C304.699 30.076 305.237 30.5434 305.836 30.9441C297.337 38.3567 290.873 46.3035 285.966 53.9164C241.916 122.299 284.17 224.673 289.976 238.229C290.215 229.013 291.292 217.594 294.345 204.839C296.32 196.692 298.714 189.546 301.108 183.469C302.006 206.108 302.903 228.746 303.801 251.385H296.38C296.559 252.052 296.739 252.653 296.978 253.321H290.694C262.385 201.834 252.15 151.281 258.494 109.143Z" fill="#2DFFC9"/>
<path opacity="0.32" d="M342.165 120.762C341.327 110.078 338.215 75.3521 319.003 46.8371C315.95 42.3628 311.402 36.2859 311.761 35.952C312.299 35.4177 322.833 46.0357 330.314 57.3215C339.711 71.4121 346.594 88.7081 349.646 109.143C355.99 151.281 345.696 201.833 317.566 253.32H315.112C322.833 236.158 327.92 220.665 331.392 208.444C333.666 200.23 337.676 185.672 340.19 166.173C341.806 153.084 343.601 139.06 342.165 120.762Z" fill="#2DFFC9"/>
<path opacity="0.72" d="M300.869 134.518C291.878 134.518 284.589 126.386 284.589 116.354C284.589 106.322 291.878 98.1899 300.869 98.1899C309.859 98.1899 317.148 106.322 317.148 116.354C317.148 126.386 309.859 134.518 300.869 134.518Z" fill="#2DFFC9" stroke="#2DFFC9" stroke-width="6" stroke-miterlimit="10" stroke-linecap="round" stroke-linejoin="round"/>
<path d="M290.574 253.321C262.384 201.834 252.15 151.281 258.494 109.143C264 72.548 281.716 46.1699 304.1 29.6753C326.484 46.1699 344.2 72.548 349.706 109.143C356.05 151.281 345.756 201.834 317.626 253.321H290.574Z" stroke="#121330" stroke-width="6" stroke-miterlimit="10" stroke-linecap="round" stroke-linejoin="round"/>
<path d="M288.022 116.461C286.582 106.559 292.609 97.2289 301.484 95.6222C310.358 94.0148 318.721 100.74 320.161 110.642C321.601 120.544 315.574 129.874 306.7 131.482C297.825 133.089 289.463 126.364 288.022 116.461Z" fill="#ABCFD8"/>
<path opacity="0.93" d="M306.314 123.5C300.894 123.5 296.499 118.597 296.499 112.549C296.499 106.5 300.894 101.597 306.314 101.597C311.735 101.597 316.13 106.5 316.13 112.549C316.13 118.597 311.735 123.5 306.314 123.5Z" fill="#E2F0F2"/>
<path d="M288.022 116.461C286.582 106.559 292.609 97.2289 301.484 95.6222C310.358 94.0148 318.721 100.74 320.161 110.642C321.601 120.544 315.574 129.874 306.7 131.482C297.825 133.089 289.463 126.364 288.022 116.461Z" stroke="#121330" stroke-width="6" stroke-miterlimit="10" stroke-linecap="round" stroke-linejoin="round"/>
<path d="M304.1 284.575C303.442 284.575 302.903 283.774 302.844 282.705L298.355 200.967C297.876 192.552 300.27 184.739 303.801 182.869C304.041 182.736 304.28 182.736 304.46 182.869C307.991 184.672 310.385 192.486 309.906 200.967L305.417 282.705C305.297 283.774 304.699 284.575 304.1 284.575Z" fill="#2DFFC9"/>
<path opacity="0.74" d="M304.1 284.575C303.442 284.575 302.903 283.774 302.844 282.705L298.355 200.967C297.876 192.552 300.27 184.739 303.801 182.869C304.041 182.736 304.28 182.736 304.46 182.869C307.991 184.672 310.385 192.486 309.906 200.967L305.417 282.705C305.297 283.774 304.699 284.575 304.1 284.575Z" fill="#2DFFC9"/>
<g opacity="0.53">
<g opacity="0.53">
<g opacity="0.53">
<path opacity="0.53" d="M304.398 182.868C307.929 184.671 310.323 192.484 309.844 200.965L305.356 282.704C305.296 283.572 304.937 284.307 304.458 284.507V182.868H304.398Z" fill="#F4A15D"/>
</g>
<g opacity="0.53">
<path opacity="0.53" d="M304.399 182.868H303.742C303.981 182.735 304.22 182.735 304.399 182.868Z" fill="#F4A15D"/>
</g>
</g>
</g>
<path d="M304.1 284.575C303.442 284.575 302.903 283.774 302.844 282.705L298.355 200.967C297.876 192.552 300.27 184.739 303.801 182.869C304.041 182.736 304.28 182.736 304.46 182.869C307.991 184.672 310.385 192.486 309.906 200.967L305.417 282.705C305.297 283.774 304.699 284.575 304.1 284.575Z" stroke="#121330" stroke-width="6" stroke-miterlimit="10" stroke-linecap="round" stroke-linejoin="round"/>
<path d="M216.239 187.543C222.344 177.66 225.875 165.973 225.875 153.485C225.875 137.659 220.309 123.167 211.032 112.015C201.755 123.167 196.129 137.659 196.07 153.485C196.07 166.04 199.601 177.66 205.646 187.543H216.239Z" fill="#00C297"/>
<path d="M216.239 187.543C222.344 177.66 225.875 165.973 225.875 153.485C225.875 137.659 220.309 123.167 211.032 112.015C201.755 123.167 196.129 137.659 196.07 153.485C196.07 166.04 199.601 177.66 205.646 187.543H216.239Z" fill="#00C297"/>
<path opacity="0.23" d="M211.871 112.015C211.153 112.883 210.435 113.818 209.777 114.753C216.001 125.438 219.592 137.993 219.652 151.348C219.652 164.571 217.856 176.925 211.752 187.61H217.258C223.303 177.727 226.834 166.04 226.834 153.552C226.834 137.659 221.208 123.167 211.871 112.015Z" fill="#2DFFC9"/>
<path opacity="0.32" d="M211.871 112.015C211.632 112.282 211.393 112.616 211.153 112.95C218.156 124.503 222.166 138.059 222.225 152.617C222.225 165.239 219.173 177.126 213.846 187.61H217.258C223.303 177.727 226.834 166.04 226.834 153.552C226.834 137.659 221.208 123.167 211.871 112.015Z" fill="#F4A15D"/>
<path opacity="0.37" d="M196.071 153.485C196.071 137.659 201.697 123.234 211.033 112.015C211.751 112.883 212.47 113.818 213.128 114.753C206.903 125.438 203.312 137.993 203.253 151.348C203.253 164.571 206.724 176.925 212.829 187.61H205.647C199.602 177.66 196.071 165.973 196.071 153.485Z" fill="#2DFFC9"/>
<path opacity="0.72" d="M196.071 153.485C196.071 137.659 201.697 123.234 211.033 112.015C211.273 112.282 211.512 112.616 211.751 112.95C204.749 124.503 200.739 138.059 200.679 152.617C200.679 165.239 203.732 177.126 209.058 187.61H205.647C199.602 177.66 196.071 165.973 196.071 153.485Z" fill="#2DFFC9"/>
<path opacity="0.37" d="M211.033 112.015C211.751 112.883 212.47 113.818 213.128 114.753C206.903 125.438 203.312 137.993 203.253 151.348C203.253 164.571 206.724 176.925 212.829 187.61H205.647C199.602 177.727 196.071 166.04 196.071 153.552C196.071 137.659 201.697 123.167 211.033 112.015Z" fill="#2DFFC9"/>
<path opacity="0.72" d="M211.033 112.015C211.273 112.282 211.512 112.616 211.751 112.95C204.749 124.503 200.739 138.059 200.679 152.617C200.679 165.239 203.732 177.126 209.058 187.61H205.647C199.602 177.727 196.071 166.04 196.071 153.552C196.071 137.659 201.697 123.167 211.033 112.015Z" fill="#2DFFC9"/>
<path d="M203.073 124.035C205.287 119.695 207.92 115.688 210.973 111.948C214.025 115.621 216.659 119.695 218.873 124.035H203.073Z" fill="#121330"/>
<path d="M216.239 187.543C222.344 177.66 225.875 165.973 225.875 153.485C225.875 137.659 220.309 123.167 211.032 112.015C201.755 123.167 196.129 137.659 196.07 153.485C196.07 166.04 199.601 177.66 205.646 187.543H216.239Z" stroke="#121330" stroke-width="6" stroke-miterlimit="10" stroke-linecap="round" stroke-linejoin="round"/>
<path d="M220.788 178.728H201.097" stroke="#121330" stroke-width="4" stroke-miterlimit="10" stroke-linecap="round" stroke-linejoin="round"/>
<path opacity="0.41" d="M322.413 164.012C322.413 164.012 318.343 158.668 304.518 149.678C310.922 156.92 312.179 161.465 312.598 161.814C316.667 162.463 322.413 164.012 322.413 164.012Z" fill="white"/>
</g>
</g>
</g>
<defs>
<clipPath id="clip0_469_8314">
<rect width="600" height="500" fill="white"/>
</clipPath>
<clipPath id="clip1_469_8314">
<rect width="600" height="500" fill="white" transform="matrix(-1 0 0 1 600 1)"/>
</clipPath>
</defs>
</svg>
