<svg width="784" height="391" viewBox="0 0 784 391" fill="none" xmlns="http://www.w3.org/2000/svg">
<path d="M81.1649 236.178C105.073 298.016 150.022 352.191 212.457 376C220.577 379.092 228.869 381.715 237.29 383.856C281.835 395.201 330.566 391.255 371.628 370.583C389.055 361.802 404.947 350.2 422.437 341.545C439.928 332.891 459.901 327.226 478.938 331.498C495.329 335.177 509.158 345.718 523.082 355.108C555.907 377.246 595.375 394.765 634.243 387.161C652.128 383.667 669.739 373.988 678.045 357.809C696.404 322.04 661.781 279.514 668.793 239.957C673.28 214.639 693.774 195.68 706.514 173.338C728.318 135.12 725.74 84.3546 700.175 48.544C674.61 12.7333 627.415 -6.26243 584.144 1.86132C531.378 11.7717 491.484 56.3786 440.175 72.1637C408.087 82.0267 373.248 79.0841 342.602 66.0945C293.086 45.1022 225.06 12.9067 169.338 18.1509C139.707 20.9411 110.644 34.0778 91.0859 56.51C66.3625 84.8275 58.9507 125.031 63.0748 162.371C65.9048 187.648 71.9857 212.455 81.1649 236.178Z" fill="#A0A3FC"/>
<g opacity="0.35">
<path d="M139.27 85.96H0.829987V222.55H139.27V85.96Z" fill="#A0E2F9"/>
<path d="M0.829987 84.73V223.08H139.17V84.73H0.829987ZM130.63 215.36H11.34V92.97H130.62V215.36H130.63Z" fill="#D7E9E9"/>
<path d="M74.83 93.25H66.81V215.05H74.83V93.25Z" fill="#D7E9E9"/>
<path d="M130.87 152.37H11.71V160.39H130.87V152.37Z" fill="#D7E9E9"/>
<path d="M130.72 208.35H10.7V214.74H130.72V208.35Z" fill="#37A9D1"/>
<path d="M129.52 93.0399H123.22V209H129.52V93.0399Z" fill="#37A9D1"/>
<path opacity="0.45" d="M17.77 125.22C16.67 125.22 15.77 124.33 15.77 123.22V99.76C15.77 98.65 16.66 97.75 17.77 97.73C18.88 97.75 19.78 98.65 19.8 99.76V123.22C19.78 124.33 18.88 125.22 17.77 125.22Z" fill="white"/>
<path opacity="0.45" d="M17.77 118.92C16.66 118.9 15.77 118 15.77 116.89V107.67C15.77 106.56 16.66 105.66 17.77 105.64C18.88 105.66 19.78 106.56 19.8 107.67V116.89C19.78 118 18.88 118.9 17.77 118.92Z" fill="white"/>
<path d="M49.56 92.5813L10.6085 169.927L12.6984 170.979L51.65 93.6338L49.56 92.5813Z" fill="white"/>
<path d="M59.0398 92.5314L10.6769 187.204L12.7607 188.268L61.1236 93.5959L59.0398 92.5314Z" fill="white"/>
<path d="M74.83 214.32C74.37 214.32 74 213.95 74 213.49V161.23C74 160.77 74.37 160.4 74.83 160.4C75.29 160.4 75.66 160.77 75.66 161.23V213.49C75.66 213.95 75.29 214.32 74.83 214.32Z" fill="#1F033C"/>
<path d="M74.83 152C74.37 152 74 151.63 74 151.17V94.0799H67.64V118.24C67.64 118.7 67.27 119.07 66.81 119.07C66.35 119.07 65.98 118.7 65.98 118.24V93.2499C65.98 92.7899 66.35 92.4199 66.81 92.4199H74.83C75.29 92.4199 75.66 92.7899 75.66 93.2499V151.17C75.66 151.63 75.29 152 74.83 152Z" fill="#1F033C"/>
<path d="M66.81 130.39C66.35 130.39 65.98 130.02 65.98 129.56V125.99C65.98 125.53 66.35 125.16 66.81 125.16C67.27 125.16 67.64 125.53 67.64 125.99V129.56C67.64 130.02 67.27 130.39 66.81 130.39Z" fill="#1F033C"/>
<path d="M66.81 151.88C66.35 151.88 65.98 151.51 65.98 151.05V134.02C65.98 133.56 66.35 133.19 66.81 133.19C67.27 133.19 67.64 133.56 67.64 134.02V151.05C67.64 151.51 67.27 151.88 66.81 151.88Z" fill="#1F033C"/>
<path d="M66.81 214.32C66.35 214.32 65.98 213.95 65.98 213.49V161.84C65.98 161.38 66.35 161.01 66.81 161.01C67.27 161.01 67.64 161.38 67.64 161.84V213.49C67.64 213.95 67.27 214.32 66.81 214.32Z" fill="#1F033C"/>
<path d="M129.28 153.2H44.79C44.33 153.2 43.96 152.83 43.96 152.37C43.96 151.91 44.33 151.54 44.79 151.54H129.27C129.73 151.54 130.1 151.91 130.1 152.37C130.1 152.83 129.73 153.2 129.27 153.2H129.28Z" fill="#1F033C"/>
<path d="M48.94 161.22H11.71C11.25 161.22 10.88 160.85 10.88 160.39V152.37C10.88 151.91 11.25 151.54 11.71 151.54H39.38C39.84 151.54 40.21 151.91 40.21 152.37C40.21 152.83 39.84 153.2 39.38 153.2H12.51V159.59H48.94C49.39 159.5 49.83 159.8 49.91 160.25C49.99 160.7 49.7 161.14 49.25 161.22C49.14 161.24 49.04 161.24 48.93 161.22H48.94Z" fill="#1F033C"/>
<path d="M129.28 161.22H55.92C55.47 161.13 55.18 160.7 55.26 160.25C55.32 159.92 55.58 159.66 55.92 159.59H129.27C129.72 159.5 130.16 159.8 130.24 160.25C130.32 160.7 130.03 161.14 129.58 161.22C129.47 161.24 129.37 161.24 129.26 161.22H129.28Z" fill="#1F033C"/>
<path d="M3.63001 84.7699H3.60001C2.2911 84.7699 1.23001 85.831 1.23001 87.1399V120.18C1.23001 121.489 2.2911 122.55 3.60001 122.55H3.63001C4.93893 122.55 6.00001 121.489 6.00001 120.18V87.1399C6.00001 85.831 4.93893 84.7699 3.63001 84.7699Z" fill="white"/>
<path d="M3.63001 154.4H3.60001C2.2911 154.4 1.23001 155.461 1.23001 156.77V189.81C1.23001 191.119 2.2911 192.18 3.60001 192.18H3.63001C4.93893 192.18 6.00001 191.119 6.00001 189.81V156.77C6.00001 155.461 4.93893 154.4 3.63001 154.4Z" fill="white"/>
<path opacity="0.4" d="M88.76 218.87C88.76 220.72 87.26 222.22 85.41 222.22H38.92C37.07 222.22 35.57 220.72 35.57 218.87C35.57 217.02 37.07 215.52 38.92 215.52H85.4C87.25 215.52 88.75 217.02 88.75 218.87H88.76Z" fill="#9FD3D3"/>
<path d="M114.33 218.87C114.33 220.72 112.83 222.22 110.98 222.22H64.5C62.65 222.22 61.15 220.72 61.15 218.87C61.15 217.02 62.65 215.52 64.5 215.52H110.98C112.83 215.52 114.33 217.02 114.33 218.87Z" fill="#9FD3D3"/>
<path d="M0.83 199.62C0.37 199.62 0 199.25 0 198.79V130.3C0 129.84 0.37 129.47 0.83 129.47C1.29 129.47 1.66 129.84 1.66 130.3V198.8C1.66 199.26 1.29 199.63 0.83 199.63V199.62Z" fill="#1F033C"/>
<path d="M17.4 223.42H0.83C0.37 223.42 0 223.05 0 222.59V206.39C0 205.93 0.37 205.56 0.83 205.56C1.29 205.56 1.66 205.93 1.66 206.39V221.76H17.4C17.86 221.76 18.23 222.13 18.23 222.59C18.23 223.05 17.86 223.42 17.4 223.42Z" fill="#1F033C"/>
<path d="M139.27 112.68C138.81 112.68 138.44 112.31 138.44 111.85V84.9799H64.87C64.41 84.9799 64.04 84.6099 64.04 84.1499C64.04 83.6899 64.41 83.3199 64.87 83.3199H139.27C139.73 83.3199 140.1 83.6899 140.1 84.1499V111.82C140.12 112.28 139.76 112.66 139.3 112.68C139.29 112.68 139.28 112.68 139.27 112.68Z" fill="#1F033C"/>
<path d="M59.21 84.9799H36.89C36.43 84.9799 36.06 84.6099 36.06 84.1499C36.06 83.6899 36.43 83.3199 36.89 83.3199H59.21C59.67 83.3199 60.04 83.6899 60.04 84.1499C60.04 84.6099 59.67 84.9799 59.21 84.9799Z" fill="#1F033C"/>
<path d="M0.83 125.32C0.37 125.32 0 124.95 0 124.49V84.1499C0 83.6899 0.37 83.3199 0.83 83.3199H28.5C28.96 83.3199 29.33 83.6899 29.33 84.1499C29.33 84.6099 28.96 84.9799 28.5 84.9799H1.66V124.49C1.66 124.95 1.29 125.32 0.83 125.32Z" fill="#1F033C"/>
<path d="M23.15 104.07C23.08 104.1 23 104.1 22.93 104.07C22.72 103.96 22.63 103.7 22.74 103.49L26.18 97.3399C26.31 97.1299 26.58 97.0699 26.79 97.1899C26.94 97.3499 26.94 97.6099 26.79 97.7699L23.35 103.92C23.3 103.99 23.22 104.05 23.13 104.07H23.15Z" fill="#232144"/>
<path d="M24.07 107.39H23.85C23.7 107.23 23.7 106.97 23.85 106.81L26.37 102.2C26.55 102.04 26.81 102.04 26.98 102.2C27.16 102.34 27.22 102.58 27.13 102.78L24.58 107.18C24.52 107.37 24.31 107.48 24.12 107.42C24.1 107.42 24.08 107.41 24.06 107.4L24.07 107.39Z" fill="#232144"/>
<path d="M130.63 215.61H11.34C10.88 215.61 10.51 215.24 10.51 214.78V130.45C10.51 129.99 10.88 129.62 11.34 129.62C11.79 129.64 12.15 130 12.17 130.45V213.95H129.79V93.3399H12.3V124.64C12.28 125.09 11.92 125.45 11.47 125.47C11.01 125.47 10.64 125.1 10.64 124.64V92.5099C10.64 92.0499 11.01 91.6799 11.47 91.6799H130.75C131.21 91.6799 131.58 92.0499 131.58 92.5099V214.78C131.58 215.24 131.22 215.61 130.76 215.62C130.72 215.62 130.67 215.62 130.63 215.62V215.61Z" fill="#1F033C"/>
<path d="M139.27 223.42H27.67C27.21 223.42 26.84 223.05 26.84 222.59C26.84 222.13 27.21 221.76 27.67 221.76H138.35V121.38C138.35 120.92 138.72 120.55 139.18 120.55C139.64 120.55 140.01 120.92 140.01 121.38V222.59C140.01 223.01 139.69 223.37 139.27 223.42Z" fill="#1F033C"/>
</g>
<path d="M102.96 137.64H243.86C246.73 137.72 249.01 140.06 249.02 142.93V306.49C249.02 310.19 246.02 313.19 242.32 313.19H102.96V137.64Z" fill="#747484"/>
<path d="M113.38 312.3H68.8V143.45C68.82 140.25 71.41 137.67 74.61 137.67H113.38" fill="#525266"/>
<path d="M113.38 310.76H87.49C83.1 310.99 78.69 310.99 74.3 310.76C72.33 310.74 70.67 309.29 70.36 307.35C69.96 302.52 69.96 297.67 70.36 292.84V145.48C70.22 144.24 70.22 143 70.36 141.76C71.37 137.76 78.63 139.21 81.34 139.21H111.5C112.35 139.04 112.9 138.21 112.73 137.36C112.61 136.74 112.12 136.26 111.5 136.13H83.34C77.78 136.13 67.6 134.1 67.23 142.28C66.62 156.61 67.23 171.12 67.23 185.32C67.23 225.78 66.77 266.27 67.23 306.73C66.87 309.31 68.08 311.86 70.3 313.22C73.37 314.76 78.39 313.83 81.61 313.83H113.37C114.22 313.66 114.77 312.83 114.6 311.98C114.48 311.36 113.99 310.88 113.37 310.75L113.38 310.76Z" fill="#282833"/>
<path d="M211.94 201.41H248.83C249.68 201.24 250.23 200.41 250.06 199.56C249.94 198.94 249.45 198.46 248.83 198.33H211.94C211.09 198.5 210.54 199.33 210.71 200.18C210.83 200.8 211.32 201.28 211.94 201.41Z" fill="#282833"/>
<path d="M141.82 186.56C146.813 186.56 150.86 182.513 150.86 177.52C150.86 172.527 146.813 168.48 141.82 168.48C136.827 168.48 132.78 172.527 132.78 177.52C132.78 182.513 136.827 186.56 141.82 186.56Z" fill="#6FF953"/>
<path d="M141.97 186.4C146.963 186.4 151.01 182.353 151.01 177.36C151.01 172.367 146.963 168.32 141.97 168.32C136.977 168.32 132.93 172.367 132.93 177.36C132.93 182.353 136.977 186.4 141.97 186.4Z" fill="#2DFFC9"/>
<path d="M150.03 177.98C149.98 182.51 146.27 186.15 141.74 186.1C137.21 186.05 133.57 182.34 133.62 177.81C133.67 173.28 137.38 169.64 141.91 169.69C142.4 169.69 142.88 169.74 143.36 169.83C147.23 170.59 150.02 173.98 150.03 177.92C150.03 178.38 150.4 178.75 150.86 178.75C151.32 178.75 151.69 178.38 151.69 177.92C151.64 173.83 149.11 170.18 145.3 168.7C140.21 166.8 134.54 169.38 132.64 174.47C130.74 179.56 133.32 185.23 138.41 187.13C143.5 189.03 149.17 186.45 151.07 181.36C151.48 180.26 151.69 179.1 151.69 177.92C151.67 177.46 151.29 177.1 150.83 177.12C150.37 177.14 150.01 177.52 150.03 177.98Z" fill="#282833"/>
<path d="M225.81 168.11V188.28C225.81 188.86 226.28 189.33 226.86 189.33C227.44 189.33 227.91 188.86 227.91 188.28V168.11C227.91 167.53 227.44 167.06 226.86 167.06C226.28 167.06 225.81 167.53 225.81 168.11Z" fill="#282833"/>
<path d="M230.27 168.11V188.28C230.37 188.87 230.93 189.26 231.51 189.16C231.96 189.08 232.31 188.73 232.39 188.28V168.11C232.29 167.52 231.73 167.13 231.15 167.23C230.7 167.31 230.35 167.66 230.27 168.11Z" fill="#282833"/>
<path d="M234.76 168.11V188.28C234.96 188.82 235.55 189.11 236.1 188.91C236.39 188.8 236.63 188.57 236.73 188.28V168.11C236.73 167.53 236.26 167.06 235.68 167.06C235.1 167.06 234.63 167.53 234.63 168.11H234.75H234.76Z" fill="#282833"/>
<path d="M221.35 171.55V188.27C221.35 188.85 221.82 189.32 222.4 189.32C222.98 189.32 223.45 188.85 223.45 188.27V171.55C223.45 170.97 222.98 170.5 222.4 170.5C221.82 170.5 221.35 170.97 221.35 171.55Z" fill="#282833"/>
<path d="M225.81 210.2V230.37C225.81 230.95 226.28 231.42 226.86 231.42C227.44 231.42 227.91 230.95 227.91 230.37V210.2C227.91 209.62 227.44 209.15 226.86 209.15C226.28 209.15 225.81 209.62 225.81 210.2Z" fill="#282833"/>
<path d="M230.27 210.2V230.37C230.37 230.96 230.93 231.35 231.51 231.25C231.96 231.17 232.31 230.82 232.39 230.37V210.2C232.29 209.61 231.73 209.22 231.15 209.32C230.7 209.4 230.35 209.75 230.27 210.2Z" fill="#282833"/>
<path d="M234.76 210.2V230.37C234.76 230.95 235.23 231.42 235.81 231.42C236.39 231.42 236.86 230.95 236.86 230.37V210.2C236.86 209.62 236.39 209.15 235.81 209.15C235.23 209.15 234.76 209.62 234.76 210.2Z" fill="#282833"/>
<path d="M221.35 213.64V230.36C221.35 230.94 221.82 231.41 222.4 231.41C222.98 231.41 223.45 230.94 223.45 230.36V213.64C223.45 213.06 222.98 212.59 222.4 212.59C221.82 212.59 221.35 213.06 221.35 213.64Z" fill="#282833"/>
<path d="M225.81 254.04V274.36C225.81 274.94 226.28 275.41 226.86 275.41C227.44 275.41 227.91 274.94 227.91 274.36V254.04C227.91 253.46 227.44 252.99 226.86 252.99C226.28 252.99 225.81 253.46 225.81 254.04Z" fill="#282833"/>
<path d="M230.27 254.04V274.36C230.37 274.95 230.93 275.34 231.51 275.24C231.96 275.16 232.31 274.81 232.39 274.36V254.04C232.29 253.45 231.73 253.06 231.15 253.16C230.7 253.24 230.35 253.59 230.27 254.04Z" fill="#282833"/>
<path d="M234.76 254.04V274.36C234.96 274.9 235.55 275.19 236.1 274.99C236.39 274.88 236.63 274.65 236.73 274.36V254.04C236.73 253.46 236.26 252.99 235.68 252.99C235.1 252.99 234.63 253.46 234.63 254.04H234.75H234.76Z" fill="#282833"/>
<path d="M221.35 257.48V274.36C221.35 274.94 221.82 275.41 222.4 275.41C222.98 275.41 223.45 274.94 223.45 274.36V257.48C223.45 256.9 222.98 256.43 222.4 256.43C221.82 256.43 221.35 256.9 221.35 257.48Z" fill="#282833"/>
<path d="M141.14 172.41C144.54 172.41 147.29 175.16 147.29 178.56C147.29 178.9 147.57 179.17 147.9 179.17C148.23 179.17 148.51 178.89 148.51 178.56C148.48 176.61 147.7 174.75 146.33 173.36C144.95 171.98 143.08 171.21 141.13 171.21C140.79 171.21 140.52 171.49 140.52 171.82C140.52 172.15 140.8 172.43 141.13 172.43V172.4L141.14 172.41Z" fill="white"/>
<path d="M141.97 230.52C146.963 230.52 151.01 226.473 151.01 221.48C151.01 216.487 146.963 212.44 141.97 212.44C136.977 212.44 132.93 216.487 132.93 221.48C132.93 226.473 136.977 230.52 141.97 230.52Z" fill="#2DFFC9"/>
<path d="M141.14 215.73C144.54 215.73 147.29 218.48 147.29 221.88C147.29 222.22 147.57 222.49 147.9 222.49C148.23 222.49 148.51 222.21 148.51 221.88C148.49 217.81 145.2 214.52 141.13 214.5C140.79 214.5 140.52 214.78 140.52 215.11C140.52 215.44 140.8 215.72 141.13 215.72L141.14 215.73Z" fill="white"/>
<path d="M117.65 190.74V160.27L114.94 162.98H180.76C182.25 162.98 183.46 161.77 183.46 160.27C183.46 158.78 182.25 157.57 180.76 157.57H114.95C113.46 157.59 112.26 158.79 112.24 160.28V190.75C112.24 192.24 113.45 193.45 114.95 193.45C116.44 193.45 117.65 192.24 117.65 190.75V190.74Z" fill="#525266"/>
<path d="M117.65 232.7V202.23L114.94 204.94H180.76C182.25 204.94 183.46 203.73 183.46 202.23C183.46 200.74 182.25 199.53 180.76 199.53H114.95C113.46 199.55 112.26 200.75 112.24 202.24V232.71C112.24 234.2 113.45 235.41 114.95 235.41C116.44 235.41 117.65 234.2 117.65 232.71V232.7Z" fill="#525266"/>
<path d="M114.95 248.72H247.3C248.79 248.72 250 247.51 250 246.01C250 244.52 248.79 243.31 247.3 243.31H115.1C113.61 243.31 112.4 244.52 112.4 246.02C112.4 247.51 113.61 248.72 115.1 248.72H114.95Z" fill="#525266"/>
<path d="M114.95 295.42H247.3C248.79 295.42 250.01 294.21 250.01 292.71C250.01 291.21 248.8 290 247.3 290H115.1C113.61 290 112.39 291.21 112.39 292.71C112.39 294.21 113.6 295.42 115.1 295.42H114.95Z" fill="#525266"/>
<path d="M247.48 213.73V261.35C247.65 262.2 248.48 262.75 249.33 262.58C249.95 262.46 250.43 261.97 250.56 261.35V213.73C250.39 212.88 249.56 212.33 248.71 212.5C248.09 212.62 247.61 213.11 247.48 213.73Z" fill="#282833"/>
<path d="M113.2 158.89H144.5C145.35 158.72 145.9 157.89 145.73 157.04C145.61 156.42 145.12 155.94 144.5 155.81H113.2C112.35 155.98 111.8 156.81 111.97 157.66C112.09 158.28 112.58 158.76 113.2 158.89Z" fill="#282833"/>
<path d="M150.03 221.3C150.02 225.83 146.33 229.5 141.8 229.49C137.27 229.48 133.6 225.79 133.61 221.26C133.62 216.73 137.31 213.06 141.84 213.07C142.35 213.07 142.86 213.12 143.35 213.22C147.22 213.98 150.01 217.37 150.02 221.31C150.02 221.77 150.39 222.14 150.85 222.14C151.31 222.14 151.68 221.77 151.68 221.31C151.62 217.22 149.09 213.57 145.29 212.09C140.2 210.19 134.53 212.77 132.63 217.86C130.73 222.95 133.31 228.62 138.4 230.52C143.49 232.42 149.16 229.84 151.06 224.75C151.47 223.65 151.68 222.49 151.68 221.31C151.68 220.85 151.31 220.48 150.85 220.48C150.39 220.48 150.02 220.85 150.02 221.31L150.03 221.3Z" fill="#282833"/>
<path d="M141.51 272.82C146.503 272.82 150.55 268.773 150.55 263.78C150.55 258.787 146.503 254.74 141.51 254.74C136.517 254.74 132.47 258.787 132.47 263.78C132.47 268.773 136.517 272.82 141.51 272.82Z" fill="#2DFFC9"/>
<path d="M140.68 258.03C144.08 258.03 146.83 260.78 146.83 264.18C146.75 264.51 146.96 264.84 147.29 264.92C147.62 265 147.95 264.79 148.03 264.46C148.05 264.37 148.05 264.28 148.03 264.19C148.03 262.24 147.26 260.37 145.88 258.99C144.5 257.62 142.63 256.85 140.68 256.84C140.34 256.84 140.07 257.12 140.07 257.45C140.07 257.78 140.35 258.06 140.68 258.06V258.03Z" fill="white"/>
<path d="M150.03 263.72C150.02 268.25 146.33 271.92 141.8 271.91C137.27 271.9 133.6 268.21 133.61 263.68C133.62 259.15 137.31 255.48 141.84 255.49C142.35 255.49 142.86 255.54 143.35 255.64C147.22 256.4 150.01 259.79 150.02 263.73C150.02 264.19 150.39 264.56 150.85 264.56C151.31 264.56 151.68 264.19 151.68 263.73C151.62 259.64 149.09 255.99 145.29 254.51C140.2 252.61 134.53 255.19 132.63 260.28C130.73 265.37 133.31 271.04 138.4 272.94C143.49 274.84 149.16 272.26 151.06 267.17C151.47 266.07 151.68 264.91 151.68 263.73C151.68 263.27 151.31 262.9 150.85 262.9C150.39 262.9 150.02 263.27 150.02 263.73L150.03 263.72Z" fill="#282833"/>
<path d="M113.2 243.95H247.76C248.61 243.78 249.16 242.95 248.99 242.1C248.87 241.48 248.38 241 247.76 240.87H113.2C112.35 241.04 111.8 241.87 111.97 242.72C112.09 243.34 112.58 243.82 113.2 243.95Z" fill="#282833"/>
<path d="M113.2 201.41H201.43C202.28 201.24 202.83 200.41 202.66 199.56C202.54 198.94 202.05 198.46 201.43 198.33H113.2C112.35 198.5 111.8 199.33 111.97 200.18C112.09 200.8 112.58 201.28 113.2 201.41Z" fill="#282833"/>
<path d="M153.35 158.89H247.98C248.83 158.72 249.38 157.89 249.21 157.04C249.09 156.42 248.6 155.94 247.98 155.81H153.35C152.5 155.98 151.95 156.81 152.12 157.66C152.24 158.28 152.73 158.76 153.35 158.89Z" fill="#282833"/>
<path d="M164.6 269.5C167.284 269.5 169.46 267.324 169.46 264.64C169.46 261.956 167.284 259.78 164.6 259.78C161.916 259.78 159.74 261.956 159.74 264.64C159.74 267.324 161.916 269.5 164.6 269.5Z" fill="#F75454"/>
<path d="M182.65 269.5C185.334 269.5 187.51 267.324 187.51 264.64C187.51 261.956 185.334 259.78 182.65 259.78C179.966 259.78 177.79 261.956 177.79 264.64C177.79 267.324 179.966 269.5 182.65 269.5Z" fill="#F75454"/>
<path d="M200.69 269.5C203.374 269.5 205.55 267.324 205.55 264.64C205.55 261.956 203.374 259.78 200.69 259.78C198.006 259.78 195.83 261.956 195.83 264.64C195.83 267.324 198.006 269.5 200.69 269.5Z" fill="#F75454"/>
<path d="M164.6 226.06C167.284 226.06 169.46 223.884 169.46 221.2C169.46 218.516 167.284 216.34 164.6 216.34C161.916 216.34 159.74 218.516 159.74 221.2C159.74 223.884 161.916 226.06 164.6 226.06Z" fill="#525266"/>
<path d="M182.65 226.06C185.334 226.06 187.51 223.884 187.51 221.2C187.51 218.516 185.334 216.34 182.65 216.34C179.966 216.34 177.79 218.516 177.79 221.2C177.79 223.884 179.966 226.06 182.65 226.06Z" fill="#525266"/>
<path d="M200.69 226.06C203.374 226.06 205.55 223.884 205.55 221.2C205.55 218.516 203.374 216.34 200.69 216.34C198.006 216.34 195.83 218.516 195.83 221.2C195.83 223.884 198.006 226.06 200.69 226.06Z" fill="#525266"/>
<path d="M167.83 218.74C168.83 220.02 168.99 221.76 168.23 223.2C167.57 224.43 166.33 225.23 164.94 225.32C162.68 225.43 160.77 223.68 160.66 221.43C160.63 220.83 160.74 220.22 160.97 219.67C161.63 218.2 163.08 217.26 164.69 217.24C165.14 217.15 165.43 216.72 165.35 216.27C165.29 215.94 165.03 215.68 164.69 215.61C161.55 215.61 159.01 218.16 159.01 221.31C159.01 222.24 159.24 223.16 159.68 223.98C161.38 226.62 164.89 227.38 167.53 225.69C170.17 224 170.93 220.48 169.24 217.84C169.03 217.45 168.54 217.31 168.16 217.52C168.16 217.52 168.14 217.52 168.14 217.53C167.77 217.77 167.64 218.24 167.83 218.64V218.76V218.74Z" fill="#282833"/>
<path d="M178.68 221.3C178.66 219.06 180.46 217.23 182.7 217.2C184.94 217.17 186.77 218.98 186.8 221.22C186.8 221.97 186.6 222.71 186.22 223.35C185.49 224.57 184.17 225.32 182.75 225.32C182.29 225.32 181.92 225.69 181.92 226.15C181.92 226.61 182.29 226.98 182.75 226.98C185.89 226.98 188.44 224.43 188.44 221.29C188.44 218.15 185.89 215.6 182.75 215.6C179.61 215.6 177.06 218.15 177.06 221.29C177.15 221.74 177.58 222.03 178.03 221.95C178.36 221.89 178.62 221.63 178.69 221.29L178.68 221.3Z" fill="#282833"/>
<path d="M197.43 219.02C198.75 217.21 201.29 216.82 203.1 218.14C204.91 219.46 205.3 222 203.98 223.81C202.66 225.62 200.12 226.01 198.31 224.69C197.97 224.44 197.68 224.15 197.43 223.81C197.26 223.38 196.78 223.17 196.35 223.34C195.92 223.51 195.71 223.99 195.88 224.42C195.91 224.5 195.96 224.58 196.01 224.64C197.85 227.17 201.38 227.73 203.91 225.89C206.44 224.05 207 220.52 205.16 217.99C203.32 215.46 199.79 214.9 197.26 216.74C196.71 217.14 196.23 217.64 195.85 218.22C195.27 219.08 196.68 219.88 197.26 219.02H197.41H197.43Z" fill="#282833"/>
<path d="M179.11 225.94C179.789 225.94 180.34 225.389 180.34 224.71C180.34 224.031 179.789 223.48 179.11 223.48C178.431 223.48 177.88 224.031 177.88 224.71C177.88 225.389 178.431 225.94 179.11 225.94Z" fill="#282833"/>
<path d="M164.6 183.64C167.284 183.64 169.46 181.464 169.46 178.78C169.46 176.096 167.284 173.92 164.6 173.92C161.916 173.92 159.74 176.096 159.74 178.78C159.74 181.464 161.916 183.64 164.6 183.64Z" fill="#F75454"/>
<path d="M182.65 183.64C185.334 183.64 187.51 181.464 187.51 178.78C187.51 176.096 185.334 173.92 182.65 173.92C179.966 173.92 177.79 176.096 177.79 178.78C177.79 181.464 179.966 183.64 182.65 183.64Z" fill="#F75454"/>
<path d="M200.69 183.64C203.374 183.64 205.55 181.464 205.55 178.78C205.55 176.096 203.374 173.92 200.69 173.92C198.006 173.92 195.83 176.096 195.83 178.78C195.83 181.464 198.006 183.64 200.69 183.64Z" fill="#F75454"/>
<path d="M167.83 176.35C169.24 178.09 168.97 180.65 167.22 182.06C165.48 183.47 162.92 183.2 161.51 181.45C160.1 179.71 160.37 177.15 162.12 175.74C162.86 175.14 163.8 174.82 164.75 174.84C165.8 174.84 165.8 173.18 164.75 173.21C161.63 173.2 159.08 175.72 159.07 178.84C159.07 179.78 159.3 180.71 159.74 181.54C160.63 183.29 162.37 184.45 164.32 184.61C166.29 184.71 168.17 183.76 169.27 182.12C170.71 180.13 170.71 177.44 169.27 175.45C168.98 175.1 168.46 175.04 168.1 175.34C167.82 175.57 167.72 175.95 167.85 176.28L167.82 176.34L167.83 176.35Z" fill="#282833"/>
<path d="M178.68 178.87C178.68 176.63 180.49 174.81 182.73 174.8C184.97 174.79 186.79 176.61 186.8 178.85C186.8 179.59 186.6 180.32 186.22 180.95C185.48 182.16 184.17 182.9 182.75 182.92C182.3 183.01 182.01 183.44 182.09 183.89C182.15 184.22 182.41 184.48 182.75 184.55C185.89 184.55 188.44 182 188.44 178.86C188.44 175.72 185.89 173.17 182.75 173.17C179.61 173.17 177.06 175.72 177.06 178.86C177.15 179.31 177.58 179.6 178.03 179.52C178.36 179.46 178.62 179.2 178.69 178.86L178.68 178.87Z" fill="#282833"/>
<path d="M197.43 176.6C198.75 174.79 201.28 174.38 203.1 175.7C204.91 177.02 205.32 179.55 204 181.37C202.68 183.18 200.15 183.59 198.33 182.27C197.98 182.02 197.68 181.71 197.43 181.37C197.19 181 196.71 180.88 196.32 181.09C195.93 181.3 195.79 181.79 196 182.17C196 182.17 196 182.19 196.01 182.19C197.85 184.72 201.38 185.28 203.91 183.44C206.44 181.6 207 178.07 205.16 175.54C203.32 173.01 199.79 172.45 197.26 174.29C196.71 174.69 196.23 175.19 195.85 175.77C195.27 176.63 196.68 177.46 197.26 176.6H197.41H197.43Z" fill="#282833"/>
<path d="M179.11 183.54C179.789 183.54 180.34 182.989 180.34 182.31C180.34 181.631 179.789 181.08 179.11 181.08C178.431 181.08 177.88 181.631 177.88 182.31C177.88 182.989 178.431 183.54 179.11 183.54Z" fill="#282833"/>
<path d="M168.72 263.72C168.7 265.94 166.89 267.73 164.66 267.72C162.44 267.7 160.65 265.89 160.66 263.66C160.68 261.44 162.49 259.65 164.72 259.66C164.95 259.66 165.17 259.68 165.4 259.72C167.32 260.09 168.71 261.76 168.72 263.72C168.72 264.77 170.38 264.77 170.35 263.72C170.34 261.34 168.86 259.21 166.63 258.37C163.68 257.28 160.41 258.79 159.33 261.74C158.24 264.69 159.75 267.96 162.7 269.04C165.65 270.13 168.92 268.62 170 265.67C170.23 265.04 170.35 264.38 170.35 263.72C170.26 263.27 169.83 262.98 169.38 263.06C169.05 263.12 168.79 263.38 168.72 263.72Z" fill="#282833"/>
<path d="M186.77 263.72C186.75 265.94 184.94 267.73 182.71 267.72C180.49 267.7 178.7 265.89 178.71 263.66C178.73 261.44 180.54 259.65 182.77 259.66C183 259.66 183.22 259.68 183.45 259.72C185.38 260.08 186.77 261.76 186.77 263.72C186.77 264.77 188.43 264.77 188.4 263.72C188.4 260.6 185.86 258.07 182.73 258.07C179.61 258.07 177.08 260.61 177.08 263.74C177.08 266.86 179.62 269.39 182.75 269.39C183.11 269.39 183.46 269.35 183.81 269.29C186.45 268.74 188.36 266.43 188.39 263.73C188.3 263.28 187.87 262.99 187.42 263.07C187.09 263.13 186.83 263.39 186.76 263.73L186.77 263.72Z" fill="#282833"/>
<path d="M204.81 263.72C204.81 265.4 203.77 266.9 202.2 267.5C200.56 268.09 198.73 267.59 197.62 266.24C196.2 264.51 196.45 261.95 198.18 260.53C199.91 259.11 202.47 259.36 203.89 261.09C204.5 261.83 204.82 262.76 204.81 263.72C204.81 264.18 205.18 264.55 205.64 264.55C206.1 264.55 206.47 264.18 206.47 263.72C206.46 261.38 205.06 259.28 202.9 258.37C199.95 257.28 196.68 258.79 195.6 261.74C194.51 264.69 196.02 267.96 198.97 269.04C201.92 270.13 205.19 268.62 206.27 265.67C206.5 265.04 206.62 264.38 206.62 263.72C206.62 263.22 206.21 262.81 205.71 262.81C205.21 262.81 204.8 263.22 204.8 263.72H204.81Z" fill="#282833"/>
<path d="M101.02 152.62H100.8C100.66 152.49 100.66 152.28 100.79 152.14C100.79 152.14 100.79 152.14 100.8 152.13L106.24 144.35C106.37 144.21 106.58 144.21 106.72 144.34C106.72 144.34 106.72 144.34 106.73 144.35C106.87 144.48 106.87 144.69 106.74 144.83C106.74 144.83 106.74 144.83 106.73 144.84L101.44 152.46C101.35 152.6 101.17 152.67 101.01 152.61L101.02 152.62Z" fill="#282833"/>
<path d="M103.88 152.03C103.82 152.06 103.75 152.06 103.7 152.03C103.56 151.9 103.56 151.69 103.69 151.55C103.69 151.55 103.69 151.55 103.7 151.54L106.59 147.51C106.7 147.38 106.9 147.37 107.02 147.48C107.02 147.48 107.04 147.5 107.05 147.51C107.18 147.62 107.19 147.82 107.08 147.94C107.08 147.94 107.06 147.96 107.05 147.97L104.16 152.03C104.07 152.07 103.97 152.07 103.88 152.03Z" fill="#282833"/>
<path d="M113.2 290.65H171.09C171.94 290.48 172.49 289.65 172.32 288.8C172.2 288.18 171.71 287.7 171.09 287.57H113.2C112.35 287.74 111.8 288.57 111.97 289.42C112.09 290.04 112.58 290.52 113.2 290.65Z" fill="#282833"/>
<path d="M190.61 290.65H248.59C249.44 290.48 249.99 289.65 249.82 288.8C249.7 288.18 249.21 287.7 248.59 287.57H190.61C189.76 287.74 189.21 288.57 189.38 289.42C189.5 290.04 189.99 290.52 190.61 290.65Z" fill="#282833"/>
<path d="M531.89 308.58V284.87H646.62V308.58H634.48" fill="#429DC1"/>
<path d="M619.75 255.18H565.52V285.34H619.75V255.18Z" fill="#429DC1"/>
<path d="M619.75 283.77H565.67L567.21 285.34V255.18L565.67 256.75H619.9L618.33 255.18V285.34C618.5 286.19 619.33 286.74 620.18 286.57C620.8 286.45 621.28 285.96 621.41 285.34V255.18C621.38 254.33 620.69 253.64 619.84 253.61H565.67C564.81 253.63 564.12 254.32 564.1 255.18V285.34C564.12 286.19 564.81 286.88 565.67 286.88H619.9C620.75 286.72 621.32 285.91 621.16 285.06C621.03 284.36 620.45 283.84 619.75 283.78V283.77Z" fill="#282833"/>
<path d="M650.53 254.16H436.34C432.94 254.16 430.19 251.41 430.19 248.01V63.86C430.19 60.46 432.94 57.71 436.34 57.71H743.1C746.5 57.71 749.25 60.46 749.25 63.86V248.07C749.25 251.47 746.5 254.22 743.1 254.22H700.27" fill="#429DC1"/>
<path d="M722.25 59.34H735.68C739.89 59.34 747.12 57.96 747.73 63.89C748.07 67.27 747.73 70.87 747.73 74.28V246.44C747.73 249.51 746.81 252.31 742.93 252.59C739.06 252.87 734.66 252.59 730.63 252.59H700.29C699.44 252.76 698.89 253.59 699.06 254.44C699.18 255.06 699.67 255.54 700.29 255.67H728.11C735.15 255.67 750.21 258.53 750.86 248.01C751.6 236.11 750.86 223.94 750.86 212.04V76.03C750.86 72.03 751.04 68.01 750.86 64.01C750.84 59.61 747.27 56.06 742.87 56.08C742.84 56.08 742.81 56.08 742.78 56.08C737.49 55.9 732.17 56.08 726.89 56.08H722.25C721.4 56.25 720.85 57.08 721.02 57.93C721.14 58.55 721.63 59.03 722.25 59.16V59.34Z" fill="#282833"/>
<path d="M436.34 252.13C436.05 252.16 435.77 252.16 435.48 252.13H436C435.45 252.04 434.91 251.88 434.4 251.67L434.89 251.89C434.42 251.69 433.98 251.43 433.57 251.12L433.97 251.43C433.55 251.1 433.16 250.72 432.83 250.29L433.14 250.69C432.83 250.28 432.57 249.84 432.37 249.37L432.59 249.86C432.39 249.38 432.24 248.87 432.16 248.35V248.04C432.02 246.93 431.01 246.14 429.9 246.28C428.98 246.39 428.25 247.12 428.14 248.04C428.16 250.19 429.02 252.24 430.54 253.76C432.09 255.28 434.18 256.14 436.35 256.16C437.47 256.16 438.38 255.25 438.38 254.13C438.38 253.01 437.47 252.1 436.35 252.1V252.13H436.34Z" fill="#282833"/>
<path d="M608.04 255.18H553.81V285.34H608.04V255.18Z" fill="#626363"/>
<path d="M608.04 255.18H553.81V285.34H608.04V255.18Z" fill="#E0F3FC"/>
<path d="M558.08 261.82L596.42 262.07H601.95C604.5 262.07 606.56 260.01 606.56 257.46C606.56 254.91 604.5 252.85 601.95 252.85H558.02C555.47 252.85 553.41 254.91 553.41 257.46C553.41 260.01 555.47 262.07 558.02 262.07L558.08 261.82Z" fill="#8BD2FC"/>
<path d="M732.03 254.16H428.56C423.73 254.14 419.82 250.23 419.8 245.4V65.7C419.8 60.96 423.64 57.12 428.38 57.12H732.03C735.83 57.1 738.93 60.17 738.95 63.98C738.95 63.99 738.95 64 738.95 64.01V247.27C738.93 251.08 735.84 254.16 732.03 254.16Z" fill="#E0F3FC"/>
<path d="M718.74 70.6899H440.03C436.65 70.6899 433.91 73.43 433.91 76.8099V234.52C433.91 237.9 436.65 240.64 440.03 240.64H718.74C722.12 240.64 724.86 237.9 724.86 234.52V76.8099C724.86 73.43 722.12 70.6899 718.74 70.6899Z" fill="#C0ECFF"/>
<path d="M723.97 75.91V84.61C723.97 81.21 721.22 78.46 717.82 78.46H439.14C435.74 78.46 432.99 81.21 432.99 84.61V75.91C432.99 72.51 435.74 69.76 439.14 69.76H717.89C721.26 69.79 723.98 72.54 723.98 75.91H723.97Z" fill="#8BD2FC"/>
<path d="M555.35 264.77V255.18L553.81 256.75H608.04L606.47 255.18V285.34L608.04 283.77H553.81L555.35 285.34V272.46C555.18 271.61 554.35 271.06 553.5 271.23C552.88 271.35 552.4 271.84 552.27 272.46V285.34C552.29 286.19 552.98 286.88 553.84 286.88H608.07C608.91 286.86 609.59 286.18 609.61 285.34V255.18C609.59 254.33 608.92 253.64 608.07 253.61H553.81C552.95 253.63 552.26 254.32 552.24 255.18V264.77C552.41 265.62 553.24 266.17 554.09 266C554.71 265.88 555.19 265.39 555.32 264.77H555.35Z" fill="#282833"/>
<path d="M633.65 284.87H518.92V308.54H633.65V284.87Z" fill="#E0F3FC"/>
<path opacity="0.65" d="M563.22 241.25H540.44L582.19 71.91H605L563.22 241.25Z" fill="white"/>
<path opacity="0.65" d="M587.66 241.25H577.39L619.14 71.91H629.41L587.66 241.25Z" fill="white"/>
<path d="M467.76 249.37H517.29C519.84 249.37 521.9 247.31 521.9 244.76C521.9 242.21 519.84 240.15 517.29 240.15H467.76C465.21 240.15 463.15 242.21 463.15 244.76C463.15 247.31 465.21 249.37 467.76 249.37Z" fill="#8BD2FC"/>
<path d="M535.24 249.37H552.79C555.34 249.37 557.4 247.31 557.4 244.76C557.4 242.21 555.34 240.15 552.79 240.15H535.24C532.69 240.15 530.63 242.21 530.63 244.76C530.63 247.31 532.69 249.37 535.24 249.37Z" fill="#8BD2FC"/>
<path d="M517.5 59.3401H732.73C736.11 59.5901 737.25 62.0501 737.37 64.9001C737.89 76.9201 737.37 89.0601 737.37 101.08V242.91C737.37 246.91 738.26 252.13 732.54 252.59C725.25 253.11 717.78 252.59 710.47 252.59H674.53C673.68 252.76 673.13 253.59 673.3 254.44C673.42 255.06 673.91 255.54 674.53 255.67H726.61C732.54 255.67 740.14 256.01 740.48 247.86V69.3001C740.48 65.6101 741.13 61.2801 738.24 58.4501C735.35 55.6201 731.69 56.0801 728.06 56.0801H517.5C516.65 56.2501 516.1 57.0801 516.27 57.9301C516.39 58.5501 516.88 59.0301 517.5 59.1601V59.3401Z" fill="#282833"/>
<path d="M664.79 252.59H429.2C425.45 252.59 421.67 252.59 421.36 247.49C420.56 234.3 421.36 220.84 421.36 207.52V76.65C421.36 72.56 421.05 68.35 421.36 64.35C421.85 57.59 431.47 59.43 436.24 59.43H504.92C505.77 59.26 506.32 58.43 506.15 57.58C506.03 56.96 505.54 56.48 504.92 56.35H449.58C441.89 56.35 434.21 56.07 426.46 56.35C419.94 56.6 418.37 61.61 418.37 66.96V242.91C418.37 248.07 418 254.32 424.52 255.58C427.25 255.83 430 255.83 432.73 255.58H664.75C665.6 255.41 666.15 254.58 665.98 253.73C665.86 253.11 665.37 252.63 664.75 252.5L664.78 252.59H664.79Z" fill="#282833"/>
<path d="M723.3 144.99V228C723.54 230.52 723.46 233.06 723.05 235.56C721.79 240.26 715.12 239.06 711.34 239.06H656.77C655.92 239.23 655.37 240.06 655.54 240.91C655.66 241.53 656.15 242.01 656.77 242.14H709.43C712.85 242.37 716.28 242.37 719.7 242.14C724.71 241.4 726.4 237.19 726.4 232.73V144.99C726.23 144.14 725.4 143.59 724.55 143.76C723.93 143.88 723.45 144.37 723.32 144.99H723.29H723.3Z" fill="#282833"/>
<path d="M484.24 72.25H676.75C690.49 72.25 704.42 71.51 718.16 72.25C721.91 72.43 723.29 75.32 723.29 78.4V132.54C723.46 133.39 724.29 133.94 725.14 133.77C725.76 133.65 726.24 133.16 726.37 132.54V83.35C726.37 80.28 727.02 75.97 725.48 73.11C722.81 68.16 716.87 69.05 712.17 69.05H499.4C494.57 68.79 489.72 68.79 484.89 69.05H484.24C483.39 69.22 482.84 70.05 483.01 70.9C483.13 71.52 483.62 72 484.24 72.13V72.25Z" fill="#282833"/>
<path d="M523 293.76H544.15C546.7 293.76 548.76 291.7 548.76 289.15C548.76 286.6 546.7 284.54 544.15 284.54H523.09C520.54 284.54 518.48 286.6 518.48 289.15C518.48 291.7 520.54 293.76 523.09 293.76H523Z" fill="#8BD2FC"/>
<path d="M533.27 286.44H633.68L632.11 284.87V308.57L633.68 307H550.67C549.82 307.17 549.27 308 549.44 308.85C549.56 309.47 550.05 309.95 550.67 310.08H633.68C634.52 310.06 635.2 309.38 635.22 308.54V284.87C635.2 284.03 634.52 283.35 633.68 283.33H533.27C532.42 283.5 531.87 284.33 532.04 285.18C532.16 285.8 532.65 286.28 533.27 286.41V286.44Z" fill="#282833"/>
<path d="M520.48 291.67V284.88L518.91 286.45H527.33C528.18 286.62 529.01 286.07 529.18 285.22C529.35 284.37 528.8 283.54 527.95 283.37C527.75 283.33 527.54 283.33 527.33 283.37H518.91C518.07 283.39 517.39 284.07 517.37 284.91V291.7C517.2 292.55 517.75 293.38 518.6 293.55C519.45 293.72 520.28 293.17 520.45 292.32C520.49 292.12 520.49 291.91 520.45 291.7L520.48 291.67Z" fill="#282833"/>
<path d="M537.52 307.01H518.92L520.49 308.58V296.28C520.32 295.43 519.49 294.88 518.64 295.05C518.02 295.17 517.54 295.66 517.41 296.28V308.58C517.43 309.42 518.11 310.1 518.95 310.12H537.55C538.4 309.95 538.95 309.12 538.78 308.27C538.66 307.65 538.17 307.17 537.55 307.04L537.52 307.01Z" fill="#282833"/>
<path d="M435.45 101.46V77.1701C435.31 74.5901 437.29 72.3901 439.87 72.2601C439.93 72.2601 440 72.2601 440.06 72.2601H470.07C470.92 72.0901 471.47 71.2601 471.3 70.4101C471.18 69.7901 470.69 69.3101 470.07 69.1801H440.03C436.2 69.2301 432.96 72.0301 432.37 75.8201C432.12 79.7201 432.12 83.6301 432.37 87.5301V101.52C432.54 102.37 433.37 102.92 434.22 102.75C434.84 102.63 435.32 102.14 435.45 101.52V101.46Z" fill="#282833"/>
<path d="M435.45 147.76V110.13C435.28 109.28 434.45 108.73 433.6 108.9C432.98 109.02 432.5 109.51 432.37 110.13V147.76C432.54 148.61 433.37 149.16 434.22 148.99C434.84 148.87 435.32 148.38 435.45 147.76Z" fill="#282833"/>
<path d="M435.45 201.87V157.02C435.28 156.17 434.45 155.62 433.6 155.79C432.98 155.91 432.5 156.4 432.37 157.02V201.87C432.54 202.72 433.37 203.27 434.22 203.1C434.84 202.98 435.32 202.49 435.45 201.87Z" fill="#282833"/>
<path d="M640.26 239.07H449.65C446.58 239.07 443.32 239.32 440.21 239.07C434.25 238.61 435.54 231.63 435.54 227.45V214.32C435.37 213.47 434.54 212.92 433.69 213.09C433.07 213.21 432.59 213.7 432.46 214.32V225.94C432 229.71 432.18 233.54 432.98 237.25C434.86 242.2 439.53 242.17 443.86 242.17H640.37C641.22 242 641.77 241.17 641.6 240.32C641.48 239.7 640.99 239.22 640.37 239.09L640.25 239.06L640.26 239.07Z" fill="#282833"/>
<path d="M443.23 96.42V118.89C443.05 120.8 444.45 122.49 446.36 122.68C448.27 122.87 449.96 121.46 450.15 119.55C450.17 119.33 450.17 119.11 450.15 118.9V96.43C450.13 94.54 448.6 93 446.71 92.99C444.81 93.02 443.27 94.56 443.24 96.46V96.43L443.23 96.42Z" fill="white"/>
<path d="M446.76 136.02C449.394 136.02 451.53 133.884 451.53 131.25C451.53 128.616 449.394 126.48 446.76 126.48C444.126 126.48 441.99 128.616 441.99 131.25C441.99 133.884 444.126 136.02 446.76 136.02Z" fill="white"/>
<path d="M423.55 76.74V99.12C423.24 101.01 424.52 102.8 426.41 103.11C428.3 103.42 430.09 102.14 430.4 100.25C430.46 99.88 430.46 99.5 430.4 99.12V76.74C430.4 74.83 428.86 73.28 426.96 73.27C425.06 73.3 423.52 74.84 423.49 76.74H423.55Z" fill="white"/>
<path d="M427.09 116.34C429.724 116.34 431.86 114.204 431.86 111.57C431.86 108.936 429.724 106.8 427.09 106.8C424.456 106.8 422.32 108.936 422.32 111.57C422.32 114.204 424.456 116.34 427.09 116.34Z" fill="white"/>
<path d="M115.47 323.12C117.525 323.12 119.19 321.454 119.19 319.4C119.19 317.345 117.525 315.68 115.47 315.68C113.416 315.68 111.75 317.345 111.75 319.4C111.75 321.454 113.416 323.12 115.47 323.12Z" fill="#000201"/>
<path d="M618.8 104.99H563.28V147.02H618.8V104.99Z" fill="#8BD2FC"/>
<path d="M613.73 104.99H558.21V147.02H613.73V104.99Z" fill="white"/>
<path d="M570.04 122.43C566.83 122.45 564.22 119.86 564.2 116.65C564.18 113.44 566.77 110.83 569.98 110.81C573.19 110.79 575.8 113.38 575.82 116.59C575.82 116.6 575.82 116.61 575.82 116.62C575.82 119.82 573.24 122.41 570.04 122.43ZM570.04 112.62C567.83 112.62 566.04 114.41 566.04 116.62C566.04 118.83 567.83 120.62 570.04 120.62C572.25 120.62 574.04 118.83 574.04 116.62C574.04 114.41 572.25 112.62 570.04 112.62Z" fill="#232144"/>
<path d="M602.94 128.85H565.68C565.37 128.87 565.11 128.63 565.1 128.33C565.1 128.31 565.1 128.29 565.1 128.27C565.1 127.95 565.36 127.69 565.68 127.69H602.97C603.29 127.69 603.55 127.95 603.55 128.27C603.57 128.58 603.34 128.84 603.03 128.86C603 128.86 602.97 128.86 602.93 128.86L602.94 128.85Z" fill="#232144"/>
<path d="M586.24 132.94H565.67C565.35 132.94 565.09 132.68 565.09 132.36C565.07 132.04 565.32 131.76 565.64 131.75C565.65 131.75 565.66 131.75 565.67 131.75H586.27C586.6 131.77 586.85 132.04 586.85 132.36C586.83 132.69 586.56 132.94 586.24 132.94Z" fill="#232144"/>
<path d="M618.8 169.62H563.28V211.65H618.8V169.62Z" fill="#8BD2FC"/>
<path d="M613.73 169.62H558.21V211.65H613.73V169.62Z" fill="white"/>
<path d="M570.04 187.05C566.83 187.07 564.22 184.48 564.2 181.27C564.18 178.06 566.77 175.45 569.98 175.43C573.19 175.41 575.8 178 575.82 181.21C575.82 181.22 575.82 181.23 575.82 181.24C575.82 184.44 573.24 187.03 570.04 187.05ZM570.04 177.24C567.83 177.24 566.04 179.03 566.04 181.24C566.04 183.45 567.83 185.24 570.04 185.24C572.25 185.24 574.04 183.45 574.04 181.24C574.04 179.03 572.25 177.24 570.04 177.24Z" fill="#232144"/>
<path d="M602.94 193.47H565.68C565.37 193.49 565.11 193.25 565.1 192.95C565.1 192.93 565.1 192.91 565.1 192.89C565.1 192.57 565.36 192.31 565.68 192.31H602.97C603.29 192.31 603.55 192.57 603.55 192.89C603.57 193.2 603.34 193.46 603.03 193.48C603 193.48 602.97 193.48 602.93 193.48L602.94 193.47Z" fill="#232144"/>
<path d="M586.24 197.69H565.67C565.35 197.69 565.09 197.43 565.09 197.11C565.09 197.1 565.09 197.09 565.09 197.08C565.09 196.76 565.35 196.5 565.67 196.5H586.27C586.59 196.52 586.84 196.77 586.85 197.08C586.85 197.42 586.57 197.69 586.24 197.69Z" fill="#232144"/>
<path d="M700.11 169.62H644.59V211.65H700.11V169.62Z" fill="#8BD2FC"/>
<path d="M695.04 169.62H639.52V211.65H695.04V169.62Z" fill="white"/>
<path d="M651.33 187.05C648.12 187.05 645.52 184.45 645.52 181.24C645.52 178.03 648.12 175.43 651.33 175.43C654.54 175.43 657.14 178.03 657.14 181.24C657.14 184.45 654.54 187.05 651.33 187.05ZM651.33 177.24C649.12 177.24 647.33 179.03 647.33 181.24C647.33 183.45 649.12 185.24 651.33 185.24C653.54 185.24 655.33 183.45 655.33 181.24C655.31 179.04 653.53 177.26 651.33 177.24Z" fill="#232144"/>
<path d="M684.25 193.47H646.96C646.64 193.49 646.36 193.24 646.35 192.92C646.35 192.91 646.35 192.9 646.35 192.89C646.37 192.56 646.64 192.31 646.96 192.31H684.25C684.57 192.33 684.82 192.58 684.83 192.89C684.83 193.21 684.57 193.47 684.25 193.47Z" fill="#232144"/>
<path d="M667.53 197.69H646.96C646.64 197.69 646.38 197.43 646.38 197.11C646.38 197.1 646.38 197.09 646.38 197.08C646.38 196.76 646.64 196.5 646.96 196.5H667.53C667.86 196.42 668.19 196.63 668.27 196.96C668.35 197.29 668.14 197.62 667.81 197.7C667.72 197.72 667.63 197.72 667.54 197.7L667.53 197.69Z" fill="#232144"/>
<path d="M700.11 104.99H644.59V147.02H700.11V104.99Z" fill="#8BD2FC"/>
<path d="M695.04 104.99H639.52V147.02H695.04V104.99Z" fill="white"/>
<path d="M651.33 122.43C648.12 122.43 645.52 119.83 645.52 116.62C645.52 113.41 648.12 110.81 651.33 110.81C654.54 110.81 657.14 113.41 657.14 116.62C657.14 119.83 654.54 122.43 651.33 122.43ZM651.33 112.62C649.12 112.62 647.33 114.41 647.33 116.62C647.33 118.83 649.12 120.62 651.33 120.62C653.54 120.62 655.33 118.83 655.33 116.62C655.31 114.42 653.53 112.64 651.33 112.62Z" fill="#232144"/>
<path d="M684.25 128.85H646.96C646.64 128.87 646.36 128.62 646.35 128.3C646.35 128.29 646.35 128.28 646.35 128.27C646.37 127.94 646.64 127.69 646.96 127.69H684.25C684.57 127.71 684.82 127.96 684.83 128.27C684.83 128.59 684.57 128.85 684.25 128.85Z" fill="#232144"/>
<path d="M667.53 132.94H646.96C646.64 132.94 646.38 132.68 646.38 132.36C646.36 132.04 646.61 131.76 646.93 131.75C646.94 131.75 646.95 131.75 646.96 131.75H667.53C667.86 131.67 668.19 131.88 668.27 132.21C668.35 132.54 668.14 132.87 667.81 132.95C667.72 132.97 667.63 132.97 667.54 132.95L667.53 132.94Z" fill="#232144"/>
<path d="M537.48 104.99H481.96V147.02H537.48V104.99Z" fill="#8BD2FC"/>
<path d="M532.44 104.99H476.92V147.02H532.44V104.99Z" fill="white"/>
<path d="M534.41 147.73H530.04C529.55 147.73 529.15 147.33 529.15 146.84C529.15 146.35 529.55 145.95 530.04 145.95H534.41C535.71 145.93 536.76 144.88 536.78 143.58V107.58C536.78 106.27 535.72 105.21 534.41 105.21H530.04C529.55 105.21 529.15 104.81 529.15 104.32C529.15 103.83 529.55 103.43 530.04 103.43H534.41C536.69 103.41 538.54 105.24 538.56 107.52C538.56 107.54 538.56 107.56 538.56 107.58V143.58C538.58 145.86 536.75 147.71 534.47 147.73C534.45 147.73 534.43 147.73 534.41 147.73Z" fill="#232144"/>
<path d="M488.82 122.43C485.61 122.45 483 119.86 482.98 116.65C482.96 113.44 485.55 110.83 488.76 110.81C491.97 110.79 494.58 113.38 494.6 116.59C494.6 116.6 494.6 116.61 494.6 116.62C494.6 119.82 492.02 122.41 488.82 122.43ZM488.82 112.62C486.61 112.62 484.82 114.41 484.82 116.62C484.82 118.83 486.61 120.62 488.82 120.62C491.03 120.62 492.82 118.83 492.82 116.62C492.82 114.41 491.03 112.62 488.82 112.62Z" fill="#232144"/>
<path d="M521.62 128.85H484.33C484.01 128.85 483.75 128.59 483.75 128.27C483.77 127.95 484.02 127.7 484.33 127.69H521.62C521.95 127.69 522.22 127.95 522.23 128.27C522.23 128.59 521.97 128.85 521.65 128.85C521.64 128.85 521.63 128.85 521.62 128.85Z" fill="#232144"/>
<path d="M504.93 132.94H484.33C484.01 132.92 483.76 132.67 483.75 132.36C483.75 132.03 484.01 131.76 484.33 131.75H504.93C505.25 131.75 505.51 132.01 505.51 132.33C505.51 132.34 505.51 132.35 505.51 132.36C505.51 132.68 505.25 132.94 504.93 132.94Z" fill="#232144"/>
<path d="M537.48 169.62H481.96V211.65H537.48V169.62Z" fill="#8BD2FC"/>
<path d="M532.44 169.62H476.92V211.65H532.44V169.62Z" fill="white"/>
<path d="M529.74 212.35H479.94C477.77 212.35 476 210.59 476 208.41V171.98C475.98 169.81 477.73 168.03 479.9 168.01C479.91 168.01 479.92 168.01 479.93 168.01H529.73C531.91 168.03 533.67 169.8 533.67 171.98V208.41C533.67 210.58 531.91 212.35 529.73 212.35H529.74ZM479.94 169.83C478.75 169.83 477.79 170.79 477.79 171.98V208.41C477.79 209.6 478.75 210.56 479.94 210.56H529.74C530.92 210.54 531.88 209.59 531.89 208.41V171.98C531.89 170.79 530.93 169.83 529.74 169.83H479.94Z" fill="#232144"/>
<path d="M534.41 212.35H530.04C529.55 212.35 529.15 211.95 529.15 211.46C529.15 210.97 529.55 210.57 530.04 210.57H534.41C535.71 210.55 536.76 209.5 536.78 208.2V172.2C536.78 170.89 535.72 169.83 534.41 169.83H530.04C529.55 169.83 529.15 169.43 529.15 168.94C529.15 168.44 529.54 168.03 530.04 168.02H534.41C536.7 168.02 538.56 169.88 538.56 172.17C538.56 172.18 538.56 172.19 538.56 172.2V208.2C538.58 210.48 536.75 212.33 534.47 212.35C534.45 212.35 534.43 212.35 534.41 212.35Z" fill="#232144"/>
<path d="M488.82 187.05C485.61 187.07 483 184.48 482.98 181.27C482.96 178.06 485.55 175.45 488.76 175.43C491.97 175.41 494.58 178 494.6 181.21C494.6 181.22 494.6 181.23 494.6 181.24C494.6 184.44 492.02 187.03 488.82 187.05ZM488.82 177.24C486.61 177.24 484.82 179.03 484.82 181.24C484.82 183.45 486.61 185.24 488.82 185.24C491.03 185.24 492.82 183.45 492.82 181.24C492.82 179.03 491.03 177.24 488.82 177.24Z" fill="#232144"/>
<path d="M521.62 193.47H484.33C484.01 193.47 483.75 193.21 483.75 192.89C483.77 192.57 484.02 192.32 484.33 192.31H521.62C521.95 192.31 522.22 192.57 522.23 192.89C522.23 193.21 521.97 193.47 521.65 193.47C521.64 193.47 521.63 193.47 521.62 193.47Z" fill="#232144"/>
<path d="M504.93 197.69H484.33C484 197.67 483.75 197.4 483.75 197.08C483.77 196.76 484.02 196.51 484.33 196.5H504.93C505.25 196.5 505.51 196.76 505.51 197.08C505.53 197.4 505.28 197.68 504.96 197.69C504.95 197.69 504.94 197.69 504.93 197.69Z" fill="#232144"/>
<path d="M702.88 230.03C702.74 230.07 702.59 230.07 702.45 230.03C702.13 229.79 702.07 229.34 702.3 229.02L709.31 219.03C709.53 218.71 709.97 218.62 710.29 218.84C710.62 219.05 710.71 219.49 710.5 219.82C710.5 219.83 710.48 219.84 710.47 219.86L703.46 229.82C703.31 229.98 703.09 230.06 702.88 230.04V230.03Z" fill="#1F033C"/>
<path d="M708.05 230.03C707.91 230.07 707.76 230.07 707.62 230.03C707.35 229.75 707.35 229.3 707.62 229.02L711.31 223.86C711.55 223.54 712 223.48 712.32 223.71C712.59 223.98 712.59 224.42 712.32 224.69L708.63 229.85C708.47 230 708.26 230.06 708.05 230.03Z" fill="#1F033C"/>
<path d="M739.31 267.57L714.78 292.1V304.49H564.63V292.1L601.62 267.57H739.31Z" fill="#FFF9DE"/>
<path d="M714.78 304.49H739.9L757.95 304.18L758.25 287.21V283.37V267.6L739.9 267.57L715 291.82L714.78 304.49Z" fill="#E2C19A"/>
<path d="M587.2 298.95H565.68C565.48 298.97 565.3 298.82 565.28 298.61C565.28 298.6 565.28 298.59 565.28 298.58C565.28 298.36 565.46 298.18 565.68 298.18H587.2C587.41 298.2 587.57 298.37 587.57 298.58C587.57 298.78 587.4 298.95 587.2 298.95Z" fill="#282833"/>
<path d="M756.84 298.95H735.32C735.12 298.95 734.95 298.78 734.95 298.58C734.93 298.38 735.08 298.2 735.29 298.18C735.3 298.18 735.31 298.18 735.32 298.18H756.84C757.06 298.18 757.24 298.36 757.24 298.58C757.24 298.78 757.08 298.95 756.87 298.95C756.86 298.95 756.85 298.95 756.84 298.95Z" fill="#282833"/>
<path d="M584.31 283.8C583.93 283.81 583.57 283.63 583.36 283.31C583 282.79 583.13 282.09 583.64 281.73C583.64 281.73 583.66 281.72 583.66 281.71L602.11 269.17C602.3 269.04 602.52 268.96 602.76 268.95H653.58C654.22 269.05 654.65 269.66 654.54 270.29C654.46 270.78 654.07 271.17 653.58 271.25H603.07L584.93 283.55C584.75 283.69 584.54 283.78 584.32 283.8H584.31Z" fill="white"/>
<path d="M750.23 281.12C751.655 281.12 752.81 279.647 752.81 277.83C752.81 276.013 751.655 274.54 750.23 274.54C748.805 274.54 747.65 276.013 747.65 277.83C747.65 279.647 748.805 281.12 750.23 281.12Z" fill="#BA946A"/>
<path d="M750.14 281.68C748.03 282.14 745.95 280.8 745.49 278.69C745.03 276.58 746.37 274.5 748.48 274.04C750.59 273.58 752.67 274.92 753.13 277.03C753.19 277.29 753.22 277.56 753.22 277.83C753.4 279.73 752.04 281.43 750.15 281.67L750.14 281.68ZM750.14 275.07C749 275.07 748.08 276.33 748.08 277.84C748.08 279.35 749 280.64 750.14 280.64C751.28 280.64 752.23 279.38 752.23 277.84C752.23 276.3 751.37 275.07 750.14 275.07Z" fill="#282833"/>
<path d="M744.08 248.63C745.505 248.63 746.66 247.157 746.66 245.34C746.66 243.523 745.505 242.05 744.08 242.05C742.655 242.05 741.5 243.523 741.5 245.34C741.5 247.157 742.655 248.63 744.08 248.63Z" fill="#BA946A"/>
<path d="M743.99 249.15C741.88 249.61 739.8 248.27 739.34 246.16C738.88 244.05 740.22 241.97 742.33 241.51C744.44 241.05 746.52 242.39 746.98 244.5C747.04 244.77 747.07 245.05 747.07 245.33C747.25 247.22 745.89 248.92 744 249.14L743.99 249.15ZM743.99 242.54C742.85 242.54 741.93 243.8 741.93 245.34C741.93 246.88 742.85 248.11 743.99 248.11C745.13 248.11 746.08 246.85 746.08 245.34C746.08 243.83 745.22 242.54 743.99 242.54Z" fill="#282833"/>
<path d="M750.14 279H764.44C771.43 279.38 778.01 275.67 781.32 269.5C785.08 261.99 782.99 252.86 776.34 247.73C771.54 244.07 766.13 244.16 760.45 244.16H744.31C743.67 244.26 743.24 244.87 743.35 245.5C743.43 245.99 743.82 246.38 744.31 246.46H756.61C761.14 246.05 765.7 246.25 770.17 247.07C778.18 249.57 782.71 258.02 780.35 266.07C778.21 272.67 771.91 277.02 764.98 276.68H750.16C749.52 276.78 749.09 277.39 749.2 278.02C749.28 278.51 749.67 278.9 750.16 278.98L750.14 279Z" fill="#282833"/>
<path d="M606.19 283.21H600.2V288.81H606.19V283.21Z" fill="#E2C19A"/>
<path d="M607.52 281.92H600.08C599.43 281.92 598.91 282.44 598.91 283.09V288.65C598.93 289.29 599.44 289.8 600.08 289.82H607.52C608.15 289.8 608.66 289.29 608.66 288.65V283.09C608.66 282.46 608.16 281.94 607.52 281.92C606.88 281.94 606.37 282.45 606.35 283.09V288.65L607.52 287.51H600.08L601.22 288.65V283.09L600.08 284.23H607.52C608.16 284.13 608.59 283.52 608.48 282.89C608.4 282.4 608.01 282.01 607.52 281.93V281.92Z" fill="#282833"/>
<path d="M605.64 288.87C605.22 288.87 604.87 288.53 604.87 288.1V283.58C604.87 283.16 605.21 282.81 605.64 282.81C606.07 282.81 606.41 283.15 606.41 283.58V288.1C606.41 288.52 606.07 288.87 605.64 288.87Z" fill="#282833"/>
<path d="M619.84 283.21H613.85V288.81H619.84V283.21Z" fill="#E2C19A"/>
<path d="M621.01 281.92H613.57C612.94 281.94 612.43 282.45 612.43 283.09V288.65C612.43 289.28 612.93 289.8 613.57 289.82H621.01C621.65 289.8 622.16 289.29 622.18 288.65V283.09C622.28 282.45 621.85 281.85 621.22 281.75C620.58 281.65 619.98 282.08 619.88 282.71C619.86 282.84 619.86 282.96 619.88 283.09V288.65L621.02 287.51H613.58L614.75 288.65V283.09L613.58 284.23H621.02C621.66 284.33 622.26 283.9 622.36 283.27C622.46 282.63 622.03 282.03 621.4 281.93C621.27 281.91 621.15 281.91 621.02 281.93L621.01 281.92Z" fill="#282833"/>
<path d="M619.35 288.87C618.93 288.85 618.6 288.52 618.58 288.1V283.58C618.58 283.16 618.92 282.81 619.35 282.81C619.78 282.81 620.12 283.15 620.12 283.58V288.1C620.12 288.52 619.78 288.87 619.35 288.87Z" fill="#282833"/>
<path d="M633.46 283.21H627.47V288.81H633.46V283.21Z" fill="#E2C19A"/>
<path d="M634.79 281.92H627.35C626.7 281.92 626.18 282.44 626.18 283.09V288.65C626.2 289.29 626.71 289.8 627.35 289.82H634.79C635.43 289.8 635.94 289.29 635.96 288.65V283.09C635.94 282.45 635.43 281.94 634.79 281.92C634.16 281.94 633.65 282.45 633.65 283.09V288.65L634.79 287.51H627.35L628.49 288.65V283.09L627.35 284.23H634.79C635.43 284.33 636.03 283.9 636.13 283.27C636.23 282.63 635.8 282.03 635.17 281.93C635.04 281.91 634.92 281.91 634.79 281.93V281.92Z" fill="#282833"/>
<path d="M633 288.87C632.58 288.87 632.23 288.53 632.23 288.1V283.58C632.23 283.16 632.57 282.81 633 282.81C633.43 282.81 633.77 283.15 633.77 283.58V288.1C633.77 288.52 633.43 288.87 633 288.87Z" fill="#282833"/>
<path d="M647.11 283.21H641.12V288.81H647.11V283.21Z" fill="#E2C19A"/>
<path d="M648.44 281.92H640.97C640.34 281.94 639.83 282.45 639.83 283.09V288.65C639.83 289.28 640.33 289.8 640.97 289.82H648.44C649.07 289.8 649.58 289.29 649.58 288.65V283.09C649.68 282.45 649.25 281.85 648.62 281.75C647.98 281.65 647.38 282.08 647.28 282.71C647.26 282.84 647.26 282.96 647.28 283.09V288.65L648.45 287.51H640.98L642.15 288.65V283.09L640.98 284.23H648.45C649.09 284.13 649.52 283.52 649.41 282.89C649.33 282.4 648.94 282.01 648.45 281.93L648.44 281.92Z" fill="#282833"/>
<path d="M646.62 288.87C646.2 288.85 645.87 288.52 645.85 288.1V283.58C645.85 283.16 646.19 282.81 646.62 282.81C647.05 282.81 647.39 283.15 647.39 283.58V288.1C647.39 288.52 647.05 288.87 646.62 288.87Z" fill="#282833"/>
<path d="M660.45 283.21H654.46V288.81H660.45V283.21Z" fill="#E2C19A"/>
<path d="M661.78 281.92H654.31C653.68 281.94 653.17 282.45 653.17 283.09V288.65C653.17 289.28 653.67 289.8 654.31 289.82H661.78C662.41 289.8 662.92 289.29 662.92 288.65V283.09C663.02 282.45 662.59 281.85 661.96 281.75C661.32 281.65 660.72 282.08 660.62 282.71C660.6 282.84 660.6 282.96 660.62 283.09V288.65L661.79 287.51H654.32L655.49 288.65V283.09L654.32 284.23H661.79C662.43 284.13 662.86 283.52 662.75 282.89C662.67 282.4 662.28 282.01 661.79 281.93L661.78 281.92Z" fill="#282833"/>
<path d="M659.97 288.87C659.55 288.85 659.22 288.52 659.2 288.1V283.58C659.2 283.16 659.54 282.81 659.97 282.81C660.4 282.81 660.74 283.15 660.74 283.58V288.1C660.74 288.52 660.4 288.87 659.97 288.87Z" fill="#282833"/>
<path d="M674.1 283.21H668.11V288.81H674.1V283.21Z" fill="#E2C19A"/>
<path d="M675.4 281.92H667.96C667.32 281.94 666.81 282.45 666.79 283.09V288.65C666.81 289.29 667.32 289.8 667.96 289.82H675.4C676.04 289.8 676.55 289.29 676.57 288.65V283.09C676.55 282.45 676.04 281.94 675.4 281.92C674.77 281.94 674.26 282.45 674.26 283.09V288.65L675.4 287.51H667.96L669.1 288.65V283.09L667.96 284.23H675.4C676.03 284.23 676.55 283.73 676.57 283.09C676.55 282.45 676.04 281.94 675.4 281.92Z" fill="#282833"/>
<path d="M673.62 288.87C673.2 288.87 672.85 288.53 672.85 288.1V283.58C672.85 283.16 673.19 282.81 673.62 282.81C674.05 282.81 674.39 283.15 674.39 283.58V288.1C674.39 288.52 674.05 288.87 673.62 288.87Z" fill="#282833"/>
<path d="M687.72 283.21H681.73V288.81H687.72V283.21Z" fill="#E2C19A"/>
<path d="M689.05 281.92H681.58C680.95 281.94 680.44 282.45 680.44 283.09V288.65C680.44 289.28 680.94 289.8 681.58 289.82H689.05C689.68 289.8 690.19 289.29 690.19 288.65V283.09C690.29 282.45 689.86 281.85 689.23 281.75C688.59 281.65 687.99 282.08 687.89 282.71C687.87 282.84 687.87 282.96 687.89 283.09V288.65L689.06 287.51H681.59L682.76 288.65V283.09L681.59 284.23H689.06C689.7 284.13 690.13 283.52 690.02 282.89C689.94 282.4 689.55 282.01 689.06 281.93L689.05 281.92Z" fill="#282833"/>
<path d="M687.27 288.87C686.85 288.87 686.5 288.53 686.5 288.1V283.58C686.5 283.16 686.84 282.81 687.27 282.81C687.7 282.81 688.04 283.15 688.04 283.58V288.1C688.02 288.52 687.69 288.85 687.27 288.87Z" fill="#282833"/>
<path d="M701.37 283.21H695.38V288.81H701.37V283.21Z" fill="#E2C19A"/>
<path d="M702.67 281.92H695.23C694.59 281.94 694.08 282.45 694.06 283.09V288.65C694.08 289.29 694.59 289.8 695.23 289.82H702.67C703.31 289.8 703.82 289.29 703.84 288.65V283.09C703.94 282.45 703.51 281.85 702.88 281.75C702.24 281.65 701.64 282.08 701.54 282.71C701.52 282.84 701.52 282.96 701.54 283.09V288.65L702.68 287.51H695.24L696.38 288.65V283.09L695.24 284.23H702.68C703.31 284.23 703.83 283.73 703.85 283.09C703.83 282.45 703.32 281.94 702.68 281.92H702.67Z" fill="#282833"/>
<path d="M700.95 288.87C700.53 288.87 700.18 288.53 700.18 288.1V283.58C700.18 283.16 700.52 282.81 700.95 282.81C701.38 282.81 701.72 283.15 701.72 283.58V288.1C701.72 288.52 701.38 288.87 700.95 288.87Z" fill="#282833"/>
<path d="M616.52 272.91H610.53V278.51H616.52V272.91Z" fill="#E2C19A"/>
<path d="M617.94 271.62H610.5C609.87 271.62 609.35 272.12 609.33 272.76V278.36C609.35 278.99 609.86 279.5 610.5 279.5H617.94C618.57 279.5 619.09 279 619.11 278.36V272.76C619.01 272.12 618.4 271.69 617.77 271.8C617.28 271.88 616.89 272.27 616.81 272.76V278.36L617.95 277.19H610.51L611.65 278.36V272.76L610.51 273.93H617.95C618.59 274.03 619.19 273.6 619.29 272.97C619.39 272.33 618.96 271.73 618.33 271.63C618.2 271.61 618.08 271.61 617.95 271.63L617.94 271.62Z" fill="#282833"/>
<path d="M616.03 278.54C615.61 278.54 615.26 278.2 615.26 277.77V273.28C615.26 272.86 615.6 272.51 616.03 272.51C616.46 272.51 616.8 272.85 616.8 273.28V277.77C616.8 278.19 616.46 278.54 616.03 278.54Z" fill="#282833"/>
<path d="M630.14 272.91H624.15V278.51H630.14V272.91Z" fill="#E2C19A"/>
<path d="M631.47 271.62H624.09C623.47 271.64 622.97 272.14 622.95 272.76V278.36C622.97 278.98 623.47 279.48 624.09 279.5H631.56C632.18 279.48 632.68 278.98 632.7 278.36V272.76C632.6 272.12 631.99 271.69 631.36 271.8C630.87 271.88 630.48 272.27 630.4 272.76V278.36L631.57 277.19H624.1L625.27 278.36V272.76L624.1 273.93H631.57C632.2 273.91 632.71 273.4 632.71 272.76C632.69 272.12 632.16 271.61 631.51 271.62C631.5 271.62 631.49 271.62 631.48 271.62H631.47Z" fill="#282833"/>
<path d="M629.68 278.54C629.26 278.54 628.91 278.2 628.91 277.77V273.28C628.91 272.86 629.25 272.51 629.68 272.51C630.11 272.51 630.45 272.85 630.45 273.28V277.77C630.45 278.19 630.11 278.54 629.68 278.54Z" fill="#282833"/>
<path d="M643.79 272.91H637.8V278.51H643.79V272.91Z" fill="#E2C19A"/>
<path d="M645.09 271.62H637.65C637.02 271.62 636.5 272.12 636.48 272.76V278.36C636.5 278.99 637.01 279.5 637.65 279.5H645.09C645.72 279.5 646.24 279 646.26 278.36V272.76C646.16 272.12 645.55 271.69 644.92 271.8C644.43 271.88 644.04 272.27 643.96 272.76V278.36L645.1 277.19H637.66L638.8 278.36V272.76L637.66 273.93H645.1C645.74 274.03 646.34 273.6 646.44 272.97C646.54 272.33 646.11 271.73 645.48 271.63C645.35 271.61 645.23 271.61 645.1 271.63L645.09 271.62Z" fill="#282833"/>
<path d="M643.3 278.54C642.88 278.54 642.53 278.2 642.53 277.77V273.28C642.53 272.86 642.87 272.51 643.3 272.51C643.73 272.51 644.07 272.85 644.07 273.28V277.77C644.07 278.19 643.73 278.54 643.3 278.54Z" fill="#282833"/>
<path d="M657.41 272.91H651.42V278.51H657.41V272.91Z" fill="#E2C19A"/>
<path d="M658.74 271.62H651.27C650.65 271.64 650.15 272.14 650.13 272.76V278.36C650.15 278.98 650.65 279.48 651.27 279.5H658.74C659.36 279.48 659.86 278.98 659.88 278.36V272.76C659.86 272.14 659.36 271.64 658.74 271.62C658.11 271.62 657.59 272.12 657.57 272.76V278.36L658.74 277.19H651.27L652.44 278.36V272.76L651.27 273.93H658.74C659.37 273.91 659.88 273.4 659.88 272.76C659.86 272.14 659.36 271.64 658.74 271.62Z" fill="#282833"/>
<path d="M656.95 278.54C656.53 278.54 656.18 278.2 656.18 277.77V273.28C656.18 272.86 656.52 272.51 656.95 272.51C657.38 272.51 657.72 272.85 657.72 273.28V277.77C657.72 278.19 657.38 278.54 656.95 278.54Z" fill="#282833"/>
<path d="M670.75 272.91H664.76V278.51H670.75V272.91Z" fill="#E2C19A"/>
<path d="M672.08 271.62H664.64C664.01 271.62 663.49 272.12 663.47 272.76V278.36C663.49 278.99 664 279.5 664.64 279.5H672.08C672.7 279.48 673.2 278.98 673.22 278.36V272.76C673.2 272.14 672.7 271.64 672.08 271.62C671.45 271.62 670.93 272.12 670.91 272.76V278.36L672.08 277.19H664.64L665.78 278.36V272.76L664.64 273.93H672.08C672.71 273.91 673.22 273.4 673.22 272.76C673.22 272.13 672.71 271.62 672.08 271.62Z" fill="#282833"/>
<path d="M670.2 278.54C669.78 278.54 669.43 278.2 669.43 277.77V273.28C669.43 272.86 669.77 272.51 670.2 272.51C670.63 272.51 670.97 272.85 670.97 273.28V277.77C670.97 278.19 670.63 278.54 670.2 278.54Z" fill="#282833"/>
<path d="M684.4 272.91H678.41V278.51H684.4V272.91Z" fill="#E2C19A"/>
<path d="M685.58 271.62H678.14C677.52 271.64 677.02 272.14 677 272.76V278.36C677.02 278.98 677.52 279.48 678.14 279.5H685.58C686.21 279.5 686.73 279 686.75 278.36V272.76C686.65 272.12 686.04 271.69 685.41 271.8C684.92 271.88 684.53 272.27 684.45 272.76V278.36L685.59 277.19H678.15L679.32 278.36V272.76L678.15 273.93H685.59C686.23 273.91 686.74 273.4 686.76 272.76C686.74 272.13 686.23 271.62 685.59 271.62H685.58Z" fill="#282833"/>
<path d="M683.92 278.54C683.5 278.54 683.15 278.2 683.15 277.77V273.28C683.15 272.86 683.49 272.51 683.92 272.51C684.35 272.51 684.69 272.85 684.69 273.28V277.77C684.69 278.19 684.35 278.54 683.92 278.54Z" fill="#282833"/>
<path d="M698.02 272.91H692.03V278.51H698.02V272.91Z" fill="#E2C19A"/>
<path d="M699.35 271.62H691.91C691.28 271.62 690.76 272.12 690.74 272.76V278.36C690.76 278.99 691.27 279.5 691.91 279.5H699.35C699.98 279.5 700.5 279 700.52 278.36V272.76C700.5 272.13 699.99 271.62 699.35 271.62C698.73 271.64 698.23 272.14 698.21 272.76V278.36L699.35 277.19H691.91L693.05 278.36V272.76L691.91 273.93H699.35C699.99 273.91 700.5 273.4 700.52 272.76C700.5 272.13 699.99 271.62 699.35 271.62Z" fill="#282833"/>
<path d="M697.57 278.54C697.15 278.54 696.8 278.2 696.8 277.77V273.28C696.8 272.86 697.14 272.51 697.57 272.51C698 272.51 698.34 272.85 698.34 273.28V277.77C698.34 278.19 698 278.54 697.57 278.54Z" fill="#282833"/>
<path d="M711.67 272.91H705.68V278.51H711.67V272.91Z" fill="#E2C19A"/>
<path d="M713 271.62H705.53C704.91 271.64 704.41 272.14 704.39 272.76V278.36C704.41 278.98 704.91 279.48 705.53 279.5H713C713.62 279.48 714.12 278.98 714.14 278.36V272.76C714.04 272.12 713.43 271.69 712.8 271.8C712.31 271.88 711.92 272.27 711.84 272.76V278.36L713.01 277.19H705.54L706.71 278.36V272.76L705.54 273.93H713.01C713.64 273.91 714.15 273.4 714.15 272.76C714.13 272.14 713.63 271.64 713.01 271.62H713Z" fill="#282833"/>
<path d="M711.18 278.54C710.76 278.54 710.41 278.2 710.41 277.77V273.28C710.41 272.86 710.75 272.51 711.18 272.51C711.61 272.51 711.95 272.85 711.95 273.28V277.77C711.95 278.19 711.61 278.54 711.18 278.54Z" fill="#282833"/>
<path d="M534.63 150.46H488.82C487.97 150.46 487.28 149.77 487.28 148.92C487.28 148.07 487.97 147.38 488.82 147.38H534.93C537.14 147.38 538.93 145.59 538.93 143.38V113.04C538.93 112.19 539.62 111.5 540.47 111.5C541.32 111.5 542.01 112.19 542.01 113.04V143.38C542 147.3 538.81 150.47 534.88 150.46C534.8 150.46 534.71 150.46 534.63 150.46Z" fill="#8BD2FC"/>
<path d="M534.63 215.7H488.82C487.97 215.7 487.28 215.01 487.28 214.16C487.28 213.31 487.97 212.62 488.82 212.62H534.93C537.14 212.62 538.93 210.83 538.93 208.62V178.28C538.93 177.43 539.62 176.74 540.47 176.74C541.32 176.74 542.01 177.43 542.01 178.28V208.62C542.01 212.53 538.85 215.69 534.95 215.7C534.85 215.7 534.74 215.7 534.64 215.7H534.63Z" fill="#8BD2FC"/>
<path d="M615.79 150.46H569.68C568.83 150.46 568.14 149.77 568.14 148.92C568.14 148.07 568.83 147.38 569.68 147.38H615.79C618 147.38 619.79 145.59 619.79 143.38V113.04C619.79 112.19 620.48 111.5 621.33 111.5C622.18 111.5 622.87 112.19 622.87 113.04V143.38C622.85 147.28 619.7 150.43 615.8 150.45L615.79 150.46Z" fill="#8BD2FC"/>
<path d="M615.79 215.12H569.68C568.83 215.12 568.14 214.43 568.14 213.58C568.14 212.73 568.83 212.04 569.68 212.04H615.79C618 212.04 619.79 210.25 619.79 208.04V177.7C619.79 176.85 620.48 176.16 621.33 176.16C622.18 176.16 622.87 176.85 622.87 177.7V208.04C622.87 211.95 619.7 215.11 615.8 215.11L615.79 215.12Z" fill="#8BD2FC"/>
<path d="M697.1 150.46H650.99C650.15 150.44 649.47 149.76 649.45 148.92C649.45 148.07 650.14 147.38 650.99 147.38H697.1C699.3 147.36 701.08 145.58 701.1 143.38V113.04C701.1 112.19 701.79 111.5 702.64 111.5C703.49 111.5 704.18 112.19 704.18 113.04V143.38C704.16 147.28 701.01 150.43 697.11 150.45L697.1 150.46Z" fill="#8BD2FC"/>
<path d="M697.26 215.39H651.15C650.3 215.39 649.61 214.7 649.61 213.85C649.61 213 650.3 212.31 651.15 212.31H697.26C699.47 212.31 701.26 210.52 701.26 208.31V177.97C701.26 177.12 701.95 176.43 702.8 176.43C703.65 176.43 704.34 177.12 704.34 177.97V208.31C704.34 212.22 701.17 215.38 697.27 215.38L697.26 215.39Z" fill="#8BD2FC"/>
<path d="M529.74 147.73H479.94C477.77 147.73 476 145.97 476 143.79V107.36C476 105.19 477.76 103.42 479.94 103.42H529.74C531.91 103.42 533.68 105.18 533.68 107.36V143.79C533.68 145.96 531.92 147.73 529.74 147.73ZM479.94 105.27C478.75 105.27 477.79 106.23 477.79 107.42V143.79C477.79 144.98 478.75 145.94 479.94 145.94H529.74C530.92 145.92 531.88 144.97 531.89 143.79V107.36C531.89 106.17 530.93 105.21 529.74 105.21L479.94 105.27Z" fill="#232144"/>
<path d="M611.02 147.73H561.25C559.08 147.75 557.3 146 557.28 143.83C557.28 143.82 557.28 143.81 557.28 143.8V107.36C557.28 105.19 559.04 103.42 561.22 103.42C561.23 103.42 561.24 103.42 561.25 103.42H611.02C613.16 103.47 614.86 105.22 614.86 107.36V143.79C614.86 145.93 613.15 147.68 611.02 147.73ZM561.25 105.27C560.06 105.27 559.1 106.23 559.1 107.42V143.79C559.1 144.98 560.06 145.94 561.25 145.94H611.02C612.21 145.94 613.17 144.98 613.17 143.79V107.36C613.17 106.17 612.21 105.21 611.02 105.21L561.25 105.27Z" fill="#232144"/>
<path d="M615.73 147.73H611.36C610.87 147.73 610.47 147.33 610.47 146.84C610.47 146.35 610.87 145.95 611.36 145.95H615.73C617.03 145.93 618.08 144.88 618.1 143.58V107.58C618.1 106.27 617.04 105.21 615.73 105.21H611.36C610.87 105.21 610.47 104.81 610.47 104.32C610.47 103.83 610.87 103.43 611.36 103.43H615.73C618.02 103.43 619.88 105.29 619.88 107.58V143.58C619.88 145.87 618.02 147.73 615.73 147.73Z" fill="#232144"/>
<path d="M692.34 147.73H642.54C640.37 147.73 638.6 145.97 638.6 143.79V107.36C638.6 105.19 640.36 103.42 642.54 103.42H692.34C694.51 103.42 696.28 105.18 696.28 107.36V143.79C696.28 145.96 694.52 147.73 692.34 147.73ZM642.54 105.27C641.35 105.27 640.39 106.23 640.39 107.42V143.79C640.41 144.97 641.36 145.93 642.54 145.94H692.34C693.53 145.94 694.49 144.98 694.49 143.79V107.36C694.49 106.17 693.53 105.21 692.34 105.21L642.54 105.27Z" fill="#232144"/>
<path d="M697.01 147.73H692.64C692.15 147.73 691.75 147.33 691.75 146.84C691.75 146.35 692.15 145.95 692.64 145.95H697.01C698.32 145.95 699.38 144.89 699.38 143.58V107.58C699.4 106.29 698.36 105.23 697.07 105.21C697.05 105.21 697.03 105.21 697.01 105.21H692.64C692.15 105.21 691.75 104.81 691.75 104.32C691.75 103.83 692.15 103.43 692.64 103.43H697.01C699.3 103.41 701.17 105.26 701.19 107.55C701.19 107.56 701.19 107.57 701.19 107.58V143.58C701.19 145.87 699.33 147.73 697.04 147.73C697.03 147.73 697.02 147.73 697.01 147.73Z" fill="#232144"/>
<path d="M611.02 212.35H561.25C559.08 212.37 557.3 210.62 557.28 208.45C557.28 208.44 557.28 208.43 557.28 208.42V171.99C557.28 169.8 559.06 168.02 561.25 168.02H611.02C613.16 168.09 614.86 169.84 614.86 171.99V208.42C614.86 210.56 613.15 212.31 611.02 212.36V212.35ZM561.25 169.83C560.06 169.83 559.1 170.79 559.1 171.98V208.41C559.1 209.6 560.06 210.56 561.25 210.56H611.02C612.21 210.56 613.17 209.6 613.17 208.41V171.98C613.17 170.79 612.21 169.83 611.02 169.83H561.25Z" fill="#232144"/>
<path d="M615.73 212.35H611.36C610.87 212.35 610.47 211.95 610.47 211.46C610.47 210.97 610.87 210.57 611.36 210.57H615.73C617.03 210.55 618.08 209.5 618.1 208.2V172.2C618.1 170.89 617.04 169.83 615.73 169.83H611.36C610.87 169.83 610.47 169.43 610.47 168.94C610.47 168.44 610.86 168.03 611.36 168.02H615.73C618.03 168.04 619.88 169.9 619.88 172.2V208.2C619.88 210.49 618.02 212.35 615.73 212.35Z" fill="#232144"/>
<path d="M692.34 212.35H642.54C640.37 212.35 638.6 210.59 638.6 208.41V171.98C638.6 169.8 640.36 168.03 642.54 168.01H692.34C694.51 168.01 696.28 169.77 696.28 171.95C696.28 171.96 696.28 171.97 696.28 171.98V208.41C696.28 210.58 694.52 212.35 692.34 212.35ZM642.54 169.83C641.35 169.83 640.39 170.79 640.39 171.98V208.41C640.41 209.59 641.36 210.55 642.54 210.56H692.34C693.53 210.56 694.49 209.6 694.49 208.41V171.98C694.49 170.79 693.53 169.83 692.34 169.83H642.54Z" fill="#232144"/>
<path d="M697.01 212.35H692.64C692.15 212.35 691.75 211.95 691.75 211.46C691.75 210.97 692.15 210.57 692.64 210.57H697.01C698.32 210.57 699.38 209.51 699.38 208.2V172.2C699.4 170.91 698.36 169.85 697.07 169.83C697.05 169.83 697.03 169.83 697.01 169.83H692.64C692.15 169.83 691.75 169.43 691.75 168.94C691.75 168.44 692.14 168.03 692.64 168.02H697.01C699.32 168.02 701.19 169.89 701.19 172.2V208.2C701.19 210.49 699.33 212.35 697.04 212.35C697.03 212.35 697.02 212.35 697.01 212.35Z" fill="#232144"/>
<path d="M242.56 143.24H113.75C112.05 143.24 110.68 141.86 110.68 140.17C110.68 138.48 112.06 137.1 113.75 137.1H242.56C244.26 137.1 245.63 138.48 245.63 140.17C245.63 141.86 244.25 143.24 242.56 143.24Z" fill="#525266"/>
<path d="M247.48 269.32V306.67C247.48 309.74 246.31 310.76 243.39 310.76H112.18L113.75 312.3V137.67L112.18 139.21H144.89C145.74 139.04 146.29 138.21 146.12 137.36C146 136.74 145.51 136.26 144.89 136.13H112.18C111.32 136.15 110.63 136.84 110.61 137.7V312.32C110.63 313.18 111.32 313.87 112.18 313.89H243.27C246.77 313.89 250.16 313.37 250.59 309C251.24 302.54 250.59 295.69 250.59 289.17V269.31C250.42 268.46 249.59 267.91 248.74 268.08C248.12 268.2 247.64 268.69 247.51 269.31H247.48V269.32Z" fill="#282833"/>
<path d="M192.51 139.09H243.57C245.63 139.09 247.29 139.09 247.47 141.61C247.65 144.13 247.47 147.57 247.47 150.49V206.72C247.64 207.57 248.47 208.12 249.32 207.95C249.94 207.83 250.42 207.34 250.55 206.72V152.18C250.55 147.41 252.67 136.53 245.54 136.1C237.15 135.58 228.54 136.1 220.12 136.1H192.45C191.6 136.27 191.05 137.1 191.22 137.95C191.34 138.57 191.83 139.05 192.45 139.18L192.51 139.09Z" fill="#282833"/>
<path d="M153.38 139.09H186.71C187.56 138.92 188.11 138.09 187.94 137.24C187.82 136.62 187.33 136.14 186.71 136.01H153.38C152.53 136.18 151.98 137.01 152.15 137.86C152.27 138.48 152.76 138.96 153.38 139.09Z" fill="#282833"/>
<path d="M128.05 321.15H49.8C48.83 321.15 48.05 320.37 48.05 319.4C48.05 318.43 48.83 317.65 49.8 317.65H128.05C129.02 317.65 129.8 318.43 129.8 319.4C129.8 320.37 129.02 321.15 128.05 321.15Z" fill="#000201"/>
<path d="M250 185.97H303.62C304.47 185.67 304.92 184.74 304.62 183.89C304.46 183.42 304.09 183.06 303.62 182.89H250C249.15 183.19 248.7 184.12 249 184.97C249.16 185.44 249.53 185.8 250 185.97Z" fill="#282833"/>
<path d="M358.99 186.06H419.52C420.37 185.76 420.82 184.83 420.52 183.98C420.36 183.51 419.99 183.15 419.52 182.98H358.99C358.1 183.1 357.48 183.93 357.6 184.82C357.7 185.54 358.27 186.11 358.99 186.21V186.06Z" fill="#282833"/>
<path d="M717.06 302.03C716.21 302.03 715.52 301.34 715.52 300.49V293.27C715.52 292.87 715.68 292.49 715.95 292.19L739.62 268.21C740.26 267.65 741.23 267.72 741.79 268.36C742.29 268.93 742.29 269.78 741.8 270.36L718.59 293.91V300.55C718.56 301.37 717.88 302.03 717.05 302.03H717.06Z" fill="#D89A56"/>
<path d="M565.68 294.13H714.2C714.96 294.13 715.58 293.51 715.58 292.75C715.58 291.99 714.96 291.37 714.2 291.37H565.68C564.92 291.37 564.3 291.99 564.3 292.75C564.3 293.51 564.92 294.13 565.68 294.13Z" fill="#282833"/>
<path d="M738.12 266.64L718.72 286.07C717.06 287.7 713.8 289.88 713.19 292.22C712.96 294.26 712.96 296.33 713.19 298.37V304.52L714.57 303.14H564.42L565.8 304.52V293.98C565.8 293.61 566.02 292.66 565.8 292.38C565.58 292.1 564.91 293.27 565.31 293.24C565.71 293.21 566.94 292.16 567.37 291.89L587.72 278.36L597.77 271.66C598.78 270.98 599.86 270.37 600.84 269.63C601.82 268.89 602.78 268.74 601.39 269.02C603.86 268.79 606.36 268.79 608.83 269.02H739.09C739.85 269.02 740.47 268.4 740.47 267.64C740.47 266.88 739.85 266.26 739.09 266.26H610.61C607.54 265.98 604.45 265.98 601.39 266.26C600.38 266.54 599.45 267.03 598.65 267.7L589.83 273.57L566.16 289.28C564.5 290.36 563.09 290.82 562.9 292.85C562.68 296.75 562.68 300.66 562.9 304.56C562.92 305.32 563.53 305.93 564.28 305.94H714.43C715.19 305.92 715.8 305.31 715.81 304.56V292.26C715.81 292.26 714.95 293.21 715.81 292.66C716.24 292.29 716.64 291.89 717.01 291.46L721.47 286.97L739.92 268.52C740.26 267.84 739.98 267.01 739.3 266.66C738.93 266.47 738.49 266.47 738.11 266.64H738.12Z" fill="#282833"/>
<path d="M714.57 305.93H758.32C759.08 305.91 759.69 305.3 759.7 304.55V267.66C759.68 266.9 759.07 266.29 758.32 266.28H744.36C743.6 266.28 742.98 266.9 742.98 267.66C742.98 268.42 743.6 269.04 744.36 269.04H758.32L756.94 267.66V304.55L758.32 303.17H714.57C713.81 303.17 713.19 303.79 713.19 304.55C713.19 305.31 713.81 305.93 714.57 305.93Z" fill="#282833"/>
<path d="M776.79 303.47H24.87V332.25H776.79V303.47Z" fill="#F4AD5E"/>
<path d="M777.44 303.01H25.52V315.34H777.44V303.01Z" fill="#FFC68D"/>
<path d="M776.27 324.99H24.35V331.17H776.27V324.99Z" fill="#E28C37"/>
<path d="M777.13 322.01C706.42 321.55 646.26 319.46 588.12 317.4C534.2 315.52 483.25 313.74 432.41 313.74C375.87 313.74 331.36 315.71 284.2 317.77C257.27 318.97 229.42 320.2 197.69 321.12C139.94 322.24 82.16 320.36 24.61 315.46C23.91 315.43 23.38 314.84 23.41 314.15C23.41 314.13 23.41 314.1 23.41 314.08C23.45 313.44 23.97 312.93 24.61 312.88C82.13 317.78 139.86 319.67 197.57 318.54C229.27 317.59 257.09 316.36 284.02 315.19C331.27 313.1 375.85 311.25 432.42 311.25C483.3 311.25 534.27 313.06 588.23 314.94C646.33 316.97 706.41 319.09 777.15 319.52C777.87 319.63 778.37 320.31 778.26 321.03C778.17 321.6 777.72 322.05 777.15 322.14V322.02L777.13 322.01Z" fill="#FFDCC0"/>
<path d="M430.68 323.83C392.68 323.58 354.38 322.05 316.93 319.28C219.82 313.24 122.41 313.86 25.39 321.12C24.68 321.17 24.06 320.63 24.01 319.92C23.96 319.21 24.5 318.59 25.21 318.54C122.35 311.24 219.87 310.62 317.09 316.7C354.66 319.47 392.9 321 430.84 321.22C481.69 321.22 532.63 319.44 586.55 317.56C644.69 315.5 704.79 313.41 775.56 312.95C776.28 313.06 776.78 313.74 776.67 314.46C776.58 315.03 776.13 315.48 775.56 315.57C704.85 316 644.75 318.12 586.64 320.15C532.53 322.06 481.56 323.84 430.68 323.84V323.83Z" fill="#FFDCC0"/>
<path d="M399.45 304.58H770.58C772.24 304.78 773.93 304.78 775.59 304.58C775.81 304.55 776.04 304.55 776.27 304.58L774.7 303.01V331.79L776.27 330.22H35.66C32.31 330.02 28.95 330.02 25.61 330.22C25.19 330.25 24.77 330.25 24.35 330.22L25.92 331.79V303.01L24.35 304.58H43.63C44.48 304.41 45.03 303.58 44.86 302.73C44.74 302.11 44.25 301.63 43.63 301.5H24.35C23.5 301.53 22.83 302.22 22.81 303.07V331.85C22.81 332.7 23.49 333.4 24.35 333.42H776.27C777.12 333.4 777.81 332.71 777.81 331.85V303.01C777.79 302.16 777.12 301.47 776.27 301.44H414.82C409.92 301.19 405.02 301.19 400.12 301.44H399.44C398.59 301.61 398.04 302.44 398.21 303.29C398.33 303.91 398.82 304.39 399.44 304.52V304.58H399.45Z" fill="#282833"/>
<path d="M300.95 304.58H390.11C390.96 304.41 391.51 303.58 391.34 302.73C391.22 302.11 390.73 301.63 390.11 301.5H300.95C300.1 301.67 299.55 302.5 299.72 303.35C299.84 303.97 300.33 304.45 300.95 304.58Z" fill="#282833"/>
<path d="M57.31 304.58H292.07C292.92 304.41 293.47 303.58 293.3 302.73C293.18 302.11 292.69 301.63 292.07 301.5H57.31C56.46 301.67 55.91 302.5 56.08 303.35C56.2 303.97 56.69 304.45 57.31 304.58Z" fill="#282833"/>
<path d="M478.21 138.32C467.31 138.32 458.47 129.48 458.47 118.58V94.72L478.3 86.39L498.04 94.72V118.58C498.06 129.46 489.25 138.3 478.36 138.32C478.31 138.32 478.26 138.32 478.21 138.32Z" fill="#41DEB1"/>
<path d="M498.04 94.94V118.8C498.04 129.7 489.2 138.54 478.3 138.54V86.64L498.04 94.94Z" fill="#00C297"/>
<path d="M463.79 130.33C461.12 127 459.66 122.86 459.64 118.59V103.56C459.54 102.92 458.93 102.49 458.3 102.6C457.81 102.68 457.42 103.07 457.34 103.56V115.49C457.23 117.28 457.23 119.08 457.34 120.87C457.82 124.94 459.45 128.79 462.04 131.97C462.99 133.14 464.59 131.48 463.67 130.34H463.79V130.33Z" fill="#282833"/>
<path d="M496.81 113.23V120.33C496.43 124.5 494.64 128.41 491.74 131.43C485.13 138.21 474.51 139.01 466.96 133.31C465.76 132.45 464.62 134.45 465.79 135.31C475.01 142.23 488.09 140.37 495.02 131.15C497.43 127.95 498.86 124.12 499.15 120.12V113.23C499.05 112.59 498.44 112.16 497.81 112.27C497.32 112.35 496.93 112.74 496.85 113.23H496.82H496.81Z" fill="#282833"/>
<path d="M459.64 98.75V94.72L458.78 95.83L476.06 88.57C476.94 88.33 477.79 87.98 478.58 87.52C478.58 87.8 477.38 87.03 478.03 87.52C478.42 87.74 478.83 87.91 479.26 88.04L489.34 92.34L497.36 95.75L496.81 94.74V108.61C496.91 109.25 497.52 109.68 498.15 109.57C498.64 109.49 499.03 109.1 499.11 108.61V94.74C499.11 94.33 498.89 93.95 498.53 93.76L481.07 86.35C480.37 85.99 479.64 85.68 478.89 85.43C478.16 85.27 477.39 85.41 476.77 85.83L466.66 90.07L458.08 93.61C457.6 93.77 457.27 94.21 457.25 94.72V98.75C457.35 99.39 457.96 99.82 458.59 99.71C459.08 99.63 459.47 99.24 459.55 98.75H459.64Z" fill="#282833"/>
<path d="M469.54 116.52L475.97 121.07C477.27 121.81 478.93 121.39 479.72 120.12L487.62 108.59L488.76 106.93C489.51 105.63 489.07 103.97 487.78 103.21C486.48 102.47 484.82 102.89 484.03 104.16L476.13 115.69L474.99 117.35L478.74 116.37L472.31 111.79C471.01 111.04 469.35 111.48 468.59 112.77C467.85 114.07 468.27 115.73 469.54 116.52Z" fill="#F4FFF8"/>
<path d="M331.5 210.38C320.61 210.36 311.79 201.53 311.79 190.64V166.75L331.62 158.39L351.23 166.75V190.61C351.25 201.51 342.42 210.36 331.52 210.38C331.51 210.38 331.5 210.38 331.49 210.38H331.5Z" fill="#41DEB1"/>
<path d="M351.24 166.97V190.83C351.24 201.73 342.4 210.57 331.5 210.57V158.68L351.24 166.98V166.97Z" fill="#00C297"/>
<path d="M317.12 202.39C314.43 199.06 312.96 194.92 312.94 190.65V175.59C312.84 174.95 312.23 174.52 311.6 174.63C311.11 174.71 310.72 175.1 310.64 175.59V187.55C310.55 189.34 310.55 191.14 310.64 192.93C311.11 197.01 312.76 200.86 315.37 204.03C316.29 205.17 317.92 203.54 317 202.4H317.12V202.39Z" fill="#282833"/>
<path d="M350.1 185.2V192.33C349.74 196.59 347.91 200.58 344.94 203.64C338.33 210.41 327.72 211.21 320.16 205.52C318.99 204.63 317.82 206.63 319.02 207.52C328.25 214.43 341.33 212.54 348.24 203.31C350.63 200.12 352.05 196.31 352.35 192.33C352.53 190.02 352.35 187.72 352.35 185.41C352.25 184.77 351.64 184.34 351.01 184.45C350.52 184.53 350.13 184.92 350.05 185.41L350.11 185.19L350.1 185.2Z" fill="#282833"/>
<path d="M312.94 170.82V166.76L312.11 167.87L329.36 160.61C329.64 160.61 331.82 159.84 331.88 159.53C331.88 159.81 330.68 159.07 331.33 159.53C331.72 159.75 332.13 159.92 332.56 160.05L342.64 164.32L350.66 167.73L350.11 166.75V180.62C350.21 181.26 350.82 181.69 351.45 181.58C351.94 181.5 352.33 181.11 352.41 180.62V166.75C352.41 166.33 352.19 165.94 351.83 165.74L334.4 158.33C333.69 157.98 332.96 157.67 332.22 157.41C331.33 157.16 330.9 157.41 330.07 157.81L319.96 162.08L311.51 165.65C310.96 165.74 310.55 166.2 310.53 166.76V170.79C310.63 171.43 311.24 171.86 311.87 171.75C312.36 171.67 312.75 171.28 312.83 170.79L312.95 170.82H312.94Z" fill="#282833"/>
<path d="M322.8 188.55L329.19 193.13C330.5 193.86 332.16 193.43 332.94 192.15L340.84 180.62L341.98 178.99C342.75 177.69 342.31 176.01 341.01 175.25C339.7 174.53 338.05 174.97 337.26 176.23L329.36 187.76L328.22 189.39L332.03 188.28L325.64 183.7C324.33 182.95 322.66 183.39 321.89 184.68C321.17 185.99 321.61 187.64 322.87 188.43L322.81 188.55H322.8Z" fill="#F4FFF8"/>
<path d="M566.75 138.32C555.85 138.32 547.01 129.48 547.01 118.58V94.72L566.84 86.39L586.48 94.72V118.58C586.5 129.46 577.69 138.3 566.8 138.32C566.78 138.32 566.76 138.32 566.74 138.32H566.75Z" fill="#41DEB1"/>
<path d="M586.49 94.94V118.8C586.49 129.7 577.65 138.54 566.75 138.54V86.64L586.49 94.94Z" fill="#00C297"/>
<path d="M552.33 130.33C549.66 127 548.2 122.86 548.18 118.59V103.56C548.08 102.92 547.47 102.49 546.84 102.6C546.35 102.68 545.96 103.07 545.88 103.56V115.49C545.77 117.28 545.77 119.08 545.88 120.87C546.36 124.94 547.99 128.79 550.58 131.97C551.53 133.14 553.13 131.48 552.21 130.34H552.33V130.33Z" fill="#282833"/>
<path d="M585.35 113.23V120.33C584.97 124.5 583.18 128.41 580.28 131.43C573.67 138.21 563.05 139.01 555.5 133.31C554.3 132.45 553.16 134.45 554.33 135.31C563.55 142.23 576.63 140.37 583.56 131.15C585.97 127.95 587.4 124.12 587.69 120.12C587.84 117.84 587.69 115.51 587.69 113.23C587.59 112.59 586.98 112.16 586.35 112.27C585.86 112.35 585.47 112.74 585.39 113.23H585.36H585.35Z" fill="#282833"/>
<path d="M548.18 98.75V94.72L547.32 95.83L564.6 88.57C565.48 88.33 566.33 87.98 567.12 87.52C567.12 87.8 565.92 87.03 566.57 87.52C566.96 87.74 567.37 87.91 567.8 88.04L577.88 92.34L585.9 95.75L585.35 94.74V108.61C585.45 109.25 586.06 109.68 586.69 109.57C587.18 109.49 587.57 109.1 587.65 108.61V94.74C587.65 94.33 587.43 93.95 587.07 93.76L569.61 86.35C568.91 85.99 568.18 85.68 567.43 85.43C566.7 85.27 565.93 85.41 565.31 85.83L555.2 90.07L546.71 93.64C546.23 93.8 545.9 94.24 545.88 94.75V98.78C545.98 99.42 546.59 99.85 547.22 99.74C547.71 99.66 548.1 99.27 548.18 98.78V98.75Z" fill="#282833"/>
<path d="M558.08 116.52L564.51 121.07C565.81 121.81 567.47 121.39 568.26 120.12L576.16 108.59L577.3 106.93C578.05 105.63 577.61 103.97 576.32 103.21C575.02 102.47 573.36 102.89 572.57 104.16L564.67 115.69L563.53 117.35L567.28 116.37L560.85 111.79C559.55 111.04 557.89 111.48 557.13 112.77C556.39 114.07 556.81 115.73 558.08 116.52Z" fill="#F4FFF8"/>
<path opacity="0.15" d="M337.68 97.8H311V96.23H336.12V77.6H369.75V79.17H337.68V97.8Z" fill="#1B3C47"/>
<path opacity="0.15" d="M365.69 116.12H323.57V97.89H325.14V114.59H365.69V116.12Z" fill="#1B3C47"/>
<path opacity="0.15" d="M357.42 96.23H340.36V97.77H357.42V96.23Z" fill="#1B3C47"/>
<path opacity="0.15" d="M321.57 134.75H279.33V114.49H321.57V134.75ZM280.87 133.21H320.04V116.12H280.87V133.21Z" fill="#1B3C47"/>
<path opacity="0.15" d="M402.34 264.58H378.88V248.2H350.69V246.84H380.23V263.23H402.34V264.58Z" fill="#1B3C47"/>
<path opacity="0.15" d="M391.27 280.69H354.25V279.34H389.92V264.68H391.27V280.69Z" fill="#1B3C47"/>
<path opacity="0.15" d="M376.51 263.23H361.51V264.58H376.51V263.23Z" fill="#1B3C47"/>
<path opacity="0.15" d="M430.16 297.05H393.02V279.34H430.16V297.05ZM394.37 295.7H428.77V280.7H394.37V295.7Z" fill="#1B3C47"/>
<path d="M438.55 268.52H444.27C445.35 268.66 446.33 267.89 446.47 266.81C446.61 265.73 445.84 264.75 444.76 264.61C444.6 264.59 444.43 264.59 444.27 264.61H438.55C437.47 264.47 436.49 265.24 436.35 266.32C436.21 267.4 436.98 268.38 438.06 268.52C438.22 268.54 438.39 268.54 438.55 268.52Z" fill="#9F9EC3"/>
<path d="M420.41 285.15H453.15L454.26 283.31C458.9 275.47 460.75 256.44 459.39 247.43H426.59C427.94 256.44 426.13 275.5 421.46 283.31L420.41 285.15Z" fill="#FFE992"/>
<path d="M448.85 286.01H452.54L453.65 284.2C458.32 276.36 460.14 257.3 458.78 248.29H455C456.35 257.3 457.74 285.18 420.84 285.18L448.85 286.01Z" fill="#FFF6D3"/>
<path d="M432.47 254.38H449.69C450.18 254.38 450.58 253.98 450.58 253.49C450.58 253 450.18 252.6 449.69 252.6H432.47C431.98 252.6 431.58 253 431.58 253.49C431.58 253.98 431.98 254.38 432.47 254.38Z" fill="#282833"/>
<path d="M432.83 260.19H446.23C446.72 260.19 447.12 259.79 447.12 259.3C447.12 258.81 446.72 258.41 446.23 258.41H432.83C432.34 258.41 431.94 258.81 431.94 259.3C431.94 259.79 432.34 260.19 432.83 260.19Z" fill="#282833"/>
<path d="M432.47 265.66H449.69C450.18 265.66 450.58 265.26 450.58 264.77C450.58 264.28 450.18 263.88 449.69 263.88H432.47C431.98 263.88 431.58 264.28 431.58 264.77C431.58 265.26 431.98 265.66 432.47 265.66Z" fill="#282833"/>
<path d="M431.36 271.47H446.24C446.73 271.47 447.13 271.07 447.13 270.58C447.13 270.09 446.73 269.69 446.24 269.69H431.36C430.87 269.69 430.47 270.09 430.47 270.58C430.47 271.07 430.87 271.47 431.36 271.47Z" fill="#282833"/>
<path d="M458.08 266.46C458.49 266.36 458.81 266.04 458.91 265.63C459.74 261.52 460.08 257.33 459.92 253.15C459.82 252.58 459.28 252.2 458.71 252.3C458.27 252.38 457.93 252.72 457.86 253.15C457.98 257.16 457.65 261.17 456.88 265.11C456.75 265.65 457.08 266.2 457.63 266.33C457.63 266.33 457.64 266.33 457.65 266.33L458.08 266.45V266.46Z" fill="white"/>
<path d="M453.43 283.58C453.85 283.61 454.24 283.37 454.41 283C456.1 279.12 457.33 275.05 458.07 270.89C458.18 270.34 457.83 269.81 457.28 269.69C456.71 269.59 456.17 269.96 456.05 270.52C455.3 274.45 454.09 278.28 452.45 281.93C452.21 282.45 452.43 283.06 452.94 283.31C453.05 283.48 453.23 283.58 453.43 283.59V283.58Z" fill="white"/>
<path d="M438.49 286.44H451.06C451.82 286.52 452.58 286.52 453.34 286.44C454.54 286.13 455.25 284.23 455.8 283.18C456.75 281.35 457.51 279.42 458.07 277.43C459.43 272.62 460.31 267.69 460.71 262.7C461.31 257.52 461.31 252.29 460.71 247.11C460.55 246.57 460.05 246.19 459.48 246.19H451.92C451.21 246.19 450.63 246.77 450.63 247.48C450.63 248.19 451.21 248.77 451.92 248.77H459.33L458.07 247.82C458.87 254.61 458.66 261.48 457.46 268.2C456.67 273.93 454.79 279.47 451.93 284.49L453.04 283.84H438.38C437.67 283.84 437.09 284.42 437.09 285.14C437.09 285.85 437.67 286.43 438.38 286.43H438.5L438.49 286.44Z" fill="#282833"/>
<path d="M446.79 246.14H426.62C425.91 246.14 425.34 246.73 425.35 247.45C425.35 247.56 425.37 247.67 425.39 247.77C426.15 254.53 425.92 261.37 424.71 268.06C423.98 273.84 422.14 279.43 419.27 284.51C418.91 285.13 419.12 285.92 419.74 286.27C419.94 286.39 420.17 286.45 420.41 286.44H429.91C430.62 286.44 431.2 285.86 431.2 285.14C431.2 284.43 430.62 283.85 429.91 283.85H420.41L421.52 285.82C424.61 280.39 426.59 274.4 427.33 268.2C428.55 261.21 428.76 254.07 427.94 247.02L426.68 248.68H446.85C447.56 248.68 448.14 248.1 448.14 247.39C448.14 246.68 447.56 246.1 446.85 246.1L446.79 246.13V246.14Z" fill="#282833"/>
<path d="M450.7 279.4C450.52 279.43 450.33 279.43 450.15 279.4C449.45 279.1 449.13 278.28 449.43 277.58C449.43 277.58 449.43 277.56 449.44 277.56C450.86 274.39 451.89 271.05 452.51 267.63C452.61 266.89 453.3 266.38 454.04 266.48C454.06 266.48 454.09 266.48 454.11 266.49C454.87 266.6 455.39 267.3 455.28 268.06C455.28 268.07 455.28 268.08 455.28 268.09C454.69 271.73 453.66 275.28 452.21 278.67C451.92 279.22 451.31 279.52 450.7 279.41V279.4Z" fill="white"/>
<path d="M50.54 305.44C51.744 305.44 52.72 304.464 52.72 303.26C52.72 302.056 51.744 301.08 50.54 301.08C49.336 301.08 48.36 302.056 48.36 303.26C48.36 304.464 49.336 305.44 50.54 305.44Z" fill="#282833"/>
<path d="M337.53 201.5L342.08 195.01L342.73 194.09C343.1 193.54 342.21 193.04 341.84 193.57L337.29 200.06L336.64 200.98C336.24 201.53 337.13 202.03 337.53 201.5Z" fill="#282833"/>
<path d="M341.25 201.5L343.65 198.15L344.02 197.66C344.15 197.41 344.07 197.11 343.84 196.95C343.59 196.81 343.28 196.89 343.13 197.13L340.82 200.57L340.48 201.06C340.33 201.29 340.39 201.59 340.62 201.74C340.63 201.74 340.65 201.76 340.66 201.77C340.89 201.91 341.2 201.83 341.33 201.59L341.24 201.5H341.25Z" fill="#282833"/>
</svg>
