<svg width="677" height="391" viewBox="0 0 677 391" fill="none" xmlns="http://www.w3.org/2000/svg">
<g clip-path="url(#clip0_501_8473)">
<mask id="mask0_501_8473" style="mask-type:luminance" maskUnits="userSpaceOnUse" x="0" y="0" width="677" height="391">
<path d="M676.495 0H0V390.548H676.495V0Z" fill="white"/>
</mask>
<g mask="url(#mask0_501_8473)">
<path d="M640.799 236.207C616.891 298.052 571.941 352.235 509.507 376.047C501.387 379.14 493.095 381.763 484.673 383.904C440.129 395.251 391.398 391.304 350.336 370.629C332.908 361.847 317.017 350.244 299.526 341.588C282.036 332.932 262.063 327.267 243.026 331.54C226.635 335.218 212.805 345.761 198.881 355.152C166.057 377.293 126.589 394.814 87.7207 387.21C69.8357 383.715 52.2242 374.035 43.9182 357.853C25.5598 322.08 60.183 279.548 53.1711 239.986C48.684 214.665 28.1899 195.704 15.4495 173.358C-6.35445 135.136 -3.77692 84.3635 21.7881 48.5483C47.3532 12.7329 94.5485 -6.26526 137.82 1.85955C190.586 11.7712 230.48 56.3839 281.789 72.1711C313.877 82.0354 348.715 79.0924 379.362 66.1011C428.877 45.106 496.903 12.9063 552.626 18.1512C582.257 20.9418 611.32 34.0803 630.878 56.5153C655.601 84.8365 663.013 125.045 658.889 162.39C656.059 187.67 649.978 212.48 640.799 236.207Z" fill="#65FBCC"/>
<path d="M656.706 285.125C655.606 285.124 654.512 284.992 653.444 284.731C650.067 283.902 647.137 281.817 645.249 278.901C643.36 275.986 642.656 272.459 643.282 269.043C643.902 265.626 645.812 262.576 648.61 260.516C651.409 258.457 654.891 257.542 658.342 257.959C661.793 258.376 664.954 260.094 667.179 262.761C669.409 265.428 670.53 268.844 670.325 272.311C670.114 275.778 668.589 279.035 666.059 281.416C663.528 283.798 660.183 285.124 656.706 285.125ZM656.706 264.009C654.896 264.016 653.155 264.683 651.803 265.885C650.451 267.087 649.589 268.741 649.373 270.535C649.163 272.329 649.61 274.139 650.641 275.626C651.666 277.112 653.202 278.171 654.959 278.603C655.975 278.848 657.032 278.874 658.063 278.681C659.089 278.488 660.062 278.079 660.919 277.482C661.777 276.886 662.503 276.114 663.039 275.219C663.576 274.323 663.923 273.324 664.044 272.287C664.17 271.25 664.07 270.198 663.76 269.201C663.449 268.204 662.929 267.285 662.234 266.503C661.54 265.721 660.693 265.094 659.736 264.664C658.784 264.235 657.753 264.011 656.706 264.009Z" fill="#C0C1FF"/>
<path d="M644.255 299.582C645.028 296.386 643.066 293.166 639.862 292.392C636.664 291.617 633.445 293.58 632.666 296.775C631.893 299.971 633.855 303.19 637.053 303.965C640.257 304.74 643.476 302.777 644.255 299.582Z" fill="#C0C1FF"/>
<path d="M29.0315 283.826C25.4185 283.747 21.9824 282.248 19.4693 279.653C16.956 277.059 15.5686 273.579 15.6081 269.969C15.6475 266.358 17.1108 262.909 19.6801 260.37C22.2494 257.831 25.7175 256.407 29.3314 256.407C32.9453 256.407 36.4133 257.831 38.9826 260.37C41.552 262.909 43.0152 266.358 43.0547 269.969C43.0941 273.579 41.7067 277.059 39.1935 279.653C36.6803 282.248 33.2442 283.747 29.6312 283.826H29.0315ZM29.0315 262.715H28.7212C26.7698 262.758 24.9139 263.567 23.5563 264.968C22.1988 266.369 21.4492 268.249 21.4703 270.199C21.4914 272.149 22.2816 274.011 23.6692 275.383C25.0567 276.754 26.9298 277.523 28.8816 277.523C30.8334 277.523 32.7065 276.754 34.0941 275.383C35.4817 274.011 36.2718 272.149 36.2929 270.199C36.3141 268.249 35.5645 266.369 34.2069 264.968C32.8493 263.567 30.9934 262.758 29.042 262.715H29.0315Z" fill="#C0C1FF"/>
<path d="M19.2469 306.835C22.5354 306.693 25.0863 303.915 24.9444 300.63C24.8025 297.344 22.0217 294.796 18.7332 294.938C15.4447 295.079 12.8938 297.857 13.0356 301.143C13.1775 304.428 15.9584 306.977 19.2469 306.835Z" fill="#C0C1FF"/>
<path d="M372.997 62.1485C369.722 62.1511 366.554 60.9829 364.067 58.8544C361.58 56.726 359.937 53.7783 359.437 50.5447C358.937 47.3112 359.612 44.0056 361.34 41.2263C363.068 38.447 365.735 36.3776 368.858 35.3926C371.981 34.4077 375.354 34.5723 378.366 35.8566C381.378 37.1409 383.83 39.4602 385.279 42.3945C386.727 45.3288 387.077 48.6844 386.263 51.8537C385.45 55.0233 383.528 57.797 380.845 59.6732C378.545 61.2814 375.805 62.1453 372.997 62.1485ZM372.955 41.0428C371.039 41.0408 369.196 41.7777 367.81 43.0999C366.424 44.4221 365.603 46.2276 365.517 48.14C365.431 50.0525 366.087 51.9244 367.348 53.3657C368.609 54.8067 370.378 55.7059 372.287 55.8757C374.196 56.0454 376.096 55.4731 377.593 54.277C379.09 53.0814 380.066 51.3548 380.32 49.4573C380.573 47.5598 380.084 45.6376 378.954 44.0916C377.824 42.5455 376.141 41.4948 374.254 41.1584C373.826 41.082 373.391 41.0433 372.955 41.0428Z" fill="#E7F6FF"/>
<path d="M345.015 61.4001C347.71 59.5119 348.363 55.799 346.473 53.1061C344.583 50.4139 340.866 49.7618 338.171 51.6498C335.476 53.5381 334.824 57.251 336.713 59.9439C338.603 62.6362 342.32 63.2884 345.015 61.4001Z" fill="#E7F6FF"/>
<path d="M676.474 132.781C676.474 127.002 674.175 121.46 670.088 117.374C665.995 113.288 660.451 110.992 654.665 110.992C654.181 110.992 653.702 110.992 653.229 111.039C653.26 110.566 653.276 110.088 653.276 109.605C653.276 106.508 652.613 103.447 651.335 100.626C650.057 97.8041 648.195 95.2873 645.864 93.243C643.534 91.1986 640.799 89.6735 637.832 88.7696C634.87 87.8652 631.746 87.6029 628.674 87.9997C625.596 88.397 622.645 89.4439 620.005 91.0709C617.369 92.6985 615.107 94.869 613.377 97.4373C611.646 100.006 610.484 102.914 609.963 105.967C609.447 109.02 609.584 112.149 610.373 115.144C607.738 113.234 604.708 111.938 601.504 111.351C598.301 110.764 595.008 110.902 591.867 111.752C588.722 112.603 585.813 114.146 583.34 116.268C580.873 118.39 578.917 121.037 577.601 124.015C576.292 126.993 575.666 130.226 575.771 133.478C575.876 136.729 576.707 139.915 578.206 142.804C579.7 145.693 581.825 148.209 584.424 150.17C587.023 152.131 590.026 153.485 593.219 154.133C594.524 157.585 596.681 160.65 599.495 163.041C602.304 165.431 605.681 167.069 609.295 167.801C612.914 168.533 616.664 168.335 620.184 167.227C623.703 166.117 626.885 164.133 629.431 161.459C632.035 163.423 635.044 164.778 638.242 165.424C641.44 166.071 644.739 165.993 647.9 165.196C651.067 164.4 654.007 162.904 656.516 160.821C659.026 158.737 661.03 156.118 662.392 153.156C666.532 151.588 670.093 148.8 672.613 145.16C675.127 141.521 676.474 137.204 676.474 132.781Z" fill="white"/>
<path d="M100.708 80.4062C100.711 77.5436 100.149 74.7084 99.0551 72.0628C97.9604 69.4172 96.3549 67.0129 94.3297 64.9875C92.305 62.9621 89.9006 61.355 87.2536 60.2587C84.6071 59.1619 81.7697 58.597 78.9044 58.5964C78.4205 58.5964 77.9418 58.5964 77.4684 58.6437C77.4999 58.1707 77.5157 57.6925 77.5157 57.209C77.5152 54.1125 76.854 51.0512 75.5757 48.2299C74.298 45.4085 72.4327 42.8918 70.1045 40.8474C67.7763 38.803 65.0383 37.2779 62.0736 36.3738C59.1089 35.4697 55.9853 35.2074 52.9112 35.6043C49.8373 36.0011 46.8831 37.0482 44.2459 38.6755C41.6087 40.3029 39.349 42.4732 37.6175 45.0417C35.8859 47.6103 34.7223 50.5181 34.2042 53.5712C33.686 56.6246 33.8253 59.7531 34.6128 62.7482C31.9769 60.8384 28.9465 59.5424 25.7439 58.9559C22.5414 58.3689 19.2479 58.506 16.1052 59.3564C12.9625 60.2072 10.0504 61.7502 7.58251 63.8723C5.11463 65.9944 3.15365 68.6416 1.84346 71.6192C0.533269 74.5975 -0.0928773 77.8306 0.0109754 81.0821C0.114828 84.3331 0.946044 87.5199 2.44362 90.4083C3.94119 93.2971 6.06713 95.814 8.6654 97.7742C11.2637 99.7345 14.2683 101.089 17.4589 101.738C18.7628 105.186 20.9213 108.248 23.7321 110.636C26.5429 113.025 29.9144 114.661 33.5308 115.393C37.1472 116.125 40.8903 115.928 44.4099 114.822C47.9296 113.715 51.1105 111.734 53.655 109.064C56.2583 111.027 59.2693 112.382 62.466 113.028C65.6627 113.675 68.9641 113.598 72.1265 112.8C75.289 112.004 78.2327 110.509 80.7403 108.425C83.2479 106.341 85.2557 103.722 86.616 100.76C90.7538 99.1958 94.3176 96.411 96.8347 92.7758C99.3517 89.1407 100.703 84.8265 100.708 80.4062Z" fill="white"/>
<path d="M501.927 390.438H188.15V383.606H501.927C502.834 383.606 503.703 383.966 504.344 384.606C504.986 385.246 505.346 386.116 505.346 387.022C505.346 387.928 504.986 388.796 504.344 389.437C503.703 390.078 502.834 390.438 501.927 390.438Z" fill="#426572"/>
<path d="M174.116 390.438H154.931C154.025 390.438 153.155 390.078 152.514 389.437C151.873 388.796 151.512 387.928 151.512 387.022C151.512 386.116 151.873 385.246 152.514 384.606C153.155 383.966 154.025 383.606 154.931 383.606H174.116C175.023 383.606 175.892 383.966 176.533 384.606C177.175 385.246 177.535 386.116 177.535 387.022C177.535 387.928 177.175 388.796 176.533 389.437C175.892 390.078 175.023 390.438 174.116 390.438Z" fill="#426572"/>
<path d="M142.48 390.438H136.368C135.461 390.438 134.591 390.078 133.95 389.437C133.309 388.796 132.949 387.928 132.949 387.022C132.949 386.116 133.309 385.246 133.95 384.606C134.591 383.966 135.461 383.606 136.368 383.606H142.48C143.387 383.606 144.257 383.966 144.898 384.606C145.539 385.246 145.9 386.116 145.9 387.022C145.9 387.928 145.539 388.796 144.898 389.437C144.257 390.078 143.387 390.438 142.48 390.438Z" fill="#426572"/>
<path d="M611.951 390.438H515.509V383.606H611.951C612.856 383.606 613.729 383.966 614.371 384.606C615.013 385.246 615.37 386.116 615.37 387.022C615.37 387.928 615.013 388.796 614.371 389.437C613.729 390.078 612.856 390.438 611.951 390.438Z" fill="#282833"/>
<path d="M25.8543 390.438H122.302V383.606H25.8543C24.9474 383.606 24.0779 383.966 23.4367 384.606C22.7954 385.246 22.4351 386.116 22.4351 387.022C22.4351 387.928 22.7954 388.796 23.4367 389.437C24.0779 390.078 24.9474 390.438 25.8543 390.438Z" fill="#282833"/>
<path d="M374.533 91.8734V387.394H54.0969V91.8734C54.1026 90.2737 54.7413 88.7412 55.8733 87.6098C57.0058 86.4788 58.5397 85.8408 60.1409 85.835H368.484C368.847 85.835 369.21 85.8687 369.567 85.9349C370.958 86.1908 372.216 86.925 373.123 88.0092C374.029 89.0934 374.528 90.4603 374.533 91.8734Z" fill="white"/>
<path d="M59.1362 115.029H375.538V93.7969L369.488 85.835H92.3918H60.1462L55.1068 93.7969V115.029H59.1362Z" fill="#E2F2FF"/>
<path d="M378.694 390.547H51.9507V91.8735C51.9535 89.4366 52.9238 87.1005 54.6487 85.3773C56.373 83.6541 58.7117 82.6845 61.1509 82.6818H369.488C371.928 82.6845 374.266 83.6541 375.991 85.3773C377.716 87.1005 378.686 89.4366 378.689 91.8735L378.694 390.547ZM58.263 384.241H372.382V91.8735C372.38 91.1088 372.075 90.3757 371.534 89.8349C370.993 89.2941 370.259 88.9899 369.494 88.9883H61.1509C60.3856 88.9899 59.6518 89.2941 59.1105 89.8349C58.5692 90.3757 58.2646 91.1088 58.263 91.8735V384.241Z" fill="#282833"/>
<path d="M73.5074 105.59C75.733 105.59 77.5367 103.787 77.5367 101.564C77.5367 99.3408 75.733 97.5388 73.5074 97.5388C71.2822 97.5388 69.478 99.3408 69.478 101.564C69.478 103.787 71.2822 105.59 73.5074 105.59Z" fill="#CADCE8"/>
<path d="M85.5955 105.59C87.8212 105.59 89.6249 103.787 89.6249 101.564C89.6249 99.3408 87.8212 97.5388 85.5955 97.5388C83.3704 97.5388 81.5661 99.3408 81.5661 101.564C81.5661 103.787 83.3704 105.59 85.5955 105.59Z" fill="#CADCE8"/>
<path d="M97.6889 105.59C99.9146 105.59 101.718 103.787 101.718 101.564C101.718 99.3408 99.9146 97.5388 97.6889 97.5388C95.4638 97.5388 93.6595 99.3408 93.6595 101.564C93.6595 103.787 95.4638 105.59 97.6889 105.59Z" fill="#CADCE8"/>
<path d="M359.783 97.5345H114.711C112.823 97.5345 111.292 99.0639 111.292 100.951V102.17C111.292 104.056 112.823 105.586 114.711 105.586H359.783C361.672 105.586 363.202 104.056 363.202 102.17V100.951C363.202 99.0639 361.672 97.5345 359.783 97.5345Z" fill="#CADCE8"/>
<path d="M587.643 34.4893V387.393H267.223V34.4893C267.229 32.8895 267.867 31.3568 268.999 30.2256C270.131 29.0944 271.666 28.4564 273.267 28.4509H581.605C581.967 28.451 582.33 28.4844 582.688 28.5507C584.077 28.809 585.334 29.5437 586.239 30.6279C587.144 31.7121 587.638 33.0778 587.643 34.4893Z" fill="white"/>
<path d="M272.252 57.6446H588.653V36.4128L582.604 28.4509H305.507H278.301L268.222 36.4128V57.6446H272.252Z" fill="#E2F2FF"/>
<path d="M591.783 390.546H265.066V34.4893C265.069 32.0524 266.039 29.7161 267.764 27.9929C269.489 26.2698 271.827 25.3005 274.267 25.2977H582.604C585.04 25.306 587.375 26.2777 589.095 28.0004C590.815 29.7229 591.778 32.056 591.783 34.4893V390.546ZM271.352 384.24H585.471V34.4893C585.471 33.7246 585.166 32.9915 584.624 32.4507C584.082 31.9099 583.351 31.6055 582.583 31.6041H274.267C273.501 31.6055 272.767 31.9099 272.226 32.4507C271.685 32.9915 271.38 33.7246 271.379 34.4893L271.352 384.24Z" fill="#282833"/>
<path d="M286.623 48.2077C288.848 48.2077 290.652 46.4053 290.652 44.182C290.652 41.9588 288.848 40.1564 286.623 40.1564C284.397 40.1564 282.594 41.9588 282.594 44.182C282.594 46.4053 284.397 48.2077 286.623 48.2077Z" fill="#CADCE8"/>
<path d="M298.711 48.2077C300.937 48.2077 302.741 46.4053 302.741 44.182C302.741 41.9588 300.937 40.1564 298.711 40.1564C296.486 40.1564 294.682 41.9588 294.682 44.182C294.682 46.4053 296.486 48.2077 298.711 48.2077Z" fill="#CADCE8"/>
<path d="M310.805 48.2077C313.03 48.2077 314.834 46.4053 314.834 44.182C314.834 41.9588 313.03 40.1564 310.805 40.1564C308.579 40.1564 306.775 41.9588 306.775 44.182C306.775 46.4053 308.579 48.2077 310.805 48.2077Z" fill="#CADCE8"/>
<path d="M572.899 40.1564H327.827C325.938 40.1564 324.408 41.6858 324.408 43.5724V44.7917C324.408 46.6782 325.938 48.2077 327.827 48.2077H572.899C574.787 48.2077 576.318 46.6782 576.318 44.7917V43.5724C576.318 41.6858 574.787 40.1564 572.899 40.1564Z" fill="#CADCE8"/>
<path d="M372.708 103.453C372.708 99.0346 369.126 95.4529 364.708 95.4529H314.823C310.404 95.4529 306.823 99.0346 306.823 103.453V162.452C306.823 166.871 310.404 170.452 314.823 170.452H364.708C369.126 170.452 372.708 166.871 372.708 162.452V103.453Z" fill="#A0A3FC"/>
<path d="M535.146 103.453C535.146 99.0346 531.564 95.4529 527.146 95.4529H386.925C382.507 95.4529 378.925 99.0346 378.925 103.453V162.452C378.925 166.871 382.507 170.452 386.925 170.452H527.146C531.564 170.452 535.146 166.871 535.146 162.452V103.453Z" fill="#A0A3FC"/>
<path d="M535.146 186.755C535.146 182.337 531.564 178.755 527.146 178.755H469.386C464.968 178.755 461.386 182.337 461.386 186.755V245.754C461.386 250.173 464.967 253.754 469.386 253.754H527.146C531.564 253.754 535.146 250.173 535.146 245.754V186.755Z" fill="#C6C8CB"/>
<path d="M455.168 178.755H307.654V253.754H455.168V178.755Z" fill="#DDE4ED"/>
<path d="M535.561 270.058C535.561 265.64 531.979 262.058 527.561 262.058H315.654C311.235 262.058 307.654 265.64 307.654 270.058V329.058C307.654 333.476 311.235 337.058 315.654 337.058H527.561C531.979 337.058 535.561 333.476 535.561 329.058V270.058Z" fill="#C6C8CB"/>
<path d="M137.446 278.56H86.1531V283.815H137.446V278.56Z" fill="#C6C8CB"/>
<path d="M137.446 292.655H86.1531V297.91H137.446V292.655Z" fill="#C6C8CB"/>
<path d="M137.446 306.746H86.1531V312.001H137.446V306.746Z" fill="#C6C8CB"/>
<path d="M137.446 320.841H86.1531V326.096H137.446V320.841Z" fill="#C6C8CB"/>
<path d="M137.446 334.934H86.1531V340.189H137.446V334.934Z" fill="#C6C8CB"/>
<path d="M137.446 349.029H86.1531V354.284H137.446V349.029Z" fill="#C6C8CB"/>
<path d="M112.733 240.826L122.875 223.452L138.588 236.622V248.652H94.9904L105.637 233.963L112.733 240.826Z" fill="#C6C8CB"/>
<path d="M158.656 232.623H143.448V214.135L146.489 211.223L158.656 223.631V232.623Z" fill="#DDE4ED"/>
<path d="M102.186 231.11C103.83 231.109 105.436 230.621 106.801 229.708C108.167 228.795 109.231 227.498 109.858 225.98C110.485 224.463 110.648 222.794 110.326 221.184C110.003 219.574 109.211 218.096 108.047 216.937C106.883 215.777 105.402 214.989 103.79 214.671C102.178 214.353 100.507 214.52 98.9903 215.15C97.4733 215.781 96.1777 216.847 95.2671 218.214C94.3565 219.58 93.8721 221.186 93.8752 222.828C93.8863 225.025 94.7663 227.128 96.3228 228.679C97.8799 230.231 99.9877 231.105 102.186 231.11Z" fill="#C6C8CB"/>
<path opacity="0.2" d="M470.76 166.101V383.369H150.329V166.101C150.309 164.476 150.934 162.91 152.066 161.744C153.199 160.578 154.747 159.907 156.373 159.879H464.71C466.337 159.906 467.887 160.576 469.021 161.742C470.154 162.908 470.78 164.475 470.76 166.101Z" fill="#606060"/>
<path d="M459.171 176.438V387.394H138.74V176.438C138.746 174.838 139.384 173.306 140.517 172.174C141.649 171.043 143.183 170.405 144.784 170.399H453.122C453.485 170.399 453.848 170.433 454.205 170.499C455.596 170.756 456.854 171.489 457.761 172.573C458.667 173.658 459.166 175.025 459.171 176.438Z" fill="white"/>
<path d="M143.78 199.587H460.176V178.355L454.132 170.393H177.03H142.27L139.75 178.355V199.587H143.78Z" fill="#E2F2FF"/>
<path d="M158.146 189.146C160.371 189.146 162.175 187.344 162.175 185.121C162.175 182.897 160.371 181.095 158.146 181.095C155.92 181.095 154.116 182.897 154.116 185.121C154.116 187.344 155.92 189.146 158.146 189.146Z" fill="#CADCE8"/>
<path d="M170.239 189.146C172.464 189.146 174.268 187.344 174.268 185.121C174.268 182.897 172.464 181.095 170.239 181.095C168.013 181.095 166.21 182.897 166.21 185.121C166.21 187.344 168.013 189.146 170.239 189.146Z" fill="#CADCE8"/>
<path d="M182.332 189.146C184.557 189.146 186.362 187.344 186.362 185.121C186.362 182.897 184.557 181.095 182.332 181.095C180.107 181.095 178.303 182.897 178.303 185.121C178.303 187.344 180.107 189.146 182.332 189.146Z" fill="#CADCE8"/>
<path d="M444.427 181.095H199.355C197.466 181.095 195.935 182.624 195.935 184.511V185.73C195.935 187.617 197.466 189.146 199.355 189.146H444.427C446.315 189.146 447.846 187.617 447.846 185.73V184.511C447.846 182.624 446.315 181.095 444.427 181.095Z" fill="#CADCE8"/>
<path d="M230.496 334.041C238.264 334.041 244.562 327.749 244.562 319.988C244.562 312.227 238.264 305.935 230.496 305.935C222.727 305.935 216.43 312.227 216.43 319.988C216.43 327.749 222.727 334.041 230.496 334.041Z" fill="#C6C8CB"/>
<path d="M299.59 334.041C307.358 334.041 313.656 327.749 313.656 319.988C313.656 312.227 307.358 305.935 299.59 305.935C291.821 305.935 285.524 312.227 285.524 319.988C285.524 327.749 291.821 334.041 299.59 334.041Z" fill="#C6C8CB"/>
<path d="M368.684 334.041C376.452 334.041 382.75 327.749 382.75 319.988C382.75 312.227 376.452 305.935 368.684 305.935C360.915 305.935 354.618 312.227 354.618 319.988C354.618 327.749 360.915 334.041 368.684 334.041Z" fill="#C6C8CB"/>
<path d="M412.433 226.322H186.751C183.265 226.322 180.439 229.145 180.439 232.628V284.446C180.439 287.929 183.265 290.753 186.751 290.753H412.433C415.919 290.753 418.746 287.929 418.746 284.446V232.628C418.746 229.145 415.919 226.322 412.433 226.322Z" fill="#2DFFC9"/>
<path d="M296.244 351.022H182.38V357.329H296.244V351.022Z" fill="#C6C8CB"/>
<path d="M365.27 363.602H181.88V369.909H365.27V363.602Z" fill="#C6C8CB"/>
<path d="M421.192 351.022H312.367V357.329H421.192V351.022Z" fill="#C6C8CB"/>
<path opacity="0.3" d="M146.962 386.889H142.228V201.811H458.977V206.541H146.962V386.889Z" fill="#C1CEDE"/>
<path d="M459.224 196.434H140.108V202.74H459.224V196.434Z" fill="#282833"/>
<path d="M463.332 390.547H136.594V176.438C136.597 174.001 137.567 171.665 139.292 169.942C141.016 168.218 143.355 167.249 145.794 167.246H454.132C456.571 167.249 458.91 168.218 460.634 169.942C462.359 171.665 463.329 174.001 463.332 176.438V390.547ZM142.901 384.241H457.02V176.438C457.018 175.673 456.714 174.94 456.172 174.399C455.631 173.858 454.897 173.554 454.132 173.553H145.794C145.029 173.554 144.295 173.858 143.754 174.399C143.213 174.94 142.908 175.673 142.906 176.438L142.901 384.241Z" fill="#282833"/>
<path d="M544.12 349.052H485.678V353.256H544.12V349.052Z" fill="#C6C8CB"/>
</g>
</g>
<defs>
<clipPath id="clip0_501_8473">
<rect width="677" height="391" fill="white"/>
</clipPath>
</defs>
</svg>
