<svg width="660" height="554" viewBox="0 0 660 554" fill="none" xmlns="http://www.w3.org/2000/svg">
<path d="M19.8996 318.209C43.8076 380.054 88.7568 434.237 151.191 458.049C159.312 461.142 167.603 463.765 176.025 465.906C220.569 477.253 269.301 473.306 310.363 452.631C327.79 443.849 343.681 432.246 361.172 423.59C378.662 414.934 398.636 409.269 417.673 413.542C434.064 417.22 447.893 427.763 461.817 437.154C494.641 459.295 534.109 476.816 572.978 469.212C590.863 465.717 608.474 456.037 616.78 439.855C635.138 404.082 600.515 361.55 607.527 321.988C612.014 296.667 632.508 277.706 645.249 255.36C667.053 217.138 664.475 166.366 638.91 130.55C613.345 94.7349 566.15 75.7368 522.879 83.8616C470.113 93.7732 430.218 138.386 378.909 154.173C346.822 164.037 311.983 161.094 281.336 148.103C231.821 127.108 163.795 94.9084 108.073 100.153C78.4414 102.944 49.3783 116.082 29.8206 138.517C5.09717 166.839 -2.31462 207.047 1.80945 244.392C4.63949 269.672 10.7204 294.482 19.8996 318.209Z" fill="#A0A3FC"/>
<path opacity="0.08" d="M545.59 83.5199H126.97C120.442 83.5199 115.15 88.8119 115.15 95.3399V348.04C115.15 354.568 120.442 359.86 126.97 359.86H545.59C552.118 359.86 557.41 354.568 557.41 348.04V95.3399C557.41 88.8119 552.118 83.5199 545.59 83.5199Z" fill="#4B2E4C"/>
<path d="M388.97 451.83C397.75 451.83 404.87 458.95 404.87 467.73V536.03C404.87 544.81 397.75 551.93 388.97 551.93C380.19 551.93 373.07 544.81 373.07 536.03V467.73C373.07 458.95 380.19 451.83 388.97 451.83Z" fill="#584E60"/>
<path d="M389.36 358.9C399.2 358.9 407.18 366.88 407.18 376.72V477.63C407.18 487.47 399.2 495.45 389.36 495.45C379.52 495.45 371.54 487.47 371.54 477.63V376.72C371.54 366.88 379.52 358.9 389.36 358.9Z" fill="#584E60"/>
<path d="M380.098 16.7072C381.381 9.42427 376.517 2.48029 369.234 1.19742C361.951 -0.0854528 355.007 4.77857 353.724 12.0615C352.441 19.3445 357.305 26.2885 364.588 27.5714C371.871 28.8543 378.815 23.9902 380.098 16.7072Z" fill="#AC8067"/>
<path opacity="0.8" d="M357.56 23.06C357.17 23.06 356.79 22.91 356.51 22.63C354.19 20.36 353.45 16.68 353.51 14C353.54 12.27 353.95 10.56 354.71 8.99998C355.08 8.25998 355.98 7.95998 356.72 8.33998C357.46 8.70998 357.76 9.60998 357.38 10.35C356.81 11.53 356.51 12.81 356.5 14.12C356.43 16.23 357.05 19.02 358.57 20.52C359.16 21.1 359.17 22.05 358.59 22.64C358.31 22.93 357.92 23.09 357.52 23.09L357.55 23.06H357.56Z" fill="#C69A83"/>
<path d="M356.83 13.55C357.542 13.55 358.12 12.9724 358.12 12.26C358.12 11.5475 357.542 10.97 356.83 10.97C356.118 10.97 355.54 11.5475 355.54 12.26C355.54 12.9724 356.118 13.55 356.83 13.55Z" fill="#C69A83"/>
<path d="M358.99 10.2799C359.27 10.2799 359.49 10.4999 359.49 10.7799C359.49 11.0599 359.27 11.2799 358.99 11.2799C358.71 11.2799 358.49 11.0599 358.49 10.7799C358.49 10.4999 358.71 10.2799 358.99 10.2799Z" fill="#C69A83"/>
<path d="M360.2 13.55C360.592 13.55 360.91 13.2321 360.91 12.84C360.91 12.4479 360.592 12.13 360.2 12.13C359.808 12.13 359.49 12.4479 359.49 12.84C359.49 13.2321 359.808 13.55 360.2 13.55Z" fill="#C69A83"/>
<path d="M358.57 14.1C359.13 14.1 359.58 14.55 359.58 15.11C359.58 15.67 359.13 16.12 358.57 16.12C358.01 16.12 357.56 15.67 357.56 15.11C357.56 14.55 358.01 14.1 358.57 14.1Z" fill="#C69A83"/>
<path d="M362.01 11.39C362.27 11.39 362.48 11.1795 362.48 10.92C362.48 10.6604 362.27 10.45 362.01 10.45C361.75 10.45 361.54 10.6604 361.54 10.92C361.54 11.1795 361.75 11.39 362.01 11.39Z" fill="#C69A83"/>
<path d="M360.24 10.67C360.428 10.67 360.58 10.5178 360.58 10.33C360.58 10.1422 360.428 9.98999 360.24 9.98999C360.052 9.98999 359.9 10.1422 359.9 10.33C359.9 10.5178 360.052 10.67 360.24 10.67Z" fill="#C69A83"/>
<path d="M362.23 13.55C362.523 13.55 362.76 13.3127 362.76 13.02C362.76 12.7273 362.523 12.49 362.23 12.49C361.937 12.49 361.7 12.7273 361.7 13.02C361.7 13.3127 361.937 13.55 362.23 13.55Z" fill="#C69A83"/>
<path d="M358.96 9.0199C359.03 9.0199 359.09 9.0799 359.09 9.1499C359.09 9.2199 359.03 9.2799 358.96 9.2799C358.89 9.2799 358.83 9.2199 358.83 9.1499C358.83 9.0799 358.89 9.0199 358.96 9.0199Z" fill="#C69A83"/>
<path d="M533.44 71.1799H114.82C108.292 71.1799 103 76.4719 103 82.9999V335.7C103 342.228 108.292 347.52 114.82 347.52H533.44C539.968 347.52 545.26 342.228 545.26 335.7V82.9999C545.26 76.4719 539.968 71.1799 533.44 71.1799Z" fill="#4B2E4C"/>
<path d="M276.06 91.7899H126.2V114.58H276.06V91.7899Z" fill="#2DFFC9"/>
<path d="M276.06 141.52H126.2V151.21H276.06V141.52Z" fill="white"/>
<path d="M276.06 164.45H126.2V174.14H276.06V164.45Z" fill="white"/>
<path d="M194.43 187.41H126.2V197.04H194.43V187.41Z" fill="white"/>
<path d="M134.84 320.65C128.68 320.65 123.69 315.65 123.7 309.49C123.7 303.33 128.7 298.34 134.86 298.35C141.01 298.35 146 303.35 146 309.5C146 315.66 141 320.65 134.84 320.65ZM134.84 303.36C131.44 303.36 128.69 306.12 128.7 309.52C128.71 312.92 131.46 315.67 134.86 315.66C138.26 315.66 141.01 312.9 141 309.5C141 306.11 138.25 303.36 134.86 303.36C134.86 303.36 134.85 303.36 134.84 303.36Z" fill="#2DFFC9"/>
<path d="M147.5 297.64C147.08 297.64 146.67 297.51 146.33 297.26C145.44 296.61 145.23 295.36 145.88 294.47L153.51 284C154.12 283.08 155.36 282.83 156.28 283.44C157.2 284.05 157.45 285.29 156.84 286.21C156.81 286.26 156.78 286.3 156.74 286.34L149.11 296.87C148.72 297.37 148.12 297.65 147.49 297.64H147.5ZM221.12 281.58C220.58 281.58 220.07 281.37 219.69 280.99L214.51 275.74C213.7 274.99 213.64 273.73 214.39 272.91C215.14 272.09 216.4 272.04 217.22 272.79C217.27 272.83 217.31 272.88 217.36 272.93L220.93 276.54L222.93 273.9C223.6 273.02 224.86 272.85 225.73 273.52C226.61 274.19 226.78 275.45 226.11 276.32L222.69 280.79C222.34 281.25 221.81 281.53 221.23 281.57H221.13L221.12 281.58ZM163.35 275.79C162.25 275.79 161.35 274.9 161.34 273.8C161.34 273.37 161.47 272.96 161.73 272.61L169.37 262.09C169.97 261.16 171.21 260.9 172.14 261.5C173.07 262.1 173.33 263.34 172.73 264.27C172.69 264.33 172.65 264.39 172.61 264.44L165.01 275C164.62 275.51 164.01 275.81 163.36 275.79H163.35ZM206.09 266.37C205.56 266.37 205.05 266.16 204.67 265.78L195.54 256.53C194.73 255.78 194.67 254.52 195.42 253.7C196.17 252.88 197.43 252.83 198.25 253.58C198.3 253.62 198.34 253.67 198.39 253.72L207.53 262.97C208.3 263.76 208.29 265.03 207.5 265.8C207.13 266.17 206.62 266.37 206.1 266.37H206.09ZM233 266C232.56 266 232.14 265.86 231.79 265.59C230.91 264.92 230.74 263.67 231.41 262.79L239.31 252.46C239.98 251.58 241.24 251.41 242.11 252.08C242.98 252.75 243.16 254.01 242.49 254.88L234.59 265.21C234.21 265.7 233.62 265.99 233 265.99V266ZM179.2 253.93C178.1 253.93 177.21 253.02 177.21 251.92C177.21 251.5 177.34 251.1 177.59 250.76L183.77 242.23C184.12 241.75 184.65 241.45 185.24 241.41C185.82 241.37 186.4 241.58 186.81 242L188.54 243.76C189.35 244.51 189.41 245.77 188.66 246.59C187.91 247.41 186.65 247.46 185.83 246.71C185.78 246.67 185.74 246.62 185.69 246.57L185.61 246.49L180.81 253.1C180.43 253.62 179.83 253.93 179.19 253.93H179.2ZM326.36 246.83C325.79 246.83 325.24 246.58 324.86 246.15L316.26 236.4C315.57 235.54 315.7 234.28 316.56 233.59C317.37 232.94 318.54 233.01 319.26 233.76L327.86 243.51C328.59 244.34 328.51 245.6 327.68 246.33C327.32 246.65 326.85 246.83 326.36 246.83ZM249.43 244.54C248.33 244.54 247.43 243.64 247.43 242.54C247.43 242.1 247.57 241.68 247.84 241.33L255.73 231C256.4 230.12 257.66 229.95 258.53 230.62C259.4 231.29 259.58 232.55 258.91 233.42L251 243.75C250.62 244.24 250.05 244.53 249.43 244.53V244.54ZM335.43 239.96C334.33 239.96 333.43 239.07 333.43 237.96C333.43 237.49 333.6 237.03 333.9 236.67L342.27 226.72C342.98 225.87 344.25 225.77 345.09 226.48C345.93 227.19 346.04 228.46 345.33 229.3L336.96 239.25C336.58 239.72 336.01 240 335.41 240L335.43 239.96ZM417.43 234.37C416.91 234.37 416.4 234.17 416.03 233.8L406.77 224.67C406.02 223.86 406.07 222.59 406.88 221.84C407.64 221.14 408.8 221.13 409.57 221.82L418.83 230.95C419.61 231.73 419.62 232.99 418.84 233.78C418.47 234.16 417.96 234.37 417.43 234.37ZM427.08 234.18C425.98 234.18 425.08 233.29 425.07 232.19C425.07 231.69 425.25 231.21 425.59 230.84L434.26 221.15C434.99 220.38 436.19 220.32 437 221C437.83 221.73 437.9 223 437.17 223.82L428.5 233.51C428.12 233.93 427.58 234.17 427.01 234.17H427.09L427.08 234.18ZM308.55 226.58C307.98 226.58 307.43 226.33 307.05 225.9L298.45 216.15C297.76 215.29 297.89 214.03 298.75 213.34C299.56 212.69 300.73 212.76 301.45 213.51L310.05 223.26C310.78 224.09 310.7 225.35 309.87 226.08C309.51 226.4 309.04 226.58 308.55 226.58ZM265.87 223.09C265.43 223.09 265.01 222.95 264.66 222.68C263.79 222.01 263.62 220.76 264.29 219.88L272.18 209.55C272.85 208.67 274.11 208.5 274.98 209.17C275.85 209.84 276.03 211.1 275.36 211.97L267.46 222.3C267.07 222.81 266.46 223.1 265.82 223.08H265.87V223.09ZM352.87 219.3C351.77 219.3 350.87 218.41 350.87 217.3C350.87 216.83 351.04 216.37 351.34 216.01L359.71 206.06C360.42 205.21 361.69 205.11 362.53 205.82C363.38 206.53 363.48 207.8 362.77 208.64L354.4 218.64C353.99 219.09 353.41 219.33 352.8 219.3H352.87ZM398.22 215.42C397.69 215.42 397.18 215.21 396.81 214.84L387.55 205.72C386.76 204.94 386.75 203.68 387.53 202.89C388.31 202.1 389.57 202.09 390.36 202.87L399.62 211.99C400.41 212.76 400.42 214.03 399.65 214.82C399.27 215.21 398.76 215.42 398.22 215.42ZM445 214C444.51 214 444.04 213.82 443.67 213.49C442.85 212.75 442.78 211.49 443.51 210.67L452.2 201C452.93 200.17 454.2 200.1 455.03 200.83C455.86 201.56 455.93 202.83 455.2 203.66L446.54 213.36C446.14 213.79 445.58 214.02 445 214ZM290.62 206.29C290.05 206.29 289.5 206.04 289.12 205.61L284.3 200.15L283.79 200.82C283.12 201.7 281.86 201.87 280.99 201.2C280.12 200.53 279.94 199.27 280.61 198.4L282.61 195.79C282.97 195.32 283.53 195.03 284.13 195.01C284.73 194.99 285.3 195.23 285.7 195.68L292.13 202.98C292.86 203.81 292.78 205.07 291.95 205.8C291.59 206.12 291.12 206.3 290.63 206.3H290.62V206.29ZM370.16 198.6C369.06 198.6 368.16 197.71 368.16 196.6C368.16 196.13 368.33 195.67 368.63 195.31L373.63 189.42C374.34 188.58 375.6 188.47 376.45 189.18C376.49 189.21 376.53 189.25 376.56 189.28L380.34 193C381.13 193.78 381.14 195.04 380.36 195.83C379.58 196.62 378.32 196.63 377.53 195.85L375.3 193.65L371.73 197.89C371.35 198.36 370.78 198.64 370.18 198.64L370.16 198.6ZM463 193.91C462.51 193.91 462.03 193.73 461.66 193.4C460.84 192.66 460.77 191.4 461.51 190.58L470.17 180.89C470.9 180.06 472.17 179.99 473 180.72C473.83 181.45 473.9 182.72 473.17 183.55L464.51 193.24C464.13 193.67 463.58 193.91 463 193.91ZM481 173.78C479.9 173.78 479 172.88 479 171.78C479 171.29 479.18 170.82 479.51 170.45L488.17 160.75C488.91 159.92 490.18 159.85 491 160.59C491.83 161.33 491.9 162.6 491.17 163.42L482.51 173.11C482.13 173.54 481.58 173.78 481 173.78ZM499 153.65C497.9 153.65 497 152.76 496.99 151.66C496.99 151.16 497.17 150.68 497.51 150.31L503.58 143.52C504.32 142.69 505.59 142.62 506.41 143.36C507.24 144.1 507.31 145.37 506.58 146.19L500.49 153C500.11 153.42 499.57 153.65 499 153.65Z" fill="white"/>
<path d="M347.3 451.83C356.08 451.83 363.2 458.95 363.2 467.73V536.03C363.2 544.81 356.08 551.93 347.3 551.93C338.52 551.93 331.4 544.81 331.4 536.03V467.73C331.4 458.95 338.52 451.83 347.3 451.83Z" fill="#665C6D"/>
<path d="M347.3 358.9C357.14 358.9 365.12 366.88 365.12 376.72V477.63C365.12 487.47 357.14 495.45 347.3 495.45C337.46 495.45 329.48 487.47 329.48 477.63V376.72C329.48 366.88 337.46 358.9 347.3 358.9Z" fill="#665C6D"/>
<path d="M389.83 536.62H404.43C413.63 536.62 421.08 544.07 421.08 553.27H373.18C373.18 544.07 380.63 536.62 389.83 536.62Z" fill="#4B2E4C"/>
<path d="M332.16 536.62H346.76C355.96 536.62 363.41 544.07 363.41 553.27H315.51C315.51 544.07 322.96 536.62 332.16 536.62Z" fill="#4B2E4C"/>
<g opacity="0.27">
<path d="M339.26 424.99C340.48 424.99 341.47 425.98 341.47 427.2V437.81C341.47 439.03 340.48 440.02 339.26 440.02C338.04 440.02 337.05 439.03 337.05 437.81V427.2C337.05 425.98 338.04 424.99 339.26 424.99Z" fill="white"/>
<path d="M339.26 444.22C340.48 444.22 341.47 445.21 341.47 446.43V450.04C341.47 451.26 340.48 452.25 339.26 452.25C338.04 452.25 337.05 451.26 337.05 450.04V446.43C337.05 445.21 338.04 444.22 339.26 444.22Z" fill="white"/>
</g>
<path d="M405.49 385.591C406.995 364.443 391.071 346.078 369.922 344.573C348.773 343.069 330.409 358.993 328.904 380.142C327.399 401.291 343.324 419.655 364.473 421.16C385.621 422.665 403.986 406.74 405.49 385.591Z" fill="#665C6D"/>
<path d="M448.08 304.41L438.73 379.19L421.2 378.61L413.61 295.64" fill="#F9C9AB"/>
<path d="M291.26 304.41L300.6 379.19L318.13 378.61L325.73 295.64" fill="#F9C9AB"/>
<path opacity="0.46" d="M291.26 304.41L295.77 306.89C309.56 314.49 318.13 328.99 318.13 344.74V378.6L325.73 295.6" fill="#E19F7F"/>
<path opacity="0.46" d="M447.94 304.41L443.43 306.89C429.63 314.49 421.07 328.99 421.07 344.74V378.6L413.47 295.6" fill="#E19F7F"/>
<path d="M455 311.48C451.09 290.18 448.29 268.69 446.6 247.1C445.8 236.92 444.93 225.91 438.2 218.24C432.62 211.87 424.08 209.11 415.98 206.62L397.78 201L371.63 180.22C371.63 178.57 371.63 176.93 371.58 175.28L368.49 177.73L365.41 175.28C365.41 176.93 365.41 178.57 365.36 180.22L339.21 201L321 206.62C312.9 209.11 304.36 211.87 298.77 218.24C292.05 225.91 291.17 236.92 290.38 247.1C288.69 268.69 285.88 290.18 281.98 311.48C281.76 312.68 281.65 314.17 282.65 314.86C283.14 315.13 283.68 315.27 284.24 315.26C296.11 316.14 308 316.59 319.91 316.6L320.19 317.09C328.91 335.56 322.32 358.29 330.19 377.15C331.19 379.5 332.45 381.86 334.59 383.23C336.49 384.25 338.59 384.83 340.74 384.93C356.43 386.57 372.24 386.82 387.98 385.69C392.69 385.4 398.22 385.64 402.43 383.23C404.57 381.86 405.86 379.5 406.84 377.15C414.69 358.29 408.1 335.56 416.84 317.09L417.13 316.6C429.03 316.6 440.92 316.15 452.79 315.26C453.35 315.26 453.89 315.13 454.38 314.86C455.35 314.17 455.24 312.68 455 311.48Z" fill="#4F3E52"/>
<path d="M420.41 208C404.04 228.64 374.03 232.11 353.38 215.73C352.06 214.68 350.8 213.57 349.6 212.39C367.1 219.08 386.9 214.92 400.22 201.75L415.32 206.38C417 206.94 418.72 207.47 420.41 208Z" fill="#443547"/>
<g opacity="0.21">
<path d="M403.09 197.63C403.17 197.63 403.24 197.56 403.24 197.48C403.24 197.4 403.17 197.33 403.09 197.33C403.01 197.33 402.94 197.4 402.94 197.48C402.94 197.56 403.01 197.63 403.09 197.63Z" fill="#F0CAE7"/>
</g>
<path d="M367.08 25C338.85 25.02 315.98 47.92 316 76.15C316 85.25 323.37 92.62 332.47 92.62H401.76C410.85 92.62 418.22 85.25 418.22 76.16C418.24 47.92 395.38 25.02 367.15 25C367.13 25 367.1 25 367.08 25Z" fill="#AC8067"/>
<path d="M319.61 126.64H415.09V168C415.09 194.37 393.72 215.74 367.35 215.74C340.98 215.74 319.61 194.37 319.61 168V126.64Z" fill="#AC8067"/>
<path d="M367.31 205.72C340.95 205.72 319.58 184.36 319.57 158V168C319.57 194.37 340.94 215.74 367.31 215.74C393.66 215.71 415 194.35 415 168V158C415 184.34 393.65 205.7 367.31 205.72Z" fill="#A0725C"/>
<path d="M321.39 127.96C329.42 127.96 335.93 121.45 335.93 113.42C335.93 105.39 329.42 98.8799 321.39 98.8799C313.36 98.8799 306.85 105.39 306.85 113.42C306.85 121.45 313.36 127.96 321.39 127.96Z" fill="#F9C9AB"/>
<path opacity="0.31" d="M334.2 120.27C330.44 127.37 321.64 130.07 314.54 126.31C307.44 122.55 304.74 113.75 308.5 106.65C309.58 104.62 311.12 102.88 312.99 101.56C311.84 103.67 311.25 106.03 311.26 108.43C311.24 116.46 317.74 122.98 325.77 123C328.79 123 331.74 122.04 334.19 120.27H334.2Z" fill="#E19F7F"/>
<path d="M321.39 121.33C325.759 121.33 329.3 117.789 329.3 113.42C329.3 109.051 325.759 105.51 321.39 105.51C317.021 105.51 313.48 109.051 313.48 113.42C313.48 117.789 317.021 121.33 321.39 121.33Z" fill="#DC8C72"/>
<path d="M414.51 127.96C422.54 127.96 429.05 121.45 429.05 113.42C429.05 105.39 422.54 98.8799 414.51 98.8799C406.48 98.8799 399.97 105.39 399.97 113.42C399.97 121.45 406.48 127.96 414.51 127.96Z" fill="#F9C9AB"/>
<path opacity="0.31" d="M427.32 120.27C423.53 127.35 414.73 130.02 407.64 126.24C400.56 122.45 397.89 113.65 401.67 106.56C402.73 104.57 404.24 102.86 406.08 101.56C404.93 103.67 404.34 106.03 404.35 108.43C404.33 116.46 410.83 122.98 418.86 123C418.87 123 418.89 123 418.9 123C421.92 123 424.87 122.04 427.32 120.27Z" fill="#E19F7F"/>
<path d="M414.51 121.33C418.879 121.33 422.42 117.789 422.42 113.42C422.42 109.051 418.879 105.51 414.51 105.51C410.141 105.51 406.6 109.051 406.6 113.42C406.6 117.789 410.141 121.33 414.51 121.33Z" fill="#DC8C72"/>
<path d="M400.59 45.9099C382.04 27.3599 351.97 27.3599 333.41 45.9099C324.5 54.8199 319.49 66.8999 319.5 79.4999V136.05C320.04 162.28 341.74 183.11 367.97 182.58C393.45 182.06 413.97 161.53 414.5 136.05V79.4999C414.52 66.8999 409.52 54.8099 400.59 45.9099ZM347.48 141.45L347.64 141.52Z" fill="#F9C9AB"/>
<path opacity="0.69" d="M410.94 79.1399V84.4299C410.94 72.3599 406.09 66.4299 398.22 58.5699C390.11 50.3699 379.06 45.7599 367.53 45.7799C343.53 45.7799 324.13 64.3299 324.13 88.4299V83.1399C324.13 59.0399 343.56 40.4899 367.53 40.4899C379.06 40.4699 390.11 45.0799 398.22 53.2799C406.09 61.1799 410.94 67.0799 410.94 79.1399Z" fill="#E19F7F"/>
<path d="M400.89 45.16C392.02 36.19 379.92 31.14 367.3 31.16C341.07 31.16 318.8 52.55 318.8 78.93L319.8 135.79C319.26 162.02 340.09 183.73 366.33 184.26C392.56 184.8 414.27 163.97 414.8 137.73C414.81 137.08 414.81 136.43 414.8 135.78L415.8 78.92C415.8 65.72 409.5 53.79 400.89 45.15V45.16ZM410.71 133.34C411.07 157.31 391.94 177.04 367.96 177.4C343.99 177.76 324.26 158.63 323.9 134.65C323.9 134.21 323.9 133.77 323.9 133.33V85.33C323.9 61.23 343.33 42.69 367.3 42.69C378.84 42.67 389.9 47.3 398 55.52C405.87 63.41 410.72 69.31 410.72 81.37V133.33L410.71 133.34Z" fill="#AC8067"/>
<path d="M410.71 75.5V81.36C410.71 69.29 405.86 63.36 397.99 55.5C389.89 47.29 378.83 42.69 367.3 42.71C343.3 42.71 323.9 61.25 323.9 85.36V79.5C323.9 55.4 343.33 36.86 367.3 36.86C378.83 36.83 389.9 41.44 398 49.65C405.86 57.54 410.71 63.44 410.71 75.5Z" fill="#A0725C"/>
<path opacity="0.42" d="M367.71 116.36C369.43 116.36 370.83 117.76 370.83 119.48V129.47C370.83 131.19 369.43 132.59 367.71 132.59C365.99 132.59 364.59 131.19 364.59 129.47V119.48C364.59 117.76 365.99 116.36 367.71 116.36Z" fill="#D6836F"/>
<path d="M385.59 119.52C392.853 119.52 398.74 113.633 398.74 106.37C398.74 99.1074 392.853 93.22 385.59 93.22C378.327 93.22 372.44 99.1074 372.44 106.37C372.44 113.633 378.327 119.52 385.59 119.52Z" fill="white"/>
<path d="M366.16 189.64C376.687 189.64 385.22 181.107 385.22 170.58C385.22 160.053 376.687 151.52 366.16 151.52C355.633 151.52 347.1 160.053 347.1 170.58C347.1 181.107 355.633 189.64 366.16 189.64Z" fill="#AC8067"/>
<path d="M368.551 166.985C370.238 156.595 363.182 146.804 352.792 145.118C342.401 143.431 332.611 150.487 330.924 160.878C329.237 171.268 336.293 181.059 346.684 182.745C357.074 184.432 366.865 177.376 368.551 166.985Z" fill="#AC8067"/>
<path d="M385.23 182.53C395.757 182.53 404.29 173.996 404.29 163.47C404.29 152.943 395.757 144.41 385.23 144.41C374.703 144.41 366.17 152.943 366.17 163.47C366.17 173.996 374.703 182.53 385.23 182.53Z" fill="#AC8067"/>
<path d="M414.81 141.28C415.15 137.97 415.17 134.64 414.87 131.33H414.81V99C411.56 99 408.93 101.64 408.93 104.89V127.3C408.98 132.48 407.42 137.55 404.47 141.81C400.83 147.17 394.71 150.32 388.23 150.16L403.11 168.71C409.68 161.05 413.75 151.57 414.79 141.53L414.81 141.28Z" fill="#AC8067"/>
<path d="M385.59 114.15C388.097 114.15 390.13 110.846 390.13 106.77C390.13 102.694 388.097 99.3899 385.59 99.3899C383.083 99.3899 381.05 102.694 381.05 106.77C381.05 110.846 383.083 114.15 385.59 114.15Z" fill="#4F3E52"/>
<path d="M349.36 119.52C356.623 119.52 362.51 113.633 362.51 106.37C362.51 99.1074 356.623 93.22 349.36 93.22C342.097 93.22 336.21 99.1074 336.21 106.37C336.21 113.633 342.097 119.52 349.36 119.52Z" fill="white"/>
<path d="M349.65 114.15C352.157 114.15 354.19 110.846 354.19 106.77C354.19 102.694 352.157 99.3899 349.65 99.3899C347.143 99.3899 345.11 102.694 345.11 106.77C345.11 110.846 347.143 114.15 349.65 114.15Z" fill="#4F3E52"/>
<path d="M338.83 76.0199H360.47C362.54 76.0199 364.22 77.6999 364.22 79.7699C364.22 81.8399 362.54 83.5199 360.47 83.5199H338.83C336.76 83.5199 335.08 81.8399 335.08 79.7699C335.08 77.6999 336.76 76.0199 338.83 76.0199Z" fill="#AC8067"/>
<path d="M374.86 74.6599H396.5C398.57 74.6599 400.25 76.3399 400.25 78.4099C400.25 80.4799 398.57 82.1599 396.5 82.1599H374.86C372.79 82.1599 371.11 80.4799 371.11 78.4099C371.11 76.3399 372.79 74.6599 374.86 74.6599Z" fill="#AC8067"/>
<path d="M353.43 106.77C354.645 106.77 355.63 105.785 355.63 104.57C355.63 103.355 354.645 102.37 353.43 102.37C352.215 102.37 351.23 103.355 351.23 104.57C351.23 105.785 352.215 106.77 353.43 106.77Z" fill="white"/>
<path d="M389.65 106.77C390.865 106.77 391.85 105.785 391.85 104.57C391.85 103.355 390.865 102.37 389.65 102.37C388.435 102.37 387.45 103.355 387.45 104.57C387.45 105.785 388.435 106.77 389.65 106.77Z" fill="white"/>
<path d="M346.45 150.15C339.5 150.31 333 146.71 329.45 140.74C326.92 136.67 325.6 131.97 325.64 127.18V104.88C325.64 101.65 323.03 99.03 319.8 99L319.5 122V131.3C319.56 134.83 319.44 137.76 319.7 140.66L319.8 141.56V142.07C320.11 144.97 320.03 147.49 320.72 149.98C322.64 157.08 326.4 163.55 331.61 168.74L346.45 150.15Z" fill="#AC8067"/>
<path opacity="0.15" d="M381.9 113.43C383.739 113.43 385.23 111.939 385.23 110.1C385.23 108.261 383.739 106.77 381.9 106.77C380.061 106.77 378.57 108.261 378.57 110.1C378.57 111.939 380.061 113.43 381.9 113.43Z" fill="white"/>
<path opacity="0.15" d="M345.35 113.43C347.189 113.43 348.68 111.939 348.68 110.1C348.68 108.261 347.189 106.77 345.35 106.77C343.511 106.77 342.02 108.261 342.02 110.1C342.02 111.939 343.511 113.43 345.35 113.43Z" fill="white"/>
<path d="M354.44 19.72H380.18C383.68 19.72 386.52 22.56 386.52 26.06C386.52 29.56 383.68 32.4 380.18 32.4H354.44C350.94 32.4 348.1 29.56 348.1 26.06C348.1 22.56 350.94 19.72 354.44 19.72Z" fill="#4F3E52"/>
<path d="M386.51 26.0599C386.51 29.5599 383.69 32.39 380.19 32.4C380.19 32.4 380.18 32.4 380.17 32.4H354.44C350.94 32.4 348.1 29.5599 348.1 26.0599C348.1 25.5199 348.17 24.97 348.32 24.45C349.05 27.23 351.56 29.18 354.44 29.17H380.17C383.05 29.17 385.57 27.23 386.3 24.45C386.44 24.97 386.51 25.5199 386.51 26.0599Z" fill="#413044"/>
<path d="M371.03 101.97H364.05V104.97H371.03V101.97Z" fill="#4F3E52"/>
<g opacity="0.51">
<path d="M399.05 85.74L372.37 117.64C372.28 117.12 372.23 116.58 372.23 116.05V100.4L384.49 85.74H399.05Z" fill="white"/>
<path d="M412.36 87.24L381.11 124.61H380.8C378.71 124.61 376.7 123.85 375.14 122.46L405.85 85.74H407.52C409.25 85.74 410.94 86.26 412.36 87.24Z" fill="white"/>
</g>
<path d="M407.36 126.6H380.63C375.07 126.6 370.57 122.09 370.56 116.53V94.8C370.57 89.24 375.07 84.75 380.63 84.74H407.36C412.91 84.74 417.41 89.25 417.42 94.8V116.53C417.42 122.09 412.92 126.59 407.36 126.6ZM380.63 87.74C376.73 87.74 373.57 90.9 373.56 94.8V116.53C373.56 120.43 376.73 123.59 380.63 123.6H407.36C411.26 123.6 414.42 120.43 414.42 116.53V94.8C414.42 90.9 411.26 87.75 407.36 87.74H380.63Z" fill="#4F3E52"/>
<g opacity="0.51">
<path d="M346.85 86.7L320.17 118.6C320.07 118.07 320.01 117.54 320 117V101.35L332.28 86.7H346.85Z" fill="white"/>
<path d="M360.16 88.2L328.91 125.56H328.59C326.51 125.56 324.49 124.8 322.94 123.41L353.65 86.7H355.32C357.05 86.7 358.74 87.22 360.16 88.2Z" fill="white"/>
</g>
<path d="M355.39 127.55H328.65C323.1 127.55 318.6 123.04 318.59 117.49V95.7499C318.6 90.1999 323.1 85.6999 328.65 85.6899H355.39C360.94 85.6999 365.44 90.1999 365.45 95.7499V117.49C365.45 123.04 360.94 127.54 355.39 127.55ZM328.65 88.6899C324.75 88.6899 321.6 91.8499 321.59 95.7499V117.49C321.59 121.39 324.75 124.54 328.65 124.55H355.39C359.29 124.55 362.44 121.39 362.45 117.49V95.7499C362.45 91.8499 359.29 88.6999 355.39 88.6899H328.65Z" fill="#4F3E52"/>
<path d="M388.68 202.83C390.591 202.83 392.14 201.281 392.14 199.37C392.14 197.459 390.591 195.91 388.68 195.91C386.769 195.91 385.22 197.459 385.22 199.37C385.22 201.281 386.769 202.83 388.68 202.83Z" fill="#A0725C"/>
<path d="M391.76 194.06C392.08 194.06 392.34 193.8 392.34 193.48C392.34 193.16 392.08 192.9 391.76 192.9C391.44 192.9 391.18 193.16 391.18 193.48C391.18 193.8 391.44 194.06 391.76 194.06Z" fill="#A0725C"/>
<path d="M387.73 192.49C388.514 192.49 389.15 191.854 389.15 191.07C389.15 190.286 388.514 189.65 387.73 189.65C386.946 189.65 386.31 190.286 386.31 191.07C386.31 191.854 386.946 192.49 387.73 192.49Z" fill="#A0725C"/>
<path d="M383.85 195.48C384.242 195.48 384.56 195.162 384.56 194.77C384.56 194.378 384.242 194.06 383.85 194.06C383.458 194.06 383.14 194.378 383.14 194.77C383.14 195.162 383.458 195.48 383.85 195.48Z" fill="#A0725C"/>
<path d="M381.18 191.85C381.788 191.85 382.28 191.357 382.28 190.75C382.28 190.142 381.788 189.65 381.18 189.65C380.572 189.65 380.08 190.142 380.08 190.75C380.08 191.357 380.572 191.85 381.18 191.85Z" fill="#A0725C"/>
<path d="M382.45 202.83C383.151 202.83 383.72 202.261 383.72 201.56C383.72 200.859 383.151 200.29 382.45 200.29C381.749 200.29 381.18 200.859 381.18 201.56C381.18 202.261 381.749 202.83 382.45 202.83Z" fill="#A0725C"/>
<path d="M382.09 198.39C382.339 198.39 382.54 198.189 382.54 197.94C382.54 197.691 382.339 197.49 382.09 197.49C381.841 197.49 381.64 197.691 381.64 197.94C381.64 198.189 381.841 198.39 382.09 198.39Z" fill="#A0725C"/>
<path d="M376.95 195.02C377.215 195.02 377.43 194.805 377.43 194.54C377.43 194.275 377.215 194.06 376.95 194.06C376.685 194.06 376.47 194.275 376.47 194.54C376.47 194.805 376.685 195.02 376.95 195.02Z" fill="#A0725C"/>
<path d="M379.83 195.14C380.288 195.14 380.66 194.768 380.66 194.31C380.66 193.852 380.288 193.48 379.83 193.48C379.372 193.48 379 193.852 379 194.31C379 194.768 379.372 195.14 379.83 195.14Z" fill="#A0725C"/>
<path d="M377.45 200.29C377.726 200.29 377.95 200.066 377.95 199.79C377.95 199.514 377.726 199.29 377.45 199.29C377.174 199.29 376.95 199.514 376.95 199.79C376.95 200.066 377.174 200.29 377.45 200.29Z" fill="#A0725C"/>
<path d="M339.04 48.9499C340.189 48.9499 341.12 48.0187 341.12 46.8699C341.12 45.7212 340.189 44.7899 339.04 44.7899C337.891 44.7899 336.96 45.7212 336.96 46.8699C336.96 48.0187 337.891 48.9499 339.04 48.9499Z" fill="#A0725C"/>
<path d="M339.67 43.58C339.902 43.58 340.09 43.3919 340.09 43.16C340.09 42.928 339.902 42.74 339.67 42.74C339.438 42.74 339.25 42.928 339.25 43.16C339.25 43.3919 339.438 43.58 339.67 43.58Z" fill="#A0725C"/>
<path d="M337.29 41.3199C337.472 41.3199 337.62 41.1722 337.62 40.9899C337.62 40.8077 337.472 40.6599 337.29 40.6599C337.108 40.6599 336.96 40.8077 336.96 40.9899C336.96 41.1722 337.108 41.3199 337.29 41.3199Z" fill="#A0725C"/>
<path d="M335.56 45.43C336.024 45.43 336.4 45.0539 336.4 44.59C336.4 44.1261 336.024 43.75 335.56 43.75C335.096 43.75 334.72 44.1261 334.72 44.59C334.72 45.0539 335.096 45.43 335.56 45.43Z" fill="#A0725C"/>
<path d="M337.09 43.15C337.305 43.15 337.48 42.9754 337.48 42.76C337.48 42.5446 337.305 42.37 337.09 42.37C336.875 42.37 336.7 42.5446 336.7 42.76C336.7 42.9754 336.875 43.15 337.09 43.15Z" fill="#A0725C"/>
<path d="M341.33 42.5499C342.015 42.5499 342.57 41.9948 342.57 41.3099C342.57 40.6251 342.015 40.0699 341.33 40.0699C340.645 40.0699 340.09 40.6251 340.09 41.3099C340.09 41.9948 340.645 42.5499 341.33 42.5499Z" fill="#A0725C"/>
<path d="M341.4 44.12C341.549 44.12 341.67 43.9991 341.67 43.85C341.67 43.7008 341.549 43.58 341.4 43.58C341.251 43.58 341.13 43.7008 341.13 43.85C341.13 43.9991 341.251 44.12 341.4 44.12Z" fill="#A0725C"/>
<path d="M335.81 47.81C336.07 47.81 336.28 47.5996 336.28 47.34C336.28 47.0804 336.07 46.87 335.81 46.87C335.55 46.87 335.34 47.0804 335.34 47.34C335.34 47.5996 335.55 47.81 335.81 47.81Z" fill="#A0725C"/>
<path d="M334.72 47.23C334.963 47.23 335.16 47.033 335.16 46.79C335.16 46.547 334.963 46.35 334.72 46.35C334.477 46.35 334.28 46.547 334.28 46.79C334.28 47.033 334.477 47.23 334.72 47.23Z" fill="#A0725C"/>
<path d="M334.89 42.2399C335.144 42.2399 335.35 42.034 335.35 41.7799C335.35 41.5259 335.144 41.3199 334.89 41.3199C334.636 41.3199 334.43 41.5259 334.43 41.7799C334.43 42.034 334.636 42.2399 334.89 42.2399Z" fill="#A0725C"/>
<path d="M337.93 44.34C338.096 44.34 338.23 44.2057 338.23 44.04C338.23 43.8743 338.096 43.74 337.93 43.74C337.764 43.74 337.63 43.8743 337.63 44.04C337.63 44.2057 337.764 44.34 337.93 44.34Z" fill="#A0725C"/>
<path d="M344.15 44.4199C344.846 44.4199 345.41 43.8558 345.41 43.1599C345.41 42.464 344.846 41.8999 344.15 41.8999C343.454 41.8999 342.89 42.464 342.89 43.1599C342.89 43.8558 343.454 44.4199 344.15 44.4199Z" fill="#A0725C"/>
<path d="M430.43 400.95C438.604 400.95 445.23 394.324 445.23 386.15C445.23 377.976 438.604 371.35 430.43 371.35C422.256 371.35 415.63 377.976 415.63 386.15C415.63 394.324 422.256 400.95 430.43 400.95Z" fill="#F9C9AB"/>
<path d="M308.91 400.95C317.084 400.95 323.71 394.324 323.71 386.15C323.71 377.976 317.084 371.35 308.91 371.35C300.736 371.35 294.11 377.976 294.11 386.15C294.11 394.324 300.736 400.95 308.91 400.95Z" fill="#F9C9AB"/>
<path d="M411.99 240.29H385.79C382.322 240.29 379.51 243.102 379.51 246.57V256.09C379.51 259.558 382.322 262.37 385.79 262.37H411.99C415.458 262.37 418.27 259.558 418.27 256.09V246.57C418.27 243.102 415.458 240.29 411.99 240.29Z" fill="#A0A3FC"/>
<path d="M297.11 364.58H303.53C304.62 364.58 305.51 365.47 305.51 366.56C305.51 367.65 304.62 368.54 303.53 368.54H297.11C296.02 368.54 295.13 367.65 295.13 366.56C295.13 365.47 296.02 364.58 297.11 364.58Z" fill="#EAB192"/>
<path d="M294.78 357.48H301.2C302.29 357.48 303.18 358.37 303.18 359.46C303.18 360.55 302.29 361.44 301.2 361.44H294.78C293.69 361.44 292.8 360.55 292.8 359.46C292.8 358.37 293.69 357.48 294.78 357.48Z" fill="#EAB192"/>
<path d="M293.84 350.37H300.26C301.35 350.37 302.24 351.26 302.24 352.35C302.24 353.44 301.35 354.33 300.26 354.33H293.84C292.75 354.33 291.86 353.44 291.86 352.35C291.86 351.26 292.75 350.37 293.84 350.37Z" fill="#EAB192"/>
<path d="M326.75 98.9199C326.75 98.3566 326.293 97.8999 325.73 97.8999C325.167 97.8999 324.71 98.3566 324.71 98.9199V106.78C324.71 107.343 325.167 107.8 325.73 107.8C326.293 107.8 326.75 107.343 326.75 106.78V98.9199Z" fill="white"/>
<path d="M325.72 110.03C326.28 110.03 326.74 110.49 326.74 111.05V112.91C326.74 113.47 326.28 113.93 325.72 113.93C325.16 113.93 324.7 113.47 324.7 112.91V111.05C324.7 110.49 325.16 110.03 325.72 110.03Z" fill="white"/>
<path d="M496.838 133.313L491.626 140.354L512.05 155.472L517.262 148.431L496.838 133.313Z" fill="#2DFFC9"/>
<path d="M509.055 131.787L493.058 151.528L499.863 157.044L515.861 137.302L509.055 131.787Z" fill="#2DFFC9"/>
<path d="M360.17 7.39864C360.978 6.81924 361.328 5.92387 360.951 5.3988C360.574 4.87372 359.614 4.91777 358.806 5.49717C357.999 6.07657 357.649 6.97192 358.026 7.497C358.402 8.02207 359.362 7.97804 360.17 7.39864Z" fill="white"/>
<path d="M363.279 4.64011C363.643 4.37938 363.799 3.9752 363.629 3.73734C363.458 3.49949 363.025 3.51803 362.662 3.77876C362.298 4.03949 362.142 4.44367 362.312 4.68153C362.483 4.91938 362.916 4.90084 363.279 4.64011Z" fill="white"/>
<path d="M367.35 404.76C364.17 404.76 361.59 402.18 361.59 399V380.1H373.1V399C373.1 402.18 370.53 404.75 367.35 404.76ZM362.59 381.1V399C362.47 401.63 364.5 403.85 367.13 403.97C369.76 404.09 371.98 402.06 372.1 399.43C372.1 399.28 372.1 399.14 372.1 398.99V381.09H362.59V381.1Z" fill="#4F3E52"/>
<path d="M409.18 395.06H396.07C391.71 395.06 388.19 391.53 388.18 387.17V385.77H389.18V387.17C389.18 390.97 392.27 394.05 396.07 394.06H409.18V395.06Z" fill="#4F3E52"/>
<path d="M340.89 395.06H327.77V394.06H340.89C344.69 394.06 347.77 390.97 347.78 387.17V385.77H348.78V387.17C348.78 391.53 345.25 395.05 340.89 395.06Z" fill="#4F3E52"/>
<path d="M369.76 388.93H375.33C376.03 388.93 376.6 389.5 376.6 390.2C376.6 390.9 376.03 391.46 375.33 391.46H369.76C369.06 391.46 368.49 390.89 368.49 390.19C368.49 389.49 369.06 388.93 369.76 388.93Z" fill="#4F3E52"/>
<path d="M369.76 393.03H375.33C376.03 393.03 376.6 393.6 376.6 394.3C376.6 395 376.03 395.56 375.33 395.56H369.76C369.06 395.56 368.49 394.99 368.49 394.29C368.49 393.59 369.06 393.03 369.76 393.03Z" fill="#4F3E52"/>
<path d="M369.76 397.13H375.33C376.03 397.13 376.6 397.7 376.6 398.4C376.6 399.1 376.03 399.66 375.33 399.66H369.76C369.06 399.66 368.49 399.09 368.49 398.39C368.49 397.69 369.06 397.13 369.76 397.13Z" fill="#4F3E52"/>
<path d="M311 113.54C311.02 111.67 311.63 109.86 312.74 108.36C313.52 107.13 311.58 106 310.8 107.22C309.48 109.06 308.76 111.27 308.75 113.54C308.81 114.98 311.06 114.99 311 113.54Z" fill="white"/>
<path d="M315.71 105.55C315.94 105.26 316.25 105.04 316.6 104.91C317.19 104.73 317.54 104.12 317.39 103.52C317.21 102.93 316.6 102.58 316 102.74C315.27 102.97 314.62 103.39 314.11 103.96C313.69 104.41 313.69 105.1 314.11 105.55C314.55 105.99 315.27 105.99 315.71 105.55Z" fill="white"/>
<path d="M296.27 322L297.08 329.92C297.27 331.82 300.28 331.84 300.08 329.92L299.27 322C299.07 320.1 296.07 320.08 296.27 322Z" fill="white"/>
<path d="M297.55 335.27C297.67 335.64 297.72 336.04 297.69 336.43C297.69 337.26 298.36 337.93 299.19 337.93C300.01 337.91 300.67 337.25 300.69 336.43C300.71 335.75 300.63 335.08 300.44 334.43C300.2 333.64 299.36 333.2 298.56 333.44C297.8 333.67 297.36 334.46 297.55 335.23V335.27Z" fill="white"/>
<path d="M337.32 456.69V459.22C337.32 460.05 337.99 460.72 338.82 460.72C339.65 460.72 340.32 460.05 340.32 459.22V456.69C340.32 455.86 339.65 455.19 338.82 455.19C337.99 455.19 337.32 455.86 337.32 456.69Z" fill="white"/>
<path d="M342.85 60C344.69 57.82 346.98 56.07 349.57 54.87C351.32 54.06 349.8 51.47 348.06 52.28C345.24 53.59 342.74 55.5 340.73 57.88C339.48 59.34 341.6 61.48 342.85 60Z" fill="white"/>
<path d="M354 53.0899L355.9 52.3699C356.71 52.1599 357.2 51.3399 357 50.5299C356.78 49.7299 355.95 49.2599 355.15 49.4799L353.25 50.1999C352.47 50.4199 351.99 51.2099 352.16 51.9999C352.37 52.8099 353.19 53.2999 354 53.0899Z" fill="white"/>
<path d="M323.2 148.5V158.14C323.2 158.97 323.87 159.64 324.7 159.64C325.53 159.64 326.2 158.97 326.2 158.14V148.5C326.2 147.67 325.53 147 324.7 147C323.87 147 323.2 147.67 323.2 148.5Z" fill="white"/>
<path d="M324.84 167.29C325.895 167.29 326.75 166.435 326.75 165.38C326.75 164.325 325.895 163.47 324.84 163.47C323.785 163.47 322.93 164.325 322.93 165.38C322.93 166.435 323.785 167.29 324.84 167.29Z" fill="white"/>
</svg>
