<svg width="600" height="499" viewBox="0 0 600 499" fill="none" xmlns="http://www.w3.org/2000/svg">
<g clip-path="url(#clip0_469_8315)">
<mask id="mask0_469_8315" style="mask-type:luminance" maskUnits="userSpaceOnUse" x="0" y="0" width="600" height="500">
<path d="M0 0H600V500H0V0Z" fill="white"/>
</mask>
<g mask="url(#mask0_469_8315)">
<path d="M303.92 148.052C296.116 152.387 288.879 157.612 282.536 163.763C296.405 160.08 311.388 160.079 325.256 163.721C318.961 157.611 311.725 152.387 303.92 148.052Z" fill="#00C297" stroke="#00C297"/>
<path d="M326.963 164.71C312.06 160.415 295.721 160.415 280.818 164.76C287.581 157.918 295.422 152.175 303.921 147.48C312.419 152.175 320.26 157.918 326.963 164.71Z" fill="#00C297" stroke="#00C297" stroke-width="6" stroke-miterlimit="10" stroke-linecap="round" stroke-linejoin="round"/>
<path d="M278.963 311.087C278.963 323.508 281.297 335.395 285.606 347.482C285.726 347.883 285.905 348.283 286.085 348.751C290.394 360.237 296.559 371.723 304.04 378.468C311.761 371.523 318.045 359.569 322.414 347.749C322.474 347.682 322.474 347.615 322.534 347.482C326.843 335.395 329.177 323.508 329.177 311.087C329.177 307.28 328.938 303.541 328.519 299.668C327.082 286.712 319.182 271.086 309.307 269.416C309.187 269.416 309.068 269.349 308.948 269.349C305.836 268.949 302.664 268.949 299.551 269.283C299.432 269.283 299.252 269.283 299.132 269.349C289.077 270.752 280.998 286.579 279.561 299.668C279.202 303.541 278.963 307.28 278.963 311.087Z" fill="#F4A045"/>
<path d="M278.963 311.087C278.963 323.508 281.297 335.395 285.606 347.482C285.726 347.883 285.905 348.283 286.085 348.751C290.394 360.237 296.559 371.723 304.04 378.468C311.761 371.523 318.045 359.569 322.414 347.749C322.474 347.682 322.474 347.615 322.534 347.482C326.843 335.395 329.177 323.508 329.177 311.087C329.177 307.28 328.938 303.541 328.519 299.668C327.082 286.712 319.182 271.086 309.307 269.416C309.187 269.416 309.068 269.349 308.948 269.349C305.836 268.949 302.664 268.949 299.551 269.283C299.432 269.283 299.252 269.283 299.132 269.349C289.077 270.752 280.998 286.579 279.561 299.668C279.202 303.541 278.963 307.28 278.963 311.087Z" stroke="#121330" stroke-width="6" stroke-miterlimit="10" stroke-linecap="round" stroke-linejoin="round"/>
<path d="M-1.59144e-05 499.272C9.47629 507.62 -10.9726 442.039 17.9551 411.141C25.1685 403.436 36.409 396.637 44.8878 395.429C68.828 395.429 89.8953 409.186 102.105 429.954C108.449 426.615 115.511 424.812 122.993 424.812C126.284 424.812 129.456 425.146 132.509 425.881C132.509 425.547 132.509 425.213 132.509 424.812C132.509 407.784 143.282 393.559 157.586 390.154C163.092 369.118 180.449 353.692 201.097 353.692C218.274 353.692 233.237 364.377 240.898 380.07C246.225 374.527 253.347 371.055 261.187 371.055C265.676 371.055 269.925 372.19 273.756 374.127C278.424 366.046 282.554 357.565 286.085 348.617C294.823 326.579 299.671 302.004 299.671 276.227C299.671 273.89 299.611 271.619 299.551 269.282C298.534 239.431 291.052 211.451 278.544 187.009H330.314C317.806 211.451 310.324 239.498 309.307 269.349C309.247 271.619 309.187 273.89 309.187 276.16C309.187 301.537 313.915 325.778 322.414 347.682C327.98 361.973 335.102 375.329 343.661 387.416C350.903 377.399 361.975 371.055 374.364 371.055C386.813 371.055 397.885 377.465 405.127 387.482C410.933 383.676 417.636 381.472 424.878 381.472C436.489 381.472 446.963 387.215 454.085 396.231C464.619 378.801 482.454 367.315 502.683 367.315C535.003 367.315 561.217 396.565 561.217 432.626C561.217 432.826 561.217 433.026 561.217 433.227C583.122 445.648 598.504 470.356 600 499.272H458.753H169.137H-1.59144e-05Z" fill="white"/>
<path d="M306.793 269.216C312.419 270.017 316.908 278.832 317.746 286.111C317.985 288.248 318.105 290.318 318.105 292.455C318.105 299.4 316.788 306.011 314.394 312.756C312 319.367 308.409 326.112 304.1 329.985C299.731 326.112 296.2 319.367 293.806 312.756C291.412 306.011 290.095 299.4 290.095 292.455C290.095 290.318 290.215 288.248 290.454 286.111C291.292 278.765 295.781 270.017 301.407 269.216C303.142 269.015 304.998 269.015 306.793 269.216Z" fill="#E36535"/>
<path d="M306.793 269.216C312.419 270.017 316.908 278.832 317.746 286.111C317.985 288.248 318.105 290.318 318.105 292.455C318.105 299.4 316.788 306.011 314.394 312.756C312 319.367 308.409 326.112 304.1 329.985C299.731 326.112 296.2 319.367 293.806 312.756C291.412 306.011 290.095 299.4 290.095 292.455C290.095 290.318 290.215 288.248 290.454 286.111C291.292 278.765 295.781 270.017 301.407 269.216C303.142 269.015 304.998 269.015 306.793 269.216Z" stroke="#121330" stroke-width="6" stroke-miterlimit="10" stroke-linecap="round" stroke-linejoin="round"/>
<path d="M376.28 167.243L395.791 175.724V134.388L335.881 82.2324V160.432L350.365 168.913C358.085 164.372 367.482 163.437 376.28 167.243Z" fill="#00C297"/>
<path d="M402.134 186.543C408.239 176.66 411.77 164.973 411.77 152.485C411.77 136.659 406.204 122.167 396.927 111.015C387.65 122.167 382.024 136.659 381.965 152.485C381.965 165.04 385.496 176.66 391.541 186.543H402.134Z" fill="#00C297"/>
<path opacity="0.72" d="M395.791 175.724L376.4 167.31C376.16 161.567 376.519 155.69 377.477 149.813C378.913 140.998 381.606 132.718 385.317 125.238L395.791 134.387V175.724Z" fill="#2DFFC9"/>
<path opacity="0.23" d="M393.277 145.94L335.821 95.9891V82.2324L395.791 134.321V175.724L393.277 174.656V145.94Z" fill="#F4A15D"/>
<path opacity="0.72" d="M359.701 165.373C356.41 165.974 353.297 167.176 350.365 168.913L335.881 160.432V82.2324L361.138 104.203C362.395 112.684 362.993 121.566 362.993 130.715C362.933 142.802 361.796 154.488 359.701 165.373Z" fill="#2DFFC9"/>
<path d="M376.28 167.243L395.791 175.724V134.388L335.881 82.2324V160.432L350.365 168.913C358.085 164.372 367.482 163.437 376.28 167.243Z" stroke="#121330" stroke-width="6" stroke-miterlimit="10" stroke-linecap="round" stroke-linejoin="round"/>
<path d="M402.134 186.543C408.239 176.66 411.77 164.973 411.77 152.485C411.77 136.659 406.204 122.167 396.927 111.015C387.65 122.167 382.024 136.659 381.965 152.485C381.965 165.04 385.496 176.66 391.541 186.543H402.134Z" fill="#00C297"/>
<path opacity="0.23" d="M397.825 111.015C397.107 111.883 396.389 112.818 395.731 113.753C401.955 124.438 405.546 136.993 405.606 150.348C405.606 163.571 403.811 175.925 397.706 186.61H403.212C409.257 176.727 412.788 165.04 412.788 152.552C412.728 136.659 407.102 122.167 397.825 111.015Z" fill="#F4A15D"/>
<path opacity="0.32" d="M397.825 111.015C397.586 111.282 397.347 111.616 397.107 111.95C404.11 123.503 408.12 137.059 408.18 151.617C408.18 164.239 405.127 176.126 399.801 186.61H403.212C409.257 176.727 412.788 165.04 412.788 152.552C412.728 136.659 407.102 122.167 397.825 111.015Z" fill="#F4A15D"/>
<path opacity="0.37" d="M381.966 152.485C381.966 136.659 387.592 122.234 396.929 111.015C397.647 111.883 398.365 112.818 399.023 113.753C392.799 124.438 389.208 136.993 389.148 150.348C389.148 163.571 392.619 175.925 398.724 186.61H391.542C385.497 176.66 381.966 164.973 381.966 152.485Z" fill="#2DFFC9"/>
<path opacity="0.72" d="M381.966 152.485C381.966 136.659 387.592 122.234 396.928 111.015C397.168 111.282 397.407 111.616 397.646 111.95C390.644 123.503 386.634 137.059 386.574 151.617C386.574 164.239 389.627 176.126 394.953 186.61H391.542C385.497 176.66 381.966 164.973 381.966 152.485Z" fill="#2DFFC9"/>
<path opacity="0.37" d="M396.929 111.015C397.647 111.883 398.365 112.818 399.023 113.753C392.799 124.438 389.208 136.993 389.148 150.348C389.148 163.571 392.619 175.925 398.724 186.61H391.542C385.497 176.727 381.966 165.04 381.966 152.552C382.026 136.659 387.652 122.167 396.929 111.015Z" fill="#2DFFC9"/>
<path opacity="0.72" d="M396.928 111.015C397.168 111.282 397.407 111.616 397.646 111.95C390.644 123.503 386.634 137.059 386.574 151.617C386.574 164.239 389.627 176.126 394.953 186.61H391.542C385.497 176.727 381.966 165.04 381.966 152.552C382.026 136.659 387.651 122.167 396.928 111.015Z" fill="#2DFFC9"/>
<path d="M390.104 123.035C392.319 118.695 394.952 114.688 398.005 110.948C401.057 114.621 403.69 118.695 405.905 123.035H390.104Z" fill="#121330"/>
<path d="M402.134 186.543C408.239 176.66 411.77 164.973 411.77 152.485C411.77 136.659 406.204 122.167 396.927 111.015C387.65 122.167 382.024 136.659 381.965 152.485C381.965 165.04 385.496 176.66 391.541 186.543H402.134Z" stroke="#121330" stroke-width="6" stroke-miterlimit="10" stroke-linecap="round" stroke-linejoin="round"/>
<path d="M324.389 238.097C324.389 238.097 331.631 239.833 342.045 251.453C345.816 255.66 351.741 264.208 356.11 270.685C357.905 273.357 361.736 272.021 361.796 268.682L363.232 197.561C363.531 195.558 363.053 193.488 361.915 191.952L346.235 170.182L324.389 238.097Z" fill="#00C297"/>
<path opacity="0.32" d="M361.915 270.084C358.504 269.55 355.93 266.278 355.871 262.405L355.212 196.293C355.511 194.289 355.033 192.219 353.895 190.683L344.08 176.993L346.294 170.182L361.915 191.885C363.053 193.488 363.531 195.491 363.232 197.495L361.915 270.084Z" fill="#F4A15D"/>
<path opacity="0.72" d="M324.389 238.097L346.235 170.182L354.913 182.269C350.245 202.303 342.883 222.671 332.948 242.972C327.681 238.898 324.389 238.097 324.389 238.097Z" fill="#2DFFC9"/>
<path d="M324.389 238.097C324.389 238.097 331.631 239.833 342.045 251.453C345.816 255.66 351.741 264.208 356.11 270.685C357.905 273.357 361.736 272.021 361.796 268.682L363.232 197.561C363.531 195.558 363.053 193.488 361.915 191.952L346.235 170.182L324.389 238.097Z" stroke="#121330" stroke-width="6" stroke-miterlimit="10" stroke-linecap="round" stroke-linejoin="round"/>
<path d="M407.82 177.728H388.13" stroke="#121330" stroke-width="4" stroke-miterlimit="10" stroke-linecap="round" stroke-linejoin="round"/>
<path d="M402.134 186.543C408.239 176.66 411.77 164.973 411.77 152.485C411.77 136.659 406.204 122.167 396.927 111.015C387.65 122.167 382.024 136.659 381.965 152.485C381.965 165.04 385.496 176.66 391.541 186.543H402.134Z" fill="#00C297"/>
<path d="M402.134 186.543C408.239 176.66 411.77 164.973 411.77 152.485C411.77 136.659 406.204 122.167 396.927 111.015C387.65 122.167 382.024 136.659 381.965 152.485C381.965 165.04 385.496 176.66 391.541 186.543H402.134Z" fill="#00C297"/>
<path opacity="0.23" d="M397.825 111.015C397.107 111.883 396.389 112.818 395.731 113.753C401.955 124.438 405.546 136.993 405.606 150.348C405.606 163.571 403.811 175.925 397.706 186.61H403.212C409.257 176.727 412.788 165.04 412.788 152.552C412.728 136.659 407.102 122.167 397.825 111.015Z" fill="#2DFFC9"/>
<path opacity="0.32" d="M397.825 111.015C397.586 111.282 397.347 111.616 397.107 111.95C404.11 123.503 408.12 137.059 408.18 151.617C408.18 164.239 405.127 176.126 399.801 186.61H403.212C409.257 176.727 412.788 165.04 412.788 152.552C412.728 136.659 407.102 122.167 397.825 111.015Z" fill="#F4A15D"/>
<path opacity="0.37" d="M381.966 152.485C381.966 136.659 387.592 122.234 396.929 111.015C397.647 111.883 398.365 112.818 399.023 113.753C392.799 124.438 389.208 136.993 389.148 150.348C389.148 163.571 392.619 175.925 398.724 186.61H391.542C385.497 176.66 381.966 164.973 381.966 152.485Z" fill="#2DFFC9"/>
<path opacity="0.72" d="M381.966 152.485C381.966 136.659 387.592 122.234 396.928 111.015C397.168 111.282 397.407 111.616 397.646 111.95C390.644 123.503 386.634 137.059 386.574 151.617C386.574 164.239 389.627 176.126 394.953 186.61H391.542C385.497 176.66 381.966 164.973 381.966 152.485Z" fill="#2DFFC9"/>
<path opacity="0.37" d="M396.929 111.015C397.647 111.883 398.365 112.818 399.023 113.753C392.799 124.438 389.208 136.993 389.148 150.348C389.148 163.571 392.619 175.925 398.724 186.61H391.542C385.497 176.727 381.966 165.04 381.966 152.552C382.026 136.659 387.652 122.167 396.929 111.015Z" fill="#2DFFC9"/>
<path opacity="0.72" d="M396.928 111.015C397.168 111.282 397.407 111.616 397.646 111.95C390.644 123.503 386.634 137.059 386.574 151.617C386.574 164.239 389.627 176.126 394.953 186.61H391.542C385.497 176.727 381.966 165.04 381.966 152.552C382.026 136.659 387.651 122.167 396.928 111.015Z" fill="#2DFFC9"/>
<path d="M389.027 123.035C391.241 118.695 393.875 114.688 396.927 110.948C399.979 114.621 402.613 118.695 404.827 123.035H389.027Z" fill="#121330"/>
<path d="M402.134 186.543C408.239 176.66 411.77 164.973 411.77 152.485C411.77 136.659 406.204 122.167 396.927 111.015C387.65 122.167 382.024 136.659 381.965 152.485C381.965 165.04 385.496 176.66 391.541 186.543H402.134Z" stroke="#121330" stroke-width="6" stroke-miterlimit="10" stroke-linecap="round" stroke-linejoin="round"/>
<path d="M407.82 177.728H388.13" stroke="#121330" stroke-width="4" stroke-miterlimit="10" stroke-linecap="round" stroke-linejoin="round"/>
<path d="M235.331 167.243L215.82 175.724V134.388L275.73 82.2324V160.432L261.247 168.913C253.526 164.372 244.129 163.437 235.331 167.243Z" fill="#00C297"/>
<path opacity="0.72" d="M215.821 175.724L235.212 167.31C235.452 161.567 235.093 155.69 234.135 149.813C232.699 140.998 230.005 132.718 226.295 125.238L215.821 134.387V175.724Z" fill="#2DFFC9"/>
<path opacity="0.23" d="M218.274 145.94L275.73 95.9891V82.2324L215.82 134.321V175.724L218.274 174.656V145.94Z" fill="#2DFFC9"/>
<path opacity="0.72" d="M251.91 165.373C255.202 165.974 258.314 167.176 261.247 168.913L275.73 160.432V82.2324L250.474 104.203C249.217 112.684 248.618 121.566 248.618 130.715C248.618 142.802 249.755 154.488 251.91 165.373Z" fill="#2DFFC9"/>
<path d="M235.331 167.243L215.82 175.724V134.388L275.73 82.2324V160.432L261.247 168.913C253.526 164.372 244.129 163.437 235.331 167.243Z" stroke="#121330" stroke-width="6" stroke-miterlimit="10" stroke-linecap="round" stroke-linejoin="round"/>
<path d="M287.163 238.097C287.163 238.097 279.921 239.833 269.507 251.453C265.736 255.66 259.811 264.208 255.442 270.685C253.646 273.357 249.816 272.021 249.756 268.682L248.32 197.561C248.02 195.558 248.499 193.488 249.636 191.952L265.317 170.182L287.163 238.097Z" fill="#00C297"/>
<path opacity="0.72" d="M249.695 270.084C253.107 269.55 255.68 266.278 255.74 262.405L256.399 196.293C256.099 194.289 256.578 192.219 257.715 190.683L267.531 176.993L265.316 170.182L249.636 191.952C248.498 193.555 248.02 195.558 248.319 197.561L249.695 270.084Z" fill="#2DFFC9"/>
<path opacity="0.72" d="M287.163 238.097L265.317 170.182L256.639 182.269C261.307 202.303 268.669 222.671 278.604 242.972C283.871 238.898 287.163 238.097 287.163 238.097Z" fill="#2DFFC9"/>
<path d="M287.163 238.097C287.163 238.097 279.921 239.833 269.507 251.453C265.736 255.66 259.811 264.208 255.442 270.685C253.646 273.357 249.816 272.021 249.756 268.682L248.32 197.561C248.02 195.558 248.499 193.488 249.636 191.952L265.317 170.182L287.163 238.097Z" stroke="#121330" stroke-width="6" stroke-miterlimit="10" stroke-linecap="round" stroke-linejoin="round"/>
<path d="M287.462 276.295C286.804 268.348 287.761 260.869 299.732 241.169C301.707 238.03 306.435 238.03 308.41 241.169C320.38 260.936 321.337 268.415 320.679 276.295C320.559 277.297 318.943 278.432 317.926 278.031C311.043 274.091 297.098 274.091 290.215 278.031C289.198 278.432 287.582 277.364 287.462 276.295Z" fill="#4E8280"/>
<g opacity="0.32">
<g opacity="0.32">
<g opacity="0.32">
<path opacity="0.32" d="M314.634 276.295C315.293 268.348 314.335 260.869 302.365 241.169C302.006 240.568 301.527 240.1 301.048 239.766C303.323 238.097 306.794 238.564 308.41 241.169C320.38 260.936 321.337 268.415 320.679 276.295C320.559 277.297 318.943 278.432 317.926 278.031C316.909 277.497 315.771 276.963 314.574 276.562C314.574 276.495 314.634 276.428 314.634 276.295Z" fill="#F4A15D"/>
</g>
<g opacity="0.32">
<path opacity="0.32" d="M301.047 275.226C296.918 275.56 293.027 276.495 290.214 278.031C289.317 278.431 287.88 277.496 287.521 276.562C291.471 275.293 296.379 274.825 301.047 275.226Z" fill="#F4A15D"/>
</g>
</g>
</g>
<path d="M306.314 241.169C306.494 240.902 306.673 240.702 306.853 240.501C304.639 238.03 300.509 238.297 298.713 241.169C286.743 260.936 285.786 268.415 286.444 276.295C286.564 277.296 288.18 278.432 289.197 278.032C290.574 277.23 292.25 276.629 294.045 276.162C293.387 268.282 294.404 260.802 306.314 241.169Z" fill="#37605D"/>
<path d="M287.462 276.295C286.804 268.348 287.761 260.869 299.732 241.169C301.707 238.03 306.435 238.03 308.41 241.169C320.38 260.936 321.337 268.415 320.679 276.295C320.559 277.297 318.943 278.432 317.926 278.031C311.043 274.091 297.098 274.091 290.215 278.031C289.198 278.432 287.582 277.364 287.462 276.295Z" stroke="#121330" stroke-width="6" stroke-miterlimit="10" stroke-linecap="round" stroke-linejoin="round"/>
<path d="M290.574 252.321C262.384 200.834 252.15 150.281 258.494 108.143C264 71.548 281.716 45.1699 304.1 28.6753C326.484 45.1699 344.2 71.548 349.706 108.143C356.05 150.281 345.756 200.834 317.626 252.321H290.574Z" fill="#00C297"/>
<path opacity="0.23" d="M328.28 108.877C324.689 75.7542 315.352 49.443 302.783 29.7429C303.202 29.409 303.681 29.0751 304.1 28.7412C326.484 45.2358 344.2 71.6139 349.706 108.209C356.05 150.347 345.756 200.9 317.626 252.387H311.941C327.562 200.9 332.828 151.416 328.28 108.877Z" fill="#2DFFC9"/>
<path opacity="0.37" d="M258.494 108.143C263.941 71.8143 281.417 45.5698 303.622 29.0752C299.492 36.4878 294.225 47.1726 289.796 60.7289C281.716 85.3707 280.819 105.672 280.34 118.427C278.185 175.791 297.876 239.231 302.006 252.387H290.574C262.385 200.833 252.15 150.281 258.494 108.143Z" fill="#2DFFC9"/>
<path opacity="0.72" d="M258.494 108.143C264.001 71.548 281.716 45.1699 304.1 28.6753C304.699 29.076 305.237 29.5434 305.836 29.9441C297.337 37.3567 290.873 45.3035 285.966 52.9164C241.916 121.299 284.17 223.673 289.976 237.229C290.215 228.013 291.292 216.594 294.345 203.839C296.32 195.692 298.714 188.546 301.108 182.469C302.006 205.108 302.903 227.746 303.801 250.385H296.38C296.559 251.052 296.739 251.653 296.978 252.321H290.694C262.385 200.834 252.15 150.281 258.494 108.143Z" fill="#2DFFC9"/>
<path opacity="0.32" d="M342.165 119.762C341.327 109.078 338.215 74.3521 319.003 45.8371C315.95 41.3628 311.402 35.2859 311.761 34.952C312.299 34.4177 322.833 45.0357 330.314 56.3215C339.711 70.4121 346.594 87.7081 349.646 108.143C355.99 150.281 345.696 200.833 317.566 252.32H315.112C322.833 235.158 327.92 219.665 331.392 207.444C333.666 199.23 337.676 184.672 340.19 165.173C341.806 152.084 343.601 138.06 342.165 119.762Z" fill="#2DFFC9"/>
<path opacity="0.72" d="M300.869 133.518C291.878 133.518 284.589 125.386 284.589 115.354C284.589 105.322 291.878 97.1899 300.869 97.1899C309.859 97.1899 317.148 105.322 317.148 115.354C317.148 125.386 309.859 133.518 300.869 133.518Z" fill="#2DFFC9" stroke="#2DFFC9" stroke-width="6" stroke-miterlimit="10" stroke-linecap="round" stroke-linejoin="round"/>
<path d="M290.574 252.321C262.384 200.834 252.15 150.281 258.494 108.143C264 71.548 281.716 45.1699 304.1 28.6753C326.484 45.1699 344.2 71.548 349.706 108.143C356.05 150.281 345.756 200.834 317.626 252.321H290.574Z" stroke="#121330" stroke-width="6" stroke-miterlimit="10" stroke-linecap="round" stroke-linejoin="round"/>
<path d="M288.022 115.461C286.582 105.559 292.609 96.2289 301.484 94.6222C310.358 93.0148 318.721 99.7395 320.161 109.642C321.601 119.544 315.574 128.874 306.7 130.482C297.825 132.089 289.463 125.364 288.022 115.461Z" fill="#ABCFD8"/>
<path opacity="0.93" d="M306.314 122.5C300.894 122.5 296.499 117.597 296.499 111.549C296.499 105.5 300.894 100.597 306.314 100.597C311.735 100.597 316.13 105.5 316.13 111.549C316.13 117.597 311.735 122.5 306.314 122.5Z" fill="#E2F0F2"/>
<path d="M288.022 115.461C286.582 105.559 292.609 96.2289 301.484 94.6222C310.358 93.0148 318.721 99.7395 320.161 109.642C321.601 119.544 315.574 128.874 306.7 130.482C297.825 132.089 289.463 125.364 288.022 115.461Z" stroke="#121330" stroke-width="6" stroke-miterlimit="10" stroke-linecap="round" stroke-linejoin="round"/>
<path d="M304.1 283.575C303.442 283.575 302.903 282.774 302.844 281.705L298.355 199.967C297.876 191.552 300.27 183.739 303.801 181.869C304.041 181.736 304.28 181.736 304.46 181.869C307.991 183.672 310.385 191.486 309.906 199.967L305.417 281.705C305.297 282.774 304.699 283.575 304.1 283.575Z" fill="#2DFFC9"/>
<path opacity="0.74" d="M304.1 283.575C303.442 283.575 302.903 282.774 302.844 281.705L298.355 199.967C297.876 191.552 300.27 183.739 303.801 181.869C304.041 181.736 304.28 181.736 304.46 181.869C307.991 183.672 310.385 191.486 309.906 199.967L305.417 281.705C305.297 282.774 304.699 283.575 304.1 283.575Z" fill="#2DFFC9"/>
<g opacity="0.53">
<g opacity="0.53">
<g opacity="0.53">
<path opacity="0.53" d="M304.398 181.868C307.929 183.671 310.323 191.484 309.844 199.965L305.356 281.704C305.296 282.572 304.937 283.307 304.458 283.507V181.868H304.398Z" fill="#F4A15D"/>
</g>
<g opacity="0.53">
<path opacity="0.53" d="M304.399 181.868H303.742C303.981 181.735 304.22 181.735 304.399 181.868Z" fill="#F4A15D"/>
</g>
</g>
</g>
<path d="M304.1 283.575C303.442 283.575 302.903 282.774 302.844 281.705L298.355 199.967C297.876 191.552 300.27 183.739 303.801 181.869C304.041 181.736 304.28 181.736 304.46 181.869C307.991 183.672 310.385 191.486 309.906 199.967L305.417 281.705C305.297 282.774 304.699 283.575 304.1 283.575Z" stroke="#121330" stroke-width="6" stroke-miterlimit="10" stroke-linecap="round" stroke-linejoin="round"/>
<path d="M216.239 186.543C222.344 176.66 225.875 164.973 225.875 152.485C225.875 136.659 220.309 122.167 211.032 111.015C201.755 122.167 196.129 136.659 196.07 152.485C196.07 165.04 199.601 176.66 205.646 186.543H216.239Z" fill="#00C297"/>
<path d="M216.239 186.543C222.344 176.66 225.875 164.973 225.875 152.485C225.875 136.659 220.309 122.167 211.032 111.015C201.755 122.167 196.129 136.659 196.07 152.485C196.07 165.04 199.601 176.66 205.646 186.543H216.239Z" fill="#00C297"/>
<path opacity="0.23" d="M211.871 111.015C211.153 111.883 210.435 112.818 209.777 113.753C216.001 124.438 219.592 136.993 219.652 150.348C219.652 163.571 217.856 175.925 211.752 186.61H217.258C223.303 176.727 226.834 165.04 226.834 152.552C226.834 136.659 221.208 122.167 211.871 111.015Z" fill="#2DFFC9"/>
<path opacity="0.32" d="M211.871 111.015C211.632 111.282 211.393 111.616 211.153 111.95C218.156 123.503 222.166 137.059 222.225 151.617C222.225 164.239 219.173 176.126 213.846 186.61H217.258C223.303 176.727 226.834 165.04 226.834 152.552C226.834 136.659 221.208 122.167 211.871 111.015Z" fill="#F4A15D"/>
<path opacity="0.37" d="M196.071 152.485C196.071 136.659 201.697 122.234 211.033 111.015C211.751 111.883 212.47 112.818 213.128 113.753C206.903 124.438 203.312 136.993 203.253 150.348C203.253 163.571 206.724 175.925 212.829 186.61H205.647C199.602 176.66 196.071 164.973 196.071 152.485Z" fill="#2DFFC9"/>
<path opacity="0.72" d="M196.071 152.485C196.071 136.659 201.697 122.234 211.033 111.015C211.273 111.282 211.512 111.616 211.751 111.95C204.749 123.503 200.739 137.059 200.679 151.617C200.679 164.239 203.732 176.126 209.058 186.61H205.647C199.602 176.66 196.071 164.973 196.071 152.485Z" fill="#2DFFC9"/>
<path opacity="0.37" d="M211.033 111.015C211.751 111.883 212.47 112.818 213.128 113.753C206.903 124.438 203.312 136.993 203.253 150.348C203.253 163.571 206.724 175.925 212.829 186.61H205.647C199.602 176.727 196.071 165.04 196.071 152.552C196.071 136.659 201.697 122.167 211.033 111.015Z" fill="#2DFFC9"/>
<path opacity="0.72" d="M211.033 111.015C211.273 111.282 211.512 111.616 211.751 111.95C204.749 123.503 200.739 137.059 200.679 151.617C200.679 164.239 203.732 176.126 209.058 186.61H205.647C199.602 176.727 196.071 165.04 196.071 152.552C196.071 136.659 201.697 122.167 211.033 111.015Z" fill="#2DFFC9"/>
<path d="M203.073 123.035C205.287 118.695 207.92 114.688 210.973 110.948C214.025 114.621 216.659 118.695 218.873 123.035H203.073Z" fill="#121330"/>
<path d="M216.239 186.543C222.344 176.66 225.875 164.973 225.875 152.485C225.875 136.659 220.309 122.167 211.032 111.015C201.755 122.167 196.129 136.659 196.07 152.485C196.07 165.04 199.601 176.66 205.646 186.543H216.239Z" stroke="#121330" stroke-width="6" stroke-miterlimit="10" stroke-linecap="round" stroke-linejoin="round"/>
<path d="M220.788 177.728H201.097" stroke="#121330" stroke-width="4" stroke-miterlimit="10" stroke-linecap="round" stroke-linejoin="round"/>
<path opacity="0.41" d="M322.413 163.012C322.413 163.012 318.343 157.668 304.518 148.678C310.922 155.92 312.179 160.465 312.598 160.814C316.667 161.463 322.413 163.012 322.413 163.012Z" fill="white"/>
</g>
</g>
<defs>
<clipPath id="clip0_469_8315">
<rect width="600" height="500" fill="white" transform="matrix(-1 0 0 1 600 0)"/>
</clipPath>
</defs>
</svg>
