<svg width="600" height="500" viewBox="0 0 600 500" fill="none" xmlns="http://www.w3.org/2000/svg">
<g clip-path="url(#clip0_469_8413)">
<path d="M545.88 369.394H57.42C54.7405 369.394 52.52 367.021 52.52 363.947C52.52 360.873 54.7405 358.5 57.42 358.5H545.94C548.618 358.5 550.837 360.87 550.84 363.942C550.783 367.022 548.558 369.394 545.88 369.394Z" fill="#121330" stroke="#121330"/>
<g style="mix-blend-mode:multiply" opacity="0.11">
<path d="M189.198 213.63H76.3979C74.4095 213.63 72.7979 214.973 72.7979 216.63V322.63C72.7979 324.287 74.4095 325.63 76.3979 325.63H189.198C191.186 325.63 192.798 324.287 192.798 322.63V216.63C192.798 214.973 191.186 213.63 189.198 213.63Z" fill="#161616"/>
<path d="M189.198 213.63H76.3979C74.4095 213.63 72.7979 214.973 72.7979 216.63V322.63C72.7979 324.287 74.4095 325.63 76.3979 325.63H189.198C191.186 325.63 192.798 324.287 192.798 322.63V216.63C192.798 214.973 191.186 213.63 189.198 213.63Z" stroke="#1E223B" stroke-miterlimit="10"/>
</g>
<path d="M185.898 211.63H73.098C71.1096 211.63 69.498 212.973 69.498 214.63V320.63C69.498 322.287 71.1096 323.63 73.098 323.63H185.898C187.886 323.63 189.498 322.287 189.498 320.63V214.63C189.498 212.973 187.886 211.63 185.898 211.63Z" fill="white"/>
<path d="M69.498 306.63H189.498V320.63C189.498 321.426 189.119 322.189 188.444 322.751C187.768 323.314 186.853 323.63 185.898 323.63H73.098C72.1434 323.63 71.2278 323.314 70.5522 322.751C69.8772 322.189 69.498 321.426 69.498 320.63V306.63Z" fill="#EFEFEF"/>
<path d="M185.898 211.63H73.098C71.1096 211.63 69.498 212.973 69.498 214.63V320.63C69.498 322.287 71.1096 323.63 73.098 323.63H185.898C187.886 323.63 189.498 322.287 189.498 320.63V214.63C189.498 212.973 187.886 211.63 185.898 211.63Z" stroke="#121330" stroke-width="2" stroke-linecap="round" stroke-linejoin="round"/>
<path d="M72.7542 211.63H186.242C186.67 211.63 187.093 211.7 187.488 211.837C187.883 211.973 188.242 212.173 188.545 212.425C188.847 212.677 189.086 212.976 189.25 213.305C189.414 213.635 189.498 213.988 189.498 214.344V220.63H69.498V214.344C69.498 213.988 69.582 213.635 69.7458 213.305C69.909 212.976 70.149 212.677 70.4514 212.425C70.7538 212.173 71.1127 211.973 71.5081 211.837C71.9029 211.7 72.3264 211.63 72.7542 211.63Z" fill="#363D56"/>
<path d="M72.7542 211.63H186.242C186.67 211.63 187.093 211.7 187.488 211.837C187.883 211.973 188.242 212.173 188.545 212.425C188.847 212.677 189.086 212.976 189.25 213.305C189.414 213.635 189.498 213.988 189.498 214.344V220.63H69.498V214.344C69.498 213.988 69.582 213.635 69.7458 213.305C69.909 212.976 70.149 212.677 70.4514 212.425C70.7538 212.173 71.1127 211.973 71.5081 211.837C71.9029 211.7 72.3264 211.63 72.7542 211.63Z" stroke="#1E223B" stroke-width="2" stroke-linecap="round" stroke-linejoin="round"/>
<path d="M189.498 220.63H69.498V224.63H189.498V220.63Z" fill="#424960"/>
<path d="M189.498 220.63H69.498V224.63H189.498V220.63Z" stroke="#1E223B" stroke-width="2" stroke-linecap="round" stroke-linejoin="round"/>
<path d="M76.1984 217.63C77.1926 217.63 77.9984 216.958 77.9984 216.13C77.9984 215.301 77.1926 214.63 76.1984 214.63C75.2042 214.63 74.3984 215.301 74.3984 216.13C74.3984 216.958 75.2042 217.63 76.1984 217.63Z" fill="#F73E39"/>
<path d="M76.1984 217.63C77.1926 217.63 77.9984 216.958 77.9984 216.13C77.9984 215.301 77.1926 214.63 76.1984 214.63C75.2042 214.63 74.3984 215.301 74.3984 216.13C74.3984 216.958 75.2042 217.63 76.1984 217.63Z" stroke="#121330" stroke-linecap="round" stroke-linejoin="round"/>
<path d="M83.5593 217.63C84.5535 217.63 85.3593 216.958 85.3593 216.13C85.3593 215.301 84.5535 214.63 83.5593 214.63C82.5651 214.63 81.7593 215.301 81.7593 216.13C81.7593 216.958 82.5651 217.63 83.5593 217.63Z" fill="#383838"/>
<path d="M83.5593 217.63C84.5535 217.63 85.3593 216.958 85.3593 216.13C85.3593 215.301 84.5535 214.63 83.5593 214.63C82.5651 214.63 81.7593 215.301 81.7593 216.13C81.7593 216.958 82.5651 217.63 83.5593 217.63Z" stroke="#121330" stroke-linecap="round" stroke-linejoin="round"/>
<path d="M90.2951 217.63C91.2893 217.63 92.0951 216.958 92.0951 216.13C92.0951 215.301 91.2893 214.63 90.2951 214.63C89.3009 214.63 88.4951 215.301 88.4951 216.13C88.4951 216.958 89.3009 217.63 90.2951 217.63Z" fill="#C6C6C6"/>
<path d="M90.2951 217.63C91.2893 217.63 92.0951 216.958 92.0951 216.13C92.0951 215.301 91.2893 214.63 90.2951 214.63C89.3009 214.63 88.4951 215.301 88.4951 216.13C88.4951 216.958 89.3009 217.63 90.2951 217.63Z" stroke="#121330" stroke-linecap="round" stroke-linejoin="round"/>
<path opacity="0.28" d="M137.598 214.63H100.398C99.4039 214.63 98.5981 215.301 98.5981 216.13C98.5981 216.958 99.4039 217.63 100.398 217.63H137.598C138.592 217.63 139.398 216.958 139.398 216.13C139.398 215.301 138.592 214.63 137.598 214.63Z" fill="#8289A3"/>
<path opacity="0.32" d="M109.698 245.13H166.098" stroke="#1E223B" stroke-width="2" stroke-linecap="round" stroke-linejoin="round"/>
<path opacity="0.32" d="M109.698 249.13H145.698" stroke="#1E223B" stroke-width="2" stroke-linecap="round" stroke-linejoin="round"/>
<path opacity="0.15" d="M92.8979 268.63H149.298" stroke="#1E223B" stroke-width="2" stroke-linecap="round" stroke-linejoin="round"/>
<path opacity="0.32" d="M92.8979 272.963H128.898" stroke="#1E223B" stroke-width="2" stroke-linecap="round" stroke-linejoin="round"/>
<path opacity="0.32" d="M121.698 277.297H142.698" stroke="#1E223B" stroke-width="2" stroke-linecap="round" stroke-linejoin="round"/>
<path opacity="0.26" d="M92.8979 277.297H118.098" stroke="#1E223B" stroke-width="2" stroke-linecap="round" stroke-linejoin="round"/>
<path opacity="0.15" d="M92.8979 281.63H114.498" stroke="#1E223B" stroke-width="2" stroke-linecap="round" stroke-linejoin="round"/>
<path d="M95.2979 289.797C94.6613 289.797 94.0511 290.008 93.6011 290.383C93.1505 290.758 92.8979 291.266 92.8979 291.797C92.8979 292.327 93.1505 292.836 93.6011 293.211C94.0511 293.586 94.6613 293.797 95.2979 293.797H143.698V289.797H95.2979Z" fill="#00C297" stroke="#121330" stroke-miterlimit="10"/>
<path d="M170.898 289.797H95.2979C93.9725 289.797 92.8979 290.692 92.8979 291.797C92.8979 292.901 93.9725 293.797 95.2979 293.797H170.898C172.223 293.797 173.298 292.901 173.298 291.797C173.298 290.692 172.223 289.797 170.898 289.797Z" stroke="#121330" stroke-linecap="round" stroke-linejoin="round"/>
<path d="M178.51 146.257H191.838C198.166 146.257 204.234 148.352 208.709 152.081C213.183 155.809 215.697 160.866 215.697 166.139C215.697 168.75 215.079 171.336 213.881 173.748C212.682 176.16 210.924 178.352 208.709 180.198C206.493 182.044 203.863 183.509 200.969 184.508C198.074 185.507 194.972 186.021 191.838 186.021H152.5C148.98 186.021 145.495 186.599 142.243 187.721C138.991 188.844 136.036 190.489 133.547 192.563C131.058 194.637 129.084 197.099 127.737 199.809C126.39 202.519 125.697 205.424 125.697 208.357V210.827" stroke="#121330" stroke-width="2" stroke-linecap="round" stroke-linejoin="round" stroke-dasharray="5.95 7.94"/>
<path d="M175.393 147.299L167.488 145.534L167.482 145.55C167.436 144.979 167.346 144.412 167.214 143.85L167.224 143.864L174.311 140.454C174.59 140.32 174.836 140.141 175.032 139.928C175.228 139.715 175.373 139.472 175.456 139.212C175.54 138.953 175.561 138.682 175.519 138.416C175.477 138.149 175.373 137.892 175.211 137.66L172.349 133.524C172.023 133.054 171.487 132.71 170.858 132.57C170.229 132.429 169.559 132.502 168.995 132.774L161.907 136.184L161.913 136.193C161.4 135.819 160.859 135.472 160.293 135.156H160.303L162.421 128.568C162.59 128.043 162.501 127.485 162.176 127.015C161.85 126.545 161.314 126.203 160.685 126.062L155.152 124.827C154.84 124.757 154.516 124.739 154.196 124.774C153.876 124.809 153.568 124.897 153.289 125.031C153.009 125.165 152.764 125.344 152.568 125.557C152.372 125.77 152.228 126.014 152.144 126.273L150.026 132.861H150.037C149.356 132.899 148.68 132.974 148.011 133.083L148.022 133.078L143.93 127.172C143.604 126.702 143.068 126.359 142.439 126.218C141.81 126.078 141.14 126.151 140.576 126.422L135.614 128.809C135.335 128.943 135.09 129.122 134.894 129.335C134.697 129.548 134.553 129.792 134.47 130.051C134.386 130.311 134.365 130.582 134.407 130.848C134.449 131.114 134.553 131.371 134.714 131.604L138.806 137.51L138.823 137.502C138.371 137.934 137.953 138.388 137.57 138.864L137.575 138.847L129.67 137.082C129.041 136.941 128.371 137.015 127.807 137.286C127.243 137.558 126.832 138.004 126.663 138.529L125.18 143.14C125.012 143.664 125.1 144.222 125.426 144.692C125.751 145.162 126.287 145.505 126.916 145.646L134.822 147.411L134.83 147.386C134.877 147.964 134.968 148.539 135.103 149.107L135.086 149.082L127.998 152.492C127.718 152.626 127.474 152.805 127.277 153.018C127.081 153.231 126.937 153.474 126.853 153.733C126.77 153.993 126.748 154.264 126.79 154.53C126.832 154.797 126.937 155.053 127.098 155.286L129.962 159.421C130.288 159.891 130.824 160.234 131.453 160.374C132.082 160.515 132.752 160.442 133.316 160.171L140.404 156.761L140.383 156.73C140.91 157.114 141.466 157.47 142.049 157.795L142.008 157.786L139.89 164.374C139.807 164.633 139.785 164.904 139.827 165.17C139.869 165.437 139.974 165.693 140.135 165.926C140.296 166.159 140.511 166.363 140.767 166.526C141.022 166.69 141.314 166.81 141.626 166.88L147.16 168.115C147.471 168.185 147.796 168.203 148.115 168.168C148.435 168.133 148.744 168.045 149.023 167.911C149.302 167.777 149.546 167.598 149.743 167.385C149.939 167.171 150.083 166.928 150.166 166.669L152.285 160.081L152.244 160.072C152.944 160.033 153.639 159.957 154.327 159.843L154.289 159.861L158.381 165.767C158.542 166 158.757 166.204 159.013 166.368C159.268 166.532 159.56 166.652 159.872 166.721C160.183 166.791 160.508 166.809 160.828 166.774C161.148 166.739 161.456 166.652 161.735 166.517L166.696 164.13C166.976 163.996 167.221 163.817 167.417 163.604C167.614 163.391 167.758 163.148 167.841 162.888C167.925 162.628 167.946 162.358 167.904 162.091C167.862 161.825 167.758 161.568 167.596 161.335L163.504 155.429L163.474 155.444C163.932 155.008 164.356 154.548 164.743 154.067L164.735 154.092L172.64 155.858C173.269 155.998 173.939 155.924 174.503 155.653C175.067 155.382 175.479 154.935 175.648 154.411L177.13 149.8C177.297 149.276 177.208 148.719 176.882 148.25C176.556 147.781 176.02 147.439 175.393 147.299Z" fill="#F8FAF7" stroke="#121330" stroke-width="2" stroke-linecap="round" stroke-linejoin="round"/>
<path d="M151.156 156.019C157.483 156.019 162.613 151.744 162.613 146.471C162.613 141.198 157.483 136.923 151.156 136.923C144.828 136.923 139.698 141.198 139.698 146.471C139.698 151.744 144.828 156.019 151.156 156.019Z" fill="#606174" stroke="#121330" stroke-width="2" stroke-linecap="round" stroke-linejoin="round"/>
<path d="M151.155 150.563C153.867 150.563 156.066 148.731 156.066 146.471C156.066 144.211 153.867 142.379 151.155 142.379C148.443 142.379 146.245 144.211 146.245 146.471C146.245 148.731 148.443 150.563 151.155 150.563Z" fill="#2DFFC9" stroke="#121330" stroke-width="2" stroke-linecap="round" stroke-linejoin="round"/>
<path d="M515.76 210.95H462C459.36 210.95 457.2 209.15 457.2 206.95V166.5C457.2 164.3 459.36 162.5 462 162.5H515.76C518.4 162.5 520.56 164.3 520.56 166.5V206.95C520.56 209.15 518.4 210.95 515.76 210.95Z" fill="#F8FAF7" stroke="#121330" stroke-width="2" stroke-miterlimit="10" stroke-linecap="round" stroke-linejoin="round"/>
<path d="M514.74 166.6H462.66V195.45H514.74V166.6Z" fill="#8588E0"/>
<path d="M514.74 166.6H462.66V195.45H514.74V166.6Z" fill="#8588E0" stroke="#121330" stroke-width="2" stroke-miterlimit="10" stroke-linecap="round" stroke-linejoin="round"/>
<path d="M462.66 200.05H495.54Z" fill="#8588E0"/>
<path d="M462.66 200.05H495.54" stroke="#444E59" stroke-width="4" stroke-miterlimit="10" stroke-linecap="round" stroke-linejoin="round"/>
<path d="M462.66 204.65H482.1Z" fill="#8588E0"/>
<path d="M462.66 204.65H482.1" stroke="#444E59" stroke-width="4" stroke-miterlimit="10" stroke-linecap="round" stroke-linejoin="round"/>
<path d="M467.88 190.3L479.1 181.05L489.54 189.75" fill="#8588E0"/>
<path d="M467.88 190.3L479.1 181.05L489.54 189.75" stroke="#121330" stroke-width="2" stroke-miterlimit="10" stroke-linecap="round" stroke-linejoin="round"/>
<path d="M509.1 190.3L495.54 175.55L484.68 185.65" fill="#8588E0"/>
<path d="M509.1 190.3L495.54 175.55L484.68 185.65" stroke="#121330" stroke-width="2" stroke-miterlimit="10" stroke-linecap="round" stroke-linejoin="round"/>
<path d="M508.98 204.6C510.604 204.6 511.92 203.503 511.92 202.15C511.92 200.797 510.604 199.7 508.98 199.7C507.356 199.7 506.04 200.797 506.04 202.15C506.04 203.503 507.356 204.6 508.98 204.6Z" fill="#8588E0" stroke="#444E59" stroke-width="4" stroke-miterlimit="10" stroke-linecap="round" stroke-linejoin="round"/>
<path d="M482.4 178.65C484.455 178.65 486.12 177.262 486.12 175.55C486.12 173.838 484.455 172.45 482.4 172.45C480.346 172.45 478.68 173.838 478.68 175.55C478.68 177.262 480.346 178.65 482.4 178.65Z" fill="#8588E0"/>
<path d="M482.4 178.65C484.455 178.65 486.12 177.262 486.12 175.55C486.12 173.838 484.455 172.45 482.4 172.45C480.346 172.45 478.68 173.838 478.68 175.55C478.68 177.262 480.346 178.65 482.4 178.65Z" fill="#8588E0" stroke="#444E59" stroke-width="4" stroke-miterlimit="10" stroke-linecap="round" stroke-linejoin="round"/>
<path d="M323.445 139.104H256.754C253.479 139.104 250.8 136.871 250.8 134.142V83.9621C250.8 81.233 253.479 79 256.754 79H323.445C326.72 79 329.4 81.233 329.4 83.9621V134.142C329.4 136.871 326.72 139.104 323.445 139.104Z" fill="#F8FAF7" stroke="#121330" stroke-width="2" stroke-miterlimit="10" stroke-linecap="round" stroke-linejoin="round"/>
<path d="M447 253.5H474.078C476.432 253.5 478.762 253.206 480.937 252.634C483.111 252.063 485.087 251.225 486.751 250.168C488.415 249.112 489.735 247.857 490.636 246.477C491.537 245.097 492 243.617 492 242.123V212" stroke="#121330" stroke-width="2" stroke-linecap="round" stroke-linejoin="round"/>
<path d="M316.336 90C301.296 90 306.251 105.592 291.741 105.592C284.133 105.592 286.964 116.946 280.416 116.946C272.809 116.946 275.993 100.445 267.146 100.445" stroke="#121330" stroke-width="2"/>
<path d="M316.336 91.0605V130.269" stroke="#121330" stroke-width="2"/>
<path d="M291.705 106.199V130.269" stroke="#121330" stroke-width="2"/>
<path d="M267.059 101.96V130.269" stroke="#121330" stroke-width="2"/>
<path d="M265.2 130.117H318.107" stroke="#121330" stroke-width="2" stroke-linecap="round" stroke-linejoin="round"/>
<path d="M269.516 101.019C269.516 102.095 268.469 103.093 267.008 103.093C265.546 103.093 264.5 102.095 264.5 101.019C264.5 99.9451 265.545 98.9473 267.008 98.9473C268.469 98.9473 269.516 99.9453 269.516 101.019Z" fill="#8588E0" stroke="#121330"/>
<path d="M294.199 106.166C294.199 107.242 293.153 108.24 291.69 108.24C290.23 108.24 289.182 107.242 289.182 106.166C289.182 105.092 290.23 104.092 291.69 104.092C293.153 104.092 294.199 105.092 294.199 106.166Z" fill="#8588E0" stroke="#121330"/>
<path d="M318.794 90.5737C318.794 91.6498 317.748 92.6474 316.286 92.6474C314.825 92.6474 313.777 91.6496 313.777 90.5737C313.777 89.4995 314.825 88.5 316.286 88.5C317.748 88.5 318.794 89.4993 318.794 90.5737Z" fill="#8588E0" stroke="#121330"/>
<path d="M375 208H366.878C361.213 207.999 355.781 206.049 351.775 202.577C347.769 199.105 345.519 194.396 345.519 189.486C345.519 187.055 344.967 184.648 343.893 182.402C342.819 180.155 341.246 178.114 339.262 176.395C337.279 174.676 334.924 173.313 332.333 172.382C329.741 171.452 326.964 170.973 324.159 170.973H312.359C306.694 170.973 301.262 169.023 297.256 165.551C293.25 162.079 291 157.37 291 152.46V139" stroke="#121330" stroke-width="2" stroke-linecap="round" stroke-linejoin="round" stroke-dasharray="6 8"/>
<path opacity="0.28" d="M250.62 324.85H232.62V332.35C232.62 337.05 237.18 340.9 242.88 340.9H254.7C254.7 340.85 254.7 340.8 254.7 340.75V328.25C254.7 326.35 252.9 324.85 250.62 324.85Z" fill="#1F3969" stroke="#1F3969" stroke-width="4" stroke-miterlimit="10" stroke-linecap="round" stroke-linejoin="round"/>
<path d="M355.44 351.7L353.64 334.85H324L322.2 351.7C321.78 355.6 318.96 359.35 314.52 362.35V362.4H363.12V362.35C358.68 359.35 355.86 355.6 355.44 351.7Z" fill="#BFCFE2"/>
<path opacity="0.28" d="M324 334.85L322.92 344.95H354.72L353.64 334.85H324Z" fill="#1F3969" stroke="#1F3969" stroke-width="4" stroke-miterlimit="10" stroke-linecap="round" stroke-linejoin="round"/>
<path d="M355.44 351.7L353.64 334.85H324L322.2 351.7C321.78 355.6 318.96 359.35 314.52 362.35V362.4H363.12V362.35C358.68 359.35 355.86 355.6 355.44 351.7Z" stroke="#121330" stroke-width="4" stroke-miterlimit="10" stroke-linecap="round" stroke-linejoin="round"/>
<path d="M433.62 337.35H244.02C240.06 337.35 236.82 334.65 236.82 331.35V228.35C236.82 225.05 240.06 222.35 244.02 222.35H433.62C437.58 222.35 440.82 225.05 440.82 228.35V331.35C440.82 334.7 437.58 337.35 433.62 337.35Z" fill="white"/>
<path d="M433.62 337.35H244.02C240.06 337.35 236.82 334.65 236.82 331.35V228.35C236.82 225.05 240.06 222.35 244.02 222.35H433.62C437.58 222.35 440.82 225.05 440.82 228.35V331.35C440.82 334.7 437.58 337.35 433.62 337.35Z" fill="#BFCFE2"/>
<path d="M433.62 337.35H244.02C240.06 337.35 236.82 334.65 236.82 331.35V228.35C236.82 225.05 240.06 222.35 244.02 222.35H433.62C437.58 222.35 440.82 225.05 440.82 228.35V331.35C440.82 334.7 437.58 337.35 433.62 337.35Z" stroke="#121330" stroke-width="4" stroke-miterlimit="10" stroke-linecap="round" stroke-linejoin="round"/>
<path d="M430.654 318.164V230.864H247.054V318.164H430.654Z" fill="#F6F9FD"/>
<path opacity="0.28" d="M253.62 222.35V291.65C253.62 293.85 255.78 295.65 258.42 295.65H371.88C374.52 295.65 376.68 293.85 376.68 291.65V222.35H253.62Z" fill="#1F3969" stroke="#1F3969" stroke-width="4" stroke-miterlimit="10" stroke-linecap="round" stroke-linejoin="round"/>
<path d="M430.654 318.164V230.864H247.054V318.164H430.654Z" stroke="#121330" stroke-width="4" stroke-miterlimit="10" stroke-linecap="round" stroke-linejoin="round"/>
<path d="M330.78 327.7H346.92" stroke="#1F3969" stroke-width="4" stroke-miterlimit="10" stroke-linecap="round" stroke-linejoin="round"/>
<path d="M377.28 290.15H263.82C261.18 290.15 259.02 288.35 259.02 286.15V212.05C259.02 209.85 261.18 208.05 263.82 208.05H377.28C379.92 208.05 382.08 209.85 382.08 212.05V286.2C382.08 288.4 379.92 290.15 377.28 290.15Z" fill="#2D425E"/>
<path d="M382.08 217.75H259.02V212C259.02 209.8 261.18 208 263.82 208H377.28C379.92 208 382.08 209.8 382.08 212V217.75Z" stroke="#1F3969" stroke-width="4" stroke-miterlimit="10" stroke-linecap="round" stroke-linejoin="round"/>
<path d="M382.08 219.65H259.02V212C259.02 209.8 261.18 208 263.82 208H377.28C379.92 208 382.08 209.8 382.08 212V219.65Z" fill="#D0DDF0"/>
<path d="M382.08 219.65H259.02V212C259.02 209.8 261.18 208 263.82 208H377.28C379.92 208 382.08 209.8 382.08 212V219.65Z" stroke="#1F3969" stroke-width="4" stroke-miterlimit="10" stroke-linecap="round" stroke-linejoin="round"/>
<path d="M382.08 219.65H259.02V212C259.02 209.8 261.18 208 263.82 208H377.28C379.92 208 382.08 209.8 382.08 212V219.65Z" stroke="#121330" stroke-width="4" stroke-miterlimit="10" stroke-linecap="round" stroke-linejoin="round"/>
<path d="M377.28 290.15H263.82C261.18 290.15 259.02 288.35 259.02 286.15V212.05C259.02 209.85 261.18 208.05 263.82 208.05H377.28C379.92 208.05 382.08 209.85 382.08 212.05V286.2C382.08 288.4 379.92 290.15 377.28 290.15Z" stroke="#121330" stroke-width="4" stroke-miterlimit="10" stroke-linecap="round" stroke-linejoin="round"/>
<path opacity="0.28" d="M436.5 307.85H366.9C364.26 307.85 362.1 306.05 362.1 303.85V242.4C362.1 240.2 364.26 238.4 366.9 238.4H436.5C439.14 238.4 441.3 240.2 441.3 242.4V303.85C441.3 306.1 439.14 307.85 436.5 307.85Z" fill="#1F3969" stroke="#1F3969" stroke-width="4" stroke-miterlimit="10" stroke-linecap="round" stroke-linejoin="round"/>
<path d="M441.3 304.35H371.7C369.06 304.35 366.9 302.55 366.9 300.35V238.9C366.9 236.7 369.06 234.9 371.7 234.9H441.3C443.94 234.9 446.1 236.7 446.1 238.9V300.35C446.1 302.6 443.94 304.35 441.3 304.35Z" fill="#8588E0"/>
<path d="M441.3 304.35H371.7C369.06 304.35 366.9 302.55 366.9 300.35V238.9C366.9 236.7 369.06 234.9 371.7 234.9H441.3C443.94 234.9 446.1 236.7 446.1 238.9V300.35C446.1 302.6 443.94 304.35 441.3 304.35Z" stroke="#121330" stroke-width="4" stroke-miterlimit="10" stroke-linecap="round" stroke-linejoin="round"/>
<path opacity="0.34" d="M430.92 253.95H381.96C380.22 253.95 378.84 252.8 378.84 251.35V247.45C378.84 246 380.22 244.85 381.96 244.85H430.92C432.66 244.85 434.04 246 434.04 247.45V251.35C434.04 252.8 432.66 253.95 430.92 253.95Z" stroke="white" stroke-width="2" stroke-miterlimit="10" stroke-linecap="round" stroke-linejoin="round"/>
<g opacity="0.34">
<path opacity="0.34" d="M409.44 268.6H382.08C380.34 268.6 378.96 267.45 378.96 266V262.1C378.96 260.65 380.34 259.5 382.08 259.5H409.44C411.18 259.5 412.56 260.65 412.56 262.1V266C412.5 267.45 411.12 268.6 409.44 268.6Z" stroke="white" stroke-width="2" stroke-miterlimit="10" stroke-linecap="round" stroke-linejoin="round"/>
<path opacity="0.34" d="M430.98 268.6H420.36C418.62 268.6 417.24 267.45 417.24 266V262.1C417.24 260.65 418.62 259.5 420.36 259.5H430.98C432.72 259.5 434.1 260.65 434.1 262.1V266C434.1 267.45 432.72 268.6 430.98 268.6Z" stroke="white" stroke-width="2" stroke-miterlimit="10" stroke-linecap="round" stroke-linejoin="round"/>
</g>
<path d="M378.9 283.8H434.04" stroke="white" stroke-width="2" stroke-miterlimit="10" stroke-linecap="round" stroke-linejoin="round"/>
<path d="M378.9 289.2H434.04" stroke="white" stroke-width="2" stroke-miterlimit="10" stroke-linecap="round" stroke-linejoin="round"/>
<path d="M378.9 294.6H412.5" stroke="white" stroke-width="2" stroke-miterlimit="10" stroke-linecap="round" stroke-linejoin="round"/>
<path d="M271.08 215.85C272.406 215.85 273.48 214.955 273.48 213.85C273.48 212.746 272.406 211.85 271.08 211.85C269.755 211.85 268.68 212.746 268.68 213.85C268.68 214.955 269.755 215.85 271.08 215.85Z" fill="#121330"/>
<path d="M279.42 215.85C280.745 215.85 281.82 214.955 281.82 213.85C281.82 212.746 280.745 211.85 279.42 211.85C278.095 211.85 277.02 212.746 277.02 213.85C277.02 214.955 278.095 215.85 279.42 215.85Z" fill="#121330"/>
<path d="M287.76 215.85C289.086 215.85 290.16 214.955 290.16 213.85C290.16 212.746 289.086 211.85 287.76 211.85C286.435 211.85 285.36 212.746 285.36 213.85C285.36 214.955 286.435 215.85 287.76 215.85Z" fill="#121330"/>
<path d="M329.7 228.9H337.5" stroke="white" stroke-width="4" stroke-miterlimit="10" stroke-linecap="round" stroke-linejoin="round"/>
<path d="M290.16 228.9H323.94" stroke="#7BFFA0" stroke-width="4" stroke-miterlimit="10" stroke-linecap="round" stroke-linejoin="round"/>
<path d="M273.48 228.9H285.36" stroke="#9169FF" stroke-width="4" stroke-miterlimit="10" stroke-linecap="round" stroke-linejoin="round"/>
<path d="M288.96 278.15H314.76" stroke="#9169FF" stroke-width="4" stroke-miterlimit="10" stroke-linecap="round" stroke-linejoin="round"/>
<path d="M273.48 278.15H281.82" stroke="#7BFFA0" stroke-width="4" stroke-miterlimit="10" stroke-linecap="round" stroke-linejoin="round"/>
<path d="M323.94 235.05H328.8" stroke="white" stroke-width="4" stroke-miterlimit="10" stroke-linecap="round" stroke-linejoin="round"/>
<path d="M301.86 235.05H318.18" stroke="#9169FF" stroke-width="4" stroke-miterlimit="10" stroke-linecap="round" stroke-linejoin="round"/>
<path d="M279.42 235.05H296.04" stroke="#FFC47D" stroke-width="4" stroke-miterlimit="10" stroke-linecap="round" stroke-linejoin="round"/>
<path d="M305.16 241.2H319.5" stroke="white" stroke-width="4" stroke-miterlimit="10" stroke-linecap="round" stroke-linejoin="round"/>
<path d="M287.16 241.2H300.66" stroke="#FF5757" stroke-width="4" stroke-miterlimit="10" stroke-linecap="round" stroke-linejoin="round"/>
<path d="M307.08 247.35H310.02" stroke="white" stroke-width="4" stroke-miterlimit="10" stroke-linecap="round" stroke-linejoin="round"/>
<path d="M295.2 247.35H301.86" stroke="#9169FF" stroke-width="4" stroke-miterlimit="10" stroke-linecap="round" stroke-linejoin="round"/>
<path d="M279.42 247.35H290.16" stroke="#7BFFA0" stroke-width="4" stroke-miterlimit="10" stroke-linecap="round" stroke-linejoin="round"/>
<path d="M302.46 253.55H321.6" stroke="#FFC47D" stroke-width="4" stroke-miterlimit="10" stroke-linecap="round" stroke-linejoin="round"/>
<path d="M279.42 253.55H296.58" stroke="#FF5757" stroke-width="4" stroke-miterlimit="10" stroke-linecap="round" stroke-linejoin="round"/>
<path d="M324.6 259.7H334.98" stroke="#9169FF" stroke-width="4" stroke-miterlimit="10" stroke-linecap="round" stroke-linejoin="round"/>
<path d="M302.46 259.7H319.08" stroke="#FF5757" stroke-width="4" stroke-miterlimit="10" stroke-linecap="round" stroke-linejoin="round"/>
<path d="M287.16 259.7H296.58" stroke="#7BFFA0" stroke-width="4" stroke-miterlimit="10" stroke-linecap="round" stroke-linejoin="round"/>
<path d="M310.02 265.85H319.08" stroke="white" stroke-width="4" stroke-miterlimit="10" stroke-linecap="round" stroke-linejoin="round"/>
<path d="M287.16 265.85H303.78" stroke="#9169FF" stroke-width="4" stroke-miterlimit="10" stroke-linecap="round" stroke-linejoin="round"/>
<path d="M333.6 272H343.98" stroke="white" stroke-width="4" stroke-miterlimit="10" stroke-linecap="round" stroke-linejoin="round"/>
<path d="M301.86 272H327.96" stroke="#FFC47D" stroke-width="4" stroke-miterlimit="10" stroke-linecap="round" stroke-linejoin="round"/>
<path d="M279.42 272H296.04" stroke="white" stroke-width="4" stroke-miterlimit="10" stroke-linecap="round" stroke-linejoin="round"/>
<path d="M189.961 291.745H203.956C210.334 291.745 216.452 289.388 220.962 285.192C225.472 280.997 228.006 275.305 228.006 269.371V259.951C228.006 254.048 230.527 248.386 235.014 244.211C239.501 240.037 245.587 237.692 251.932 237.691H259.459" stroke="#1E223B" stroke-width="2" stroke-linecap="round" stroke-linejoin="round"/>
</g>
<defs>
<clipPath id="clip0_469_8413">
<rect width="600" height="500" fill="white"/>
</clipPath>
</defs>
</svg>
