<svg width="600" height="500" viewBox="0 0 600 500" fill="none" xmlns="http://www.w3.org/2000/svg">
<g clip-path="url(#clip0_473_9275)">
<path d="M365.926 421.374V272.25C365.926 262.958 372.714 255.375 381.113 255.375H482.176C490.538 255.375 497.363 262.916 497.363 272.25V421.374C497.363 430.666 490.576 438.249 482.176 438.249H381.113C372.714 438.208 365.926 430.666 365.926 421.374Z" fill="#2DFFC9"/>
<path d="M469.093 338.517H443.975C441.504 338.517 439.524 336.321 439.524 333.576C439.524 333.025 439.625 332.363 439.824 331.817L451.888 295.555C452.776 293.03 451.591 290.172 449.218 289.184C447.534 288.526 445.756 288.963 444.47 290.284L391.464 349.175C389.686 351.155 389.686 354.23 391.464 356.209C392.255 357.088 393.444 357.638 394.629 357.638H419.746C422.221 357.638 424.197 359.834 424.197 362.58C424.197 363.13 424.1 363.788 423.901 364.338L411.837 400.596C410.944 403.125 412.133 405.984 414.507 406.972C416.187 407.63 417.969 407.192 419.255 405.871L472.257 346.98C474.038 345.001 474.038 341.926 472.257 339.947C471.369 339.067 470.281 338.517 469.093 338.517Z" fill="#F8FAF7"/>
<path d="M169.649 263.417H249.787C258.149 263.417 264.974 270.958 264.974 280.292V369.333C264.974 378.625 258.187 386.208 249.787 386.208H169.649C161.287 386.208 154.462 378.667 154.462 369.333V280.25C154.462 270.958 161.249 263.417 169.649 263.417Z" fill="#2DFFC9"/>
<path d="M209.749 300.179C222.199 300.179 232.268 311.367 232.268 325.2C232.268 339.033 221.517 350.221 209.093 350.221C196.673 350.221 187.23 339.033 187.23 325.2C187.23 311.367 197.299 300.179 209.749 300.179Z" fill="#F8FAF7"/>
<path d="M190.598 312.029H228.9" stroke="#121330" stroke-linecap="round" stroke-linejoin="round"/>
<path d="M187.23 325.2H232.268" stroke="#121330" stroke-linecap="round" stroke-linejoin="round"/>
<path d="M190.627 338.437L228.899 338.337" stroke="#121330" stroke-linecap="round" stroke-linejoin="round"/>
<path d="M201.925 302.571C201.925 302.571 176.139 322.88 201.452 348.265" stroke="#121330" stroke-linecap="round" stroke-linejoin="round"/>
<path d="M209.58 300.14C209.58 300.14 191.659 323.32 209.093 350.221" stroke="#121330" stroke-linecap="round" stroke-linejoin="round"/>
<path d="M209.366 300.179C209.366 300.179 219.183 328.22 209.093 350.221" stroke="#121330" stroke-linecap="round" stroke-linejoin="round"/>
<path d="M213.78 301.463C213.78 301.463 241.626 322.039 213.094 349.134" stroke="#121330" stroke-linecap="round" stroke-linejoin="round"/>
<path d="M265.837 363.708H375.749" stroke="#121330" stroke-width="2" stroke-linecap="round" stroke-linejoin="round"/>
<path d="M366.487 379.083C374.234 379.083 380.512 372.104 380.512 363.5C380.512 354.896 374.234 347.917 366.487 347.917C358.744 347.917 352.462 354.896 352.462 363.5C352.462 372.104 358.744 379.083 366.487 379.083Z" fill="#121330"/>
<path d="M297.037 363.708V396.291C297.037 402.832 301.8 408.124 307.687 408.124H365.625" stroke="#121330" stroke-width="2" stroke-linecap="round" stroke-linejoin="round"/>
<path d="M297.225 368.541C299.73 368.541 301.763 366.283 301.763 363.499C301.763 360.716 299.73 358.458 297.225 358.458C294.72 358.458 292.688 360.716 292.688 363.499C292.688 366.283 294.72 368.541 297.225 368.541Z" fill="#00C297"/>
<path d="M288.921 155.483C288.921 156.704 289.814 157.695 290.913 157.695C292.011 157.695 292.9 156.704 292.9 155.483C292.9 154.262 292.011 153.275 290.913 153.275C289.814 153.275 288.921 154.262 288.921 155.483Z" fill="#121330"/>
<path d="M265.38 94.4038H287.242C289.53 94.4038 291.371 96.4496 291.371 98.9871V171.008C291.371 173.55 289.53 175.595 287.242 175.595H252.836" stroke="#121330" stroke-width="2" stroke-linecap="round" stroke-linejoin="round"/>
<path d="M261.948 94.3126C261.948 98.0876 264.701 101.146 268.094 101.146C271.492 101.146 274.244 98.0876 274.244 94.3126C274.244 90.5376 271.492 87.4834 268.094 87.4834C264.701 87.4834 261.948 90.5376 261.948 94.3126Z" fill="#121330"/>
<path d="M201.849 167.125V167.185L201.863 167.244L226.412 268.06V276.667V278.125C226.412 287.193 219.799 294.5 211.724 294.5H77.5117C69.4729 294.5 62.8242 287.233 62.8242 278.125V276.98V269.864L75.383 167.186L75.3867 167.156V167.125C75.3867 164.754 75.0209 162.421 74.6121 160.273C74.4937 159.652 74.3725 159.049 74.2553 158.466C73.9637 157.016 73.6968 155.689 73.56 154.501C73.3668 152.822 73.4584 151.582 73.9923 150.764C74.4968 149.991 75.4973 149.459 77.5117 149.459H211.724C212.228 149.459 212.613 149.492 212.897 149.55C213.188 149.609 213.336 149.686 213.404 149.742C213.454 149.783 213.463 149.811 213.465 149.855C213.467 149.924 213.444 150.054 213.34 150.261C213.131 150.678 212.696 151.226 212.066 151.906C211.515 152.501 210.846 153.166 210.109 153.9C210.014 153.994 209.917 154.091 209.82 154.188C208.128 155.873 206.143 157.879 204.583 160.058C203.028 162.232 201.849 164.638 201.849 167.125Z" fill="#121330" stroke="#121330"/>
<path d="M77.5117 139.333H211.724C219.763 139.333 226.412 146.601 226.412 155.708V268C226.412 277.067 219.799 284.375 211.724 284.375H77.5117C69.4729 284.375 62.8242 277.107 62.8242 268V155.708C62.8242 146.601 69.4729 139.333 77.5117 139.333Z" fill="#F8FAF7" stroke="#121330"/>
<path d="M185.337 176.462C160.272 176.462 168.53 210.212 144.346 210.212C131.667 210.212 136.384 234.787 125.472 234.787C112.793 234.787 118.099 199.07 103.354 199.07" stroke="#00C297"/>
<path d="M185.336 178.758V263.625" stroke="#00C297"/>
<path d="M144.285 211.525V263.625" stroke="#00C297"/>
<path d="M103.209 202.349V263.624" stroke="#00C297"/>
<path d="M100.11 263.296H188.288" stroke="#00C297" stroke-linecap="round" stroke-linejoin="round"/>
<path d="M103.208 204.642C105.976 204.642 108.222 202.15 108.222 199.071C108.222 195.996 105.976 193.504 103.208 193.504C100.437 193.504 98.1943 195.996 98.1943 199.071C98.1943 202.15 100.437 204.642 103.208 204.642Z" fill="#00C297"/>
<path d="M144.346 215.783C147.117 215.783 149.36 213.292 149.36 210.212C149.36 207.137 147.117 204.642 144.346 204.642C141.578 204.642 139.332 207.137 139.332 210.212C139.332 213.292 141.578 215.783 144.346 215.783Z" fill="#00C297"/>
<path d="M185.337 182.033C188.108 182.033 190.351 179.542 190.351 176.462C190.351 173.387 188.108 170.892 185.337 170.892C182.569 170.892 180.323 173.387 180.323 176.462C180.323 179.542 182.569 182.033 185.337 182.033Z" fill="#00C297"/>
<path d="M517.788 107.583V107.615L517.792 107.647L528.926 194.449V204.542C528.926 213.609 522.313 220.917 514.238 220.917H427.351C419.312 220.917 412.663 213.649 412.663 204.542V194.466L428.928 113.307L428.938 113.258V113.208C428.938 110.8 428.327 108.196 427.566 105.676C427.184 104.413 426.761 103.161 426.353 101.959C426.335 101.907 426.318 101.855 426.3 101.804C425.91 100.654 425.536 99.5541 425.223 98.5214C424.895 97.4417 424.638 96.4509 424.497 95.5724C424.356 94.6895 424.339 93.953 424.465 93.3693C424.589 92.7999 424.847 92.3876 425.265 92.1057C425.697 91.8146 426.357 91.625 427.351 91.625H514.238C516.275 91.625 517.404 92.0617 518.036 92.7282C518.67 93.3973 518.915 94.4127 518.899 95.8486C518.885 97.0892 518.681 98.5463 518.447 100.213C518.41 100.473 518.373 100.737 518.336 101.006C518.062 102.99 517.788 105.214 517.788 107.583Z" fill="#121330" stroke="#121330"/>
<path d="M427.163 81.5002H514.051C522.089 81.5002 528.738 88.768 528.738 97.8753V194.417C528.738 203.484 522.126 210.792 514.051 210.792H427.163C419.124 210.792 412.476 203.524 412.476 194.417V97.8346C412.513 88.7668 419.125 81.5002 427.163 81.5002Z" fill="#F8FAF7" stroke="#121330"/>
<path d="M469.965 104.375L469.964 104.375C455.399 104.783 443.83 118.214 444.162 134.49L469.965 104.375ZM469.965 104.375C478.405 104.131 486.463 108.411 491.626 115.867C500.524 128.832 498.26 147.292 486.651 157.161C482.444 160.731 479.995 166.265 479.951 172.09L477.829 175.084H462.518L461.262 172.146C461.195 166.258 458.706 160.701 454.45 157.079M469.965 104.375L454.45 157.079M454.45 157.079C448.153 151.678 444.347 143.358 444.162 134.49L454.45 157.079Z" fill="#FAFFFE" stroke="#121330"/>
<path d="M461.122 172.289V179.914C461.122 185.956 465.509 190.831 470.947 190.831C476.384 190.831 480.771 185.956 480.771 179.914V172.289H461.122Z" fill="#2DFFC9"/>
<path d="M460.762 172.25H480.449" stroke="#121330" stroke-linecap="round" stroke-linejoin="round"/>
<path d="M460.762 185.625H480.411" stroke="#121330" stroke-linecap="round" stroke-linejoin="round"/>
<path d="M467.287 172.25V163.541C467.287 157.708 465.224 152.083 461.512 147.958C458.699 144.833 457.162 140.625 457.162 136.208C457.162 133.083 459.449 130.583 462.224 130.583C465.037 130.583 467.287 133.125 467.287 136.208V139.458C467.287 141.458 468.749 143.083 470.549 143.083C472.349 143.083 473.812 141.458 473.812 139.458V136.208C473.812 133.083 476.099 130.583 478.874 130.583H478.949C481.762 130.583 484.012 133.125 484.012 136.208C484.012 140.625 482.437 144.875 479.624 148C475.912 152.166 473.812 157.75 473.812 163.625L473.849 172.291" stroke="#121330" stroke-linecap="round" stroke-linejoin="round"/>
<path d="M118.279 123.05V80.8665C118.279 76.4582 121.474 72.9082 125.442 72.9082H237.994C241.962 72.9082 245.161 76.4582 245.161 80.8665V147.25" stroke="#121330" stroke-width="2" stroke-linecap="round" stroke-linejoin="round"/>
<path d="M118.133 128.95C124.032 128.95 128.81 123.642 128.81 117.088C128.81 110.538 124.032 105.225 118.133 105.225C112.238 105.225 107.461 110.538 107.461 117.088C107.461 123.642 112.238 128.95 118.133 128.95Z" fill="#121330"/>
<path d="M485.137 285.5H525.562C533.924 285.5 533.661 293.166 533.661 302.5L540.749 337.75V347.292C540.749 356.583 533.962 364.167 525.562 364.167H485.137C476.774 364.167 469.949 356.625 469.949 347.292V337.75L473.849 301.291C473.887 292 476.774 285.5 485.137 285.5Z" fill="#121330"/>
<path d="M485.137 276.458H525.562C533.601 276.458 540.249 283.726 540.249 292.833V337.75C540.249 346.818 533.637 354.125 525.562 354.125H485.137C477.098 354.125 470.449 346.857 470.449 337.75V292.793C470.486 283.725 477.099 276.458 485.137 276.458Z" fill="#F8FAF7" stroke="#121330"/>
<path d="M482.365 311.387C490.668 311.387 487.683 334.559 494.83 334.559C500.252 334.559 498.325 317.679 505.469 317.679C519.096 317.679 514.439 298.654 528.576 298.654" stroke="#00C297" stroke-linecap="round"/>
<path d="M482.279 314.533C483.842 314.533 485.11 313.125 485.11 311.387C485.11 309.65 483.842 308.241 482.279 308.241C480.715 308.241 479.447 309.65 479.447 311.387C479.447 313.125 480.715 314.533 482.279 314.533Z" fill="#00C297"/>
<path d="M505.453 320.804C507.017 320.804 508.284 319.396 508.284 317.658C508.284 315.921 507.017 314.512 505.453 314.512C503.889 314.512 502.622 315.921 502.622 317.658C502.622 319.396 503.889 320.804 505.453 320.804Z" fill="#00C297"/>
<path d="M528.558 301.779C530.122 301.779 531.389 300.375 531.389 298.637C531.389 296.9 530.122 295.491 528.558 295.491C526.994 295.491 525.73 296.9 525.73 298.637C525.73 300.375 526.994 301.779 528.558 301.779Z" fill="#00C297"/>
<path d="M380.538 194.209V194.234L380.54 194.258L391.788 308.025V318.126C391.788 327.193 385.175 334.501 377.1 334.501H265.125C257.086 334.501 250.438 327.233 250.438 318.126V309.64L256.924 193.945L256.925 193.931V193.917C256.925 189.226 257.006 185.051 258.095 182.046C258.634 180.559 259.408 179.394 260.514 178.596C261.619 177.799 263.103 177.334 265.125 177.334H377.1C379.122 177.334 380.237 177.821 380.861 178.559C381.501 179.315 381.735 180.454 381.705 182.012C381.679 183.358 381.461 184.922 381.216 186.675C381.179 186.942 381.141 187.213 381.103 187.489C380.818 189.558 380.538 191.839 380.538 194.209Z" fill="#121330" stroke="#121330"/>
<path d="M265.125 167.208H377.1C385.139 167.208 391.788 174.476 391.788 183.583V308C391.788 317.067 385.175 324.375 377.1 324.375H265.125C257.086 324.375 250.438 317.107 250.438 308V183.542C250.438 174.476 257.049 167.208 265.125 167.208Z" fill="#F8FAF7" stroke="#121330"/>
<path d="M293.023 309.217L312.688 238.413" stroke="#121330" stroke-width="4" stroke-linecap="round" stroke-linejoin="round"/>
<path d="M324.754 235.234L353.824 309.217" stroke="#121330" stroke-width="4" stroke-linecap="round" stroke-linejoin="round"/>
<path d="M300.355 283.25H343.432" stroke="#121330" stroke-width="4" stroke-linecap="round" stroke-linejoin="round"/>
<path d="M338.437 240.609C349.915 221.363 348.948 198.192 336.277 188.863C323.602 179.53 304.023 187.571 292.54 206.817C281.065 226.063 282.033 249.234 294.704 258.563C307.379 267.896 326.958 259.859 338.437 240.609Z" fill="#2DFFC9"/>
<path d="M332.627 236.329C341.199 221.95 340.479 204.646 331.018 197.675C321.553 190.708 306.928 196.717 298.352 211.096C289.775 225.471 290.499 242.779 299.96 249.746C309.425 256.713 324.05 250.708 332.627 236.329Z" fill="#121330"/>
<path d="M326.983 232.175C332.728 222.537 332.241 210.938 325.896 206.263C319.547 201.592 309.744 205.612 303.996 215.25C298.251 224.883 298.738 236.487 305.087 241.159C311.432 245.83 321.234 241.808 326.983 232.175Z" fill="#F8FAF7"/>
<path d="M321.805 228.358C324.958 223.07 324.692 216.695 321.205 214.129C317.718 211.562 312.332 213.77 309.175 219.062C306.021 224.354 306.287 230.725 309.775 233.291C313.263 235.862 318.648 233.654 321.805 228.358Z" fill="#3336FF"/>
<path d="M317.65 225.305C318.726 223.496 318.632 221.321 317.44 220.442C316.247 219.563 314.406 220.317 313.33 222.121C312.25 223.925 312.347 226.105 313.54 226.984C314.732 227.863 316.574 227.109 317.65 225.305Z" fill="#F8FAF7"/>
<path d="M169.988 57.458H234.676C243.038 57.458 233.251 67.8747 233.251 77.208L249.751 135.583C249.751 135.919 249.747 136.267 249.738 136.625C249.513 146.165 246.26 163.041 238.163 163.041H163.651C155.617 163.041 154.851 148.352 154.803 138.921C154.802 138.536 154.801 138.158 154.801 137.791L164.513 76.2913C164.513 67.083 161.588 57.458 169.988 57.458Z" fill="#121330"/>
<path d="M169.988 47.3333H234.676C243.038 47.3333 249.863 54.8749 249.863 64.2083V136.083C249.863 145.375 243.076 152.958 234.676 152.958H169.988C161.626 152.958 154.801 145.417 154.801 136.083V64.2083C154.801 54.8749 161.588 47.3333 169.988 47.3333Z" fill="#00C297"/>
<path d="M225.743 97.1999L179.048 78.0208C178.988 78.0208 178.928 78.0208 178.988 78.0874L194.948 130.496C194.948 130.562 195.008 130.562 195.068 130.496L201.038 115.325C201.038 115.258 201.094 115.258 201.154 115.325L211.973 127.542H212.029L222.728 115.983V115.917L211.973 103.633V103.504L225.683 97.3291C225.743 97.3291 225.743 97.1999 225.743 97.1999Z" fill="#FAFFFE"/>
<path d="M199.451 362.958V362.979L199.453 363L204.926 426.771V436.833C204.926 445.9 198.313 453.208 190.238 453.208H125.551C117.512 453.208 110.863 445.94 110.863 436.833V426.787L120.158 365.324L120.163 365.287V365.249C120.163 363.382 120.063 361.571 119.97 359.884C119.946 359.449 119.923 359.022 119.901 358.604C119.797 356.555 119.749 354.744 119.953 353.233C120.156 351.724 120.603 350.587 121.428 349.819C122.248 349.055 123.524 348.583 125.551 348.583H190.238C192.276 348.583 193.845 348.921 195.056 349.54C196.261 350.155 197.143 351.063 197.791 352.259C199.106 354.686 199.451 358.284 199.451 362.958Z" fill="#121330" stroke="#121330"/>
<path d="M125.551 338.5H190.238C198.277 338.5 204.926 345.768 204.926 354.875V426.75C204.926 435.817 198.313 443.125 190.238 443.125H125.551C117.512 443.125 110.863 435.857 110.863 426.75V354.833C110.863 345.768 117.474 338.5 125.551 338.5Z" fill="#F8FAF7" stroke="#121330"/>
<path d="M155.262 360.681L155.262 360.681L155.266 360.668C155.301 360.567 155.384 360.514 155.472 360.514H175.681C177.892 360.514 179.785 362.534 179.785 365.129V417.147C179.785 419.742 177.892 421.762 175.681 421.762H140.204C137.985 421.762 136.101 419.775 136.101 417.184V382.279C136.101 381.984 136.256 381.786 136.396 381.731L136.396 381.731L136.404 381.728L149.128 376.46L149.328 376.377L149.405 376.175L155.262 360.681Z" fill="#FAFAFB" stroke="#121330"/>
<path d="M150.461 381.067L150.457 381.067L136.864 381.172L154.442 361.573L154.565 376.452C154.565 376.453 154.565 376.454 154.565 376.454C154.564 379.049 152.675 381.067 150.461 381.067Z" fill="#2DFFC9" stroke="#121330"/>
</g>
<defs>
<clipPath id="clip0_473_9275">
<rect width="600" height="500" fill="white"/>
</clipPath>
</defs>
</svg>
