<svg width="600" height="463" viewBox="0 0 600 463" fill="none" xmlns="http://www.w3.org/2000/svg">
<mask id="mask0_359_6352" style="mask-type:luminance" maskUnits="userSpaceOnUse" x="0" y="0" width="600" height="463">
<path d="M600 0.751465H0V462.751H600V0.751465Z" fill="white"/>
</mask>
<g mask="url(#mask0_359_6352)">
<path d="M600 0.751465H0V462.751H600V0.751465Z" fill="url(#paint0_linear_359_6352)"/>
<path d="M365.925 390.101V252.31C365.925 243.724 372.713 236.718 381.113 236.718H482.175C490.538 236.718 497.363 243.686 497.363 252.31V390.101C497.363 398.687 490.575 405.694 482.175 405.694H381.113C372.713 405.655 365.925 398.687 365.925 390.101Z" fill="#2DFFC9"/>
<path d="M469.092 313.541H443.974C441.503 313.541 439.523 311.512 439.523 308.975C439.523 308.467 439.624 307.855 439.823 307.351L451.887 273.844C452.776 271.511 451.591 268.87 449.217 267.957C447.533 267.349 445.755 267.753 444.469 268.973L391.463 323.389C389.686 325.218 389.686 328.06 391.463 329.889C392.255 330.701 393.443 331.209 394.628 331.209H419.745C422.22 331.209 424.196 333.238 424.196 335.775C424.196 336.283 424.1 336.891 423.901 337.4L411.837 370.902C410.944 373.239 412.133 375.881 414.506 376.793C416.187 377.401 417.968 376.997 419.254 375.776L472.256 321.361C474.038 319.532 474.038 316.691 472.256 314.862C471.368 314.049 470.281 313.541 469.092 313.541Z" fill="#F8FAF7"/>
<path d="M169.65 244.148H249.787C258.15 244.148 264.975 251.117 264.975 259.741V342.015C264.975 350.601 258.187 357.608 249.787 357.608H169.65C161.287 357.608 154.462 350.639 154.462 342.015V259.702C154.462 251.117 161.25 244.148 169.65 244.148Z" fill="#2DFFC9"/>
<path d="M209.749 278.116C222.199 278.116 232.267 288.454 232.267 301.236C232.267 314.017 221.516 324.355 209.092 324.355C196.672 324.355 187.23 314.017 187.23 301.236C187.23 288.454 197.299 278.116 209.749 278.116Z" fill="#F8FAF7"/>
<path d="M190.598 289.066H228.9" stroke="#121330" stroke-linecap="round" stroke-linejoin="round"/>
<path d="M187.23 301.236H232.267" stroke="#121330" stroke-linecap="round" stroke-linejoin="round"/>
<path d="M190.627 313.467L228.9 313.375" stroke="#121330" stroke-linecap="round" stroke-linejoin="round"/>
<path d="M201.925 280.327C201.925 280.327 176.139 299.093 201.452 322.548" stroke="#121330" stroke-linecap="round" stroke-linejoin="round"/>
<path d="M209.58 278.08C209.58 278.08 191.658 299.499 209.093 324.355" stroke="#121330" stroke-linecap="round" stroke-linejoin="round"/>
<path d="M209.366 278.116C209.366 278.116 219.182 304.026 209.092 324.355" stroke="#121330" stroke-linecap="round" stroke-linejoin="round"/>
<path d="M213.779 279.303C213.779 279.303 241.625 298.316 213.093 323.352" stroke="#121330" stroke-linecap="round" stroke-linejoin="round"/>
<path d="M265.837 336.818H375.75" stroke="#121330" stroke-width="2" stroke-linecap="round" stroke-linejoin="round"/>
<path d="M366.487 351.025C374.235 351.025 380.512 344.576 380.512 336.626C380.512 328.675 374.235 322.227 366.487 322.227C358.744 322.227 352.462 328.675 352.462 336.626C352.462 344.576 358.744 351.025 366.487 351.025Z" fill="#121330"/>
<path d="M297.037 336.818V366.924C297.037 372.969 301.8 377.859 307.687 377.859H365.625" stroke="#121330" stroke-width="2" stroke-linecap="round" stroke-linejoin="round"/>
<path d="M297.225 341.284C299.73 341.284 301.763 339.197 301.763 336.625C301.763 334.053 299.73 331.967 297.225 331.967C294.72 331.967 292.688 334.053 292.688 336.625C292.688 339.197 294.72 341.284 297.225 341.284Z" fill="#00C297"/>
<path d="M288.922 144.418C288.922 145.546 289.815 146.462 290.914 146.462C292.012 146.462 292.901 145.546 292.901 144.418C292.901 143.29 292.012 142.377 290.914 142.377C289.815 142.377 288.922 143.29 288.922 144.418Z" fill="#121330"/>
<path d="M265.38 87.981H287.242C289.53 87.981 291.371 89.8713 291.371 92.216V158.763C291.371 161.112 289.53 163.002 287.242 163.002H252.836" stroke="#121330" stroke-width="2" stroke-linecap="round" stroke-linejoin="round"/>
<path d="M261.949 87.8961C261.949 91.3842 264.701 94.2101 268.095 94.2101C271.492 94.2101 274.245 91.3842 274.245 87.8961C274.245 84.408 271.492 81.5859 268.095 81.5859C264.701 81.5859 261.949 84.408 261.949 87.8961Z" fill="#121330"/>
<path d="M201.85 155.175V155.24L201.867 155.303L226.413 248.448V256.392V257.739C226.413 266.062 219.836 272.832 211.725 272.832H77.5127C69.4379 272.832 62.8252 266.099 62.8252 257.739V256.68V250.111L75.3834 155.241L75.3877 155.208V155.175C75.3877 152.977 75.0207 150.814 74.6116 148.829C74.4928 148.253 74.3713 147.695 74.2539 147.155C73.9626 145.817 73.6968 144.595 73.5604 143.501C73.3677 141.954 73.4618 140.831 73.9829 140.093C74.4817 139.387 75.4847 138.889 77.5127 138.889H211.725C212.231 138.889 212.618 138.92 212.906 138.974C213.2 139.03 213.351 139.102 213.42 139.155C213.465 139.188 213.465 139.203 213.466 139.217L213.466 139.22C213.468 139.265 213.451 139.372 213.349 139.561C213.143 139.941 212.711 140.443 212.081 141.073C211.53 141.622 210.861 142.237 210.124 142.914C210.029 143.002 209.933 143.091 209.835 143.18C208.143 144.737 206.157 146.592 204.596 148.608C203.04 150.616 201.85 152.853 201.85 155.175Z" fill="#121330" stroke="#121330"/>
<path d="M77.5127 129.534H211.725C219.8 129.534 226.413 136.267 226.413 144.626V248.384C226.413 256.706 219.836 263.476 211.725 263.476H77.5127C69.4379 263.476 62.8252 256.743 62.8252 248.384V144.626C62.8252 136.267 69.4379 129.534 77.5127 129.534Z" fill="#F8FAF7" stroke="#121330"/>
<path d="M185.336 163.803C160.271 163.803 168.529 194.988 144.345 194.988C131.666 194.988 136.384 217.695 125.471 217.695C112.792 217.695 118.099 184.693 103.354 184.693" stroke="#00C297"/>
<path d="M185.336 165.924V244.341" stroke="#00C297"/>
<path d="M144.285 196.201V244.341" stroke="#00C297"/>
<path d="M103.208 187.723V244.341" stroke="#00C297"/>
<path d="M100.11 244.037H188.287" stroke="#00C297" stroke-linecap="round" stroke-linejoin="round"/>
<path d="M103.208 189.84C105.975 189.84 108.221 187.538 108.221 184.693C108.221 181.852 105.975 179.549 103.208 179.549C100.436 179.549 98.1938 181.852 98.1938 184.693C98.1938 187.538 100.436 189.84 103.208 189.84Z" fill="#00C297"/>
<path d="M144.345 200.135C147.116 200.135 149.359 197.833 149.359 194.988C149.359 192.146 147.116 189.84 144.345 189.84C141.577 189.84 139.331 192.146 139.331 194.988C139.331 197.833 141.577 200.135 144.345 200.135Z" fill="#00C297"/>
<path d="M185.337 168.95C188.108 168.95 190.35 166.648 190.35 163.803C190.35 160.961 188.108 158.655 185.337 158.655C182.569 158.655 180.323 160.961 180.323 163.803C180.323 166.648 182.569 168.95 185.337 168.95Z" fill="#00C297"/>
<path d="M517.788 100.159V100.193L517.793 100.227L528.925 180.427V189.748C528.925 198.071 522.349 204.841 514.238 204.841H427.35C419.276 204.841 412.663 198.108 412.663 189.748V180.446L428.926 105.462L428.938 105.41V105.356C428.938 103.119 428.324 100.704 427.562 98.3742C427.18 97.2059 426.756 96.0484 426.348 94.9377C426.331 94.8899 426.313 94.8422 426.296 94.7946C425.906 93.7325 425.532 92.7167 425.219 91.7636C424.892 90.767 424.636 89.8551 424.496 89.0482C424.355 88.2368 424.34 87.5674 424.463 87.0413C424.583 86.5329 424.832 86.1589 425.25 85.8987C425.685 85.6278 426.351 85.4512 427.35 85.4512H514.238C516.284 85.4512 517.419 85.8577 518.05 86.4727C518.673 87.0802 518.915 87.9989 518.899 89.3149C518.885 90.4557 518.681 91.7964 518.447 93.3377C518.411 93.577 518.374 93.8213 518.336 94.0703C518.062 95.9041 517.788 97.9634 517.788 100.159Z" fill="#121330" stroke="#121330"/>
<path d="M427.163 76.0957H514.05C522.125 76.0957 528.738 82.8287 528.738 91.1882V180.393C528.738 188.715 522.161 195.485 514.05 195.485H427.163C419.088 195.485 412.475 188.752 412.475 180.393V91.1508C412.513 82.8273 419.09 76.0957 427.163 76.0957Z" fill="#F8FAF7" stroke="#121330"/>
<path d="M469.963 97.2319L469.963 97.2319C455.363 97.6094 443.831 110.035 444.162 125.018L469.963 97.2319ZM469.963 97.2319C478.422 97.0053 486.481 100.969 491.636 107.849C500.513 119.8 498.263 136.817 486.666 145.927C482.461 149.223 480.002 154.341 479.951 159.74L477.841 162.491H462.507L461.261 159.798C461.19 154.338 458.69 149.197 454.435 145.851M469.963 97.2319L454.435 145.851M454.435 145.851C448.141 140.862 444.346 133.188 444.162 125.018L454.435 145.851Z" fill="#FAFFFE" stroke="#121330"/>
<path d="M461.122 159.947V166.992C461.122 172.575 465.509 177.079 470.946 177.079C476.384 177.079 480.771 172.575 480.771 166.992V159.947H461.122Z" fill="#2DFFC9"/>
<path d="M460.763 159.911H480.45" stroke="#121330" stroke-linecap="round" stroke-linejoin="round"/>
<path d="M460.763 172.27H480.412" stroke="#121330" stroke-linecap="round" stroke-linejoin="round"/>
<path d="M467.287 159.911V151.864C467.287 146.474 465.225 141.277 461.512 137.465C458.7 134.578 457.162 130.689 457.162 126.608C457.162 123.721 459.45 121.411 462.225 121.411C465.037 121.411 467.287 123.759 467.287 126.608V129.611C467.287 131.459 468.75 132.961 470.55 132.961C472.35 132.961 473.812 131.459 473.812 129.611V126.608C473.812 123.721 476.1 121.411 478.875 121.411H478.95C481.762 121.411 484.012 123.759 484.012 126.608C484.012 130.689 482.437 134.616 479.625 137.504C475.912 141.354 473.812 146.513 473.812 151.941L473.85 159.949" stroke="#121330" stroke-linecap="round" stroke-linejoin="round"/>
<path d="M118.279 114.45V75.4722C118.279 71.3989 121.474 68.1187 125.441 68.1187H237.994C241.961 68.1187 245.16 71.3989 245.16 75.4722V136.81" stroke="#121330" stroke-width="2" stroke-linecap="round" stroke-linejoin="round"/>
<path d="M118.133 119.901C124.032 119.901 128.809 114.996 128.809 108.94C128.809 102.888 124.032 97.979 118.133 97.979C112.238 97.979 107.46 102.888 107.46 108.94C107.46 114.996 112.238 119.901 118.133 119.901Z" fill="#121330"/>
<path d="M485.137 264.554H525.562C533.925 264.554 533.662 271.637 533.662 280.262L540.75 312.832V321.649C540.75 330.235 533.962 337.242 525.562 337.242H485.137C476.775 337.242 469.95 330.273 469.95 321.649V312.832L473.85 279.145C473.887 270.56 476.775 264.554 485.137 264.554Z" fill="#121330"/>
<path d="M485.137 256.237H525.562C533.637 256.237 540.25 262.97 540.25 271.329V312.832C540.25 321.155 533.673 327.925 525.562 327.925H485.137C477.063 327.925 470.45 321.192 470.45 312.832V271.292C470.487 262.969 477.064 256.237 485.137 256.237Z" fill="#F8FAF7" stroke="#121330"/>
<path d="M482.366 288.473C490.668 288.473 487.683 309.883 494.831 309.883C500.253 309.883 498.326 294.287 505.469 294.287C519.097 294.287 514.439 276.708 528.577 276.708" stroke="#00C297" stroke-linecap="round"/>
<path d="M482.279 291.38C483.843 291.38 485.111 290.079 485.111 288.473C485.111 286.868 483.843 285.566 482.279 285.566C480.716 285.566 479.448 286.868 479.448 288.473C479.448 290.079 480.716 291.38 482.279 291.38Z" fill="#00C297"/>
<path d="M505.455 297.174C507.019 297.174 508.286 295.873 508.286 294.268C508.286 292.662 507.019 291.361 505.455 291.361C503.891 291.361 502.624 292.662 502.624 294.268C502.624 295.873 503.891 297.174 505.455 297.174Z" fill="#00C297"/>
<path d="M528.558 279.595C530.122 279.595 531.39 278.298 531.39 276.692C531.39 275.086 530.122 273.785 528.558 273.785C526.995 273.785 525.731 275.086 525.731 276.692C525.731 278.298 526.995 279.595 528.558 279.595Z" fill="#00C297"/>
<path d="M380.538 180.2V180.227L380.54 180.254L391.788 285.371V294.7C391.788 303.022 385.211 309.792 377.1 309.792H265.125C257.05 309.792 250.438 303.059 250.438 294.7V286.861L256.924 179.961L256.925 179.946V179.931C256.925 175.593 257.007 171.75 258.09 168.987C258.625 167.624 259.394 166.552 260.499 165.816C261.606 165.078 263.096 164.646 265.125 164.646H377.1C379.133 164.646 380.252 165.1 380.874 165.779C381.502 166.465 381.734 167.498 381.705 168.929C381.679 170.167 381.462 171.607 381.217 173.228C381.18 173.474 381.142 173.725 381.104 173.98C380.819 175.892 380.538 178.005 380.538 180.2Z" fill="#121330" stroke="#121330"/>
<path d="M265.125 155.29H377.1C385.175 155.29 391.788 162.023 391.788 170.383V285.344C391.788 293.666 385.211 300.436 377.1 300.436H265.125C257.05 300.436 250.438 293.703 250.438 285.344V170.344C250.438 162.023 257.013 155.29 265.125 155.29Z" fill="#F8FAF7" stroke="#121330"/>
<path d="M293.025 286.468L312.69 221.045" stroke="#121330" stroke-width="4" stroke-linecap="round" stroke-linejoin="round"/>
<path d="M324.754 218.107L353.824 286.468" stroke="#121330" stroke-width="4" stroke-linecap="round" stroke-linejoin="round"/>
<path d="M300.356 262.475H343.432" stroke="#121330" stroke-width="4" stroke-linecap="round" stroke-linejoin="round"/>
<path d="M338.437 223.074C349.916 205.291 348.948 183.881 336.277 175.261C323.602 166.637 304.023 174.067 292.541 191.85C281.066 209.633 282.033 231.043 294.705 239.663C307.38 248.287 326.958 240.861 338.437 223.074Z" fill="#2DFFC9"/>
<path d="M332.628 219.12C341.201 205.833 340.481 189.844 331.019 183.403C321.555 176.966 306.93 182.518 298.353 195.804C289.777 209.087 290.501 225.079 299.962 231.517C309.427 237.954 324.052 232.406 332.628 219.12Z" fill="#121330"/>
<path d="M326.985 215.281C332.73 206.376 332.243 195.658 325.897 191.339C319.549 187.023 309.746 190.738 303.997 199.643C298.252 208.544 298.74 219.266 305.089 223.582C311.434 227.898 321.236 224.183 326.985 215.281Z" fill="#F8FAF7"/>
<path d="M321.806 211.755C324.959 206.869 324.693 200.979 321.206 198.607C317.719 196.235 312.333 198.276 309.176 203.165C306.022 208.055 306.288 213.942 309.776 216.313C313.264 218.689 318.649 216.648 321.806 211.755Z" fill="#3336FF"/>
<path d="M317.651 208.933C318.727 207.262 318.633 205.252 317.44 204.44C316.248 203.628 314.407 204.324 313.33 205.991C312.251 207.658 312.348 209.672 313.541 210.484C314.733 211.297 316.575 210.6 317.651 208.933Z" fill="#F8FAF7"/>
<path d="M169.987 53.8428H234.675C243.037 53.8428 233.25 63.4678 233.25 72.0918L249.75 126.03C249.75 126.341 249.746 126.662 249.737 126.993C249.512 135.808 246.259 151.402 238.162 151.402H163.65C155.616 151.402 154.85 137.829 154.802 129.115C154.801 128.758 154.8 128.41 154.8 128.071L164.512 71.2448C164.512 62.7363 161.587 53.8428 169.987 53.8428Z" fill="#121330"/>
<path d="M169.987 44.4873H234.675C243.037 44.4873 249.862 51.4558 249.862 60.0798V126.492C249.862 135.078 243.075 142.085 234.675 142.085H169.987C161.625 142.085 154.8 135.116 154.8 126.492V60.0798C154.8 51.4558 161.587 44.4873 169.987 44.4873Z" fill="#00C297"/>
<path d="M225.743 90.5643L179.048 72.8428C178.988 72.8428 178.928 72.8428 178.988 72.9044L194.948 121.33C194.948 121.391 195.008 121.391 195.068 121.33L201.038 107.312C201.038 107.25 201.094 107.25 201.154 107.312L211.973 118.6H212.029L222.728 107.92V107.859L211.973 96.5087V96.3894L225.683 90.6837C225.743 90.6837 225.743 90.5643 225.743 90.5643Z" fill="#FAFFFE"/>
<path d="M199.45 336.124V336.148L199.452 336.171L204.925 395.092V404.385C204.925 412.708 198.348 419.478 190.237 419.478H125.55C117.475 419.478 110.862 412.745 110.862 404.385V395.109L120.156 338.323L120.162 338.283V338.242C120.162 336.514 120.062 334.838 119.969 333.28C119.945 332.877 119.921 332.483 119.9 332.098C119.796 330.204 119.748 328.537 119.951 327.15C120.153 325.768 120.594 324.729 121.412 324.025C122.233 323.32 123.514 322.88 125.55 322.88H190.237C194.306 322.88 196.534 324.115 197.798 326.271C199.105 328.499 199.45 331.806 199.45 336.124Z" fill="#121330" stroke="#121330"/>
<path d="M125.55 313.563H190.237C198.312 313.563 204.925 320.296 204.925 328.656V395.068C204.925 403.391 198.348 410.161 190.237 410.161H125.55C117.475 410.161 110.862 403.428 110.862 395.068V328.617C110.862 320.296 117.437 313.563 125.55 313.563Z" fill="#F8FAF7" stroke="#121330"/>
<path d="M155.256 334.047L155.259 334.04L155.262 334.033C155.287 333.967 155.359 333.905 155.472 333.905H175.681C177.928 333.905 179.785 335.788 179.785 338.131V386.195C179.785 388.538 177.928 390.422 175.681 390.422H140.204C137.948 390.422 136.1 388.568 136.1 386.23V353.977C136.1 353.74 136.235 353.565 136.383 353.511L136.383 353.511L136.391 353.509L149.115 348.641L149.318 348.564L149.4 348.363L155.256 334.047Z" fill="#FAFAFB" stroke="#121330"/>
<path d="M136.926 352.916L154.442 334.871L154.564 348.593C154.564 348.594 154.564 348.595 154.564 348.596C154.563 350.937 152.71 352.819 150.46 352.819L150.457 352.819L136.926 352.916Z" fill="#2DFFC9" stroke="#121330"/>
</g>
<defs>
<linearGradient id="paint0_linear_359_6352" x1="599.5" y1="219.5" x2="-1.00001" y2="221" gradientUnits="userSpaceOnUse">
<stop stop-color="#878AE1"/>
<stop offset="1" stop-color="#FCF8FD" stop-opacity="0.5"/>
<stop offset="1" stop-color="#FCF8FD" stop-opacity="0.5"/>
<stop offset="1" stop-color="#FCF8FD"/>
</linearGradient>
</defs>
</svg>
