<svg width="500" height="500" viewBox="0 0 500 500" fill="none" xmlns="http://www.w3.org/2000/svg">
<g clip-path="url(#clip0_473_9275)">
<path d="M304.938 421.374V272.25C304.938 262.958 310.595 255.375 317.594 255.375H401.813C408.782 255.375 414.469 262.916 414.469 272.25V421.374C414.469 430.666 408.813 438.249 401.813 438.249H317.594C310.595 438.208 304.938 430.666 304.938 421.374Z" fill="#2DFFC9"/>
<path d="M390.91 338.517H369.979C367.92 338.517 366.27 336.321 366.27 333.576C366.27 333.025 366.354 332.363 366.52 331.817L376.573 295.555C377.314 293.03 376.326 290.172 374.348 289.184C372.945 288.526 371.463 288.963 370.391 290.284L326.22 349.175C324.739 351.155 324.739 354.23 326.22 356.209C326.879 357.088 327.87 357.638 328.857 357.638H349.788C351.851 357.638 353.497 359.834 353.497 362.58C353.497 363.13 353.417 363.788 353.251 364.338L343.198 400.596C342.454 403.125 343.444 405.984 345.422 406.972C346.823 407.63 348.307 407.192 349.379 405.871L393.547 346.98C395.032 345.001 395.032 341.926 393.547 339.947C392.807 339.067 391.901 338.517 390.91 338.517Z" fill="#F8FAF7"/>
<path d="M141.375 263.417H208.156C215.125 263.417 220.812 270.958 220.812 280.292V369.333C220.812 378.625 215.156 386.208 208.156 386.208H141.375C134.406 386.208 128.718 378.667 128.718 369.333V280.25C128.718 270.958 134.375 263.417 141.375 263.417Z" fill="#2DFFC9"/>
<path d="M174.791 300.179C185.166 300.179 193.557 311.367 193.557 325.2C193.557 339.033 184.597 350.221 174.244 350.221C163.894 350.221 156.025 339.033 156.025 325.2C156.025 311.367 164.416 300.179 174.791 300.179Z" fill="#F8FAF7"/>
<path d="M158.832 312.029H190.75" stroke="#121330" stroke-linecap="round" stroke-linejoin="round"/>
<path d="M156.025 325.2H193.557" stroke="#121330" stroke-linecap="round" stroke-linejoin="round"/>
<path d="M158.856 338.437L190.75 338.337" stroke="#121330" stroke-linecap="round" stroke-linejoin="round"/>
<path d="M168.271 302.571C168.271 302.571 146.783 322.88 167.877 348.265" stroke="#121330" stroke-linecap="round" stroke-linejoin="round"/>
<path d="M174.65 300.14C174.65 300.14 159.716 323.32 174.244 350.221" stroke="#121330" stroke-linecap="round" stroke-linejoin="round"/>
<path d="M174.472 300.179C174.472 300.179 182.653 328.22 174.244 350.221" stroke="#121330" stroke-linecap="round" stroke-linejoin="round"/>
<path d="M178.15 301.463C178.15 301.463 201.355 322.039 177.578 349.134" stroke="#121330" stroke-linecap="round" stroke-linejoin="round"/>
<path d="M221.531 363.708H313.125" stroke="#121330" stroke-width="2" stroke-linecap="round" stroke-linejoin="round"/>
<path d="M305.406 379.083C311.862 379.083 317.093 372.104 317.093 363.5C317.093 354.896 311.862 347.917 305.406 347.917C298.953 347.917 293.718 354.896 293.718 363.5C293.718 372.104 298.953 379.083 305.406 379.083Z" fill="#121330"/>
<path d="M247.531 363.708V396.291C247.531 402.833 251.5 408.125 256.406 408.125H304.687" stroke="#121330" stroke-width="2" stroke-linecap="round" stroke-linejoin="round"/>
<path d="M247.688 368.541C249.775 368.541 251.469 366.283 251.469 363.499C251.469 360.716 249.775 358.458 247.688 358.458C245.6 358.458 243.906 360.716 243.906 363.499C243.906 366.283 245.6 368.541 247.688 368.541Z" fill="#00C297"/>
<path d="M240.768 155.483C240.768 156.704 241.512 157.695 242.427 157.695C243.343 157.695 244.084 156.704 244.084 155.483C244.084 154.262 243.343 153.275 242.427 153.275C241.512 153.275 240.768 154.262 240.768 155.483Z" fill="#121330"/>
<path d="M221.15 94.4038H239.369C241.275 94.4038 242.809 96.4496 242.809 98.9871V171.008C242.809 173.55 241.275 175.595 239.369 175.595H210.697" stroke="#121330" stroke-width="2" stroke-linecap="round" stroke-linejoin="round"/>
<path d="M218.29 94.3126C218.29 98.0876 220.584 101.146 223.412 101.146C226.243 101.146 228.537 98.0876 228.537 94.3126C228.537 90.5376 226.243 87.4834 223.412 87.4834C220.584 87.4834 218.29 90.5376 218.29 94.3126Z" fill="#121330"/>
<path d="M168.125 167.125V167.176L168.134 167.225L188.593 268.051V276.667V278.125C188.593 282.673 187.208 286.785 184.99 289.748C182.772 292.71 179.744 294.5 176.437 294.5H64.5933C61.3015 294.5 58.2736 292.72 56.0516 289.763C53.8296 286.805 52.437 282.694 52.437 278.125V276.98V269.859L62.9032 167.176L62.9058 167.151V167.125C62.9058 164.762 62.6019 162.435 62.2614 160.289C62.1631 159.669 62.0623 159.068 61.9647 158.485C61.7215 157.034 61.4982 155.702 61.3839 154.51C61.2224 152.826 61.2974 151.563 61.7507 150.73C62.1662 149.966 62.965 149.459 64.5933 149.459H176.437C176.85 149.459 177.157 149.492 177.379 149.546C177.604 149.601 177.707 149.669 177.751 149.712C177.786 149.747 177.877 149.856 177.695 150.292C177.519 150.714 177.155 151.262 176.632 151.94C176.173 152.535 175.616 153.2 175.002 153.933C174.923 154.028 174.842 154.124 174.761 154.221C173.35 155.907 171.696 157.914 170.396 160.093C169.097 162.27 168.125 164.664 168.125 167.125Z" fill="#121330" stroke="#121330"/>
<path d="M64.5933 139.333H176.437C179.729 139.333 182.757 141.114 184.979 144.071C187.201 147.029 188.593 151.14 188.593 155.708V268C188.593 272.548 187.208 276.659 184.99 279.622C182.772 282.585 179.744 284.375 176.437 284.375H64.5933C61.3015 284.375 58.2736 282.595 56.0516 279.637C53.8296 276.68 52.437 272.569 52.437 268V155.708C52.437 151.14 53.8296 147.029 56.0516 144.071C58.2736 141.114 61.3015 139.333 64.5933 139.333Z" fill="#F8FAF7" stroke="#121330"/>
<path d="M154.448 176.462C133.56 176.462 140.441 210.212 120.288 210.212C109.723 210.212 113.654 234.787 104.56 234.787C93.9945 234.787 98.4164 199.07 86.1289 199.07" stroke="#00C297"/>
<path d="M154.447 178.758V263.625" stroke="#00C297"/>
<path d="M120.238 211.525V263.625" stroke="#00C297"/>
<path d="M86.0073 202.349V263.624" stroke="#00C297"/>
<path d="M83.4253 263.296H156.907" stroke="#00C297" stroke-linecap="round" stroke-linejoin="round"/>
<path d="M86.0067 204.642C88.313 204.642 90.1849 202.15 90.1849 199.071C90.1849 195.996 88.313 193.504 86.0067 193.504C83.6974 193.504 81.8286 195.996 81.8286 199.071C81.8286 202.15 83.6974 204.642 86.0067 204.642Z" fill="#00C297"/>
<path d="M120.288 215.783C122.597 215.783 124.466 213.292 124.466 210.212C124.466 207.137 122.597 204.642 120.288 204.642C117.982 204.642 116.11 207.137 116.11 210.212C116.11 213.292 117.982 215.783 120.288 215.783Z" fill="#00C297"/>
<path d="M154.448 182.033C156.757 182.033 158.626 179.542 158.626 176.462C158.626 173.387 156.757 170.892 154.448 170.892C152.141 170.892 150.27 173.387 150.27 176.462C150.27 179.542 152.141 182.033 154.448 182.033Z" fill="#00C297"/>
<path d="M431.407 107.583V107.61L431.41 107.636L440.688 194.443V204.542C440.688 209.09 439.303 213.201 437.085 216.164C434.866 219.127 431.839 220.917 428.532 220.917H356.125C352.834 220.917 349.806 219.137 347.584 216.179C345.362 213.221 343.969 209.11 343.969 204.542V194.458L357.525 113.291L357.532 113.25V113.208C357.532 110.812 357.025 108.217 356.391 105.698C356.073 104.436 355.721 103.186 355.381 101.983C355.366 101.931 355.351 101.88 355.336 101.828C355.012 100.679 354.7 99.5778 354.438 98.544C353.885 96.3566 353.585 94.5721 353.806 93.3522C353.913 92.761 354.135 92.3499 354.469 92.0799C354.806 91.8075 355.323 91.625 356.125 91.625H428.532C430.196 91.625 431.097 92.0489 431.607 92.6941C432.138 93.3669 432.346 94.3997 432.333 95.8495C432.321 97.0959 432.15 98.5591 431.955 100.225C431.924 100.484 431.894 100.748 431.863 101.017C431.634 103.001 431.407 105.22 431.407 107.583Z" fill="#121330" stroke="#121330"/>
<path d="M355.969 81.5002H428.375C431.667 81.5002 434.695 83.2804 436.917 86.2381C439.139 89.1957 440.532 93.3066 440.532 97.8753V194.417C440.532 198.965 439.147 203.076 436.928 206.039C434.71 209.002 431.682 210.792 428.375 210.792H355.969C352.677 210.792 349.65 209.012 347.428 206.054C345.206 203.097 343.813 198.986 343.813 194.417V97.8344C343.829 93.2863 345.221 89.1854 347.439 86.2329C349.658 83.2802 352.678 81.5002 355.969 81.5002Z" fill="#F8FAF7" stroke="#121330"/>
<path d="M391.643 104.375L391.642 104.375C385.63 104.577 380.215 108 376.321 113.447C372.428 118.894 370.08 126.339 370.219 134.492L391.643 104.375ZM391.643 104.375C398.6 104.133 405.29 108.367 409.598 115.833C413.305 122.314 414.697 130.186 413.94 137.685C413.183 145.185 410.282 152.268 405.456 157.192C401.937 160.774 399.907 166.308 399.876 172.113L398.121 175.084H385.509L384.468 172.162C384.417 166.297 382.353 160.742 378.796 157.109M391.643 104.375L378.796 157.109M378.796 157.109C373.556 151.716 370.373 143.387 370.219 134.492L378.796 157.109Z" fill="#FAFFFE" stroke="#121330"/>
<path d="M384.269 172.289V179.914C384.269 185.956 387.924 190.831 392.456 190.831C396.987 190.831 400.643 185.956 400.643 179.914V172.289H384.269Z" fill="#2DFFC9"/>
<path d="M383.968 172.25H400.375" stroke="#121330" stroke-linecap="round" stroke-linejoin="round"/>
<path d="M383.968 185.625H400.343" stroke="#121330" stroke-linecap="round" stroke-linejoin="round"/>
<path d="M389.406 172.25V163.541C389.406 157.708 387.687 152.083 384.594 147.958C382.25 144.833 380.968 140.625 380.968 136.208C380.968 133.083 382.875 130.583 385.187 130.583C387.531 130.583 389.406 133.125 389.406 136.208V139.458C389.406 141.458 390.625 143.083 392.125 143.083C393.625 143.083 394.843 141.458 394.843 139.458V136.208C394.843 133.083 396.75 130.583 399.062 130.583H399.125C401.469 130.583 403.344 133.125 403.344 136.208C403.344 140.625 402.031 144.875 399.687 148C396.593 152.166 394.843 157.75 394.843 163.625L394.875 172.291" stroke="#121330" stroke-linecap="round" stroke-linejoin="round"/>
<path d="M98.5659 123.05V80.8665C98.5659 76.4582 101.228 72.9082 104.535 72.9082H198.328C201.635 72.9082 204.3 76.4582 204.3 80.8665V147.25" stroke="#121330" stroke-width="2" stroke-linecap="round" stroke-linejoin="round"/>
<path d="M98.4445 128.95C103.36 128.95 107.341 123.642 107.341 117.088C107.341 110.538 103.36 105.225 98.4445 105.225C93.532 105.225 89.5508 110.538 89.5508 117.088C89.5508 123.642 93.532 128.95 98.4445 128.95Z" fill="#121330"/>
<path d="M404.281 285.5H437.968C444.937 285.5 444.718 293.166 444.718 302.5L450.625 337.75V347.292C450.625 356.583 444.968 364.167 437.968 364.167H404.281C397.312 364.167 391.625 356.625 391.625 347.292V337.75L394.874 301.291C394.906 292 397.312 285.5 404.281 285.5Z" fill="#121330"/>
<path d="M404.281 276.458H437.968C441.26 276.458 444.288 278.239 446.51 281.196C448.732 284.154 450.125 288.265 450.125 292.833V337.75C450.125 342.298 448.74 346.409 446.521 349.372C444.303 352.335 441.275 354.125 437.968 354.125H404.281C400.989 354.125 397.961 352.345 395.739 349.387C393.517 346.429 392.125 342.319 392.125 337.75V292.792C392.14 288.244 393.533 284.144 395.751 281.191C397.969 278.238 400.989 276.458 404.281 276.458Z" fill="#F8FAF7" stroke="#121330"/>
<path d="M401.971 311.387C408.89 311.387 406.402 334.559 412.358 334.559C416.877 334.559 415.271 317.679 421.224 317.679C432.58 317.679 428.699 298.654 440.48 298.654" stroke="#00C297" stroke-linecap="round"/>
<path d="M401.899 314.533C403.202 314.533 404.258 313.125 404.258 311.387C404.258 309.65 403.202 308.241 401.899 308.241C400.596 308.241 399.54 309.65 399.54 311.387C399.54 313.125 400.596 314.533 401.899 314.533Z" fill="#00C297"/>
<path d="M421.211 320.804C422.514 320.804 423.57 319.396 423.57 317.658C423.57 315.921 422.514 314.512 421.211 314.512C419.908 314.512 418.852 315.921 418.852 317.658C418.852 319.396 419.908 320.804 421.211 320.804Z" fill="#00C297"/>
<path d="M440.465 301.779C441.768 301.779 442.825 300.375 442.825 298.637C442.825 296.9 441.768 295.491 440.465 295.491C439.162 295.491 438.109 296.9 438.109 298.637C438.109 300.375 439.162 301.779 440.465 301.779Z" fill="#00C297"/>
<path d="M317.031 194.209V194.23L317.033 194.25L326.406 308.021V318.126C326.406 322.674 325.021 326.785 322.803 329.748C320.585 332.711 317.557 334.501 314.25 334.501H220.938C217.646 334.501 214.618 332.72 212.396 329.763C210.174 326.805 208.781 322.694 208.781 318.126V309.637L214.187 193.941L214.188 193.929V193.917C214.188 189.23 214.254 185.039 215.166 182.02C215.619 180.521 216.267 179.358 217.179 178.569C218.081 177.788 219.286 177.334 220.938 177.334H314.25C315.894 177.334 316.785 177.803 317.294 178.524C317.831 179.287 318.029 180.445 318.004 182.013C317.982 183.365 317.8 184.934 317.596 186.687C317.565 186.954 317.533 187.225 317.502 187.5C317.265 189.568 317.031 191.845 317.031 194.209Z" fill="#121330" stroke="#121330"/>
<path d="M220.938 167.208H314.25C317.542 167.208 320.57 168.989 322.792 171.946C325.014 174.904 326.406 179.015 326.406 183.583V308C326.406 312.548 325.021 316.659 322.803 319.622C320.585 322.585 317.557 324.375 314.25 324.375H220.938C217.646 324.375 214.618 322.595 212.396 319.637C210.174 316.68 208.781 312.569 208.781 308V183.542C208.781 178.994 210.166 174.893 212.384 171.941C214.602 168.989 217.63 167.208 220.938 167.208Z" fill="#F8FAF7" stroke="#121330"/>
<path d="M244.186 309.217L260.574 238.413" stroke="#121330" stroke-width="4" stroke-linecap="round" stroke-linejoin="round"/>
<path d="M270.628 235.234L294.853 309.217" stroke="#121330" stroke-width="4" stroke-linecap="round" stroke-linejoin="round"/>
<path d="M250.296 283.25H286.193" stroke="#121330" stroke-width="4" stroke-linecap="round" stroke-linejoin="round"/>
<path d="M282.031 240.609C291.596 221.363 290.79 198.192 280.231 188.863C269.668 179.53 253.353 187.571 243.784 206.817C234.221 226.063 235.028 249.234 245.587 258.563C256.149 267.896 272.465 259.859 282.031 240.609Z" fill="#2DFFC9"/>
<path d="M277.189 236.329C284.333 221.95 283.733 204.646 275.849 197.675C267.961 190.708 255.774 196.717 248.627 211.096C241.48 225.471 242.083 242.779 249.967 249.746C257.855 256.713 270.042 250.708 277.189 236.329Z" fill="#121330"/>
<path d="M272.486 232.175C277.274 222.537 276.868 210.938 271.58 206.263C266.289 201.592 258.121 205.612 253.33 215.25C248.542 224.883 248.949 236.487 254.239 241.159C259.527 245.83 267.696 241.808 272.486 232.175Z" fill="#F8FAF7"/>
<path d="M268.171 228.358C270.799 223.07 270.577 216.695 267.671 214.129C264.765 211.562 260.277 213.77 257.646 219.062C255.018 224.354 255.239 230.725 258.146 233.291C261.052 235.862 265.54 233.654 268.171 228.358Z" fill="#3336FF"/>
<path d="M264.708 225.305C265.605 223.496 265.527 221.321 264.533 220.442C263.54 219.563 262.005 220.317 261.108 222.121C260.208 223.925 260.289 226.105 261.283 226.984C262.277 227.863 263.812 227.109 264.708 225.305Z" fill="#F8FAF7"/>
<path d="M141.657 57.458H195.563C202.532 57.458 194.375 67.8747 194.375 77.208L208.125 135.583C208.125 135.919 208.122 136.267 208.115 136.625C207.928 146.165 205.216 163.041 198.469 163.041H136.375C129.681 163.041 129.042 148.352 129.003 138.921C129.001 138.536 129 138.158 129 137.791L137.094 76.2913C137.094 67.083 134.657 57.458 141.657 57.458Z" fill="#121330"/>
<path d="M141.657 47.3333H195.563C202.532 47.3333 208.219 54.8749 208.219 64.2083V136.083C208.219 145.375 202.563 152.958 195.563 152.958H141.657C134.688 152.958 129 145.417 129 136.083V64.2083C129 54.8749 134.657 47.3333 141.657 47.3333Z" fill="#00C297"/>
<path d="M188.119 97.1999L149.206 78.0208C149.156 78.0208 149.106 78.0208 149.156 78.0874L162.456 130.496C162.456 130.562 162.506 130.562 162.556 130.496L167.531 115.325C167.531 115.258 167.578 115.258 167.628 115.325L176.644 127.542H176.691L185.606 115.983V115.917L176.644 103.633V103.504L188.069 97.3291C188.119 97.3291 188.119 97.1999 188.119 97.1999Z" fill="#FAFFFE"/>
<path d="M166.125 362.958V362.975L166.127 362.993L170.688 426.768V436.833C170.688 441.381 169.303 445.492 167.085 448.455C164.866 451.418 161.839 453.208 158.532 453.208H104.625C101.334 453.208 98.3059 451.428 96.0838 448.47C93.8618 445.512 92.4692 441.401 92.4692 436.833V426.781L100.215 365.312L100.219 365.281V365.249C100.219 363.384 100.136 361.576 100.058 359.89C100.038 359.454 100.019 359.027 100.001 358.608C99.914 356.559 99.8733 354.741 100.044 353.222C100.216 351.698 100.593 350.552 101.278 349.786C101.945 349.041 102.973 348.583 104.625 348.583H158.532C160.208 348.583 161.488 348.916 162.475 349.521C163.459 350.124 164.193 351.022 164.736 352.226C165.839 354.667 166.125 358.283 166.125 362.958Z" fill="#121330" stroke="#121330"/>
<path d="M104.625 338.5H158.532C161.823 338.5 164.851 340.28 167.073 343.238C169.295 346.195 170.688 350.306 170.688 354.875V426.75C170.688 431.298 169.303 435.409 167.085 438.372C164.866 441.335 161.839 443.125 158.532 443.125H104.625C101.334 443.125 98.3059 441.345 96.0838 438.387C93.8618 435.429 92.4692 431.318 92.4692 426.75V354.833C92.4692 350.285 93.8541 346.185 96.0721 343.233C98.2899 340.281 101.318 338.5 104.625 338.5Z" fill="#F8FAF7" stroke="#121330"/>
<path d="M129.472 360.655L129.472 360.655L129.475 360.643C129.495 360.576 129.524 360.541 129.541 360.526C129.55 360.518 129.556 360.516 129.558 360.515C129.559 360.514 129.56 360.514 129.56 360.514L129.56 360.514H146.401C147.264 360.514 148.087 360.982 148.712 361.814C149.336 362.646 149.738 363.817 149.738 365.129V417.147C149.738 418.459 149.336 419.63 148.712 420.462C148.087 421.294 147.264 421.762 146.401 421.762H116.837C115.969 421.762 115.146 421.3 114.524 420.479C113.901 419.657 113.5 418.496 113.5 417.184V382.279C113.5 381.935 113.655 381.751 113.725 381.718L113.725 381.718L113.733 381.714L124.337 376.446L124.527 376.351L124.591 376.148L129.472 360.655Z" fill="#FAFAFB" stroke="#121330"/>
<path d="M125.384 381.067L125.379 381.067L114.119 381.172L128.62 361.769L128.72 376.452C128.72 376.453 128.72 376.454 128.72 376.454C128.72 377.766 128.319 378.936 127.696 379.768C127.072 380.599 126.249 381.067 125.384 381.067Z" fill="#2DFFC9" stroke="#121330"/>
</g>
<defs>
<clipPath id="clip0_473_9275">
<rect width="500" height="500" fill="white"/>
</clipPath>
</defs>
</svg>
