<svg width="300" height="300" viewBox="0 0 300 300" fill="none" xmlns="http://www.w3.org/2000/svg">
<path d="M182.963 252.825V163.35C182.963 157.775 186.357 153.225 190.557 153.225H241.088C245.269 153.225 248.682 157.75 248.682 163.35V252.825C248.682 258.4 245.288 262.95 241.088 262.95H190.557C186.357 262.925 182.963 258.4 182.963 252.825Z" fill="#2DFFC9"/>
<path d="M234.546 203.111H221.987C220.752 203.111 219.762 201.793 219.762 200.146C219.762 199.815 219.812 199.418 219.912 199.091L225.944 177.333C226.388 175.818 225.796 174.103 224.609 173.511C223.767 173.116 222.878 173.378 222.235 174.17L195.732 209.505C194.843 210.693 194.843 212.538 195.732 213.726C196.128 214.253 196.722 214.583 197.314 214.583H209.873C211.111 214.583 212.098 215.9 212.098 217.548C212.098 217.878 212.05 218.273 211.951 218.603L205.919 240.358C205.472 241.875 206.067 243.591 207.253 244.183C208.094 244.578 208.984 244.315 209.627 243.523L236.128 208.188C237.019 207.001 237.019 205.156 236.128 203.968C235.684 203.44 235.141 203.111 234.546 203.111Z" fill="#F8FAF7"/>
<path d="M84.8247 158.05H124.893C129.075 158.05 132.487 162.575 132.487 168.175V221.6C132.487 227.175 129.093 231.725 124.893 231.725H84.8247C80.6435 231.725 77.231 227.2 77.231 221.6V168.15C77.231 162.575 80.6247 158.05 84.8247 158.05Z" fill="#2DFFC9"/>
<path d="M104.875 180.107C111.1 180.107 116.134 186.82 116.134 195.12C116.134 203.42 110.758 210.132 104.546 210.132C98.3365 210.132 93.6152 203.42 93.6152 195.12C93.6152 186.82 98.6496 180.107 104.875 180.107Z" fill="#F8FAF7"/>
<path d="M95.2988 187.218H114.45" stroke="#121330" stroke-linecap="round" stroke-linejoin="round"/>
<path d="M93.6152 195.12H116.134" stroke="#121330" stroke-linecap="round" stroke-linejoin="round"/>
<path d="M95.3135 203.062L114.45 203.002" stroke="#121330" stroke-linecap="round" stroke-linejoin="round"/>
<path d="M100.962 181.542C100.962 181.542 88.0697 193.728 100.726 208.959" stroke="#121330" stroke-linecap="round" stroke-linejoin="round"/>
<path d="M104.79 180.084C104.79 180.084 95.8294 193.992 104.546 210.133" stroke="#121330" stroke-linecap="round" stroke-linejoin="round"/>
<path d="M104.683 180.107C104.683 180.107 109.591 196.932 104.546 210.132" stroke="#121330" stroke-linecap="round" stroke-linejoin="round"/>
<path d="M106.89 180.878C106.89 180.878 120.813 193.224 106.547 209.481" stroke="#121330" stroke-linecap="round" stroke-linejoin="round"/>
<path d="M132.918 218.225H187.875" stroke="#121330" stroke-width="2" stroke-linecap="round" stroke-linejoin="round"/>
<path d="M183.243 227.45C187.117 227.45 190.256 223.263 190.256 218.1C190.256 212.938 187.117 208.75 183.243 208.75C179.372 208.75 176.231 212.938 176.231 218.1C176.231 223.263 179.372 227.45 183.243 227.45Z" fill="#121330"/>
<path d="M148.519 218.225V237.775C148.519 241.7 150.9 244.875 153.844 244.875H182.812" stroke="#121330" stroke-width="2" stroke-linecap="round" stroke-linejoin="round"/>
<path d="M148.613 221.125C149.865 221.125 150.881 219.77 150.881 218.1C150.881 216.43 149.865 215.075 148.613 215.075C147.36 215.075 146.344 216.43 146.344 218.1C146.344 219.77 147.36 221.125 148.613 221.125Z" fill="#00C297"/>
<path d="M144.461 93.2898C144.461 94.0223 144.907 94.6173 145.457 94.6173C146.006 94.6173 146.45 94.0223 146.45 93.2898C146.45 92.5573 146.006 91.9648 145.457 91.9648C144.907 91.9648 144.461 92.5573 144.461 93.2898Z" fill="#121330"/>
<path d="M132.69 56.6423H143.621C144.765 56.6423 145.685 57.8698 145.685 59.3923V102.605C145.685 104.13 144.765 105.357 143.621 105.357H126.418" stroke="#121330" stroke-width="2" stroke-linecap="round" stroke-linejoin="round"/>
<path d="M130.974 56.5875C130.974 58.8525 132.35 60.6875 134.047 60.6875C135.746 60.6875 137.122 58.8525 137.122 56.5875C137.122 54.3225 135.746 52.49 134.047 52.49C132.35 52.49 130.974 54.3225 130.974 56.5875Z" fill="#121330"/>
<path d="M100.675 100.275V100.325L100.685 100.375L112.956 160.85V166V166.875C112.956 169.565 112.137 171.989 110.834 173.729C109.531 175.469 107.769 176.5 105.862 176.5H38.7559C36.8579 176.5 35.0956 175.474 33.7908 173.737C32.486 172.001 31.6621 169.577 31.6621 166.875V166.188V161.926L37.9408 100.326L37.9434 100.301V100.275C37.9434 98.8415 37.759 97.4323 37.5543 96.1418C37.4945 95.7653 37.4336 95.4015 37.3748 95.0507C37.2294 94.183 37.0972 93.3944 37.0294 92.6869C36.9327 91.6788 36.9854 90.9756 37.226 90.5334C37.4288 90.1607 37.8245 89.8752 38.7559 89.8752H105.862C106.101 89.8752 106.268 89.8945 106.38 89.9219C106.427 89.9334 106.459 89.945 106.48 89.954C106.474 89.9825 106.461 90.0286 106.432 90.0986C106.338 90.3251 106.134 90.636 105.821 91.0421C105.548 91.3955 105.217 91.791 104.847 92.2317C104.8 92.2885 104.752 92.3461 104.703 92.4044C103.857 93.4152 102.855 94.6306 102.066 95.9535C101.278 97.274 100.675 98.7467 100.675 100.275ZM106.481 89.9151C106.482 89.9145 106.483 89.9185 106.483 89.9286C106.48 89.9206 106.481 89.9156 106.481 89.9151Z" fill="#121330" stroke="#121330"/>
<path d="M38.7559 83.8H105.862C107.76 83.8 109.522 84.8261 110.827 86.5629C112.132 88.2996 112.956 90.7231 112.956 93.425V160.8C112.956 163.49 112.137 165.913 110.834 167.654C109.531 169.393 107.769 170.425 105.862 170.425H38.7559C36.8579 170.425 35.0956 169.399 33.7908 167.662C32.486 165.925 31.6621 163.502 31.6621 160.8V93.425C31.6621 90.7231 32.486 88.2996 33.7908 86.5629C35.0956 84.8261 36.8579 83.8 38.7559 83.8Z" fill="#F8FAF7" stroke="#121330"/>
<path d="M92.6685 105.877C80.136 105.877 84.2648 126.127 72.1729 126.127C65.8335 126.127 68.1922 140.872 62.736 140.872C56.3966 140.872 59.0497 119.442 51.6772 119.442" stroke="#00C297"/>
<path d="M92.668 107.255V158.175" stroke="#00C297"/>
<path d="M72.1426 126.915V158.175" stroke="#00C297"/>
<path d="M51.6045 121.41V158.175" stroke="#00C297"/>
<path d="M50.0552 157.978H94.1439" stroke="#00C297" stroke-linecap="round" stroke-linejoin="round"/>
<path d="M51.604 122.785C52.9878 122.785 54.1109 121.29 54.1109 119.443C54.1109 117.598 52.9878 116.103 51.604 116.103C50.2184 116.103 49.0972 117.598 49.0972 119.443C49.0972 121.29 50.2184 122.785 51.604 122.785Z" fill="#00C297"/>
<path d="M72.1729 129.47C73.5585 129.47 74.6798 127.975 74.6798 126.127C74.6798 124.282 73.5585 122.785 72.1729 122.785C70.7891 122.785 69.666 124.282 69.666 126.127C69.666 127.975 70.7891 129.47 72.1729 129.47Z" fill="#00C297"/>
<path d="M92.6685 109.22C94.0541 109.22 95.1754 107.725 95.1754 105.877C95.1754 104.032 94.0541 102.535 92.6685 102.535C91.2847 102.535 90.1616 104.032 90.1616 105.877C90.1616 107.725 91.2847 109.22 92.6685 109.22Z" fill="#00C297"/>
<path d="M258.644 64.5501V64.5767L258.647 64.6032L264.213 116.677V122.725C264.213 125.415 263.393 127.839 262.091 129.579C260.788 131.318 259.026 132.35 257.119 132.35H213.675C211.777 132.35 210.015 131.324 208.71 129.587C207.405 127.85 206.582 125.427 206.582 122.725V116.692L214.712 68.0074L214.719 67.9665V67.9251C214.719 66.4621 214.41 64.886 214.028 63.3701C213.837 62.6098 213.625 61.8568 213.421 61.1357C213.412 61.1048 213.403 61.0741 213.395 61.0434C213.199 60.3532 213.013 59.6949 212.857 59.0774C212.524 57.7608 212.357 56.7305 212.48 56.0471C212.539 55.724 212.655 55.5268 212.807 55.4035C212.963 55.2779 213.223 55.175 213.675 55.175H257.119C258.086 55.175 258.554 55.4208 258.807 55.7405C259.082 56.0878 259.208 56.6476 259.2 57.5079C259.193 58.2441 259.091 59.1097 258.974 60.1111C258.956 60.2666 258.938 60.4253 258.919 60.5874C258.782 61.7788 258.644 63.1198 258.644 64.5501Z" fill="#121330" stroke="#121330"/>
<path d="M213.582 49.1001H257.025C258.923 49.1001 260.686 50.1261 261.99 51.8629C263.295 53.5997 264.119 56.0231 264.119 58.7251V116.65C264.119 119.34 263.3 121.764 261.997 123.504C260.694 125.243 258.932 126.275 257.025 126.275H213.582C211.684 126.275 209.921 125.249 208.616 123.512C207.312 121.776 206.488 119.352 206.488 116.65V58.701C206.497 56.0111 207.321 53.5936 208.624 51.8598C209.926 50.1259 211.684 49.1001 213.582 49.1001Z" fill="#F8FAF7" stroke="#121330"/>
<path d="M234.992 62.8249L234.992 62.8249C231.461 62.9435 228.264 64.9541 225.955 68.1847C223.646 71.4149 222.249 75.8391 222.331 80.6915L234.992 62.8249ZM234.992 62.8249C239.075 62.6829 243.028 65.1669 245.585 69.5991C247.786 73.4474 248.615 78.1278 248.165 82.5906C247.715 87.0552 245.988 91.2595 243.131 94.1748C240.988 96.3569 239.757 99.7075 239.726 103.213L238.758 104.85H231.447L230.881 103.262C230.842 99.7132 229.59 96.3422 227.421 94.1261M234.992 62.8249L227.421 94.1261M227.421 94.1261C224.318 90.9326 222.423 85.9872 222.331 80.6917L227.421 94.1261Z" fill="#FAFFFE" stroke="#121330"/>
<path d="M230.561 103.374V107.949C230.561 111.574 232.755 114.499 235.473 114.499C238.192 114.499 240.386 111.574 240.386 107.949V103.374H230.561Z" fill="#2DFFC9"/>
<path d="M230.381 103.35H240.225" stroke="#121330" stroke-linecap="round" stroke-linejoin="round"/>
<path d="M230.381 111.375H240.206" stroke="#121330" stroke-linecap="round" stroke-linejoin="round"/>
<path d="M233.644 103.35V98.1249C233.644 94.6249 232.612 91.2499 230.756 88.7749C229.35 86.8999 228.581 84.3749 228.581 81.7249C228.581 79.8499 229.725 78.3499 231.112 78.3499C232.519 78.3499 233.644 79.8749 233.644 81.7249V83.6749C233.644 84.8749 234.375 85.8499 235.275 85.8499C236.175 85.8499 236.906 84.8749 236.906 83.6749V81.7249C236.906 79.8499 238.05 78.3499 239.437 78.3499H239.475C240.881 78.3499 242.006 79.8749 242.006 81.7249C242.006 84.3749 241.219 86.9249 239.812 88.7999C237.956 91.2999 236.906 94.6499 236.906 98.1749L236.925 103.375" stroke="#121330" stroke-linecap="round" stroke-linejoin="round"/>
<path d="M59.1396 73.8299V48.5199C59.1396 45.8749 60.7371 43.7449 62.7209 43.7449H118.997C120.981 43.7449 122.58 45.8749 122.58 48.5199V88.3499" stroke="#121330" stroke-width="2" stroke-linecap="round" stroke-linejoin="round"/>
<path d="M59.0667 77.37C62.0161 77.37 64.4048 74.185 64.4048 70.2525C64.4048 66.3225 62.0161 63.135 59.0667 63.135C56.1192 63.135 53.7305 66.3225 53.7305 70.2525C53.7305 74.185 56.1192 77.37 59.0667 77.37Z" fill="#121330"/>
<path d="M242.568 171.3H262.781C266.962 171.3 266.831 175.9 266.831 181.5L270.375 202.65V208.375C270.375 213.95 266.981 218.5 262.781 218.5H242.568C238.387 218.5 234.975 213.975 234.975 208.375V202.65L236.924 180.775C236.943 175.2 238.387 171.3 242.568 171.3Z" fill="#121330"/>
<path d="M242.568 166.075H262.781C264.679 166.075 266.441 167.101 267.746 168.838C269.051 170.575 269.875 172.998 269.875 175.7V202.65C269.875 205.34 269.055 207.764 267.752 209.503C266.45 211.243 264.688 212.275 262.781 212.275H242.568C240.67 212.275 238.908 211.249 237.603 209.512C236.298 207.775 235.475 205.352 235.475 202.65V175.676C235.484 172.986 236.308 170.569 237.61 168.835C238.913 167.101 240.671 166.075 242.568 166.075Z" fill="#F8FAF7" stroke="#121330"/>
<path d="M241.183 186.832C245.334 186.832 243.841 200.735 247.415 200.735C250.126 200.735 249.163 190.608 252.734 190.608C259.548 190.608 257.219 179.192 264.288 179.192" stroke="#00C297" stroke-linecap="round"/>
<path d="M241.139 188.72C241.921 188.72 242.555 187.875 242.555 186.832C242.555 185.79 241.921 184.945 241.139 184.945C240.357 184.945 239.724 185.79 239.724 186.832C239.724 187.875 240.357 188.72 241.139 188.72Z" fill="#00C297"/>
<path d="M252.727 192.482C253.509 192.482 254.142 191.637 254.142 190.595C254.142 189.552 253.509 188.707 252.727 188.707C251.945 188.707 251.311 189.552 251.311 190.595C251.311 191.637 251.945 192.482 252.727 192.482Z" fill="#00C297"/>
<path d="M264.279 181.067C265.061 181.067 265.695 180.225 265.695 179.182C265.695 178.14 265.061 177.295 264.279 177.295C263.497 177.295 262.865 178.14 262.865 179.182C262.865 180.225 263.497 181.067 264.279 181.067Z" fill="#00C297"/>
<path d="M190.019 116.525V116.546L190.02 116.566L195.644 184.821V190.875C195.644 193.565 194.824 195.989 193.522 197.729C192.219 199.469 190.457 200.5 188.55 200.5H132.562C130.664 200.5 128.902 199.474 127.597 197.738C126.293 196.001 125.469 193.577 125.469 190.875V185.787L128.712 116.374L128.713 116.362V116.35C128.713 113.529 128.754 111.047 129.291 109.27C129.556 108.391 129.93 107.732 130.438 107.292C130.937 106.861 131.611 106.6 132.562 106.6H188.55C189.498 106.6 189.958 106.868 190.213 107.23C190.497 107.632 190.617 108.271 190.602 109.205C190.59 110.005 190.481 110.935 190.359 111.988C190.34 112.148 190.321 112.311 190.302 112.477C190.16 113.719 190.019 115.095 190.019 116.525Z" fill="#121330" stroke="#121330"/>
<path d="M132.562 100.525H188.55C190.448 100.525 192.21 101.551 193.515 103.288C194.82 105.025 195.644 107.448 195.644 110.15V184.8C195.644 187.49 194.824 189.914 193.522 191.654C192.219 193.393 190.457 194.425 188.55 194.425H132.562C130.664 194.425 128.902 193.399 127.597 191.662C126.293 189.926 125.469 187.502 125.469 184.8V110.125C125.469 107.435 126.288 105.018 127.59 103.285C128.893 101.552 130.655 100.525 132.562 100.525Z" fill="#F8FAF7" stroke="#121330"/>
<path d="M146.512 185.53L156.344 143.048" stroke="#121330" stroke-width="4" stroke-linecap="round" stroke-linejoin="round"/>
<path d="M162.377 141.14L176.912 185.53" stroke="#121330" stroke-width="4" stroke-linecap="round" stroke-linejoin="round"/>
<path d="M150.178 169.95H171.716" stroke="#121330" stroke-width="4" stroke-linecap="round" stroke-linejoin="round"/>
<path d="M169.218 144.365C174.958 132.818 174.474 118.915 168.138 113.318C161.801 107.718 152.011 112.543 146.27 124.09C140.533 135.638 141.016 149.54 147.352 155.138C153.69 160.738 163.479 155.915 169.218 144.365Z" fill="#2DFFC9"/>
<path d="M166.314 141.797C170.6 133.17 170.24 122.787 165.509 118.605C160.777 114.425 153.464 118.03 149.176 126.657C144.888 135.282 145.25 145.667 149.98 149.847C154.713 154.027 162.025 150.425 166.314 141.797Z" fill="#121330"/>
<path d="M163.492 139.305C166.364 133.523 166.121 126.563 162.948 123.758C159.774 120.955 154.872 123.368 151.998 129.15C149.126 134.93 149.369 141.893 152.544 144.695C155.716 147.498 160.617 145.085 163.492 139.305Z" fill="#F8FAF7"/>
<path d="M160.903 137.015C162.479 133.842 162.346 130.017 160.602 128.477C158.859 126.937 156.166 128.262 154.587 131.437C153.01 134.612 153.144 138.435 154.888 139.975C156.631 141.517 159.324 140.192 160.903 137.015Z" fill="#3336FF"/>
<path d="M158.825 135.183C159.363 134.098 159.316 132.793 158.72 132.265C158.124 131.738 157.203 132.19 156.665 133.273C156.125 134.355 156.174 135.663 156.77 136.19C157.366 136.718 158.287 136.265 158.825 135.183Z" fill="#F8FAF7"/>
<path d="M84.9941 34.4749H117.338C121.519 34.4749 116.625 40.7249 116.625 46.3249L124.875 81.3499C124.875 81.5516 124.873 81.7601 124.869 81.9749C124.757 87.6991 123.13 97.8249 119.082 97.8249H81.8254C77.8086 97.8249 77.4255 89.0111 77.4017 83.3529C77.4008 83.1214 77.4004 82.8951 77.4004 82.6749L82.2566 45.7749C82.2566 40.2499 80.7941 34.4749 84.9941 34.4749Z" fill="#121330"/>
<path d="M84.9941 28.3999H117.338C121.519 28.3999 124.932 32.9249 124.932 38.5249V81.6499C124.932 87.2249 121.538 91.7749 117.338 91.7749H84.9941C80.8129 91.7749 77.4004 87.2499 77.4004 81.6499V38.5249C77.4004 32.9249 80.7941 28.3999 84.9941 28.3999Z" fill="#00C297"/>
<path d="M112.871 58.32L89.5239 46.8125C89.4939 46.8125 89.4639 46.8125 89.4939 46.8525L97.4739 78.2975C97.4739 78.3375 97.5039 78.3375 97.5339 78.2975L100.519 69.195C100.519 69.155 100.547 69.155 100.577 69.195L105.986 76.525H106.014L111.364 69.59V69.55L105.986 62.18V62.1025L112.841 58.3975C112.871 58.3975 112.871 58.32 112.871 58.32Z" fill="#FAFFFE"/>
<path d="M99.4754 217.775V217.792L99.4767 217.81L102.213 256.068V262.1C102.213 264.79 101.394 267.213 100.091 268.953C98.7881 270.693 97.026 271.725 95.1191 271.725H62.7754C60.8774 271.725 59.1151 270.699 57.8103 268.962C56.5055 267.225 55.6816 264.802 55.6816 262.1V256.081L60.3277 219.212L60.3316 219.181V219.15C60.3316 218.025 60.2815 216.935 60.2349 215.923C60.2229 215.662 60.2111 215.406 60.2005 215.157C60.1483 213.926 60.1248 212.85 60.2254 211.956C60.3266 211.056 60.5461 210.418 60.9161 210.005C61.2678 209.612 61.8228 209.35 62.7754 209.35H95.1191C96.099 209.35 96.828 209.544 97.3806 209.883C97.9299 210.22 98.3463 210.724 98.6595 211.418C99.3009 212.838 99.4754 214.966 99.4754 217.775Z" fill="#121330" stroke="#121330"/>
<path d="M62.7754 203.3H95.1191C97.0171 203.3 98.7794 204.326 100.084 206.063C101.389 207.8 102.213 210.223 102.213 212.925V256.05C102.213 258.74 101.394 261.164 100.091 262.903C98.7881 264.643 97.026 265.675 95.1191 265.675H62.7754C60.8774 265.675 59.1151 264.649 57.8103 262.912C56.5055 261.175 55.6816 258.752 55.6816 256.05V212.9C55.6816 210.21 56.5009 207.793 57.8033 206.06C59.1054 204.327 60.8675 203.3 62.7754 203.3Z" fill="#F8FAF7" stroke="#121330"/>
<path d="M74.9455 225.749L77.8563 216.509H87.8407C88.2812 216.509 88.7205 216.747 89.067 217.208C89.4133 217.67 89.6425 218.33 89.6425 219.078V250.288C89.6425 251.036 89.4133 251.696 89.067 252.157C88.7205 252.619 88.2812 252.857 87.8407 252.857H70.1022C69.6573 252.857 69.2181 252.621 68.8737 252.167C68.5289 251.712 68.3003 251.059 68.3003 250.311V229.367C68.3003 229.303 68.315 229.25 68.3311 229.218C68.3347 229.211 68.3378 229.205 68.3401 229.202L74.6911 226.047L74.8816 225.952L74.9455 225.749ZM68.3449 229.195C68.3449 229.195 68.3446 229.196 68.344 229.196C68.3446 229.196 68.3448 229.195 68.3449 229.195Z" fill="#FAFAFB" stroke="#121330"/>
<path d="M75.2304 228.44L75.2258 228.44L68.8731 228.499L76.9759 217.658L77.0323 225.871C77.0323 225.872 77.0323 225.872 77.0323 225.873C77.032 226.621 76.8032 227.28 76.4574 227.741C76.1114 228.202 75.6721 228.44 75.2304 228.44Z" fill="#2DFFC9" stroke="#121330"/>
</svg>
