<svg width="147" height="63" viewBox="0 0 147 63" fill="none" xmlns="http://www.w3.org/2000/svg">
<path d="M17.6238 18.8255C15.5791 21.0556 15.5791 21.0556 15.5791 24.9451C15.5791 28.7828 15.5791 28.8347 13.6317 30.8572L11.6843 32.8798V37.0805V41.2813L13.7777 43.4594L15.8712 45.6376H21.6646H27.458L29.5514 43.4594L31.6449 41.2813V37.0805V32.8798L29.6975 30.8572C27.7501 28.8347 27.7501 28.7828 27.7501 24.997C27.7501 21.3667 27.6527 21.0556 25.9975 18.8774C24.3422 16.7511 24.0501 16.5955 21.9567 16.5955C19.912 16.5955 19.4738 16.803 17.6238 18.8255ZM24.5856 19.1886L25.9975 20.7444H24.3909H22.7356L23.0277 23.0781C23.3199 25.2563 22.8817 26.1379 22.1514 24.8933C21.908 24.4784 21.6159 24.5302 21.1291 24.9451C20.5449 25.4637 20.4475 25.1526 20.4475 23.13C20.4475 20.7963 20.3988 20.7444 18.8896 20.7444H17.3317L18.7435 19.1886C19.7172 18.0995 20.5935 17.6327 21.6646 17.6327C22.7356 17.6327 23.612 18.0995 24.5856 19.1886ZM19.4738 23.2856C19.4738 24.634 19.3277 24.7895 18.1593 24.6858C17.0883 24.5821 16.7475 24.2191 16.6501 23.13C16.5041 21.9372 16.6501 21.7816 17.9646 21.7816C19.3277 21.7816 19.4738 21.9372 19.4738 23.2856ZM26.7764 23.2856C26.7764 24.634 26.5817 24.8414 25.5593 24.7377C24.8777 24.6858 24.3422 24.4784 24.3422 24.2191C24.3422 24.0116 24.3422 23.3893 24.3422 22.8188C24.3422 22.0409 24.683 21.7816 25.5593 21.7816C26.5817 21.7816 26.7764 22.0409 26.7764 23.2856ZM18.4514 26.9158C16.9909 28.2642 16.5527 28.2642 16.5527 27.0196C16.5527 26.2935 16.9422 25.9305 17.9159 25.8268C19.7172 25.5674 19.8146 25.723 18.4514 26.9158ZM26.7764 27.0714C26.7764 28.0568 26.7277 28.0568 25.3159 26.9677C24.537 26.3454 23.8554 25.7749 23.8554 25.723C23.8554 25.6712 24.537 25.6712 25.3159 25.8268C26.387 25.9823 26.7764 26.3454 26.7764 27.0714ZM23.8554 27.2789C26.0462 28.8347 25.9975 29.0421 23.4659 29.8719C22.0541 30.2868 21.1777 30.2349 19.5712 29.6644L17.4291 28.9384L19.5712 27.4344C20.7396 26.6047 21.7133 25.9305 21.8106 25.9305C21.8593 25.9305 22.7843 26.5528 23.8554 27.2789ZM24.4883 30.7017C28.3343 29.1458 28.7238 29.7163 28.7238 37.0805C28.7238 44.6004 28.7238 44.6004 21.908 44.6004C14.9949 44.6004 14.9949 44.5485 14.9949 36.8212C14.9949 29.5089 15.1896 29.2496 18.987 30.7017L21.8106 31.7907L24.4883 30.7017ZM13.6317 37.1843C13.6317 39.6217 13.4856 41.5406 13.3396 41.385C13.1935 41.1775 13.0475 39.4661 13.0475 37.4954C13.0475 33.1391 13.0962 32.6724 13.3883 32.6724C13.5343 32.6724 13.6317 34.6949 13.6317 37.1843ZM30.6712 37.0805C30.6712 39.2068 30.4764 41.0738 30.1843 41.2294C29.8922 41.4368 29.6975 39.9329 29.6975 37.0805C29.6975 34.2282 29.8922 32.7242 30.1843 32.9317C30.4764 33.0873 30.6712 34.9543 30.6712 37.0805Z" fill="#2CFFC9"/>
<path d="M68.3528 26.1897C68.158 26.6564 68.2554 27.2788 68.5475 27.5899C69.3265 28.4197 70.8357 27.8492 70.8357 26.7083C70.8357 25.3599 68.7909 24.945 68.3528 26.1897Z" fill="#E4E1E6"/>
<path d="M80.0369 26.1897C79.8421 26.6564 79.9395 27.2788 80.2316 27.5899C81.0105 28.4197 82.5198 27.8492 82.5198 26.7083C82.5198 25.3599 80.475 24.945 80.0369 26.1897Z" fill="#E4E1E6"/>
<path d="M56.5224 30.183C56.6197 34.6949 57.4474 36.6656 59.4921 37.2361C61.3908 37.8066 61.8289 37.5991 61.8289 36.2508C61.8289 35.6284 61.4882 35.2654 60.9526 35.2654C59.7355 35.2654 58.9079 34.28 58.9079 32.8279C58.9079 31.8944 59.2 31.6351 60.125 31.6351C61.0987 31.6351 61.3421 31.3758 61.3421 30.2868C61.3421 29.094 61.196 28.9902 60.125 29.2495C59.0539 29.5607 58.9079 29.4051 58.9079 28.2642C58.9079 27.227 58.6645 26.9677 57.6421 26.9677C56.4737 26.9677 56.425 27.0714 56.5224 30.183Z" fill="#E4E1E6"/>
<path d="M93.4739 32.1538V37.3398H94.691C95.9081 37.3398 95.9081 37.288 95.616 34.3838C95.2265 31.2203 95.8107 30.9091 96.8818 33.7096C97.7094 35.8359 99.5107 35.8359 100.533 33.7614C101.702 31.2721 102.091 31.4796 101.848 34.4875C101.653 37.288 101.653 37.3398 102.919 37.3398H104.184V32.1538V26.9677H102.967C101.945 26.9677 101.507 27.4863 100.436 29.82C99.7055 31.3759 98.9752 32.6724 98.8291 32.6724C98.6831 32.6724 97.9528 31.3759 97.1252 29.82C96.0541 27.6419 95.4212 26.9677 94.5936 26.9677C93.5226 26.9677 93.4739 27.1233 93.4739 32.1538Z" fill="#E4E1E6"/>
<path d="M39.191 30.3386C38.0712 31.4796 37.9739 31.9982 37.9739 36.3026V40.9701H39.2397C40.4081 40.9701 40.5055 40.8145 40.3107 38.9475L40.1647 36.9768L42.1607 37.2361C43.8647 37.4436 44.3028 37.288 45.1791 36.0433C47.4186 33.0354 45.666 29.0421 42.112 29.0421C40.8949 29.0421 39.9699 29.457 39.191 30.3386ZM43.2318 31.5833C43.6212 31.8426 43.816 32.6724 43.7186 33.5021C43.5726 34.7987 43.3778 35.0061 42.112 35.0061C40.8462 35.0061 40.6515 34.7987 40.5055 33.5021C40.3594 32.1019 40.9923 31.1165 42.112 31.1165C42.4041 31.1165 42.891 31.324 43.2318 31.5833Z" fill="#E4E1E6"/>
<path d="M48.2949 30.2349C46.883 31.7907 46.8343 34.8505 48.1975 36.3026C49.2685 37.4435 52.0435 37.7028 52.9685 36.7175C53.4067 36.2507 53.5528 36.2507 53.5528 36.7175C53.5528 37.0805 54.0883 37.3398 54.7212 37.3398C55.9383 37.3398 55.8896 37.4954 55.2567 33.0353C54.8672 30.3386 53.5041 29.0421 51.2159 29.0421C49.9014 29.0421 49.0251 29.4051 48.2949 30.2349ZM52.7738 32.2574C53.8935 34.2281 51.0212 36.2507 49.658 34.4874C49.1712 33.8651 49.1712 33.3984 49.6093 32.3612C50.2422 30.8572 51.8975 30.8053 52.7738 32.2574Z" fill="#E4E1E6"/>
<path d="M64.0685 30.1312C62.9488 31.0647 62.8027 31.5833 62.8027 34.2801C62.8027 37.1843 62.8514 37.3398 64.0198 37.3398C65.1883 37.3398 65.2369 37.1843 65.2369 34.5394C65.2369 31.9982 65.3343 31.7389 66.4541 31.4277C67.233 31.2203 67.6712 30.7535 67.6712 30.0793C67.6712 28.6791 65.7725 28.731 64.0685 30.1312Z" fill="#E4E1E6"/>
<path d="M68.5474 33.191C68.4014 37.3398 68.4014 37.3398 69.6185 37.3398C70.8356 37.3398 70.8356 37.288 70.8356 33.191C70.8356 29.3014 70.7869 29.0421 69.7645 29.0421C68.7908 29.0421 68.6935 29.3533 68.5474 33.191Z" fill="#E4E1E6"/>
<path d="M73.2699 30.3386C71.7607 31.8945 71.7121 34.1245 73.0752 35.9915C73.9028 37.1324 74.4384 37.3398 76.4831 37.3398C78.7226 37.3398 78.8686 37.2361 78.8686 36.0433C78.8686 34.9024 78.7226 34.7468 77.7002 35.058C75.8502 35.5247 74.4871 34.8505 74.4871 33.5021C74.4871 31.7907 75.5094 31.0647 77.3594 31.4277C78.7226 31.7389 78.8686 31.6352 78.8686 30.3905C78.8686 29.1458 78.7226 29.0421 76.6778 29.0421C74.9739 29.0421 74.1463 29.3533 73.2699 30.3386Z" fill="#E4E1E6"/>
<path d="M80.0857 33.191C80.0857 37.288 80.0857 37.3398 81.3028 37.3398C82.5199 37.3398 82.5199 37.288 82.5199 33.191C82.5199 29.094 82.5199 29.0421 81.3028 29.0421C80.0857 29.0421 80.0857 29.094 80.0857 33.191Z" fill="#E4E1E6"/>
<path d="M84.954 30.3386C83.4448 31.8944 83.3961 34.1244 84.7593 35.9914C86.1711 37.9103 89.579 37.9103 90.9909 35.9914C93.1817 33.0353 91.3803 29.0421 87.8751 29.0421C86.658 29.0421 85.733 29.4569 84.954 30.3386ZM88.9948 31.5832C89.3843 31.8425 89.579 32.6723 89.4817 33.5021C89.3356 34.7986 89.1409 35.0061 87.8751 35.0061C86.7067 35.0061 86.3659 34.7467 86.2685 33.8133C85.9764 31.7907 87.4856 30.546 88.9948 31.5832Z" fill="#E4E1E6"/>
<path d="M106.716 30.2349C105.304 31.7907 105.255 34.8505 106.619 36.3026C107.349 37.0805 108.225 37.3398 110.027 37.3398C112.266 37.3398 112.461 37.2361 112.461 36.147C112.461 35.058 112.266 34.9024 110.465 34.9542C109.345 35.0061 108.323 34.7468 108.225 34.4356C108.128 34.0726 108.566 33.9689 109.491 34.1245C111.39 34.3838 112.948 33.4503 112.948 31.9463C112.948 29.094 108.712 27.953 106.716 30.2349ZM110.659 31.8945C110.513 32.5687 108.079 32.9317 108.079 32.2575C108.079 31.4796 108.712 31.0647 109.783 31.2203C110.319 31.324 110.708 31.5833 110.659 31.8945Z" fill="#E4E1E6"/>
<path d="M115.479 30.2349C114.651 31.1684 114.408 32.1019 114.408 34.3838C114.408 37.2361 114.457 37.3398 115.674 37.3398C116.842 37.3398 116.94 37.1843 116.745 35.3691C116.404 32.6205 117.086 31.0128 118.449 31.2203C119.374 31.3759 119.52 31.7389 119.666 34.3319C119.812 37.1324 119.909 37.3398 120.98 37.3398C122.1 37.3398 122.197 37.1843 122.197 34.5394C122.197 30.8572 120.932 29.0421 118.351 29.0421C117.086 29.0421 116.209 29.4051 115.479 30.2349Z" fill="#E4E1E6"/>
<path d="M124.972 29.6644C122.976 31.2202 123.269 36.147 125.362 37.0286C126.628 37.5472 128.283 37.3916 128.965 36.6656C129.5 36.147 129.646 36.147 129.841 36.6656C129.987 37.0286 130.571 37.3398 131.155 37.3398C132.372 37.3398 132.324 37.4435 131.691 33.0353C131.301 30.3385 129.938 29.042 127.65 29.042C126.628 29.042 125.411 29.3532 124.972 29.6644ZM129.013 31.8944C129.744 32.8279 129.5 34.2281 128.429 34.9542C126.725 36.0951 124.826 33.5539 126.092 31.8944C126.871 30.909 128.234 30.909 129.013 31.8944Z" fill="#E4E1E6"/>
<path d="M12.1711 49.0085C12.1711 49.6308 12.9501 49.7864 16.0659 49.7864C19.1817 49.7864 19.9606 49.6308 19.9606 49.0085C19.9606 48.3861 19.1817 48.2306 16.0659 48.2306C12.9501 48.2306 12.1711 48.3861 12.1711 49.0085Z" fill="#2CFFC9"/>
<path d="M23.3687 49.0085C23.3687 49.6308 24.1476 49.7864 27.2634 49.7864C30.3792 49.7864 31.1581 49.6308 31.1581 49.0085C31.1581 48.3861 30.3792 48.2306 27.2634 48.2306C24.1476 48.2306 23.3687 48.3861 23.3687 49.0085Z" fill="#2CFFC9"/>
</svg>
