<svg width="122" height="34" viewBox="0 0 122 34" fill="none" xmlns="http://www.w3.org/2000/svg">
<path d="M6.6238 2.34715C4.57906 4.57717 4.57906 4.57717 4.57906 8.46672C4.57906 12.3044 4.57906 12.3563 2.63169 14.3789L0.684326 16.4014V20.6021V24.8029L2.77775 26.981L4.87117 29.1592H10.6646H16.458L18.5514 26.981L20.6449 24.8029V20.6021V16.4014L18.6975 14.3789C16.7501 12.3563 16.7501 12.3044 16.7501 8.51859C16.7501 4.88833 16.6527 4.57717 14.9975 2.39901C13.3422 0.272718 13.0501 0.117136 10.9567 0.117136C8.91196 0.117136 8.4738 0.324579 6.6238 2.34715ZM13.5856 2.71018L14.9975 4.266H13.3909H11.7356L12.0277 6.59974C12.3199 8.77789 11.8817 9.65952 11.1514 8.41486C10.908 7.99998 10.6159 8.05184 10.1291 8.46672C9.54485 8.98533 9.44748 8.67417 9.44748 6.6516C9.44748 4.31786 9.3988 4.266 7.88959 4.266H6.3317L7.74354 2.71018C8.71722 1.6211 9.59354 1.15435 10.6646 1.15435C11.7356 1.15435 12.612 1.6211 13.5856 2.71018ZM8.4738 6.80718C8.4738 8.15556 8.32775 8.31114 7.15933 8.20742C6.08827 8.1037 5.74748 7.74067 5.65012 6.6516C5.50406 5.4588 5.65012 5.30322 6.96459 5.30322C8.32775 5.30322 8.4738 5.4588 8.4738 6.80718ZM15.7764 6.80718C15.7764 8.15556 15.5817 8.363 14.5593 8.25928C13.8777 8.20742 13.3422 7.99998 13.3422 7.74067C13.3422 7.53323 13.3422 6.9109 13.3422 6.34043C13.3422 5.56252 13.683 5.30322 14.5593 5.30322C15.5817 5.30322 15.7764 5.56252 15.7764 6.80718ZM7.45143 10.4374C5.99091 11.7858 5.55275 11.7858 5.55275 10.5412C5.55275 9.81511 5.94222 9.45208 6.91591 9.34836C8.71722 9.08905 8.81459 9.24464 7.45143 10.4374ZM15.7764 10.593C15.7764 11.5784 15.7277 11.5784 14.3159 10.4893C13.537 9.86697 12.8554 9.2965 12.8554 9.24464C12.8554 9.19278 13.537 9.19278 14.3159 9.34836C15.387 9.50394 15.7764 9.86697 15.7764 10.593ZM12.8554 10.8005C15.0462 12.3563 14.9975 12.5637 12.4659 13.3935C11.0541 13.8084 10.1777 13.7565 8.57117 13.1861L6.42906 12.46L8.57117 10.956C9.73959 10.1263 10.7133 9.45208 10.8106 9.45208C10.8593 9.45208 11.7843 10.0744 12.8554 10.8005ZM13.4883 14.2233C17.3343 12.6674 17.7238 13.2379 17.7238 20.6021C17.7238 28.122 17.7238 28.122 10.908 28.122C3.99485 28.122 3.99485 28.0701 3.99485 20.3428C3.99485 13.0305 4.18959 12.7712 7.98696 14.2233L10.8106 15.3123L13.4883 14.2233ZM2.63169 20.7059C2.63169 23.1433 2.48564 25.0622 2.33959 24.9066C2.19354 24.6992 2.04748 22.9877 2.04748 21.017C2.04748 16.6607 2.09617 16.194 2.38827 16.194C2.53433 16.194 2.63169 18.2166 2.63169 20.7059ZM19.6712 20.6021C19.6712 22.7284 19.4764 24.5954 19.1843 24.751C18.8922 24.9585 18.6975 23.4545 18.6975 20.6021C18.6975 17.7498 18.8922 16.2458 19.1843 16.4533C19.4764 16.6089 19.6712 18.4759 19.6712 20.6021Z" fill="#2DFFC9"/>
<path d="M1.17114 32.5297C1.17114 33.152 1.95009 33.3076 5.06588 33.3076C8.18167 33.3076 8.96062 33.152 8.96062 32.5297C8.96062 31.9074 8.18167 31.7518 5.06588 31.7518C1.95009 31.7518 1.17114 31.9074 1.17114 32.5297Z" fill="#2DFFC9"/>
<path d="M12.3687 32.5297C12.3687 33.152 13.1476 33.3076 16.2634 33.3076C19.3792 33.3076 20.1581 33.152 20.1581 32.5297C20.1581 31.9074 19.3792 31.7518 16.2634 31.7518C13.1476 31.7518 12.3687 31.9074 12.3687 32.5297Z" fill="#2DFFC9"/>
<path d="M57.3528 9.7108C57.158 10.1775 57.2554 10.7999 57.5475 11.111C58.3265 11.9408 59.8357 11.3703 59.8357 10.2294C59.8357 8.88102 57.7909 8.46614 57.3528 9.7108Z" fill="#E4E1E6"/>
<path d="M69.0369 9.7108C68.8421 10.1775 68.9395 10.7999 69.2316 11.111C70.0105 11.9408 71.5198 11.3703 71.5198 10.2294C71.5198 8.88102 69.475 8.46614 69.0369 9.7108Z" fill="#E4E1E6"/>
<path d="M45.5224 13.7038C45.6197 18.2157 46.4474 20.1864 48.4921 20.7569C50.3908 21.3273 50.8289 21.1199 50.8289 19.7715C50.8289 19.1492 50.4882 18.7861 49.9526 18.7861C48.7355 18.7861 47.9079 17.8008 47.9079 16.3487C47.9079 15.4152 48.2 15.1559 49.125 15.1559C50.0987 15.1559 50.3421 14.8966 50.3421 13.8075C50.3421 12.6147 50.196 12.511 49.125 12.7703C48.0539 13.0815 47.9079 12.9259 47.9079 11.7849C47.9079 10.7477 47.6645 10.4884 46.6421 10.4884C45.4737 10.4884 45.425 10.5921 45.5224 13.7038Z" fill="#E4E1E6"/>
<path d="M82.4739 15.6752V20.8613H83.691C84.9081 20.8613 84.9081 20.8095 84.616 17.9053C84.2265 14.7418 84.8107 14.4306 85.8818 17.2311C86.7094 19.3574 88.5107 19.3574 89.5331 17.2829C90.7015 14.7936 91.091 15.0011 90.8476 18.009C90.6528 20.8095 90.6528 20.8613 91.9186 20.8613H93.1844V15.6752V10.4892H91.9673C90.9449 10.4892 90.5068 11.0078 89.4357 13.3415C88.7055 14.8973 87.9752 16.1939 87.8291 16.1939C87.6831 16.1939 86.9528 14.8973 86.1252 13.3415C85.0541 11.1634 84.4212 10.4892 83.5936 10.4892C82.5226 10.4892 82.4739 10.6448 82.4739 15.6752Z" fill="#E4E1E6"/>
<path d="M28.191 13.8597C27.0712 15.0007 26.9739 15.5193 26.9739 19.8237V24.4912H28.2397C29.4081 24.4912 29.5055 24.3356 29.3107 22.4686L29.1647 20.4979L31.1607 20.7572C32.8647 20.9647 33.3028 20.8091 34.1791 19.5644C36.4186 16.5565 34.666 12.5632 31.112 12.5632C29.8949 12.5632 28.9699 12.9781 28.191 13.8597ZM32.2318 15.1044C32.6212 15.3637 32.816 16.1935 32.7186 17.0233C32.5726 18.3198 32.3778 18.5272 31.112 18.5272C29.8462 18.5272 29.6515 18.3198 29.5055 17.0233C29.3594 15.623 29.9923 14.6377 31.112 14.6377C31.4041 14.6377 31.891 14.8451 32.2318 15.1044Z" fill="#E4E1E6"/>
<path d="M37.2949 13.7557C35.883 15.3116 35.8343 18.3713 37.1975 19.8235C38.2685 20.9644 41.0435 21.2237 41.9685 20.2383C42.4067 19.7716 42.5528 19.7716 42.5528 20.2383C42.5528 20.6014 43.0883 20.8607 43.7212 20.8607C44.9383 20.8607 44.8896 21.0162 44.2567 16.5562C43.8672 13.8595 42.5041 12.5629 40.2159 12.5629C38.9014 12.5629 38.0251 12.926 37.2949 13.7557ZM41.7738 15.7783C42.8935 17.749 40.0212 19.7716 38.658 18.0083C38.1712 17.386 38.1712 16.9192 38.6093 15.882C39.2422 14.3781 40.8975 14.3262 41.7738 15.7783Z" fill="#E4E1E6"/>
<path d="M53.0685 13.6527C51.9488 14.5862 51.8027 15.1048 51.8027 17.8015C51.8027 20.7057 51.8514 20.8613 53.0198 20.8613C54.1883 20.8613 54.2369 20.7057 54.2369 18.0608C54.2369 15.5197 54.3343 15.2604 55.4541 14.9492C56.233 14.7418 56.6712 14.275 56.6712 13.6008C56.6712 12.2006 54.7725 12.2524 53.0685 13.6527Z" fill="#E4E1E6"/>
<path d="M57.5474 16.7125C57.4014 20.8613 57.4014 20.8613 58.6185 20.8613C59.8356 20.8613 59.8356 20.8095 59.8356 16.7125C59.8356 12.8229 59.7869 12.5636 58.7645 12.5636C57.7908 12.5636 57.6935 12.8748 57.5474 16.7125Z" fill="#E4E1E6"/>
<path d="M62.2699 13.8601C60.7607 15.4159 60.7121 17.646 62.0752 19.5129C62.9028 20.6539 63.4384 20.8613 65.4831 20.8613C67.7226 20.8613 67.8686 20.7576 67.8686 19.5648C67.8686 18.4239 67.7226 18.2683 66.7002 18.5795C64.8502 19.0462 63.4871 18.372 63.4871 17.0236C63.4871 15.3122 64.5094 14.5862 66.3594 14.9492C67.7226 15.2604 67.8686 15.1566 67.8686 13.912C67.8686 12.6673 67.7226 12.5636 65.6778 12.5636C63.9739 12.5636 63.1463 12.8748 62.2699 13.8601Z" fill="#E4E1E6"/>
<path d="M69.0857 16.7125C69.0857 20.8095 69.0857 20.8613 70.3028 20.8613C71.5199 20.8613 71.5199 20.8095 71.5199 16.7125C71.5199 12.6155 71.5199 12.5636 70.3028 12.5636C69.0857 12.5636 69.0857 12.6155 69.0857 16.7125Z" fill="#E4E1E6"/>
<path d="M73.954 13.8602C72.4448 15.416 72.3961 17.646 73.7593 19.513C75.1711 21.4319 78.579 21.4319 79.9909 19.513C82.1817 16.5569 80.3803 12.5637 76.8751 12.5637C75.658 12.5637 74.733 12.9786 73.954 13.8602ZM77.9948 15.1048C78.3843 15.3641 78.579 16.1939 78.4817 17.0237C78.3356 18.3202 78.1409 18.5277 76.8751 18.5277C75.7067 18.5277 75.3659 18.2684 75.2685 17.3349C74.9764 15.3123 76.4856 14.0676 77.9948 15.1048Z" fill="#E4E1E6"/>
<path d="M95.716 13.7564C94.3042 15.3122 94.2555 18.372 95.6186 19.8241C96.3489 20.602 97.2252 20.8613 99.0265 20.8613C101.266 20.8613 101.461 20.7576 101.461 19.6685C101.461 18.5795 101.266 18.4239 99.4647 18.4757C98.345 18.5276 97.3226 18.2683 97.2252 17.9571C97.1278 17.5941 97.566 17.4904 98.491 17.646C100.39 17.9053 101.948 16.9718 101.948 15.4678C101.948 12.6155 97.7121 11.4745 95.716 13.7564ZM99.6594 15.4159C99.5134 16.0901 97.0792 16.4532 97.0792 15.779C97.0792 15.0011 97.7121 14.5862 98.7831 14.7418C99.3186 14.8455 99.7081 15.1048 99.6594 15.4159Z" fill="#E4E1E6"/>
<path d="M104.479 13.7564C103.651 14.6899 103.408 15.6234 103.408 17.9053C103.408 20.7576 103.457 20.8613 104.674 20.8613C105.842 20.8613 105.94 20.7057 105.745 18.8906C105.404 16.142 106.086 14.5343 107.449 14.7418C108.374 14.8973 108.52 15.2604 108.666 17.8534C108.812 20.6539 108.909 20.8613 109.98 20.8613C111.1 20.8613 111.197 20.7057 111.197 18.0608C111.197 14.3787 109.932 12.5636 107.351 12.5636C106.086 12.5636 105.209 12.9266 104.479 13.7564Z" fill="#E4E1E6"/>
<path d="M113.972 13.1857C111.976 14.7415 112.269 19.6683 114.362 20.55C115.628 21.0686 117.283 20.913 117.965 20.1869C118.5 19.6683 118.646 19.6683 118.841 20.1869C118.987 20.55 119.571 20.8611 120.155 20.8611C121.372 20.8611 121.324 20.9648 120.691 16.5567C120.301 13.8599 118.938 12.5634 116.65 12.5634C115.628 12.5634 114.411 12.8746 113.972 13.1857ZM118.013 15.4157C118.744 16.3492 118.5 17.7495 117.429 18.4755C115.725 19.6165 113.826 17.0753 115.092 15.4157C115.871 14.4304 117.234 14.4304 118.013 15.4157Z" fill="#E4E1E6"/>
</svg>
