<svg width="34" height="34" viewBox="0 0 34 34" fill="none" xmlns="http://www.w3.org/2000/svg">
<path d="M28.7824 2.77906C26.6154 1.49546 24.2916 0.54977 21.8619 0.00813148C21.8176 -0.00232198 21.7734 0.0238018 21.7506 0.0760505C21.4517 0.762239 21.1207 1.65743 20.8889 2.36104C18.2756 1.85599 15.6757 1.85599 13.116 2.36104C12.8841 1.64179 12.541 0.762239 12.2408 0.0760505C12.218 0.025545 12.1738 -0.000578703 12.1296 0.00813148C9.70121 0.548039 7.37738 1.49373 5.20899 2.77906C5.19022 2.7895 5.17413 2.80694 5.16345 2.82956C0.755639 11.3304 -0.451846 19.6223 0.140505 27.8115C0.143185 27.8515 0.160607 27.8898 0.184731 27.9142C3.09288 30.6712 5.90992 32.3449 8.67465 33.4543C8.71889 33.4717 8.76577 33.4508 8.79393 33.4038C9.44793 32.2509 10.0309 31.0352 10.5308 29.7568C10.5603 29.682 10.5321 29.5931 10.4718 29.5635C9.5471 29.1107 8.6666 28.5586 7.81962 27.9316C7.75262 27.8811 7.74726 27.7574 7.80889 27.6982C7.98713 27.5258 8.16541 27.3464 8.3356 27.1653C8.36639 27.1322 8.4093 27.1252 8.4455 27.1461C14.0098 30.4256 20.0339 30.4256 25.5325 27.1461C25.5687 27.1235 25.6116 27.1305 25.6438 27.1635C25.814 27.3447 25.9922 27.5258 26.1718 27.6982C26.2334 27.7574 26.2294 27.8811 26.1624 27.9316C25.3154 28.5708 24.4349 29.1107 23.5089 29.5618C23.4486 29.5914 23.4218 29.682 23.4513 29.7568C23.9619 31.0334 24.5448 32.2491 25.1868 33.4021C25.2136 33.4508 25.2618 33.4717 25.3061 33.4543C28.0842 32.3449 30.9012 30.6712 33.8094 27.9142C33.8348 27.8898 33.8509 27.8533 33.8536 27.8132C34.5625 18.3457 32.6662 10.1218 28.8266 2.83129C28.8173 2.80694 28.8012 2.7895 28.7824 2.77906ZM11.3617 22.8251C9.68646 22.8251 8.3061 20.8397 8.3061 18.4014C8.3061 15.9631 9.65969 13.9777 11.3617 13.9777C13.0771 13.9777 14.4441 15.9806 14.4172 18.4014C14.4172 20.8397 13.0637 22.8251 11.3617 22.8251ZM22.6592 22.8251C20.984 22.8251 19.6037 20.8397 19.6037 18.4014C19.6037 15.9631 20.9572 13.9777 22.6592 13.9777C24.3746 13.9777 25.7416 15.9806 25.7148 18.4014C25.7148 20.8397 24.3746 22.8251 22.6592 22.8251Z" fill="#A0A3FC"/>
</svg>
