<svg width="147" height="63" viewBox="0 0 147 63" fill="none" xmlns="http://www.w3.org/2000/svg">
<path d="M17.6236 18.8255C15.5788 21.0556 15.5788 21.0556 15.5788 24.9451C15.5788 28.7828 15.5788 28.8347 13.6315 30.8572L11.6841 32.8798V37.0805V41.2813L13.7775 43.4594L15.8709 45.6376H21.6643H27.4578L29.5512 43.4594L31.6446 41.2813V37.0805V32.8798L29.6972 30.8572C27.7499 28.8347 27.7499 28.7828 27.7499 24.997C27.7499 21.3667 27.6525 21.0556 25.9972 18.8774C24.342 16.7511 24.0499 16.5955 21.9565 16.5955C19.9117 16.5955 19.4736 16.803 17.6236 18.8255ZM24.5854 19.1886L25.9972 20.7444H24.3907H22.7354L23.0275 23.0781C23.3196 25.2563 22.8815 26.1379 22.1512 24.8933C21.9078 24.4784 21.6157 24.5302 21.1288 24.9451C20.5446 25.4637 20.4472 25.1526 20.4472 23.13C20.4472 20.7963 20.3986 20.7444 18.8893 20.7444H17.3315L18.7433 19.1886C19.717 18.0995 20.5933 17.6327 21.6643 17.6327C22.7354 17.6327 23.6117 18.0995 24.5854 19.1886ZM19.4736 23.2856C19.4736 24.634 19.3275 24.7895 18.1591 24.6858C17.088 24.5821 16.7472 24.2191 16.6499 23.13C16.5038 21.9372 16.6499 21.7816 17.9643 21.7816C19.3275 21.7816 19.4736 21.9372 19.4736 23.2856ZM26.7762 23.2856C26.7762 24.634 26.5815 24.8414 25.5591 24.7377C24.8775 24.6858 24.342 24.4784 24.342 24.2191C24.342 24.0116 24.342 23.3893 24.342 22.8188C24.342 22.0409 24.6828 21.7816 25.5591 21.7816C26.5815 21.7816 26.7762 22.0409 26.7762 23.2856ZM18.4512 26.9158C16.9907 28.2642 16.5525 28.2642 16.5525 27.0196C16.5525 26.2935 16.942 25.9305 17.9157 25.8268C19.717 25.5674 19.8143 25.723 18.4512 26.9158ZM26.7762 27.0714C26.7762 28.0568 26.7275 28.0568 25.3157 26.9677C24.5367 26.3454 23.8551 25.7749 23.8551 25.723C23.8551 25.6712 24.5367 25.6712 25.3157 25.8268C26.3867 25.9823 26.7762 26.3454 26.7762 27.0714ZM23.8551 27.2789C26.0459 28.8347 25.9972 29.0421 23.4657 29.8719C22.0538 30.2868 21.1775 30.2349 19.5709 29.6644L17.4288 28.9384L19.5709 27.4344C20.7393 26.6047 21.713 25.9305 21.8104 25.9305C21.8591 25.9305 22.7841 26.5528 23.8551 27.2789ZM24.488 30.7017C28.3341 29.1458 28.7236 29.7163 28.7236 37.0805C28.7236 44.6004 28.7236 44.6004 21.9078 44.6004C14.9946 44.6004 14.9946 44.5485 14.9946 36.8212C14.9946 29.5089 15.1893 29.2496 18.9867 30.7017L21.8104 31.7907L24.488 30.7017ZM13.6315 37.1843C13.6315 39.6217 13.4854 41.5406 13.3393 41.385C13.1933 41.1775 13.0472 39.4661 13.0472 37.4954C13.0472 33.1391 13.0959 32.6724 13.388 32.6724C13.5341 32.6724 13.6315 34.6949 13.6315 37.1843ZM30.6709 37.0805C30.6709 39.2068 30.4762 41.0738 30.1841 41.2294C29.892 41.4368 29.6972 39.9329 29.6972 37.0805C29.6972 34.2282 29.892 32.7242 30.1841 32.9317C30.4762 33.0873 30.6709 34.9543 30.6709 37.0805Z" fill="#00C297"/>
<path d="M68.3523 26.1897C68.1576 26.6564 68.2549 27.2788 68.547 27.5899C69.326 28.4197 70.8352 27.8492 70.8352 26.7083C70.8352 25.3599 68.7904 24.945 68.3523 26.1897Z" fill="#191C1B"/>
<path d="M80.0369 26.1897C79.8421 26.6564 79.9395 27.2788 80.2316 27.5899C81.0105 28.4197 82.5198 27.8492 82.5198 26.7083C82.5198 25.3599 80.475 24.945 80.0369 26.1897Z" fill="#191C1B"/>
<path d="M56.5224 30.183C56.6197 34.6949 57.4474 36.6656 59.4921 37.2361C61.3908 37.8066 61.8289 37.5991 61.8289 36.2508C61.8289 35.6284 61.4882 35.2654 60.9526 35.2654C59.7355 35.2654 58.9079 34.28 58.9079 32.8279C58.9079 31.8944 59.2 31.6351 60.125 31.6351C61.0987 31.6351 61.3421 31.3758 61.3421 30.2868C61.3421 29.094 61.196 28.9902 60.125 29.2495C59.0539 29.5607 58.9079 29.4051 58.9079 28.2642C58.9079 27.227 58.6645 26.9677 57.6421 26.9677C56.4737 26.9677 56.425 27.0714 56.5224 30.183Z" fill="#121330"/>
<path d="M93.4736 32.1538V37.3398H94.6907C95.9078 37.3398 95.9078 37.288 95.6157 34.3838C95.2263 31.2203 95.8105 30.9091 96.8815 33.7096C97.7092 35.8359 99.5105 35.8359 100.533 33.7614C101.701 31.2721 102.091 31.4796 101.847 34.4875C101.653 37.288 101.653 37.3398 102.918 37.3398H104.184V32.1538V26.9677H102.967C101.945 26.9677 101.507 27.4863 100.435 29.82C99.7052 31.3759 98.9749 32.6724 98.8289 32.6724C98.6828 32.6724 97.9526 31.3759 97.1249 29.82C96.0539 27.6419 95.421 26.9677 94.5934 26.9677C93.5223 26.9677 93.4736 27.1233 93.4736 32.1538Z" fill="#121330"/>
<path d="M39.1907 30.3386C38.071 31.4796 37.9736 31.9982 37.9736 36.3026V40.9701H39.2394C40.4078 40.9701 40.5052 40.8145 40.3105 38.9475L40.1644 36.9768L42.1605 37.2361C43.8644 37.4436 44.3026 37.288 45.1789 36.0433C47.4184 33.0354 45.6657 29.0421 42.1118 29.0421C40.8947 29.0421 39.9697 29.457 39.1907 30.3386ZM43.2315 31.5833C43.621 31.8426 43.8157 32.6724 43.7184 33.5021C43.5723 34.7987 43.3776 35.0061 42.1118 35.0061C40.846 35.0061 40.6513 34.7987 40.5052 33.5021C40.3592 32.1019 40.9921 31.1165 42.1118 31.1165C42.4039 31.1165 42.8907 31.324 43.2315 31.5833Z" fill="#121330"/>
<path d="M48.2946 30.2349C46.8828 31.7907 46.8341 34.8505 48.1973 36.3026C49.2683 37.4435 52.0433 37.7028 52.9683 36.7175C53.4065 36.2507 53.5525 36.2507 53.5525 36.7175C53.5525 37.0805 54.088 37.3398 54.7209 37.3398C55.938 37.3398 55.8894 37.4954 55.2565 33.0353C54.867 30.3386 53.5038 29.0421 51.2157 29.0421C49.9012 29.0421 49.0249 29.4051 48.2946 30.2349ZM52.7736 32.2574C53.8933 34.2281 51.0209 36.2507 49.6578 34.4874C49.1709 33.8651 49.1709 33.3984 49.6091 32.3612C50.242 30.8572 51.8973 30.8053 52.7736 32.2574Z" fill="#121330"/>
<path d="M64.0685 30.1312C62.9488 31.0647 62.8027 31.5833 62.8027 34.2801C62.8027 37.1843 62.8514 37.3398 64.0198 37.3398C65.1883 37.3398 65.2369 37.1843 65.2369 34.5394C65.2369 31.9982 65.3343 31.7389 66.4541 31.4277C67.233 31.2203 67.6712 30.7535 67.6712 30.0793C67.6712 28.6791 65.7725 28.731 64.0685 30.1312Z" fill="#121330"/>
<path d="M68.5474 33.191C68.4014 37.3398 68.4014 37.3398 69.6185 37.3398C70.8356 37.3398 70.8356 37.288 70.8356 33.191C70.8356 29.3014 70.7869 29.0421 69.7645 29.0421C68.7908 29.0421 68.6935 29.3533 68.5474 33.191Z" fill="#121330"/>
<path d="M73.2697 30.3386C71.7605 31.8945 71.7118 34.1245 73.075 35.9915C73.9026 37.1324 74.4381 37.3398 76.4829 37.3398C78.7223 37.3398 78.8684 37.2361 78.8684 36.0433C78.8684 34.9024 78.7223 34.7468 77.7 35.058C75.85 35.5247 74.4868 34.8505 74.4868 33.5021C74.4868 31.7907 75.5092 31.0647 77.3592 31.4277C78.7223 31.7389 78.8684 31.6352 78.8684 30.3905C78.8684 29.1458 78.7223 29.0421 76.6776 29.0421C74.9736 29.0421 74.146 29.3533 73.2697 30.3386Z" fill="#121330"/>
<path d="M80.0854 33.191C80.0854 37.288 80.0854 37.3398 81.3026 37.3398C82.5197 37.3398 82.5197 37.288 82.5197 33.191C82.5197 29.094 82.5197 29.0421 81.3026 29.0421C80.0854 29.0421 80.0854 29.094 80.0854 33.191Z" fill="#121330"/>
<path d="M84.9538 30.3386C83.4446 31.8944 83.3959 34.1244 84.759 35.9914C86.1709 37.9103 89.5788 37.9103 90.9906 35.9914C93.1814 33.0353 91.3801 29.0421 87.8748 29.0421C86.6577 29.0421 85.7327 29.4569 84.9538 30.3386ZM88.9946 31.5832C89.384 31.8425 89.5788 32.6723 89.4814 33.5021C89.3354 34.7986 89.1406 35.0061 87.8748 35.0061C86.7064 35.0061 86.3656 34.7467 86.2683 33.8133C85.9762 31.7907 87.4854 30.546 88.9946 31.5832Z" fill="#121330"/>
<path d="M106.716 30.2349C105.304 31.7907 105.255 34.8505 106.618 36.3026C107.348 37.0805 108.225 37.3398 110.026 37.3398C112.266 37.3398 112.46 37.2361 112.46 36.147C112.46 35.058 112.266 34.9024 110.464 34.9542C109.344 35.0061 108.322 34.7468 108.225 34.4356C108.127 34.0726 108.566 33.9689 109.491 34.1245C111.389 34.3838 112.947 33.4503 112.947 31.9463C112.947 29.094 108.712 27.953 106.716 30.2349ZM110.659 31.8945C110.513 32.5687 108.079 32.9317 108.079 32.2575C108.079 31.4796 108.712 31.0647 109.783 31.2203C110.318 31.324 110.708 31.5833 110.659 31.8945Z" fill="#121330"/>
<path d="M115.479 30.2349C114.651 31.1684 114.408 32.1019 114.408 34.3838C114.408 37.2361 114.456 37.3398 115.674 37.3398C116.842 37.3398 116.939 37.1843 116.745 35.3691C116.404 32.6205 117.085 31.0128 118.449 31.2203C119.374 31.3759 119.52 31.7389 119.666 34.3319C119.812 37.1324 119.909 37.3398 120.98 37.3398C122.1 37.3398 122.197 37.1843 122.197 34.5394C122.197 30.8572 120.931 29.0421 118.351 29.0421C117.085 29.0421 116.209 29.4051 115.479 30.2349Z" fill="#121330"/>
<path d="M124.972 29.6644C122.976 31.2202 123.269 36.147 125.362 37.0286C126.628 37.5472 128.283 37.3916 128.965 36.6656C129.5 36.147 129.646 36.147 129.841 36.6656C129.987 37.0286 130.571 37.3398 131.155 37.3398C132.372 37.3398 132.324 37.4435 131.691 33.0353C131.301 30.3385 129.938 29.042 127.65 29.042C126.628 29.042 125.411 29.3532 124.972 29.6644ZM129.013 31.8944C129.744 32.8279 129.5 34.2281 128.429 34.9542C126.725 36.0951 124.826 33.5539 126.092 31.8944C126.871 30.909 128.234 30.909 129.013 31.8944Z" fill="#121330"/>
<path d="M12.1709 49.0085C12.1709 49.6308 12.9498 49.7864 16.0656 49.7864C19.1814 49.7864 19.9604 49.6308 19.9604 49.0085C19.9604 48.3861 19.1814 48.2306 16.0656 48.2306C12.9498 48.2306 12.1709 48.3861 12.1709 49.0085Z" fill="#00C297"/>
<path d="M23.3682 49.0085C23.3682 49.6308 24.1471 49.7864 27.2629 49.7864C30.3787 49.7864 31.1576 49.6308 31.1576 49.0085C31.1576 48.3861 30.3787 48.2306 27.2629 48.2306C24.1471 48.2306 23.3682 48.3861 23.3682 49.0085Z" fill="#00C297"/>
</svg>
