<svg width="27" height="25" viewBox="0 0 27 25" fill="none" xmlns="http://www.w3.org/2000/svg">
<path d="M26.9237 4.36947C26.8481 4.18673 26.72 4.03053 26.5555 3.92061C26.3911 3.8107 26.1978 3.75201 26 3.75197H22.1963C21.6644 2.84719 20.9076 2.09542 19.9992 1.56973C19.0909 1.04404 18.0619 0.76232 17.0125 0.751969C16.2306 0.741714 15.4546 0.887936 14.7301 1.18203C14.0056 1.47613 13.3472 1.91216 12.7937 2.46447C12.2241 3.0235 11.7719 3.69078 11.4639 4.42708C11.1559 5.16338 10.9981 5.95383 11 6.75197V7.51322C5.9675 6.18572 1.85125 2.09197 1.8075 2.04822C1.67334 1.91287 1.5033 1.81868 1.3174 1.77673C1.1315 1.73478 0.93748 1.74683 0.758197 1.81145C0.578914 1.87607 0.421828 1.99057 0.30544 2.14148C0.189051 2.29238 0.118207 2.4734 0.101249 2.66322C-0.437501 8.63697 1.2975 12.6345 2.85125 14.9357C3.60885 16.0733 4.53048 17.0927 5.58625 17.9607C3.6825 20.152 0.684999 21.3032 0.652499 21.3157C0.511392 21.3686 0.384052 21.4526 0.279994 21.5616C0.175937 21.6706 0.0978522 21.8017 0.0515754 21.9451C0.00529851 22.0885 -0.00797411 22.2405 0.0127489 22.3897C0.0334719 22.539 0.0876547 22.6816 0.171249 22.807C0.264999 22.947 0.639999 23.4382 1.55625 23.897C2.68875 24.4645 4.185 24.752 6 24.752C14.8337 24.752 22.215 17.9495 22.9688 9.19697L26.7075 5.45947C26.8473 5.31954 26.9425 5.14129 26.981 4.94727C27.0195 4.75325 26.9995 4.55217 26.9237 4.36947ZM21.2987 8.04572C21.1273 8.21759 21.0242 8.44595 21.0088 8.68822C20.5 16.5745 13.91 22.752 6 22.752C4.68 22.752 3.75 22.577 3.0975 22.367C4.53625 21.5857 6.5425 20.242 7.8325 18.307C7.90821 18.1932 7.9598 18.0651 7.98407 17.9306C8.00835 17.7961 8.0048 17.6581 7.97364 17.525C7.94248 17.3919 7.88438 17.2667 7.80291 17.1569C7.72145 17.0472 7.61836 16.9553 7.5 16.887C7.44125 16.8532 2.01125 13.5945 2 4.88697C4 6.51197 7.65625 9.03322 11.8337 9.73572C11.9769 9.75986 12.1236 9.75253 12.2637 9.71424C12.4037 9.67596 12.5338 9.60763 12.6448 9.51402C12.7558 9.4204 12.845 9.30374 12.9064 9.17214C12.9677 9.04054 12.9997 8.89716 13 8.75197V6.75197C12.9989 6.21853 13.1045 5.69026 13.3105 5.19823C13.5166 4.70621 13.819 4.26038 14.2 3.88697C14.5652 3.52109 15 3.23214 15.4788 3.03719C15.9576 2.84224 16.4706 2.74526 16.9875 2.75197C18.57 2.77197 20.0487 3.73697 20.6675 5.15322C20.7455 5.33128 20.8737 5.48274 21.0364 5.58908C21.1992 5.69542 21.3894 5.75202 21.5837 5.75197H23.5837L21.2987 8.04572Z" fill="#FAFFFE"/>
</svg>
