<svg width="34" height="35" viewBox="0 0 34 35" fill="none" xmlns="http://www.w3.org/2000/svg">
<path fill-rule="evenodd" clip-rule="evenodd" d="M29.046 5.68856C25.8503 2.50641 21.6 0.753079 17.0714 0.751465C7.73982 0.751465 0.145299 8.30322 0.142052 17.5857C0.140429 20.5531 0.920499 23.4495 2.4019 26.002L0 34.7267L8.97445 32.3856C11.4469 33.7273 14.2312 34.4336 17.0641 34.4345H17.0714C26.4014 34.4345 33.9968 26.8819 34 17.5994C34.0016 13.1007 32.2426 8.87152 29.046 5.68936V5.68856ZM17.0714 31.5913H17.0657C14.5412 31.5906 12.0647 30.9157 9.90392 29.641L9.39006 29.3376L4.06432 30.7268L5.48565 25.5628L5.15122 25.0333C3.74287 22.8053 2.99852 20.2302 3.00014 17.5865C3.00339 9.87169 9.31538 3.59457 17.0772 3.59457C20.8354 3.59618 24.3681 5.05326 27.0248 7.69859C29.6816 10.3431 31.1435 13.8595 31.1419 17.5978C31.1386 25.3135 24.8267 31.5906 17.0714 31.5906V31.5913ZM24.7893 21.1117C24.3664 20.9011 22.2868 19.8839 21.8987 19.7435C21.5108 19.603 21.2291 19.5328 20.9474 19.9541C20.6658 20.3756 19.8549 21.3232 19.6081 21.6033C19.3613 21.8842 19.1145 21.919 18.6916 21.7082C18.2688 21.4976 16.9058 21.0536 15.2897 19.6207C14.0324 18.5051 13.1832 17.128 12.9365 16.7066C12.6897 16.2852 12.9106 16.0576 13.1215 15.8485C13.3115 15.6596 13.5445 15.3569 13.7563 15.1115C13.9682 14.8661 14.038 14.6902 14.1792 14.41C14.3205 14.1291 14.2499 13.8837 14.1444 13.673C14.0388 13.4623 13.193 11.3917 12.8399 10.5498C12.4965 9.72962 12.1475 9.84102 11.8886 9.8273C11.6418 9.81518 11.3602 9.81277 11.0777 9.81277C10.7952 9.81277 10.3373 9.91771 9.94934 10.3391C9.56137 10.7604 8.46875 11.7784 8.46875 13.8481C8.46875 15.9179 9.98429 17.9191 10.1961 18.2C10.408 18.481 13.1792 22.7295 17.4221 24.5522C18.4311 24.9857 19.2193 25.2448 19.8337 25.4386C20.8468 25.759 21.7689 25.7139 22.4978 25.6057C23.3104 25.4846 25.0004 24.5877 25.3527 23.6053C25.7049 22.6229 25.7049 21.7801 25.5995 21.6049C25.494 21.4298 25.2115 21.324 24.7886 21.1133L24.7893 21.1117Z" fill="#2DFFC9"/>
</svg>
