<svg width="58" height="59" viewBox="0 0 58 59" fill="none" xmlns="http://www.w3.org/2000/svg">
<rect y="0.751465" width="58" height="58" rx="29" fill="#121330"/>
<g clip-path="url(#clip0_363_17206)">
<mask id="mask0_363_17206" style="mask-type:luminance" maskUnits="userSpaceOnUse" x="12" y="12" width="34" height="35">
<path d="M46 12.7515H12V46.7515H46V12.7515Z" fill="white"/>
</mask>
<g mask="url(#mask0_363_17206)">
<path d="M40.7824 15.7791C38.6154 14.4955 36.2916 13.5498 33.8619 13.0081C33.8176 12.9977 33.7734 13.0238 33.7506 13.0761C33.4517 13.7622 33.1207 14.6574 32.8889 15.361C30.2756 14.856 27.6757 14.856 25.116 15.361C24.8841 14.6418 24.541 13.7622 24.2408 13.0761C24.218 13.0255 24.1738 12.9994 24.1296 13.0081C21.7012 13.548 19.3774 14.4937 17.209 15.7791C17.1902 15.7895 17.1741 15.8069 17.1635 15.8296C12.7556 24.3304 11.5482 32.6223 12.1405 40.8115C12.1432 40.8515 12.1606 40.8898 12.1847 40.9142C15.0929 43.6712 17.9099 45.3449 20.6746 46.4543C20.7189 46.4717 20.7658 46.4508 20.7939 46.4038C21.4479 45.2509 22.0309 44.0352 22.5308 42.7568C22.5603 42.682 22.5321 42.5931 22.4718 42.5635C21.5471 42.1107 20.6666 41.5586 19.8196 40.9316C19.7526 40.8811 19.7473 40.7574 19.8089 40.6982C19.9871 40.5258 20.1654 40.3464 20.3356 40.1653C20.3664 40.1322 20.4093 40.1252 20.4455 40.1461C26.0098 43.4256 32.0339 43.4256 37.5325 40.1461C37.5687 40.1235 37.6116 40.1305 37.6438 40.1635C37.814 40.3447 37.9922 40.5258 38.1718 40.6982C38.2334 40.7574 38.2294 40.8811 38.1624 40.9316C37.3154 41.5708 36.4349 42.1107 35.5089 42.5618C35.4486 42.5914 35.4218 42.682 35.4513 42.7568C35.9619 44.0334 36.5448 45.2491 37.1868 46.4021C37.2136 46.4508 37.2618 46.4717 37.3061 46.4543C40.0842 45.3449 42.9012 43.6712 45.8094 40.9142C45.8348 40.8898 45.8509 40.8533 45.8536 40.8132C46.5625 31.3457 44.6662 23.1218 40.8266 15.8313C40.8173 15.8069 40.8012 15.7895 40.7824 15.7791ZM23.3617 35.8251C21.6865 35.8251 20.3061 33.8397 20.3061 31.4014C20.3061 28.9631 21.6597 26.9777 23.3617 26.9777C25.0771 26.9777 26.4441 28.9806 26.4172 31.4014C26.4172 33.8397 25.0637 35.8251 23.3617 35.8251ZM34.6592 35.8251C32.984 35.8251 31.6037 33.8397 31.6037 31.4014C31.6037 28.9631 32.9572 26.9777 34.6592 26.9777C36.3746 26.9777 37.7416 28.9806 37.7148 31.4014C37.7148 33.8397 36.3746 35.8251 34.6592 35.8251Z" fill="#A0A3FC"/>
</g>
</g>
<defs>
<clipPath id="clip0_363_17206">
<rect width="34" height="34" fill="white" transform="translate(12 12.7515)"/>
</clipPath>
</defs>
</svg>
