<svg width="58" height="59" viewBox="0 0 58 59" fill="none" xmlns="http://www.w3.org/2000/svg">
<rect y="0.751465" width="58" height="57.9752" rx="28.9876" fill="#121330"/>
<path fill-rule="evenodd" clip-rule="evenodd" d="M41.046 17.6886C37.8503 14.5064 33.6 12.7531 29.0714 12.7515C19.7398 12.7515 12.1453 20.3032 12.1421 29.5857C12.1404 32.5531 12.9205 35.4495 14.4019 38.002L12 46.7267L20.9745 44.3856C23.4469 45.7273 26.2312 46.4336 29.0641 46.4345H29.0714C38.4014 46.4345 45.9968 38.8819 46 29.5994C46.0016 25.1007 44.2426 20.8715 41.046 17.6894V17.6886ZM29.0714 43.5913H29.0657C26.5412 43.5906 24.0647 42.9157 21.9039 41.641L21.3901 41.3376L16.0643 42.7268L17.4857 37.5628L17.1512 37.0333C15.7429 34.8053 14.9985 32.2302 15.0001 29.5865C15.0034 21.8717 21.3154 15.5946 29.0772 15.5946C32.8354 15.5962 36.3681 17.0533 39.0248 19.6986C41.6816 22.3431 43.1435 25.8595 43.1419 29.5978C43.1386 37.3135 36.8267 43.5906 29.0714 43.5906V43.5913ZM36.7893 33.1117C36.3664 32.9011 34.2868 31.8839 33.8987 31.7435C33.5108 31.603 33.2291 31.5328 32.9474 31.9541C32.6658 32.3756 31.8549 33.3232 31.6081 33.6033C31.3613 33.8842 31.1145 33.919 30.6916 33.7082C30.2688 33.4976 28.9058 33.0536 27.2897 31.6207C26.0324 30.5051 25.1832 29.128 24.9365 28.7066C24.6897 28.2852 24.9106 28.0576 25.1215 27.8485C25.3115 27.6596 25.5445 27.3569 25.7563 27.1115C25.9682 26.8661 26.038 26.6902 26.1792 26.41C26.3205 26.1291 26.2499 25.8837 26.1444 25.673C26.0388 25.4623 25.193 23.3917 24.8399 22.5498C24.4965 21.7296 24.1475 21.841 23.8886 21.8273C23.6418 21.8152 23.3602 21.8128 23.0777 21.8128C22.7952 21.8128 22.3373 21.9177 21.9493 22.3391C21.5614 22.7604 20.4687 23.7784 20.4687 25.8481C20.4687 27.9179 21.9843 29.9191 22.1961 30.2C22.408 30.481 25.1792 34.7295 29.4221 36.5522C30.4311 36.9857 31.2193 37.2448 31.8337 37.4386C32.8468 37.759 33.7689 37.7139 34.4978 37.6057C35.3104 37.4846 37.0004 36.5877 37.3527 35.6053C37.7049 34.6229 37.7049 33.7801 37.5995 33.6049C37.494 33.4298 37.2115 33.324 36.7886 33.1133L36.7893 33.1117Z" fill="#2DFFC9"/>
</svg>
