<svg width="64" height="65" viewBox="0 0 64 65" fill="none" xmlns="http://www.w3.org/2000/svg">
<circle cx="32" cy="32.5215" r="32" fill="#2DFFC9"/>
<path d="M46.9237 25.1385C46.8481 24.9558 46.72 24.7996 46.5555 24.6897C46.3911 24.5797 46.1978 24.5211 46 24.521H42.1963C41.6644 23.6162 40.9076 22.8645 39.9992 22.3388C39.0909 21.8131 38.0619 21.5314 37.0125 21.521C36.2306 21.5108 35.4546 21.657 34.7301 21.9511C34.0056 22.2452 33.3472 22.6812 32.7937 23.2335C32.2241 23.7925 31.7719 24.4598 31.4639 25.1961C31.1559 25.9324 30.9981 26.7229 31 27.521V28.2823C25.9675 26.9548 21.8512 22.861 21.8075 22.8173C21.6733 22.6819 21.5033 22.5877 21.3174 22.5458C21.1315 22.5038 20.9375 22.5159 20.7582 22.5805C20.5789 22.6451 20.4218 22.7596 20.3054 22.9105C20.1891 23.0614 20.1182 23.2424 20.1012 23.4323C19.5625 29.406 21.2975 33.4035 22.8512 35.7048C23.6088 36.8424 24.5305 37.8617 25.5862 38.7298C23.6825 40.921 20.685 42.0723 20.6525 42.0848C20.5114 42.1376 20.3841 42.2217 20.28 42.3306C20.1759 42.4396 20.0979 42.5707 20.0516 42.7141C20.0053 42.8575 19.992 43.0095 20.0127 43.1588C20.0335 43.308 20.0877 43.4506 20.1712 43.576C20.265 43.716 20.64 44.2073 21.5562 44.666C22.6887 45.2335 24.185 45.521 26 45.521C34.8337 45.521 42.215 38.7185 42.9688 29.966L46.7075 26.2285C46.8473 26.0886 46.9425 25.9103 46.981 25.7163C47.0195 25.5223 46.9995 25.3212 46.9237 25.1385ZM41.2987 28.8148C41.1273 28.9866 41.0242 29.215 41.0088 29.4573C40.5 37.3435 33.91 43.521 26 43.521C24.68 43.521 23.75 43.346 23.0975 43.136C24.5362 42.3548 26.5425 41.011 27.8325 39.076C27.9082 38.9622 27.9598 38.8341 27.9841 38.6996C28.0083 38.5651 28.0048 38.4271 27.9736 38.294C27.9425 38.161 27.8844 38.0357 27.8029 37.926C27.7214 37.8162 27.6184 37.7243 27.5 37.656C27.4412 37.6223 22.0112 34.3635 22 25.656C24 27.281 27.6562 29.8023 31.8337 30.5048C31.9769 30.5289 32.1236 30.5216 32.2637 30.4833C32.4037 30.445 32.5338 30.3767 32.6448 30.2831C32.7558 30.1894 32.845 30.0728 32.9064 29.9412C32.9677 29.8096 32.9997 29.6662 33 29.521V27.521C32.9989 26.9876 33.1045 26.4593 33.3105 25.9673C33.5166 25.4753 33.819 25.0294 34.2 24.656C34.5652 24.2901 35 24.0012 35.4788 23.8062C35.9576 23.6113 36.4706 23.5143 36.9875 23.521C38.57 23.541 40.0487 24.506 40.6675 25.9223C40.7455 26.1003 40.8737 26.2518 41.0364 26.3581C41.1992 26.4645 41.3894 26.5211 41.5837 26.521H43.5837L41.2987 28.8148Z" fill="#002117"/>
</svg>
