<svg width="64" height="65" viewBox="0 0 64 65" fill="none" xmlns="http://www.w3.org/2000/svg">
<circle cx="32" cy="32.5215" r="32" fill="#2DFFC9"/>
<path d="M43 19.5215H21C20.4696 19.5215 19.9609 19.7322 19.5858 20.1073C19.2107 20.4823 19 20.9911 19 21.5215V43.5215C19 44.0519 19.2107 44.5606 19.5858 44.9357C19.9609 45.3108 20.4696 45.5215 21 45.5215H43C43.5304 45.5215 44.0391 45.3108 44.4142 44.9357C44.7893 44.5606 45 44.0519 45 43.5215V21.5215C45 20.9911 44.7893 20.4823 44.4142 20.1073C44.0391 19.7322 43.5304 19.5215 43 19.5215ZM43 43.5215H21V21.5215H43V43.5215ZM28 30.5215V38.5215C28 38.7867 27.8946 39.0411 27.7071 39.2286C27.5196 39.4161 27.2652 39.5215 27 39.5215C26.7348 39.5215 26.4804 39.4161 26.2929 39.2286C26.1054 39.0411 26 38.7867 26 38.5215V30.5215C26 30.2563 26.1054 30.0019 26.2929 29.8144C26.4804 29.6268 26.7348 29.5215 27 29.5215C27.2652 29.5215 27.5196 29.6268 27.7071 29.8144C27.8946 30.0019 28 30.2563 28 30.5215ZM39 34.0215V38.5215C39 38.7867 38.8946 39.0411 38.7071 39.2286C38.5196 39.4161 38.2652 39.5215 38 39.5215C37.7348 39.5215 37.4804 39.4161 37.2929 39.2286C37.1054 39.0411 37 38.7867 37 38.5215V34.0215C37 33.3584 36.7366 32.7226 36.2678 32.2537C35.7989 31.7849 35.163 31.5215 34.5 31.5215C33.837 31.5215 33.2011 31.7849 32.7322 32.2537C32.2634 32.7226 32 33.3584 32 34.0215V38.5215C32 38.7867 31.8946 39.0411 31.7071 39.2286C31.5196 39.4161 31.2652 39.5215 31 39.5215C30.7348 39.5215 30.4804 39.4161 30.2929 39.2286C30.1054 39.0411 30 38.7867 30 38.5215V30.5215C30.0012 30.2765 30.0923 30.0406 30.256 29.8583C30.4197 29.6761 30.6446 29.5603 30.888 29.5328C31.1314 29.5054 31.3764 29.5683 31.5765 29.7095C31.7767 29.8507 31.918 30.0605 31.9738 30.299C32.6502 29.8401 33.4389 29.5741 34.2552 29.5296C35.0714 29.4852 35.8844 29.6639 36.6067 30.0466C37.329 30.4293 37.9335 31.0015 38.3551 31.7018C38.7768 32.4021 38.9997 33.204 39 34.0215ZM28.5 27.0215C28.5 27.3182 28.412 27.6082 28.2472 27.8548C28.0824 28.1015 27.8481 28.2938 27.574 28.4073C27.2999 28.5208 26.9983 28.5505 26.7074 28.4927C26.4164 28.4348 26.1491 28.2919 25.9393 28.0821C25.7296 27.8724 25.5867 27.6051 25.5288 27.3141C25.4709 27.0231 25.5006 26.7215 25.6142 26.4475C25.7277 26.1734 25.92 25.9391 26.1666 25.7743C26.4133 25.6095 26.7033 25.5215 27 25.5215C27.3978 25.5215 27.7794 25.6795 28.0607 25.9608C28.342 26.2421 28.5 26.6237 28.5 27.0215Z" fill="#002117"/>
</svg>
