<svg width="64" height="65" viewBox="0 0 64 65" fill="none" xmlns="http://www.w3.org/2000/svg">
<circle cx="32" cy="32.5215" r="32" fill="#2DFFC9"/>
<g clip-path="url(#clip0_350_5715)">
<path d="M42.0387 25.9815C42.3444 24.9955 42.4425 23.9569 42.3267 22.9311C42.211 21.9053 41.8839 20.9146 41.3662 20.0215C41.2785 19.8694 41.1522 19.7432 41.0001 19.6554C40.8481 19.5676 40.6756 19.5215 40.5 19.5215C39.3352 19.5191 38.186 19.7891 37.1442 20.31C36.1024 20.8309 35.1969 21.5882 34.5 22.5215H31.5C30.8031 21.5882 29.8976 20.8309 28.8558 20.31C27.814 19.7891 26.6648 19.5191 25.5 19.5215C25.3244 19.5215 25.1519 19.5676 24.9999 19.6554C24.8478 19.7432 24.7215 19.8694 24.6337 20.0215C24.1161 20.9146 23.789 21.9053 23.6733 22.9311C23.5575 23.9569 23.6556 24.9955 23.9612 25.9815C23.3434 27.0599 23.0125 28.2787 23 29.5215V30.5215C23.0021 32.2135 23.6163 33.8476 24.7293 35.1221C25.8422 36.3965 27.3787 37.2253 29.055 37.4553C28.3708 38.3308 27.9994 39.4103 28 40.5215V41.5215H25C24.2044 41.5215 23.4413 41.2054 22.8787 40.6428C22.3161 40.0802 22 39.3172 22 38.5215C22 37.8649 21.8707 37.2147 21.6194 36.6081C21.3681 36.0015 20.9998 35.4503 20.5355 34.986C20.0712 34.5217 19.52 34.1534 18.9134 33.9021C18.3068 33.6508 17.6566 33.5215 17 33.5215C16.7348 33.5215 16.4804 33.6269 16.2929 33.8144C16.1054 34.0019 16 34.2563 16 34.5215C16 34.7867 16.1054 35.0411 16.2929 35.2286C16.4804 35.4161 16.7348 35.5215 17 35.5215C17.7956 35.5215 18.5587 35.8376 19.1213 36.4002C19.6839 36.9628 20 37.7259 20 38.5215C20 39.8476 20.5268 41.1194 21.4645 42.057C22.4021 42.9947 23.6739 43.5215 25 43.5215H28V45.5215C28 45.7867 28.1054 46.0411 28.2929 46.2286C28.4804 46.4161 28.7348 46.5215 29 46.5215C29.2652 46.5215 29.5196 46.4161 29.7071 46.2286C29.8946 46.0411 30 45.7867 30 45.5215V40.5215C30 39.7259 30.3161 38.9628 30.8787 38.4002C31.4413 37.8376 32.2044 37.5215 33 37.5215C33.7956 37.5215 34.5587 37.8376 35.1213 38.4002C35.6839 38.9628 36 39.7259 36 40.5215V45.5215C36 45.7867 36.1054 46.0411 36.2929 46.2286C36.4804 46.4161 36.7348 46.5215 37 46.5215C37.2652 46.5215 37.5196 46.4161 37.7071 46.2286C37.8946 46.0411 38 45.7867 38 45.5215V40.5215C38.0006 39.4103 37.6292 38.3308 36.945 37.4553C38.6213 37.2253 40.1578 36.3965 41.2707 35.1221C42.3837 33.8476 42.9979 32.2135 43 30.5215V29.5215C42.9875 28.2787 42.6566 27.0599 42.0387 25.9815ZM41 30.5215C41 31.8476 40.4732 33.1194 39.5355 34.057C38.5979 34.9947 37.3261 35.5215 36 35.5215H30C28.6739 35.5215 27.4021 34.9947 26.4645 34.057C25.5268 33.1194 25 31.8476 25 30.5215V29.5215C25.0123 28.5215 25.3116 27.5462 25.8625 26.7115C25.9652 26.5761 26.0317 26.4169 26.0558 26.2487C26.0798 26.0805 26.0606 25.909 26 25.7503C25.7395 25.0785 25.6142 24.3619 25.6311 23.6417C25.6481 22.9214 25.807 22.2115 26.0988 21.5528C26.9171 21.6408 27.7052 21.9119 28.4046 22.346C29.104 22.78 29.6966 23.3659 30.1388 24.0603C30.2288 24.2011 30.3528 24.3172 30.4994 24.3978C30.6459 24.4783 30.8103 24.5209 30.9775 24.5215H35.0212C35.1891 24.5215 35.3543 24.4793 35.5015 24.3986C35.6487 24.318 35.7733 24.2017 35.8638 24.0603C36.3058 23.3659 36.8985 22.7799 37.5978 22.3458C38.2972 21.9118 39.0853 21.6407 39.9037 21.5528C40.1951 22.2117 40.3536 22.9216 40.3701 23.6419C40.3866 24.3622 40.2609 25.0787 40 25.7503C39.9396 25.9074 39.9193 26.0772 39.9412 26.2442C39.963 26.4112 40.0262 26.5701 40.125 26.7065C40.6813 27.5412 40.9851 28.5185 41 29.5215V30.5215Z" fill="#002117"/>
</g>
<defs>
<clipPath id="clip0_350_5715">
<rect width="32" height="32" fill="white" transform="translate(16 16.5215)"/>
</clipPath>
</defs>
</svg>
