<svg width="64" height="65" viewBox="0 0 64 65" fill="none" xmlns="http://www.w3.org/2000/svg">
<circle cx="32" cy="32.752" r="32" fill="#00C297"/>
<path d="M46.9237 25.3695C46.8481 25.1867 46.72 25.0305 46.5555 24.9206C46.3911 24.8107 46.1978 24.752 46 24.752H42.1963C41.6644 23.8472 40.9076 23.0954 39.9992 22.5697C39.0909 22.044 38.0619 21.7623 37.0125 21.752C36.2306 21.7417 35.4546 21.8879 34.7301 22.182C34.0056 22.4761 33.3472 22.9122 32.7937 23.4645C32.2241 24.0235 31.7719 24.6908 31.4639 25.4271C31.1559 26.1634 30.9981 26.9538 31 27.752V28.5132C25.9675 27.1857 21.8512 23.092 21.8075 23.0482C21.6733 22.9129 21.5033 22.8187 21.3174 22.7767C21.1315 22.7348 20.9375 22.7468 20.7582 22.8114C20.5789 22.8761 20.4218 22.9906 20.3054 23.1415C20.1891 23.2924 20.1182 23.4734 20.1012 23.6632C19.5625 29.637 21.2975 33.6345 22.8512 35.9357C23.6088 37.0733 24.5305 38.0927 25.5862 38.9607C23.6825 41.152 20.685 42.3032 20.6525 42.3157C20.5114 42.3686 20.3841 42.4526 20.28 42.5616C20.1759 42.6706 20.0979 42.8017 20.0516 42.9451C20.0053 43.0885 19.992 43.2405 20.0127 43.3897C20.0335 43.539 20.0877 43.6816 20.1712 43.807C20.265 43.947 20.64 44.4382 21.5562 44.897C22.6887 45.4645 24.185 45.752 26 45.752C34.8337 45.752 42.215 38.9495 42.9688 30.197L46.7075 26.4595C46.8473 26.3195 46.9425 26.1413 46.981 25.9473C47.0195 25.7533 46.9995 25.5522 46.9237 25.3695ZM41.2987 29.0457C41.1273 29.2176 41.0242 29.446 41.0088 29.6882C40.5 37.5745 33.91 43.752 26 43.752C24.68 43.752 23.75 43.577 23.0975 43.367C24.5362 42.5857 26.5425 41.242 27.8325 39.307C27.9082 39.1932 27.9598 39.0651 27.9841 38.9306C28.0083 38.7961 28.0048 38.6581 27.9736 38.525C27.9425 38.3919 27.8844 38.2667 27.8029 38.1569C27.7214 38.0472 27.6184 37.9553 27.5 37.887C27.4412 37.8532 22.0112 34.5945 22 25.887C24 27.512 27.6562 30.0332 31.8337 30.7357C31.9769 30.7599 32.1236 30.7525 32.2637 30.7142C32.4037 30.676 32.5338 30.6076 32.6448 30.514C32.7558 30.4204 32.845 30.3037 32.9064 30.1721C32.9677 30.0405 32.9997 29.8972 33 29.752V27.752C32.9989 27.2185 33.1045 26.6903 33.3105 26.1982C33.5166 25.7062 33.819 25.2604 34.2 24.887C34.5652 24.5211 35 24.2321 35.4788 24.0372C35.9576 23.8422 36.4706 23.7453 36.9875 23.752C38.57 23.772 40.0487 24.737 40.6675 26.1532C40.7455 26.3313 40.8737 26.4827 41.0364 26.5891C41.1992 26.6954 41.3894 26.752 41.5837 26.752H43.5837L41.2987 29.0457Z" fill="#FAFFFE"/>
</svg>
