<svg width="26" height="27" viewBox="0 0 26 27" fill="none" xmlns="http://www.w3.org/2000/svg">
<path d="M24 0.751953H2C1.46957 0.751953 0.960859 0.962667 0.585786 1.33774C0.210714 1.71281 0 2.22152 0 2.75195V24.752C0 25.2824 0.210714 25.7911 0.585786 26.1662C0.960859 26.5412 1.46957 26.752 2 26.752H24C24.5304 26.752 25.0391 26.5412 25.4142 26.1662C25.7893 25.7911 26 25.2824 26 24.752V2.75195C26 2.22152 25.7893 1.71281 25.4142 1.33774C25.0391 0.962667 24.5304 0.751953 24 0.751953ZM24 24.752H2V2.75195H24V24.752ZM9 11.752V19.752C9 20.0172 8.89464 20.2715 8.70711 20.4591C8.51957 20.6466 8.26522 20.752 8 20.752C7.73478 20.752 7.48043 20.6466 7.29289 20.4591C7.10536 20.2715 7 20.0172 7 19.752V11.752C7 11.4867 7.10536 11.2324 7.29289 11.0448C7.48043 10.8573 7.73478 10.752 8 10.752C8.26522 10.752 8.51957 10.8573 8.70711 11.0448C8.89464 11.2324 9 11.4867 9 11.752ZM20 15.252V19.752C20 20.0172 19.8946 20.2715 19.7071 20.4591C19.5196 20.6466 19.2652 20.752 19 20.752C18.7348 20.752 18.4804 20.6466 18.2929 20.4591C18.1054 20.2715 18 20.0172 18 19.752V15.252C18 14.5889 17.7366 13.953 17.2678 13.4842C16.7989 13.0153 16.163 12.752 15.5 12.752C14.837 12.752 14.2011 13.0153 13.7322 13.4842C13.2634 13.953 13 14.5889 13 15.252V19.752C13 20.0172 12.8946 20.2715 12.7071 20.4591C12.5196 20.6466 12.2652 20.752 12 20.752C11.7348 20.752 11.4804 20.6466 11.2929 20.4591C11.1054 20.2715 11 20.0172 11 19.752V11.752C11.0012 11.507 11.0923 11.271 11.256 11.0888C11.4197 10.9066 11.6446 10.7908 11.888 10.7633C12.1314 10.7359 12.3764 10.7987 12.5765 10.9399C12.7767 11.0812 12.918 11.2909 12.9738 11.5295C13.6502 11.0705 14.4389 10.8046 15.2552 10.7601C16.0714 10.7156 16.8844 10.8943 17.6067 11.277C18.329 11.6597 18.9335 12.2319 19.3551 12.9323C19.7768 13.6326 19.9997 14.4345 20 15.252ZM9.5 8.25195C9.5 8.54862 9.41203 8.83863 9.2472 9.08531C9.08238 9.33198 8.84811 9.52424 8.57403 9.63777C8.29994 9.7513 7.99834 9.78101 7.70736 9.72313C7.41639 9.66525 7.14912 9.52239 6.93934 9.31261C6.72956 9.10283 6.5867 8.83556 6.52882 8.54459C6.47094 8.25362 6.50065 7.95202 6.61418 7.67793C6.72771 7.40384 6.91997 7.16957 7.16665 7.00475C7.41332 6.83993 7.70333 6.75195 8 6.75195C8.39782 6.75195 8.77936 6.90999 9.06066 7.19129C9.34196 7.4726 9.5 7.85413 9.5 8.25195Z" fill="#FAFAFB"/>
</svg>
