<svg width="64" height="65" viewBox="0 0 64 65" fill="none" xmlns="http://www.w3.org/2000/svg">
<circle cx="32" cy="32.752" r="32" fill="#00C297"/>
<path d="M43 19.752H21C20.4696 19.752 19.9609 19.9627 19.5858 20.3377C19.2107 20.7128 19 21.2215 19 21.752V43.752C19 44.2824 19.2107 44.7911 19.5858 45.1662C19.9609 45.5412 20.4696 45.752 21 45.752H43C43.5304 45.752 44.0391 45.5412 44.4142 45.1662C44.7893 44.7911 45 44.2824 45 43.752V21.752C45 21.2215 44.7893 20.7128 44.4142 20.3377C44.0391 19.9627 43.5304 19.752 43 19.752ZM43 43.752H21V21.752H43V43.752ZM28 30.752V38.752C28 39.0172 27.8946 39.2715 27.7071 39.4591C27.5196 39.6466 27.2652 39.752 27 39.752C26.7348 39.752 26.4804 39.6466 26.2929 39.4591C26.1054 39.2715 26 39.0172 26 38.752V30.752C26 30.4867 26.1054 30.2324 26.2929 30.0448C26.4804 29.8573 26.7348 29.752 27 29.752C27.2652 29.752 27.5196 29.8573 27.7071 30.0448C27.8946 30.2324 28 30.4867 28 30.752ZM39 34.252V38.752C39 39.0172 38.8946 39.2715 38.7071 39.4591C38.5196 39.6466 38.2652 39.752 38 39.752C37.7348 39.752 37.4804 39.6466 37.2929 39.4591C37.1054 39.2715 37 39.0172 37 38.752V34.252C37 33.5889 36.7366 32.953 36.2678 32.4842C35.7989 32.0153 35.163 31.752 34.5 31.752C33.837 31.752 33.2011 32.0153 32.7322 32.4842C32.2634 32.953 32 33.5889 32 34.252V38.752C32 39.0172 31.8946 39.2715 31.7071 39.4591C31.5196 39.6466 31.2652 39.752 31 39.752C30.7348 39.752 30.4804 39.6466 30.2929 39.4591C30.1054 39.2715 30 39.0172 30 38.752V30.752C30.0012 30.507 30.0923 30.271 30.256 30.0888C30.4197 29.9066 30.6446 29.7908 30.888 29.7633C31.1314 29.7359 31.3764 29.7987 31.5765 29.9399C31.7767 30.0812 31.918 30.2909 31.9738 30.5295C32.6502 30.0705 33.4389 29.8046 34.2552 29.7601C35.0714 29.7156 35.8844 29.8943 36.6067 30.277C37.329 30.6597 37.9335 31.2319 38.3551 31.9323C38.7768 32.6326 38.9997 33.4345 39 34.252ZM28.5 27.252C28.5 27.5486 28.412 27.8386 28.2472 28.0853C28.0824 28.332 27.8481 28.5242 27.574 28.6378C27.2999 28.7513 26.9983 28.781 26.7074 28.7231C26.4164 28.6653 26.1491 28.5224 25.9393 28.3126C25.7296 28.1028 25.5867 27.8356 25.5288 27.5446C25.4709 27.2536 25.5006 26.952 25.6142 26.6779C25.7277 26.4038 25.92 26.1696 26.1666 26.0047C26.4133 25.8399 26.7033 25.752 27 25.752C27.3978 25.752 27.7794 25.91 28.0607 26.1913C28.342 26.4726 28.5 26.8541 28.5 27.252Z" fill="#FAFFFE"/>
</svg>
