<svg width="64" height="65" viewBox="0 0 64 65" fill="none" xmlns="http://www.w3.org/2000/svg">
<circle cx="32" cy="32.752" r="32" fill="#00C297"/>
<g clip-path="url(#clip0_350_5633)">
<path d="M42.0387 26.212C42.3444 25.226 42.4425 24.1873 42.3267 23.1615C42.211 22.1357 41.8839 21.1451 41.3662 20.252C41.2785 20.0999 41.1522 19.9737 41.0001 19.8859C40.8481 19.7981 40.6756 19.7519 40.5 19.752C39.3352 19.7495 38.186 20.0195 37.1442 20.5405C36.1024 21.0614 35.1969 21.8187 34.5 22.752H31.5C30.8031 21.8187 29.8976 21.0614 28.8558 20.5405C27.814 20.0195 26.6648 19.7495 25.5 19.752C25.3244 19.7519 25.1519 19.7981 24.9999 19.8859C24.8478 19.9737 24.7215 20.0999 24.6337 20.252C24.1161 21.1451 23.789 22.1357 23.6733 23.1615C23.5575 24.1873 23.6556 25.226 23.9612 26.212C23.3434 27.2904 23.0125 28.5092 23 29.752V30.752C23.0021 32.444 23.6163 34.0781 24.7293 35.3525C25.8422 36.627 27.3787 37.4557 29.055 37.6857C28.3708 38.5613 27.9994 39.6407 28 40.752V41.752H25C24.2044 41.752 23.4413 41.4359 22.8787 40.8733C22.3161 40.3107 22 39.5476 22 38.752C22 38.0954 21.8707 37.4452 21.6194 36.8386C21.3681 36.2319 20.9998 35.6807 20.5355 35.2164C20.0712 34.7521 19.52 34.3838 18.9134 34.1326C18.3068 33.8813 17.6566 33.752 17 33.752C16.7348 33.752 16.4804 33.8573 16.2929 34.0449C16.1054 34.2324 16 34.4868 16 34.752C16 35.0172 16.1054 35.2715 16.2929 35.4591C16.4804 35.6466 16.7348 35.752 17 35.752C17.7956 35.752 18.5587 36.068 19.1213 36.6306C19.6839 37.1933 20 37.9563 20 38.752C20 40.0781 20.5268 41.3498 21.4645 42.2875C22.4021 43.2252 23.6739 43.752 25 43.752H28V45.752C28 46.0172 28.1054 46.2715 28.2929 46.4591C28.4804 46.6466 28.7348 46.752 29 46.752C29.2652 46.752 29.5196 46.6466 29.7071 46.4591C29.8946 46.2715 30 46.0172 30 45.752V40.752C30 39.9563 30.3161 39.1933 30.8787 38.6306C31.4413 38.068 32.2044 37.752 33 37.752C33.7956 37.752 34.5587 38.068 35.1213 38.6306C35.6839 39.1933 36 39.9563 36 40.752V45.752C36 46.0172 36.1054 46.2715 36.2929 46.4591C36.4804 46.6466 36.7348 46.752 37 46.752C37.2652 46.752 37.5196 46.6466 37.7071 46.4591C37.8946 46.2715 38 46.0172 38 45.752V40.752C38.0006 39.6407 37.6292 38.5613 36.945 37.6857C38.6213 37.4557 40.1578 36.627 41.2707 35.3525C42.3837 34.0781 42.9979 32.444 43 30.752V29.752C42.9875 28.5092 42.6566 27.2904 42.0387 26.212ZM41 30.752C41 32.0781 40.4732 33.3498 39.5355 34.2875C38.5979 35.2252 37.3261 35.752 36 35.752H30C28.6739 35.752 27.4021 35.2252 26.4645 34.2875C25.5268 33.3498 25 32.0781 25 30.752V29.752C25.0123 28.752 25.3116 27.7766 25.8625 26.942C25.9652 26.8066 26.0317 26.6473 26.0558 26.4792C26.0798 26.311 26.0606 26.1394 26 25.9807C25.7395 25.309 25.6142 24.5924 25.6311 23.8721C25.6481 23.1518 25.807 22.442 26.0988 21.7832C26.9171 21.8713 27.7052 22.1424 28.4046 22.5764C29.104 23.0105 29.6966 23.5964 30.1388 24.2907C30.2288 24.4316 30.3528 24.5476 30.4994 24.6282C30.6459 24.7088 30.8103 24.7513 30.9775 24.752H35.0212C35.1891 24.752 35.3543 24.7097 35.5015 24.6291C35.6487 24.5485 35.7733 24.4321 35.8638 24.2907C36.3058 23.5963 36.8985 23.0104 37.5978 22.5763C38.2972 22.1422 39.0853 21.8712 39.9037 21.7832C40.1951 22.4421 40.3536 23.1521 40.3701 23.8724C40.3866 24.5927 40.2609 25.3091 40 25.9807C39.9396 26.1379 39.9193 26.3077 39.9412 26.4747C39.963 26.6417 40.0262 26.8006 40.125 26.937C40.6813 27.7716 40.9851 28.749 41 29.752V30.752Z" fill="#FAFFFE"/>
</g>
<defs>
<clipPath id="clip0_350_5633">
<rect width="32" height="32" fill="white" transform="translate(16 16.752)"/>
</clipPath>
</defs>
</svg>
