<svg width="27" height="25" viewBox="0 0 27 25" fill="none" xmlns="http://www.w3.org/2000/svg">
<path d="M26.9237 4.36898C26.8481 4.18624 26.72 4.03004 26.5555 3.92012C26.3911 3.81021 26.1978 3.75152 26 3.75148H22.1963C21.6644 2.84671 20.9076 2.09493 19.9992 1.56924C19.0909 1.04355 18.0619 0.761832 17.0125 0.751481C16.2306 0.741226 15.4546 0.887448 14.7301 1.18154C14.0056 1.47564 13.3472 1.91167 12.7937 2.46398C12.2241 3.02301 11.7719 3.69029 11.4639 4.42659C11.1559 5.16289 10.9981 5.95334 11 6.75148V7.51273C5.9675 6.18523 1.85125 2.09148 1.8075 2.04773C1.67334 1.91238 1.5033 1.81819 1.3174 1.77624C1.1315 1.73429 0.93748 1.74634 0.758197 1.81096C0.578914 1.87558 0.421828 1.99008 0.30544 2.14099C0.189051 2.29189 0.118207 2.47291 0.101249 2.66273C-0.437501 8.63648 1.2975 12.634 2.85125 14.9352C3.60885 16.0728 4.53048 17.0922 5.58625 17.9602C3.6825 20.1515 0.684999 21.3027 0.652499 21.3152C0.511392 21.3681 0.384052 21.4521 0.279994 21.5611C0.175937 21.6701 0.0978522 21.8012 0.0515754 21.9446C0.00529851 22.088 -0.00797411 22.24 0.0127489 22.3892C0.0334719 22.5385 0.0876547 22.6811 0.171249 22.8065C0.264999 22.9465 0.639999 23.4377 1.55625 23.8965C2.68875 24.464 4.185 24.7515 6 24.7515C14.8337 24.7515 22.215 17.949 22.9688 9.19648L26.7075 5.45898C26.8473 5.31905 26.9425 5.14081 26.981 4.94678C27.0195 4.75276 26.9995 4.55168 26.9237 4.36898ZM21.2987 8.04523C21.1273 8.2171 21.0242 8.44546 21.0088 8.68773C20.5 16.574 13.91 22.7515 6 22.7515C4.68 22.7515 3.75 22.5765 3.0975 22.3665C4.53625 21.5852 6.5425 20.2415 7.8325 18.3065C7.90821 18.1927 7.9598 18.0646 7.98407 17.9301C8.00835 17.7956 8.0048 17.6576 7.97364 17.5245C7.94248 17.3914 7.88438 17.2662 7.80291 17.1564C7.72145 17.0467 7.61836 16.9548 7.5 16.8865C7.44125 16.8527 2.01125 13.594 2 4.88648C4 6.51148 7.65625 9.03273 11.8337 9.73523C11.9769 9.75937 12.1236 9.75204 12.2637 9.71376C12.4037 9.67547 12.5338 9.60714 12.6448 9.51353C12.7558 9.41991 12.845 9.30325 12.9064 9.17165C12.9677 9.04005 12.9997 8.89668 13 8.75148V6.75148C12.9989 6.21804 13.1045 5.68977 13.3105 5.19774C13.5166 4.70572 13.819 4.25989 14.2 3.88648C14.5652 3.5206 15 3.23165 15.4788 3.0367C15.9576 2.84176 16.4706 2.74477 16.9875 2.75148C18.57 2.77148 20.0487 3.73648 20.6675 5.15273C20.7455 5.33079 20.8737 5.48225 21.0364 5.58859C21.1992 5.69493 21.3894 5.75154 21.5837 5.75148H23.5837L21.2987 8.04523Z" fill="#FAFAFB"/>
</svg>
