<svg width="27" height="28" viewBox="0 0 27 28" fill="none" xmlns="http://www.w3.org/2000/svg">
<path d="M26.0387 7.21197C26.3444 6.22596 26.4425 5.18732 26.3267 4.16154C26.211 3.13575 25.8839 2.14507 25.3662 1.25197C25.2785 1.09992 25.1522 0.973658 25.0001 0.885888C24.8481 0.798118 24.6756 0.75193 24.5 0.751969C23.3352 0.749531 22.186 1.01955 21.1442 1.54045C20.1024 2.06135 19.1969 2.81869 18.5 3.75197H15.5C14.8031 2.81869 13.8976 2.06135 12.8558 1.54045C11.814 1.01955 10.6648 0.749531 9.5 0.751969C9.32443 0.75193 9.15193 0.798118 8.99987 0.885888C8.84781 0.973658 8.72154 1.09992 8.63375 1.25197C8.11606 2.14507 7.78903 3.13575 7.67329 4.16154C7.55754 5.18732 7.65559 6.22596 7.96125 7.21197C7.34341 8.29036 7.01245 9.50919 7 10.752V11.752C7.0021 13.444 7.61634 15.0781 8.72928 16.3525C9.84222 17.627 11.3787 18.4557 13.055 18.6857C12.3708 19.5613 11.9994 20.6407 12 21.752V22.752H9C8.20435 22.752 7.44129 22.4359 6.87868 21.8733C6.31607 21.3107 6 20.5476 6 19.752C6 19.0954 5.87067 18.4452 5.6194 17.8386C5.36812 17.2319 4.99983 16.6807 4.53553 16.2164C4.07124 15.7521 3.52005 15.3838 2.91342 15.1326C2.30679 14.8813 1.65661 14.752 1 14.752C0.734784 14.752 0.48043 14.8573 0.292893 15.0449C0.105357 15.2324 0 15.4868 0 15.752C0 16.0172 0.105357 16.2715 0.292893 16.4591C0.48043 16.6466 0.734784 16.752 1 16.752C1.79565 16.752 2.55871 17.068 3.12132 17.6306C3.68393 18.1933 4 18.9563 4 19.752C4 21.0781 4.52678 22.3498 5.46447 23.2875C6.40215 24.2252 7.67392 24.752 9 24.752H12V26.752C12 27.0172 12.1054 27.2715 12.2929 27.4591C12.4804 27.6466 12.7348 27.752 13 27.752C13.2652 27.752 13.5196 27.6466 13.7071 27.4591C13.8946 27.2715 14 27.0172 14 26.752V21.752C14 20.9563 14.3161 20.1933 14.8787 19.6306C15.4413 19.068 16.2044 18.752 17 18.752C17.7956 18.752 18.5587 19.068 19.1213 19.6306C19.6839 20.1933 20 20.9563 20 21.752V26.752C20 27.0172 20.1054 27.2715 20.2929 27.4591C20.4804 27.6466 20.7348 27.752 21 27.752C21.2652 27.752 21.5196 27.6466 21.7071 27.4591C21.8946 27.2715 22 27.0172 22 26.752V21.752C22.0006 20.6407 21.6292 19.5613 20.945 18.6857C22.6213 18.4557 24.1578 17.627 25.2707 16.3525C26.3837 15.0781 26.9979 13.444 27 11.752V10.752C26.9875 9.50919 26.6566 8.29036 26.0387 7.21197ZM25 11.752C25 13.0781 24.4732 14.3498 23.5355 15.2875C22.5979 16.2252 21.3261 16.752 20 16.752H14C12.6739 16.752 11.4021 16.2252 10.4645 15.2875C9.52678 14.3498 9 13.0781 9 11.752V10.752C9.01226 9.752 9.31164 8.77662 9.8625 7.94197C9.96519 7.80662 10.0317 7.64734 10.0558 7.47915C10.0798 7.31097 10.0606 7.13943 10 6.98072C9.73953 6.30897 9.61417 5.59242 9.63112 4.87213C9.64806 4.15184 9.80698 3.44198 10.0988 2.78322C10.9171 2.87126 11.7052 3.14236 12.4046 3.57643C13.104 4.0105 13.6966 4.59641 14.1388 5.29072C14.2288 5.4316 14.3528 5.54764 14.4994 5.62822C14.6459 5.7088 14.8103 5.75135 14.9775 5.75197H19.0212C19.1891 5.75198 19.3543 5.70973 19.5015 5.62912C19.6487 5.54851 19.7733 5.43213 19.8638 5.29072C20.3058 4.59635 20.8985 4.0104 21.5978 3.57632C22.2972 3.14224 23.0853 2.87117 23.9037 2.78322C24.1951 3.44215 24.3536 4.15209 24.3701 4.87238C24.3866 5.59266 24.2609 6.30913 24 6.98072C23.9396 7.13791 23.9193 7.30771 23.9412 7.4747C23.963 7.6417 24.0262 7.80059 24.125 7.93697C24.6813 8.77163 24.9851 9.74901 25 10.752V11.752Z" fill="#FAFAFB"/>
</svg>
