<svg width="64" height="67" viewBox="0 0 64 67" fill="none" xmlns="http://www.w3.org/2000/svg">
<g clip-path="url(#clip0_598_5835)">
<rect width="64" height="67" rx="8" fill="white"/>
<ellipse cx="21" cy="32" rx="2" ry="3" fill="#121330"/>
<ellipse cx="42" cy="32" rx="2" ry="3" fill="#121330"/>
<path d="M54 27C54 23.9796 53.4051 20.9888 52.2492 18.1983C51.0934 15.4078 49.3992 12.8723 47.2635 10.7365C45.1277 8.6008 42.5922 6.90663 39.8017 5.75077C37.0112 4.59491 34.0204 4 31 4C27.9796 4 24.9888 4.59491 22.1983 5.75077C19.4078 6.90663 16.8723 8.6008 14.7365 10.7365C12.6008 12.8723 10.9066 15.4078 9.75077 18.1983C8.59491 20.9888 8 23.9796 8 27L31 27H54Z" fill="#121330"/>
<path d="M26 24C26 22.8954 26.8954 22 28 22H35C36.1046 22 37 22.8954 37 24V27H26V24Z" fill="white"/>
<rect x="26" y="25" width="11" height="2" fill="#2DFFC9"/>
<path d="M30.3912 57.2613C31.0627 57.7087 31.9373 57.7087 32.6088 57.2613L54.145 42.9145C55.7922 41.8172 55.0154 39.25 53.0362 39.25L9.9638 39.25C7.98463 39.25 7.20782 41.8172 8.85497 42.9145L30.3912 57.2613Z" fill="#F2994A"/>
<path fill-rule="evenodd" clip-rule="evenodd" d="M15.0392 40C13.0247 40 11.6767 43.4615 12.3705 45.3528C12.7874 46.4896 13.0151 47.7181 13.0151 48.9999C13.0151 50.2817 12.7874 51.5103 12.3704 52.647C11.6767 54.5383 13.0246 58 15.0392 58L46.961 58C48.9755 58 50.3235 54.5384 49.6297 52.6471C49.2128 51.5103 48.9851 50.2818 48.9851 49C48.9851 47.7182 49.2128 46.4897 49.6297 45.353C50.3235 43.4616 48.9755 40 46.9609 40L15.0392 40Z" fill="#F2994A"/>
<mask id="path-9-inside-1_598_5835" fill="white">
<path d="M54.684 60.4733C55.8141 59.888 56.1177 58.4071 55.22 57.5051C52.7144 54.9872 49.6156 52.8698 46.0871 51.2752C41.7332 49.3076 36.8508 48.1926 31.8451 48.0228C26.8394 47.853 21.8549 48.6333 17.3053 50.2989C13.6121 51.6511 10.292 53.555 7.52197 55.8994C6.5429 56.7281 6.72315 58.2434 7.813 58.9198L14.3914 63.0026C15.1854 63.4953 16.2074 63.3628 16.9246 62.7637C18.5542 61.4024 20.498 60.2953 22.6563 59.5051C25.3608 58.515 28.3239 58.0511 31.2996 58.152C34.2753 58.253 37.1777 58.9158 39.7659 60.0855C41.8143 61.0112 43.6191 62.2332 45.0897 63.684C45.7616 64.3467 46.7802 64.5673 47.6181 64.1332L54.684 60.4733Z"/>
</mask>
<path d="M54.684 60.4733C55.8141 59.888 56.1177 58.4071 55.22 57.5051C52.7144 54.9872 49.6156 52.8698 46.0871 51.2752C41.7332 49.3076 36.8508 48.1926 31.8451 48.0228C26.8394 47.853 21.8549 48.6333 17.3053 50.2989C13.6121 51.6511 10.292 53.555 7.52197 55.8994C6.5429 56.7281 6.72315 58.2434 7.813 58.9198L14.3914 63.0026C15.1854 63.4953 16.2074 63.3628 16.9246 62.7637C18.5542 61.4024 20.498 60.2953 22.6563 59.5051C25.3608 58.515 28.3239 58.0511 31.2996 58.152C34.2753 58.253 37.1777 58.9158 39.7659 60.0855C41.8143 61.0112 43.6191 62.2332 45.0897 63.684C45.7616 64.3467 46.7802 64.5673 47.6181 64.1332L54.684 60.4733Z" fill="#F2994A" stroke="#F0903C" stroke-width="2" mask="url(#path-9-inside-1_598_5835)"/>
</g>
<defs>
<clipPath id="clip0_598_5835">
<rect width="64" height="67" rx="8" fill="white"/>
</clipPath>
</defs>
</svg>
