<svg width="101" height="100" viewBox="0 0 101 100" fill="none" xmlns="http://www.w3.org/2000/svg">
<path d="M41.0352 72.6328C40.8829 73.2383 37.0743 87.5 16.1251 87.5C15.2963 87.5 14.5014 87.1708 13.9154 86.5847C13.3293 85.9987 13.0001 85.2038 13.0001 84.375C13.0001 63.4258 27.2618 59.6172 27.8673 59.4649C28.6717 59.2639 29.5231 59.3907 30.234 59.8174C30.945 60.2441 31.4573 60.9358 31.6583 61.7402C31.8593 62.5447 31.7325 63.396 31.3057 64.107C30.879 64.818 30.1874 65.3303 29.3829 65.5313C29.0313 65.6289 20.6251 68.0859 19.3985 81.1016C32.4141 79.875 34.8751 71.4844 34.9766 71.0938C35.1838 70.2903 35.7017 69.6021 36.4163 69.1805C37.1309 68.759 37.9838 68.6385 38.7872 68.8457C39.5906 69.0529 40.2788 69.5708 40.7004 70.2854C41.122 71 41.2424 71.8528 41.0352 72.6563V72.6328ZM77.3634 46.3047L75.5001 48.168V70.9531C75.5047 71.777 75.3455 72.5937 75.0316 73.3555C74.7178 74.1173 74.2556 74.8091 73.672 75.3906L60.2657 88.7891C59.6876 89.3713 58.9999 89.8333 58.2423 90.1484C57.4847 90.4636 56.6722 90.6255 55.8516 90.625C55.1745 90.6248 54.5018 90.5153 53.8595 90.3008C52.7567 89.936 51.7779 89.2701 51.0338 88.3783C50.2897 87.4864 49.8098 86.4042 49.6485 85.2539L47.5509 70.2188L30.2813 52.9492L15.254 50.8516C14.1022 50.69 13.0183 50.2103 12.1243 49.4664C11.2303 48.7224 10.5616 47.7438 10.1935 46.6405C9.8253 45.5373 9.77229 44.3532 10.0404 43.2214C10.3085 42.0897 10.8871 41.0552 11.711 40.2344L25.1095 26.8281C25.691 26.2445 26.3828 25.7823 27.1446 25.4684C27.9064 25.1546 28.723 24.9954 29.547 25H52.3321L54.1954 23.1367C64.6173 12.7188 77.1759 12.2695 82.0899 12.5625C83.6136 12.6551 85.0508 13.3022 86.1302 14.3816C87.2096 15.461 87.8567 16.8982 87.9493 18.4219C88.2345 23.3242 87.7852 35.8828 77.3673 46.3047H77.3634ZM16.1251 44.6641L30.6368 46.6875L46.0821 31.25H29.547L16.1251 44.6641ZM36.172 50L50.5001 64.3281L72.9415 41.8867C75.9658 38.8828 78.3121 35.2663 79.8227 31.2803C81.3333 27.2943 81.9731 23.0312 81.6993 18.7774C77.4477 18.5137 73.1888 19.1603 69.207 20.6739C65.2253 22.1875 61.6123 24.5334 58.6095 27.5547L36.172 50ZM69.2501 54.418L53.8087 69.8594L55.8399 84.375L69.2501 70.9531V54.418Z" fill="#00C297"/>
</svg>
