<svg xmlns="http://www.w3.org/2000/svg" version="1.1" xmlns:xlink="http://www.w3.org/1999/xlink" xmlns:svgjs="http://svgjs.dev/svgjs" width="1440" height="560" preserveAspectRatio="none" viewBox="0 0 1440 560"><g mask="url(&quot;#SvgjsMask1018&quot;)" fill="none"><path d="M105.759,229.198C149.552,230.049,190.238,205.095,211.196,166.633C231.326,129.69,225.125,85.422,203.894,49.101C182.884,13.157,147.315,-11.198,105.759,-13.746C59.007,-16.612,7.155,-5.25,-15.692,35.64C-38.184,75.896,-17.317,123.607,7.192,162.667C29.773,198.655,63.281,228.372,105.759,229.198" fill="rgba(45, 255, 201, 0.27)" class="triangle-float2"></path><path d="M-128.13 53.46 a181.59 181.59 0 1 0 363.18 0 a181.59 181.59 0 1 0 -363.18 0z" fill="rgba(45, 255, 201, 0.27)" class="triangle-float1"></path><path d="M90.454,203.907C127.808,202.113,151.73,169.01,170.844,136.867C190.578,103.682,211.143,65.32,193.196,31.136C174.406,-4.653,130.871,-16.902,90.454,-16.251C51.319,-15.621,13.127,0.615,-6.711,34.355C-26.802,68.526,-24.233,110.896,-4.523,145.289C15.303,179.885,50.626,205.82,90.454,203.907" fill="rgba(45, 255, 201, 0.27)" class="triangle-float3"></path><path d="M1476.662,283.172C1524.552,281.188,1565.214,254.943,1592.542,215.566C1625.504,168.07,1658.817,110.171,1632.419,58.736C1604.632,4.594,1537.506,-11.412,1476.662,-10.221C1418.203,-9.076,1359.949,13.765,1331.124,64.636C1302.645,114.898,1310.845,177.826,1342.867,225.909C1371.687,269.185,1424.713,285.324,1476.662,283.172" fill="rgba(45, 255, 201, 0.27)" class="triangle-float2"></path><path d="M1200.39 52.93 a180.54 180.54 0 1 0 361.08 0 a180.54 180.54 0 1 0 -361.08 0z" fill="rgba(45, 255, 201, 0.27)" class="triangle-float3"></path><path d="M1226.08 27.26 a129.18 129.18 0 1 0 258.36 0 a129.18 129.18 0 1 0 -258.36 0z" fill="rgba(45, 255, 201, 0.27)" class="triangle-float2"></path><path d="M102.9,658.068C147.374,659.411,197.751,657.013,221.223,619.214C245.543,580.05,232.169,529.392,206.645,491.002C183.886,456.77,144.003,440.674,102.9,441.245C62.898,441.801,25.174,459.855,4.031,493.818C-18.41,529.867,-25.562,576.043,-3.663,612.424C17.696,647.908,61.502,656.818,102.9,658.068" fill="rgba(45, 255, 201, 0.27)" class="triangle-float2"></path><path d="M143.856,758.058C204.658,758.124,267.077,733.095,294.467,678.812C319.992,628.226,290.491,572.623,262.191,523.536C233.847,474.371,200.531,420.49,143.856,417.571C83.519,414.463,32.457,457.777,2.338,510.151C-27.682,562.353,-36.045,626.189,-6.191,678.486C23.891,731.182,83.178,757.992,143.856,758.058" fill="rgba(45, 255, 201, 0.27)" class="triangle-float2"></path><path d="M-120.67 494.01 a166.68 166.68 0 1 0 333.36 0 a166.68 166.68 0 1 0 -333.36 0z" fill="rgba(45, 255, 201, 0.27)" class="triangle-float1"></path><path d="M1406.31,636.994C1445.524,637.43,1482.326,615.444,1500.554,580.722C1517.678,548.101,1510.194,508.779,1489.682,478.175C1471.452,450.975,1439.024,438.693,1406.31,440.105C1376.117,441.409,1351.089,459.586,1334.539,484.873C1315.819,513.476,1301.039,547.75,1315.625,578.666C1332.062,613.505,1367.79,636.566,1406.31,636.994" fill="rgba(45, 255, 201, 0.27)" class="triangle-float1"></path><path d="M1220.75 480.58 a139.83 139.83 0 1 0 279.66 0 a139.83 139.83 0 1 0 -279.66 0z" fill="rgba(45, 255, 201, 0.27)" class="triangle-float2"></path><path d="M1258.56 442.78 a64.22 64.22 0 1 0 128.44 0 a64.22 64.22 0 1 0 -128.44 0z" fill="rgba(45, 255, 201, 0.27)" class="triangle-float3"></path></g><defs><mask id="SvgjsMask1018"><rect width="1440" height="560" fill="#ffffff"></rect></mask><style>
                @keyframes float1 {
                    0%{transform: translate(0, 0)}
                    50%{transform: translate(-10px, 0)}
                    100%{transform: translate(0, 0)}
                }

                .triangle-float1 {
                    animation: float1 5s infinite;
                }

                @keyframes float2 {
                    0%{transform: translate(0, 0)}
                    50%{transform: translate(-5px, -5px)}
                    100%{transform: translate(0, 0)}
                }

                .triangle-float2 {
                    animation: float2 4s infinite;
                }

                @keyframes float3 {
                    0%{transform: translate(0, 0)}
                    50%{transform: translate(0, -10px)}
                    100%{transform: translate(0, 0)}
                }

                .triangle-float3 {
                    animation: float3 6s infinite;
                }
            </style></defs></svg>