<svg xmlns="http://www.w3.org/2000/svg" version="1.1" xmlns:xlink="http://www.w3.org/1999/xlink" xmlns:svgjs="http://svgjs.dev/svgjs" width="1440" height="560" preserveAspectRatio="none" viewBox="0 0 1440 560"><g mask="url(&quot;#SvgjsMask1077&quot;)" fill="none"><path d="M237.96440336532228 530.1929120093333L329.2482845836288 466.2752502632353 187.72985135532855 361.30825930882463z" fill="rgba(45, 255, 201, 0.27)" class="triangle-float1"></path><path d="M461.67 528.47 a184.5 184.5 0 1 0 369 0 a184.5 184.5 0 1 0 -369 0z" fill="rgba(45, 255, 201, 0.27)" class="triangle-float2"></path><path d="M1097.33 179.07 a176.88 176.88 0 1 0 353.76 0 a176.88 176.88 0 1 0 -353.76 0z" fill="rgba(45, 255, 201, 0.27)" class="triangle-float2"></path><path d="M1163.22 533.42 a101.88 101.88 0 1 0 203.76 0 a101.88 101.88 0 1 0 -203.76 0z" fill="rgba(45, 255, 201, 0.27)" class="triangle-float2"></path><path d="M194.753,224.702C232.018,224.564,267.113,208.577,287.813,177.59C311.272,142.473,325.731,97.005,304.41,60.55C283.225,24.329,236.705,19.359,194.753,18.478C150.573,17.55,99.269,17.71,76.818,55.772C54.17,94.168,74.976,141.73,100.494,178.282C121.982,209.061,157.215,224.841,194.753,224.702" fill="rgba(45, 255, 201, 0.27)" class="triangle-float3"></path><path d="M1226.5810924386406 58.17107349574334L1323.6570806975467 126.1444122537867 1391.63041945559 29.06842399488056 1294.554431196684-38.90491476316279z" fill="rgba(45, 255, 201, 0.27)" class="triangle-float2"></path><path d="M1184.477,276.546C1222.168,275.863,1252.922,250.099,1271.972,217.57C1291.266,184.626,1299.768,144.566,1281.357,111.12C1262.373,76.633,1223.843,58.352,1184.477,58.621C1145.591,58.886,1109.227,78.706,1089.86,112.427C1070.568,146.018,1071.962,187.286,1091.309,220.845C1110.678,254.443,1145.702,277.249,1184.477,276.546" fill="rgba(45, 255, 201, 0.27)" class="triangle-float3"></path><path d="M897.0724996861885 93.70749707038786L918.3494271305526-15.75280546102438 808.8891245991404-37.02973290538847 787.6121971547763 72.43056962602377z" fill="rgba(45, 255, 201, 0.27)" class="triangle-float1"></path></g><defs><mask id="SvgjsMask1077"><rect width="1440" height="560" fill="#ffffff"></rect></mask></defs></svg>