<svg xmlns="http://www.w3.org/2000/svg" version="1.1" xmlns:xlink="http://www.w3.org/1999/xlink" xmlns:svgjs="http://svgjs.dev/svgjs" width="1440" height="560" preserveAspectRatio="none" viewBox="0 0 1440 560"><g mask="url(&quot;#SvgjsMask1072&quot;)" fill="none"><path d="M-29.24,562.491C-11.217,561.746,-0.223,544.766,8.545,529.002C16.979,513.84,24.061,496.427,16.073,481.025C7.57,464.632,-10.774,456.33,-29.24,456.153C-48.042,455.972,-66.747,463.82,-76.086,480.14C-85.37,496.365,-82.092,516.115,-72.849,532.364C-63.486,548.823,-48.16,563.273,-29.24,562.491" fill="rgba(45, 255, 201, 0.27)" class="triangle-float1"></path><path d="M69.21 95.67 a124.34 124.34 0 1 0 248.68 0 a124.34 124.34 0 1 0 -248.68 0z" fill="rgba(45, 255, 201, 0.27)" class="triangle-float1"></path><path d="M808.84 53.4 a143.8 143.8 0 1 0 287.6 0 a143.8 143.8 0 1 0 -287.6 0z" fill="rgba(45, 255, 201, 0.27)" class="triangle-float1"></path><path d="M-65.45 332.71 a96.24 96.24 0 1 0 192.48 0 a96.24 96.24 0 1 0 -192.48 0z" fill="rgba(45, 255, 201, 0.27)" class="triangle-float3"></path></g><defs><mask id="SvgjsMask1072"><rect width="1440" height="560" fill="#ffffff"></rect></mask><style>
                @keyframes float1 {
                    0%{transform: translate(0, 0)}
                    50%{transform: translate(-10px, 0)}
                    100%{transform: translate(0, 0)}
                }

                .triangle-float1 {
                    animation: float1 5s infinite;
                }

                @keyframes float2 {
                    0%{transform: translate(0, 0)}
                    50%{transform: translate(-5px, -5px)}
                    100%{transform: translate(0, 0)}
                }

                .triangle-float2 {
                    animation: float2 4s infinite;
                }

                @keyframes float3 {
                    0%{transform: translate(0, 0)}
                    50%{transform: translate(0, -10px)}
                    100%{transform: translate(0, 0)}
                }

                .triangle-float3 {
                    animation: float3 6s infinite;
                }
            </style></defs></svg>