<svg xmlns="http://www.w3.org/2000/svg" version="1.1" xmlns:xlink="http://www.w3.org/1999/xlink" xmlns:svgjs="http://svgjs.dev/svgjs" width="1440" height="560" preserveAspectRatio="none" viewBox="0 0 1440 560"><g mask="url(&quot;#SvgjsMask1025&quot;)" fill="none"><path d="M76.57644170060124 239.88700012102032L-20.35607487967276 217.50836535688381 54.197806936464744 336.81951670129433z" fill="rgba(46, 255, 203, 0.24)" class="triangle-float1"></path><path d="M775.417,325.961C817.508,326.947,858.729,306.989,879.255,270.229C899.338,234.263,891.912,190.58,870.744,155.242C850.224,120.985,815.326,98.258,775.417,96.877C732.885,95.405,688.939,111.211,667.932,148.222C647.137,184.86,657.879,229.504,679.679,265.553C700.608,300.161,734.984,325.014,775.417,325.961" fill="rgba(46, 255, 203, 0.24)" class="triangle-float1"></path><path d="M904.1900160502701 74.84849696621119L877.1442721189175 228.2325328221271 1030.5283079748333 255.2782767534797 1057.574051906186 101.89424089756378z" fill="rgba(46, 255, 203, 0.24)" class="triangle-float3"></path><path d="M253.61932143331944-59.70824222961092L100.09428191102742-86.77884891172442 73.02367522891393 66.74619061056761 226.54871475120595 93.8167972926811z" fill="rgba(46, 255, 203, 0.24)" class="triangle-float3"></path><path d="M477.95354469718757 309.2270769593646L365.34759781048746 305.2947906447342 361.41531149585705 417.9007375314343 474.02125838255716 421.8330238460647z" fill="rgba(46, 255, 203, 0.24)" class="triangle-float2"></path><path d="M1330.0133251331513 278.50948363189156L1408.0222043894207 148.6809064445234 1278.1936272020525 70.67202718825396 1200.184747945783 200.50060437562212z" fill="rgba(46, 255, 203, 0.24)" class="triangle-float1"></path><path d="M719.978,527.359C774.836,526.063,824.041,497.273,853.078,450.712C884.089,400.986,897.314,339.121,869.556,287.509C840.503,233.488,781.315,203.488,719.978,203.23C658.176,202.97,598.759,232.519,568.209,286.243C537.978,339.407,542.939,405.514,575.518,457.272C606.076,505.819,662.63,528.714,719.978,527.359" fill="rgba(46, 255, 203, 0.24)" class="triangle-float3"></path><path d="M393.526,575.164C435.802,571.219,470.161,546.879,494.063,511.785C522.487,470.051,553.651,419.567,529.822,375.05C505.281,329.203,445.506,322.458,393.526,323.965C344.785,325.378,297.203,341.93,270.267,382.576C240.184,427.972,224.873,488.294,254.23,534.163C282.195,577.857,341.873,579.983,393.526,575.164" fill="rgba(46, 255, 203, 0.24)" class="triangle-float1"></path><path d="M847.1647148515601 560.03646173537L814.7779691495826 407.66880275782484 694.7970558740149 592.4232074373475z" fill="rgba(46, 255, 203, 0.24)" class="triangle-float2"></path><path d="M1072.189,582.693C1130.051,587.323,1192.604,569.13,1221.592,518.839C1250.555,468.593,1233.749,406.158,1201.874,357.707C1173.305,314.28,1124.126,289.574,1072.189,291.738C1023.797,293.754,983.249,325.317,959.959,367.784C937.617,408.524,937.654,456.651,959.162,497.837C982.536,542.595,1021.856,578.665,1072.189,582.693" fill="rgba(46, 255, 203, 0.24)" class="triangle-float3"></path><path d="M203.712,553.275C238.95,553.434,269.57,531.917,287.835,501.782C306.88,470.36,315.532,431.082,297.011,399.348C278.607,367.815,240.152,355.375,203.712,357.646C171.095,359.679,144.941,381.547,128.596,409.846C112.245,438.155,105.729,472.067,120.896,501.028C137.126,532.018,168.729,553.117,203.712,553.275" fill="rgba(46, 255, 203, 0.24)" class="triangle-float3"></path></g><defs><mask id="SvgjsMask1025"><rect width="1440" height="560" fill="#ffffff"></rect></mask><style>
                @keyframes float1 {
                    0%{transform: translate(0, 0)}
                    50%{transform: translate(-10px, 0)}
                    100%{transform: translate(0, 0)}
                }

                .triangle-float1 {
                    animation: float1 5s infinite;
                }

                @keyframes float2 {
                    0%{transform: translate(0, 0)}
                    50%{transform: translate(-5px, -5px)}
                    100%{transform: translate(0, 0)}
                }

                .triangle-float2 {
                    animation: float2 4s infinite;
                }

                @keyframes float3 {
                    0%{transform: translate(0, 0)}
                    50%{transform: translate(0, -10px)}
                    100%{transform: translate(0, 0)}
                }

                .triangle-float3 {
                    animation: float3 6s infinite;
                }
            </style></defs></svg>