<svg xmlns="http://www.w3.org/2000/svg" version="1.1" xmlns:xlink="http://www.w3.org/1999/xlink" xmlns:svgjs="http://svgjs.dev/svgjs" viewBox="0 0 800 800"><defs><linearGradient x1="50%" y1="0%" x2="50%" y2="100%" id="cccoil-grad"><stop stop-color="hsl(206, 75%, 49%)" stop-opacity="1" offset="0%"></stop><stop stop-color="hsl(331, 90%, 56%)" stop-opacity="1" offset="100%"></stop></linearGradient></defs><g stroke="url(#cccoil-grad)" fill="none" stroke-linecap="round"><circle r="186" cx="400" cy="400" stroke-width="7" stroke-dasharray="0 1169" opacity="0.05"></circle><circle r="170.5" cx="400" cy="400" stroke-width="7" stroke-dasharray="93 1071" transform="rotate(33, 400, 400)" opacity="0.14"></circle><circle r="155" cx="400" cy="400" stroke-width="7" stroke-dasharray="170 974" transform="rotate(65, 400, 400)" opacity="0.22"></circle><circle r="139.5" cx="400" cy="400" stroke-width="7" stroke-dasharray="229 877" transform="rotate(98, 400, 400)" opacity="0.31"></circle><circle r="124" cx="400" cy="400" stroke-width="7" stroke-dasharray="272 779" transform="rotate(131, 400, 400)" opacity="0.40"></circle><circle r="108.5" cx="400" cy="400" stroke-width="7" stroke-dasharray="297 682" transform="rotate(164, 400, 400)" opacity="0.48"></circle><circle r="93" cx="400" cy="400" stroke-width="7" stroke-dasharray="306 584" transform="rotate(196, 400, 400)" opacity="0.57"></circle><circle r="77.5" cx="400" cy="400" stroke-width="7" stroke-dasharray="297 487" transform="rotate(229, 400, 400)" opacity="0.65"></circle><circle r="62" cx="400" cy="400" stroke-width="7" stroke-dasharray="272 390" transform="rotate(262, 400, 400)" opacity="0.74"></circle><circle r="46.5" cx="400" cy="400" stroke-width="7" stroke-dasharray="229 292" transform="rotate(295, 400, 400)" opacity="0.83"></circle><circle r="31" cx="400" cy="400" stroke-width="7" stroke-dasharray="170 195" transform="rotate(327, 400, 400)" opacity="0.91"></circle><circle r="15.5" cx="400" cy="400" stroke-width="7" stroke-dasharray="93 97" transform="rotate(360, 400, 400)" opacity="1.00"></circle></g></svg>