<svg xmlns="http://www.w3.org/2000/svg" version="1.1" xmlns:xlink="http://www.w3.org/1999/xlink" xmlns:svgjs="http://svgjs.dev/svgjs" width="1440" height="450" preserveAspectRatio="none" viewBox="0 0 1440 450"><g mask="url(&quot;#SvgjsMask38863&quot;)" fill="none"><rect width="60" height="60" clip-path="url(&quot;#SvgjsClipPath38864&quot;)" x="880.92" y="257.8" fill="url(&quot;#SvgjsPattern38865&quot;)" transform="rotate(327.91, 910.92, 287.8)"></rect><circle r="37.5" cx="1412.4" cy="393.9" stroke="rgba(192, 193, 255, 1)" stroke-width="2.96"></circle><path d="M718.01 75.7a5.6 5.6 0 1 0-10.8 2.95 5.6 5.6 0 1 0 10.8-2.95zM702.58 79.92a5.6 5.6 0 1 0-10.81 2.96 5.6 5.6 0 1 0 10.81-2.96zM687.14 84.14a5.6 5.6 0 1 0-10.8 2.96 5.6 5.6 0 1 0 10.8-2.96zM671.71 88.37a5.6 5.6 0 1 0-10.8 2.96 5.6 5.6 0 1 0 10.8-2.96z" stroke="rgba(192, 193, 255, 1)" stroke-width="1.18"></path><circle r="37.5" cx="1173.85" cy="244.51" stroke="rgba(160, 163, 252, 1)" stroke-width="1" stroke-dasharray="2, 2"></circle><rect width="164.8" height="164.8" clip-path="url(&quot;#SvgjsClipPath38866&quot;)" x="331.1" y="-71.61" fill="url(&quot;#SvgjsPattern38867&quot;)" transform="rotate(126.53, 413.5, 10.79)"></rect><rect width="87.6" height="87.6" clip-path="url(&quot;#SvgjsClipPath38868&quot;)" x="235.2" y="353.22" fill="url(&quot;#SvgjsPattern38869&quot;)" transform="rotate(120.4, 279, 397.02)"></rect><rect width="108" height="108" clip-path="url(&quot;#SvgjsClipPath38870&quot;)" x="165.78" y="382.76" fill="url(&quot;#SvgjsPattern38871&quot;)" transform="rotate(254.55, 219.78, 436.76)"></rect><path d="M861.86 498.23 L797.77 508.22L853.2820141883902 526.6920141883902z" fill="rgba(192, 193, 255, 1)"></path><path d="M1448.8000000000002 359.72 L1469.97 433.08L1505.062444965427 350.7225550345733z" fill="rgba(160, 163, 252, 1)"></path><rect width="108" height="108" clip-path="url(&quot;#SvgjsClipPath38872&quot;)" x="791.28" y="373.94" fill="url(&quot;#SvgjsPattern38873&quot;)" transform="rotate(256.34, 845.28, 427.94)"></rect><rect width="178.88" height="178.88" clip-path="url(&quot;#SvgjsClipPath38874&quot;)" x="1161.72" y="88.89" fill="url(&quot;#SvgjsPattern38875&quot;)" transform="rotate(35.75, 1251.16, 178.33)"></rect><rect width="127.36" height="127.36" clip-path="url(&quot;#SvgjsClipPath38876&quot;)" x="5.22" y="151.03" fill="url(&quot;#SvgjsPattern38877&quot;)" transform="rotate(229.77, 68.9, 214.71)"></rect><rect width="170.72" height="170.72" clip-path="url(&quot;#SvgjsClipPath38878&quot;)" x="1265.67" y="84.29" fill="url(&quot;#SvgjsPattern38879&quot;)" transform="rotate(259.13, 1351.03, 169.65)"></rect><path d="M84.17 551.0600000000001 L158.69 562.69L75.24935490760488 603.0556450923951z" fill="rgba(160, 163, 252, 1)"></path><rect width="130.6" height="130.6" clip-path="url(&quot;#SvgjsClipPath38880&quot;)" x="1280.06" y="230.71" fill="url(&quot;#SvgjsPattern38881&quot;)" transform="rotate(99.06, 1345.36, 296.01)"></rect></g><defs><mask id="SvgjsMask38863"><rect width="1440" height="450" fill="#ffffff"></rect></mask><pattern x="0" y="0" width="60" height="6" patternUnits="userSpaceOnUse" id="SvgjsPattern38865"><rect width="60" height="3" x="0" y="0" fill="rgba(160, 163, 252, 1)"></rect><rect width="60" height="3" x="0" y="3" fill="rgba(0, 0, 0, 0)"></rect></pattern><clipPath id="SvgjsClipPath38864"><circle r="15" cx="910.92" cy="287.8"></circle></clipPath><pattern x="0" y="0" width="8.24" height="8.24" patternUnits="userSpaceOnUse" id="SvgjsPattern38867"><path d="M0 8.24L4.12 0L8.24 8.24" stroke="rgba(160, 163, 252, 1)" fill="none"></path></pattern><clipPath id="SvgjsClipPath38866"><circle r="41.2" cx="413.5" cy="10.79"></circle></clipPath><pattern x="0" y="0" width="7.3" height="7.3" patternUnits="userSpaceOnUse" id="SvgjsPattern38869"><path d="M3.65 1L3.65 6.3M1 3.65L6.3 3.65" stroke="rgba(187, 255, 228, 1)" fill="none" stroke-width="1"></path></pattern><clipPath id="SvgjsClipPath38868"><circle r="21.9" cx="279" cy="397.02"></circle></clipPath><pattern x="0" y="0" width="6" height="6" patternUnits="userSpaceOnUse" id="SvgjsPattern38871"><path d="M3 1L3 5M1 3L5 3" stroke="rgba(160, 163, 252, 1)" fill="none" stroke-width="1"></path></pattern><clipPath id="SvgjsClipPath38870"><circle r="27" cx="219.78" cy="436.76"></circle></clipPath><pattern x="0" y="0" width="6" height="6" patternUnits="userSpaceOnUse" id="SvgjsPattern38873"><path d="M3 1L3 5M1 3L5 3" stroke="rgba(192, 193, 255, 1)" fill="none" stroke-width="1.43"></path></pattern><clipPath id="SvgjsClipPath38872"><circle r="27" cx="845.28" cy="427.94"></circle></clipPath><pattern x="0" y="0" width="178.88" height="11.18" patternUnits="userSpaceOnUse" id="SvgjsPattern38875"><rect width="178.88" height="5.59" x="0" y="0" fill="rgba(160, 163, 252, 1)"></rect><rect width="178.88" height="5.59" x="0" y="5.59" fill="rgba(0, 0, 0, 0)"></rect></pattern><clipPath id="SvgjsClipPath38874"><circle r="44.72" cx="1251.16" cy="178.33"></circle></clipPath><pattern x="0" y="0" width="7.96" height="7.96" patternUnits="userSpaceOnUse" id="SvgjsPattern38877"><path d="M0 7.96L3.98 0L7.96 7.96" stroke="rgba(192, 193, 255, 1)" fill="none"></path></pattern><clipPath id="SvgjsClipPath38876"><circle r="31.84" cx="68.9" cy="214.71"></circle></clipPath><pattern x="0" y="0" width="7.76" height="7.76" patternUnits="userSpaceOnUse" id="SvgjsPattern38879"><path d="M0 7.76L3.88 0L7.76 7.76" stroke="rgba(160, 163, 252, 1)" fill="none"></path></pattern><clipPath id="SvgjsClipPath38878"><circle r="42.68" cx="1351.03" cy="169.65"></circle></clipPath><pattern x="0" y="0" width="130.6" height="13.06" patternUnits="userSpaceOnUse" id="SvgjsPattern38881"><rect width="130.6" height="6.53" x="0" y="0" fill="rgba(187, 255, 228, 1)"></rect><rect width="130.6" height="6.53" x="0" y="6.53" fill="rgba(0, 0, 0, 0)"></rect></pattern><clipPath id="SvgjsClipPath38880"><circle r="32.65" cx="1345.36" cy="296.01"></circle></clipPath></defs></svg>