<svg xmlns="http://www.w3.org/2000/svg" version="1.1" xmlns:xlink="http://www.w3.org/1999/xlink" xmlns:svgjs="http://svgjs.dev/svgjs" width="1440" height="450" preserveAspectRatio="none" viewBox="0 0 1440 450"><g mask="url(&quot;#SvgjsMask37021&quot;)" fill="none"><circle r="61.90588229504612" cx="1123.16" cy="98.89" fill="rgba(187, 255, 228, 1)"></circle><rect width="300" height="300" clip-path="url(&quot;#SvgjsClipPath37022&quot;)" x="693.87" y="-61.98" fill="url(&quot;#SvgjsPattern37023&quot;)" transform="rotate(247.55, 843.87, 88.02)"></rect><rect width="271.03999999999996" height="271.03999999999996" clip-path="url(&quot;#SvgjsClipPath37024&quot;)" x="708.45" y="-14.41" fill="url(&quot;#SvgjsPattern37025&quot;)" transform="rotate(279.21, 843.97, 121.11)"></rect><rect width="202.56" height="202.56" clip-path="url(&quot;#SvgjsClipPath37026&quot;)" x="1158.94" y="-53.43" fill="url(&quot;#SvgjsPattern37027&quot;)" transform="rotate(258.29, 1260.22, 47.85)"></rect><path d="M243.71 95.43L248.1 107.47 237.32 114.39 241.71 126.42 230.93 133.34 235.32 145.37 224.55 152.29" stroke="rgba(187, 255, 228, 1)" stroke-width="2.21"></path><rect width="150.64" height="150.64" clip-path="url(&quot;#SvgjsClipPath37028&quot;)" x="342.35" y="335.49" fill="url(&quot;#SvgjsPattern37029&quot;)" transform="rotate(46.1, 417.67, 410.81)"></rect><rect width="60" height="60" clip-path="url(&quot;#SvgjsClipPath37030&quot;)" x="39.43" y="75.7" fill="url(&quot;#SvgjsPattern37031&quot;)" transform="rotate(162.17, 69.43, 105.7)"></rect><rect width="60" height="60" clip-path="url(&quot;#SvgjsClipPath37032&quot;)" x="1199.34" y="60.07" fill="url(&quot;#SvgjsPattern37033&quot;)" transform="rotate(275.76, 1229.34, 90.07)"></rect><path d="M778.24 399.4 L693.25 346.49L780.8051210798048 327.8848789201952z" stroke="rgba(160, 163, 252, 1)" stroke-width="1" stroke-dasharray="2, 2"></path><path d="M1127.31 442.84a5.6 5.6 0 1 0-11.12-1.35 5.6 5.6 0 1 0 11.12 1.35zM1111.43 440.91a5.6 5.6 0 1 0-11.12-1.35 5.6 5.6 0 1 0 11.12 1.35zM1095.55 438.98a5.6 5.6 0 1 0-11.12-1.35 5.6 5.6 0 1 0 11.12 1.35zM1079.66 437.05a5.6 5.6 0 1 0-11.12-1.35 5.6 5.6 0 1 0 11.12 1.35zM1161.01 430.82a5.6 5.6 0 1 0-11.12-1.35 5.6 5.6 0 1 0 11.12 1.35zM1145.13 428.89a5.6 5.6 0 1 0-11.12-1.35 5.6 5.6 0 1 0 11.12 1.35zM1129.24 426.96a5.6 5.6 0 1 0-11.12-1.35 5.6 5.6 0 1 0 11.12 1.35zM1113.36 425.03a5.6 5.6 0 1 0-11.12-1.35 5.6 5.6 0 1 0 11.12 1.35zM1194.71 418.8a5.6 5.6 0 1 0-11.12-1.35 5.6 5.6 0 1 0 11.12 1.35zM1178.82 416.87a5.6 5.6 0 1 0-11.12-1.35 5.6 5.6 0 1 0 11.12 1.35zM1162.94 414.94a5.6 5.6 0 1 0-11.12-1.35 5.6 5.6 0 1 0 11.12 1.35zM1147.06 413.01a5.6 5.6 0 1 0-11.12-1.35 5.6 5.6 0 1 0 11.12 1.35z" stroke="rgba(192, 193, 255, 1)" stroke-width="2.16"></path><rect width="264" height="264" clip-path="url(&quot;#SvgjsClipPath37034&quot;)" x="24.1" y="166.38" fill="url(&quot;#SvgjsPattern37035&quot;)" transform="rotate(51.71, 156.1, 298.38)"></rect><rect width="132" height="132" clip-path="url(&quot;#SvgjsClipPath37036&quot;)" x="285.01" y="-48.34" fill="url(&quot;#SvgjsPattern37037&quot;)" transform="rotate(341.32, 351.01, 17.66)"></rect><path d="M1136.2 300.7L1130.57 312.21 1118.12 309.25 1112.49 320.75 1100.03 317.79 1094.41 329.3 1081.95 326.34M1132.78 293.47L1127.16 304.98 1114.7 302.02 1109.07 313.52 1096.61 310.56 1090.99 322.06 1078.53 319.1" stroke="rgba(160, 163, 252, 1)" stroke-width="1.97" stroke-dasharray="2, 2"></path><rect width="300" height="300" clip-path="url(&quot;#SvgjsClipPath37038&quot;)" x="69.72" y="193.81" fill="url(&quot;#SvgjsPattern37039&quot;)" transform="rotate(11.65, 219.72, 343.81)"></rect><rect width="130" height="130" clip-path="url(&quot;#SvgjsClipPath37040&quot;)" x="987.73" y="137.87" fill="url(&quot;#SvgjsPattern37041&quot;)" transform="rotate(110.96, 1052.73, 202.87)"></rect></g><defs><mask id="SvgjsMask37021"><rect width="1440" height="450" fill="#ffffff"></rect></mask><pattern x="0" y="0" width="6" height="6" patternUnits="userSpaceOnUse" id="SvgjsPattern37023"><path d="M0 6L3 0L6 6" stroke="rgba(192, 193, 255, 1)" fill="none"></path></pattern><clipPath id="SvgjsClipPath37022"><circle r="75" cx="843.87" cy="88.02"></circle></clipPath><pattern x="0" y="0" width="9.68" height="9.68" patternUnits="userSpaceOnUse" id="SvgjsPattern37025"><path d="M0 9.68L4.84 0L9.68 9.68" stroke="rgba(192, 193, 255, 1)" fill="none"></path></pattern><clipPath id="SvgjsClipPath37024"><circle r="67.75999999999999" cx="843.97" cy="121.11"></circle></clipPath><pattern x="0" y="0" width="12.66" height="12.66" patternUnits="userSpaceOnUse" id="SvgjsPattern37027"><path d="M0 12.66L6.33 0L12.66 12.66" stroke="rgba(192, 193, 255, 1)" fill="none"></path></pattern><clipPath id="SvgjsClipPath37026"><circle r="50.64" cx="1260.22" cy="47.85"></circle></clipPath><pattern x="0" y="0" width="150.64" height="10.76" patternUnits="userSpaceOnUse" id="SvgjsPattern37029"><rect width="150.64" height="5.38" x="0" y="0" fill="rgba(187, 255, 228, 1)"></rect><rect width="150.64" height="5.38" x="0" y="5.38" fill="rgba(0, 0, 0, 0)"></rect></pattern><clipPath id="SvgjsClipPath37028"><circle r="37.66" cx="417.67" cy="410.81"></circle></clipPath><pattern x="0" y="0" width="6" height="6" patternUnits="userSpaceOnUse" id="SvgjsPattern37031"><path d="M3 1L3 5M1 3L5 3" stroke="rgba(187, 255, 228, 1)" fill="none" stroke-width="1"></path></pattern><clipPath id="SvgjsClipPath37030"><circle r="15" cx="69.43" cy="105.7"></circle></clipPath><pattern x="0" y="0" width="6" height="6" patternUnits="userSpaceOnUse" id="SvgjsPattern37033"><path d="M3 1L3 5M1 3L5 3" stroke="rgba(187, 255, 228, 1)" fill="none" stroke-width="1.99"></path></pattern><clipPath id="SvgjsClipPath37032"><circle r="15" cx="1229.34" cy="90.07"></circle></clipPath><pattern x="0" y="0" width="6" height="6" patternUnits="userSpaceOnUse" id="SvgjsPattern37035"><path d="M0 6L3 0L6 6" stroke="rgba(187, 255, 228, 1)" fill="none"></path></pattern><clipPath id="SvgjsClipPath37034"><circle r="66" cx="156.1" cy="298.38"></circle></clipPath><pattern x="0" y="0" width="6" height="6" patternUnits="userSpaceOnUse" id="SvgjsPattern37037"><path d="M0 6L3 0L6 6" stroke="rgba(160, 163, 252, 1)" fill="none"></path></pattern><clipPath id="SvgjsClipPath37036"><circle r="33" cx="351.01" cy="17.66"></circle></clipPath><pattern x="0" y="0" width="300" height="6" patternUnits="userSpaceOnUse" id="SvgjsPattern37039"><rect width="300" height="3" x="0" y="0" fill="rgba(160, 163, 252, 1)"></rect><rect width="300" height="3" x="0" y="3" fill="rgba(0, 0, 0, 0)"></rect></pattern><clipPath id="SvgjsClipPath37038"><circle r="75" cx="219.72" cy="343.81"></circle></clipPath><pattern x="0" y="0" width="13" height="13" patternUnits="userSpaceOnUse" id="SvgjsPattern37041"><path d="M6.5 1L6.5 12M1 6.5L12 6.5" stroke="rgba(192, 193, 255, 1)" fill="none" stroke-width="3.29"></path></pattern><clipPath id="SvgjsClipPath37040"><circle r="32.5" cx="1052.73" cy="202.87"></circle></clipPath></defs></svg>