<svg xmlns="http://www.w3.org/2000/svg" version="1.1" xmlns:xlink="http://www.w3.org/1999/xlink" xmlns:svgjs="http://svgjs.dev/svgjs" width="1440" height="450" preserveAspectRatio="none" viewBox="0 0 1440 450"><g mask="url(&quot;#SvgjsMask36396&quot;)" fill="none"><path d="M353.51 167.96 L324.45000000000005 171.18L327.76480340682116 158.35480340682116z" fill="rgba(192, 193, 255, 1)"></path><rect width="202.68" height="202.68" clip-path="url(&quot;#SvgjsClipPath36397&quot;)" x="1263.04" y="147.55" fill="url(&quot;#SvgjsPattern36398&quot;)" transform="rotate(203.15, 1364.38, 248.89)"></rect><circle r="64.17878661260859" cx="380.71" cy="39.76" fill="rgba(192, 193, 255, 1)"></circle><path d="M1134.89 3.86a5.6 5.6 0 1 0-5.99 9.46 5.6 5.6 0 1 0 5.99-9.46zM1126.33 17.37a5.6 5.6 0 1 0-6 9.46 5.6 5.6 0 1 0 6-9.46zM1117.76 30.88a5.6 5.6 0 1 0-6 9.46 5.6 5.6 0 1 0 6-9.46zM1109.19 44.39a5.6 5.6 0 1 0-6 9.46 5.6 5.6 0 1 0 6-9.46z" fill="rgba(192, 193, 255, 1)"></path><path d="M131.36 317.17a5.6 5.6 0 1 0 10.06-4.94 5.6 5.6 0 1 0-10.06 4.94zM145.73 310.12a5.6 5.6 0 1 0 10.05-4.94 5.6 5.6 0 1 0-10.05 4.94zM160.09 303.07a5.6 5.6 0 1 0 10.05-4.94 5.6 5.6 0 1 0-10.05 4.94zM174.45 296.02a5.6 5.6 0 1 0 10.06-4.94 5.6 5.6 0 1 0-10.06 4.94z" fill="rgba(160, 163, 252, 1)"></path><rect width="227.92" height="227.92" clip-path="url(&quot;#SvgjsClipPath36399&quot;)" x="560.7" y="270.06" fill="url(&quot;#SvgjsPattern36400&quot;)" transform="rotate(246.15, 674.66, 384.02)"></rect><rect width="288" height="288" clip-path="url(&quot;#SvgjsClipPath36401&quot;)" x="590.74" y="77.47" fill="url(&quot;#SvgjsPattern36402&quot;)" transform="rotate(74.22, 734.74, 221.47)"></rect><path d="M112.08 438.18a5.6 5.6 0 1 0-10.63 3.53 5.6 5.6 0 1 0 10.63-3.53zM96.9 443.23a5.6 5.6 0 1 0-10.63 3.54 5.6 5.6 0 1 0 10.63-3.54zM81.72 448.28a5.6 5.6 0 1 0-10.63 3.54 5.6 5.6 0 1 0 10.63-3.54zM66.53 453.34a5.6 5.6 0 1 0-10.62 3.53 5.6 5.6 0 1 0 10.62-3.53zM137.39 412.89a5.6 5.6 0 1 0-10.63 3.54 5.6 5.6 0 1 0 10.63-3.54zM122.21 417.94a5.6 5.6 0 1 0-10.63 3.54 5.6 5.6 0 1 0 10.63-3.54zM107.02 423a5.6 5.6 0 1 0-10.62 3.53 5.6 5.6 0 1 0 10.62-3.53zM91.84 428.05a5.6 5.6 0 1 0-10.62 3.54 5.6 5.6 0 1 0 10.62-3.54z" fill="rgba(192, 193, 255, 1)"></path><path d="M727.78 53.87L740.43 51.86 745.17 63.76 757.81 61.76 762.55 73.66 775.2 71.65 779.93 83.55M723.83 60.82L736.48 58.82 741.21 70.72 753.86 68.71 758.59 80.61 771.24 78.6 775.97 90.5" stroke="rgba(192, 193, 255, 1)" stroke-width="1" stroke-dasharray="3, 2"></path><rect width="288.64" height="288.64" clip-path="url(&quot;#SvgjsClipPath36403&quot;)" x="303.55" y="261.48" fill="url(&quot;#SvgjsPattern36404&quot;)" transform="rotate(38.82, 447.87, 405.8)"></rect><rect width="242.28000000000003" height="242.28000000000003" clip-path="url(&quot;#SvgjsClipPath36405&quot;)" x="1055.72" y="210.15" fill="url(&quot;#SvgjsPattern36406&quot;)" transform="rotate(353.7, 1176.86, 331.29)"></rect><rect width="251.16" height="251.16" clip-path="url(&quot;#SvgjsClipPath36407&quot;)" x="1071.97" y="309.8" fill="url(&quot;#SvgjsPattern36408&quot;)" transform="rotate(93.09, 1197.55, 435.38)"></rect><path d="M1259.48 208.9a5.6 5.6 0 1 0-4.6-10.22 5.6 5.6 0 1 0 4.6 10.22zM1252.91 194.31a5.6 5.6 0 1 0-4.59-10.22 5.6 5.6 0 1 0 4.59 10.22zM1246.35 179.71a5.6 5.6 0 1 0-4.59-10.21 5.6 5.6 0 1 0 4.59 10.21zM1239.79 165.12a5.6 5.6 0 1 0-4.6-10.21 5.6 5.6 0 1 0 4.6 10.21z" fill="rgba(160, 163, 252, 1)"></path><rect width="267.52" height="267.52" clip-path="url(&quot;#SvgjsClipPath36409&quot;)" x="263.08" y="248.91" fill="url(&quot;#SvgjsPattern36410&quot;)" transform="rotate(140.13, 396.84, 382.67)"></rect><rect width="156.8" height="156.8" clip-path="url(&quot;#SvgjsClipPath36411&quot;)" x="173" y="58.32" fill="url(&quot;#SvgjsPattern36412&quot;)" transform="rotate(259.74, 251.4, 136.72)"></rect></g><defs><mask id="SvgjsMask36396"><rect width="1440" height="450" fill="#ffffff"></rect></mask><pattern x="0" y="0" width="202.68" height="11.26" patternUnits="userSpaceOnUse" id="SvgjsPattern36398"><rect width="202.68" height="5.63" x="0" y="0" fill="rgba(187, 255, 228, 1)"></rect><rect width="202.68" height="5.63" x="0" y="5.63" fill="rgba(0, 0, 0, 0)"></rect></pattern><clipPath id="SvgjsClipPath36397"><circle r="50.67" cx="1364.38" cy="248.89"></circle></clipPath><pattern x="0" y="0" width="10.36" height="10.36" patternUnits="userSpaceOnUse" id="SvgjsPattern36400"><path d="M0 10.36L5.18 0L10.36 10.36" stroke="rgba(160, 163, 252, 1)" fill="none"></path></pattern><clipPath id="SvgjsClipPath36399"><circle r="56.98" cx="674.66" cy="384.02"></circle></clipPath><pattern x="0" y="0" width="6" height="6" patternUnits="userSpaceOnUse" id="SvgjsPattern36402"><path d="M3 1L3 5M1 3L5 3" stroke="rgba(160, 163, 252, 1)" fill="none" stroke-width="1.53"></path></pattern><clipPath id="SvgjsClipPath36401"><circle r="72" cx="734.74" cy="221.47"></circle></clipPath><pattern x="0" y="0" width="288.64" height="13.12" patternUnits="userSpaceOnUse" id="SvgjsPattern36404"><rect width="288.64" height="6.56" x="0" y="0" fill="rgba(192, 193, 255, 1)"></rect><rect width="288.64" height="6.56" x="0" y="6.56" fill="rgba(0, 0, 0, 0)"></rect></pattern><clipPath id="SvgjsClipPath36403"><circle r="72.16" cx="447.87" cy="405.8"></circle></clipPath><pattern x="0" y="0" width="13.46" height="13.46" patternUnits="userSpaceOnUse" id="SvgjsPattern36406"><path d="M0 13.46L6.73 0L13.46 13.46" stroke="rgba(187, 255, 228, 1)" fill="none"></path></pattern><clipPath id="SvgjsClipPath36405"><circle r="60.57000000000001" cx="1176.86" cy="331.29"></circle></clipPath><pattern x="0" y="0" width="9.66" height="9.66" patternUnits="userSpaceOnUse" id="SvgjsPattern36408"><path d="M4.83 1L4.83 8.66M1 4.83L8.66 4.83" stroke="rgba(192, 193, 255, 1)" fill="none" stroke-width="1.13"></path></pattern><clipPath id="SvgjsClipPath36407"><circle r="62.79" cx="1197.55" cy="435.38"></circle></clipPath><pattern x="0" y="0" width="6.08" height="6.08" patternUnits="userSpaceOnUse" id="SvgjsPattern36410"><path d="M3.04 1L3.04 5.08M1 3.04L5.08 3.04" stroke="rgba(187, 255, 228, 1)" fill="none" stroke-width="1"></path></pattern><clipPath id="SvgjsClipPath36409"><circle r="66.88" cx="396.84" cy="382.67"></circle></clipPath><pattern x="0" y="0" width="9.8" height="9.8" patternUnits="userSpaceOnUse" id="SvgjsPattern36412"><path d="M0 9.8L4.9 0L9.8 9.8" stroke="rgba(187, 255, 228, 1)" fill="none"></path></pattern><clipPath id="SvgjsClipPath36411"><circle r="39.2" cx="251.4" cy="136.72"></circle></clipPath></defs></svg>