<svg xmlns="http://www.w3.org/2000/svg" version="1.1" xmlns:xlink="http://www.w3.org/1999/xlink" xmlns:svgjs="http://svgjs.dev/svgjs" width="1440" height="450" preserveAspectRatio="none" viewBox="0 0 1440 450"><g mask="url(&quot;#SvgjsMask37921&quot;)" fill="none"><path d="M209.55 25.71a5.6 5.6 0 1 0 6.02 9.44 5.6 5.6 0 1 0-6.02-9.44zM218.16 39.19a5.6 5.6 0 1 0 6.02 9.44 5.6 5.6 0 1 0-6.02-9.44zM226.77 52.68a5.6 5.6 0 1 0 6.02 9.44 5.6 5.6 0 1 0-6.02-9.44zM235.38 66.16a5.6 5.6 0 1 0 6.03 9.44 5.6 5.6 0 1 0-6.03-9.44zM178.84 7.35a5.6 5.6 0 1 0 6.03 9.44 5.6 5.6 0 1 0-6.03-9.44zM187.45 20.83a5.6 5.6 0 1 0 6.03 9.44 5.6 5.6 0 1 0-6.03-9.44zM196.06 34.32a5.6 5.6 0 1 0 6.03 9.44 5.6 5.6 0 1 0-6.03-9.44zM204.67 47.8a5.6 5.6 0 1 0 6.03 9.44 5.6 5.6 0 1 0-6.03-9.44zM148.13-11.01a5.6 5.6 0 1 0 6.03 9.44 5.6 5.6 0 1 0-6.03-9.44zM156.74 2.47a5.6 5.6 0 1 0 6.03 9.44 5.6 5.6 0 1 0-6.03-9.44zM165.35 15.96a5.6 5.6 0 1 0 6.03 9.44 5.6 5.6 0 1 0-6.03-9.44zM173.96 29.44a5.6 5.6 0 1 0 6.03 9.44 5.6 5.6 0 1 0-6.03-9.44z" stroke="rgba(192, 193, 255, 1)" stroke-width="1.33" stroke-dasharray="2, 2"></path><rect width="156" height="156" clip-path="url(&quot;#SvgjsClipPath37922&quot;)" x="1073.03" y="105.95" fill="url(&quot;#SvgjsPattern37923&quot;)" transform="rotate(4.15, 1151.03, 183.95)"></rect><path d="M1089.21 226.95a5.6 5.6 0 1 0-11.07 1.75 5.6 5.6 0 1 0 11.07-1.75zM1073.4 229.44a5.6 5.6 0 1 0-11.06 1.75 5.6 5.6 0 1 0 11.06-1.75zM1057.6 231.93a5.6 5.6 0 1 0-11.07 1.74 5.6 5.6 0 1 0 11.07-1.74zM1041.79 234.42a5.6 5.6 0 1 0-11.06 1.74 5.6 5.6 0 1 0 11.06-1.74z" stroke="rgba(160, 163, 252, 1)" stroke-width="1.81" stroke-dasharray="4, 4"></path><path d="M971.96 303.74 L893.1 360.35L972.4400405089817 371.9550405089818z" stroke="rgba(192, 193, 255, 1)" stroke-width="2.53"></path><rect width="144" height="144" clip-path="url(&quot;#SvgjsClipPath37924&quot;)" x="1327.12" y="95.55" fill="url(&quot;#SvgjsPattern37925&quot;)" transform="rotate(0.28, 1399.12, 167.55)"></rect><path d="M495.05 403.73a5.6 5.6 0 1 0-8.53 7.27 5.6 5.6 0 1 0 8.53-7.27zM482.87 414.11a5.6 5.6 0 1 0-8.53 7.26 5.6 5.6 0 1 0 8.53-7.26zM470.69 424.48a5.6 5.6 0 1 0-8.53 7.27 5.6 5.6 0 1 0 8.53-7.27zM458.51 434.86a5.6 5.6 0 1 0-8.53 7.26 5.6 5.6 0 1 0 8.53-7.26zM509.03 370.8a5.6 5.6 0 1 0-8.53 7.26 5.6 5.6 0 1 0 8.53-7.26zM496.85 381.18a5.6 5.6 0 1 0-8.53 7.26 5.6 5.6 0 1 0 8.53-7.26zM484.67 391.55a5.6 5.6 0 1 0-8.53 7.27 5.6 5.6 0 1 0 8.53-7.27zM472.49 401.93a5.6 5.6 0 1 0-8.52 7.26 5.6 5.6 0 1 0 8.52-7.26zM523.01 337.87a5.6 5.6 0 1 0-8.52 7.26 5.6 5.6 0 1 0 8.52-7.26zM510.83 348.24a5.6 5.6 0 1 0-8.52 7.27 5.6 5.6 0 1 0 8.52-7.27zM498.65 358.62a5.6 5.6 0 1 0-8.52 7.26 5.6 5.6 0 1 0 8.52-7.26zM486.47 369a5.6 5.6 0 1 0-8.52 7.26 5.6 5.6 0 1 0 8.52-7.26z" fill="rgba(160, 163, 252, 1)"></path><path d="M110.48 401.48L117.53 412.17 108.64 421.4 115.69 432.09 106.81 441.31 113.86 452 104.98 461.23" stroke="rgba(192, 193, 255, 1)" stroke-width="2.14" stroke-dasharray="3, 3"></path><rect width="252.39999999999998" height="252.39999999999998" clip-path="url(&quot;#SvgjsClipPath37926&quot;)" x="417.61" y="250.58" fill="url(&quot;#SvgjsPattern37927&quot;)" transform="rotate(68.96, 543.81, 376.78)"></rect><rect width="130.8" height="130.8" clip-path="url(&quot;#SvgjsClipPath37928&quot;)" x="-32.06" y="62.41" fill="url(&quot;#SvgjsPattern37929&quot;)" transform="rotate(74.58, 33.34, 127.81)"></rect><path d="M1223.27 82.63L1211.37 77.89 1213.39 65.25 1201.49 60.51 1203.5 47.86 1191.6 43.12 1193.62 30.47M1230.23 78.68L1218.33 73.94 1220.34 61.29 1208.44 56.55 1210.46 43.9 1198.56 39.17 1200.57 26.52" stroke="rgba(187, 255, 228, 1)" stroke-width="1" stroke-dasharray="3, 3"></path><path d="M731.12 257.22 L779.3100000000001 254.82L734.5466887288687 235.35168872886868z" fill="rgba(187, 255, 228, 1)"></path><rect width="109" height="109" clip-path="url(&quot;#SvgjsClipPath37930&quot;)" x="969.39" y="309.03" fill="url(&quot;#SvgjsPattern37931&quot;)" transform="rotate(154.55, 1023.89, 363.53)"></rect><rect width="252" height="252" clip-path="url(&quot;#SvgjsClipPath37932&quot;)" x="-14.28" y="-112.27" fill="url(&quot;#SvgjsPattern37933&quot;)" transform="rotate(180.97, 111.72, 13.73)"></rect><path d="M1014.09 501.30999999999995 L1030.74 387.54999999999995L1099.3937032254657 521.4087032254657z" stroke="rgba(160, 163, 252, 1)" stroke-width="1"></path><rect width="277.64" height="277.64" clip-path="url(&quot;#SvgjsClipPath37934&quot;)" x="129.65" y="212.36" fill="url(&quot;#SvgjsPattern37935&quot;)" transform="rotate(111.83, 268.47, 351.18)"></rect></g><defs><mask id="SvgjsMask37921"><rect width="1440" height="450" fill="#ffffff"></rect></mask><pattern x="0" y="0" width="6" height="6" patternUnits="userSpaceOnUse" id="SvgjsPattern37923"><path d="M0 6L3 0L6 6" stroke="rgba(192, 193, 255, 1)" fill="none"></path></pattern><clipPath id="SvgjsClipPath37922"><circle r="39" cx="1151.03" cy="183.95"></circle></clipPath><pattern x="0" y="0" width="6" height="6" patternUnits="userSpaceOnUse" id="SvgjsPattern37925"><path d="M0 6L3 0L6 6" stroke="rgba(192, 193, 255, 1)" fill="none"></path></pattern><clipPath id="SvgjsClipPath37924"><circle r="36" cx="1399.12" cy="167.55"></circle></clipPath><pattern x="0" y="0" width="12.62" height="12.62" patternUnits="userSpaceOnUse" id="SvgjsPattern37927"><path d="M0 12.62L6.31 0L12.62 12.62" stroke="rgba(160, 163, 252, 1)" fill="none"></path></pattern><clipPath id="SvgjsClipPath37926"><circle r="63.099999999999994" cx="543.81" cy="376.78"></circle></clipPath><pattern x="0" y="0" width="130.8" height="13.08" patternUnits="userSpaceOnUse" id="SvgjsPattern37929"><rect width="130.8" height="6.54" x="0" y="0" fill="rgba(187, 255, 228, 1)"></rect><rect width="130.8" height="6.54" x="0" y="6.54" fill="rgba(0, 0, 0, 0)"></rect></pattern><clipPath id="SvgjsClipPath37928"><circle r="32.7" cx="33.34" cy="127.81"></circle></clipPath><pattern x="0" y="0" width="10.9" height="10.9" patternUnits="userSpaceOnUse" id="SvgjsPattern37931"><path d="M5.45 1L5.45 9.9M1 5.45L9.9 5.45" stroke="rgba(187, 255, 228, 1)" fill="none" stroke-width="2.22"></path></pattern><clipPath id="SvgjsClipPath37930"><circle r="27.25" cx="1023.89" cy="363.53"></circle></clipPath><pattern x="0" y="0" width="252" height="6" patternUnits="userSpaceOnUse" id="SvgjsPattern37933"><rect width="252" height="3" x="0" y="0" fill="rgba(187, 255, 228, 1)"></rect><rect width="252" height="3" x="0" y="3" fill="rgba(0, 0, 0, 0)"></rect></pattern><clipPath id="SvgjsClipPath37932"><circle r="63" cx="111.72" cy="13.73"></circle></clipPath><pattern x="0" y="0" width="12.62" height="12.62" patternUnits="userSpaceOnUse" id="SvgjsPattern37935"><path d="M0 12.62L6.31 0L12.62 12.62" stroke="rgba(160, 163, 252, 1)" fill="none"></path></pattern><clipPath id="SvgjsClipPath37934"><circle r="69.41" cx="268.47" cy="351.18"></circle></clipPath></defs></svg>