<svg xmlns="http://www.w3.org/2000/svg" version="1.1" xmlns:xlink="http://www.w3.org/1999/xlink" xmlns:svgjs="http://svgjs.dev/svgjs" width="1440" height="450" preserveAspectRatio="none" viewBox="0 0 1440 450"><g mask="url(&quot;#SvgjsMask38304&quot;)" fill="none"><circle r="67.27042865320833" cx="1133.28" cy="117.79" fill="rgba(192, 193, 255, 1)"></circle><path d="M314.57 429.88L325.13 437.13 320.38 449.02 330.94 456.27 326.18 468.16 336.74 475.41 331.99 487.3" stroke="rgba(187, 255, 228, 1)" stroke-width="1" stroke-dasharray="3, 2"></path><circle r="37.935425388361374" cx="67.94" cy="437.9" fill="rgba(187, 255, 228, 1)"></circle><rect width="68.8" height="68.8" clip-path="url(&quot;#SvgjsClipPath38305&quot;)" x="1191.02" y="331.9" fill="url(&quot;#SvgjsPattern38306&quot;)" transform="rotate(320.16, 1225.42, 366.3)"></rect><circle r="66.70294815879949" cx="794.54" cy="175.21" stroke="rgba(192, 193, 255, 1)" stroke-width="2.2" stroke-dasharray="3, 2"></circle><path d="M0 0 " fill="rgba(160, 163, 252, 1)"></path><rect width="119.8" height="119.8" clip-path="url(&quot;#SvgjsClipPath38307&quot;)" x="725.99" y="168.22" fill="url(&quot;#SvgjsPattern38308&quot;)" transform="rotate(348.03, 785.89, 228.12)"></rect><path d="M633.08 143.08L620.58 140.33 620.52 127.52 608.01 124.77 607.95 111.97 595.44 109.21 595.38 96.41" stroke="rgba(192, 193, 255, 1)" stroke-width="1.73"></path><path d="M774.28 175.69L783.93 167.27 794.26 174.83 803.91 166.41 814.24 173.98 823.89 165.55 834.22 173.12M774.62 183.69L784.27 175.26 794.6 182.83 804.25 174.41 814.59 181.97 824.23 173.55 834.57 181.11M774.97 191.68L784.61 183.26 794.95 190.82 804.59 182.4 814.93 189.96 824.58 181.54 834.91 189.1" stroke="rgba(160, 163, 252, 1)" stroke-width="2.96" stroke-dasharray="4, 4"></path><circle r="52.38786014054298" cx="214.77" cy="46.54" fill="rgba(187, 255, 228, 1)"></circle><rect width="129.6" height="129.6" clip-path="url(&quot;#SvgjsClipPath38309&quot;)" x="-34.54" y="201.75" fill="url(&quot;#SvgjsPattern38310&quot;)" transform="rotate(42.33, 30.26, 266.55)"></rect><rect width="60" height="60" clip-path="url(&quot;#SvgjsClipPath38311&quot;)" x="645" y="295.38" fill="url(&quot;#SvgjsPattern38312&quot;)" transform="rotate(218.01, 675, 325.38)"></rect><rect width="192" height="192" clip-path="url(&quot;#SvgjsClipPath38313&quot;)" x="1138.4" y="75.16" fill="url(&quot;#SvgjsPattern38314&quot;)" transform="rotate(33.1, 1234.4, 171.16)"></rect><path d="M1302.96 197.37a5.6 5.6 0 1 0-4.05 10.44 5.6 5.6 0 1 0 4.05-10.44zM1297.17 212.29a5.6 5.6 0 1 0-4.05 10.44 5.6 5.6 0 1 0 4.05-10.44zM1291.39 227.2a5.6 5.6 0 1 0-4.05 10.45 5.6 5.6 0 1 0 4.05-10.45zM1285.6 242.12a5.6 5.6 0 1 0-4.05 10.44 5.6 5.6 0 1 0 4.05-10.44zM1299.61 161.75a5.6 5.6 0 1 0-4.05 10.44 5.6 5.6 0 1 0 4.05-10.44zM1293.83 176.67a5.6 5.6 0 1 0-4.05 10.44 5.6 5.6 0 1 0 4.05-10.44zM1288.04 191.58a5.6 5.6 0 1 0-4.05 10.45 5.6 5.6 0 1 0 4.05-10.45zM1282.26 206.5a5.6 5.6 0 1 0-4.05 10.44 5.6 5.6 0 1 0 4.05-10.44z" fill="rgba(160, 163, 252, 1)"></path><rect width="216" height="216" clip-path="url(&quot;#SvgjsClipPath38315&quot;)" x="447.73" y="-40.89" fill="url(&quot;#SvgjsPattern38316&quot;)" transform="rotate(274.08, 555.73, 67.11)"></rect></g><defs><mask id="SvgjsMask38304"><rect width="1440" height="450" fill="#ffffff"></rect></mask><pattern x="0" y="0" width="68.8" height="6.88" patternUnits="userSpaceOnUse" id="SvgjsPattern38306"><rect width="68.8" height="3.44" x="0" y="0" fill="rgba(192, 193, 255, 1)"></rect><rect width="68.8" height="3.44" x="0" y="3.44" fill="rgba(0, 0, 0, 0)"></rect></pattern><clipPath id="SvgjsClipPath38305"><circle r="17.2" cx="1225.42" cy="366.3"></circle></clipPath><pattern x="0" y="0" width="119.8" height="11.98" patternUnits="userSpaceOnUse" id="SvgjsPattern38308"><rect width="119.8" height="5.99" x="0" y="0" fill="rgba(187, 255, 228, 1)"></rect><rect width="119.8" height="5.99" x="0" y="5.99" fill="rgba(0, 0, 0, 0)"></rect></pattern><clipPath id="SvgjsClipPath38307"><circle r="29.95" cx="785.89" cy="228.12"></circle></clipPath><pattern x="0" y="0" width="6.48" height="6.48" patternUnits="userSpaceOnUse" id="SvgjsPattern38310"><path d="M3.24 1L3.24 5.48M1 3.24L5.48 3.24" stroke="rgba(187, 255, 228, 1)" fill="none" stroke-width="1.24"></path></pattern><clipPath id="SvgjsClipPath38309"><circle r="32.4" cx="30.26" cy="266.55"></circle></clipPath><pattern x="0" y="0" width="60" height="6" patternUnits="userSpaceOnUse" id="SvgjsPattern38312"><rect width="60" height="3" x="0" y="0" fill="rgba(192, 193, 255, 1)"></rect><rect width="60" height="3" x="0" y="3" fill="rgba(0, 0, 0, 0)"></rect></pattern><clipPath id="SvgjsClipPath38311"><circle r="15" cx="675" cy="325.38"></circle></clipPath><pattern x="0" y="0" width="6" height="6" patternUnits="userSpaceOnUse" id="SvgjsPattern38314"><path d="M0 6L3 0L6 6" stroke="rgba(160, 163, 252, 1)" fill="none"></path></pattern><clipPath id="SvgjsClipPath38313"><circle r="48" cx="1234.4" cy="171.16"></circle></clipPath><pattern x="0" y="0" width="6" height="6" patternUnits="userSpaceOnUse" id="SvgjsPattern38316"><path d="M3 1L3 5M1 3L5 3" stroke="rgba(192, 193, 255, 1)" fill="none" stroke-width="1.56"></path></pattern><clipPath id="SvgjsClipPath38315"><circle r="54" cx="555.73" cy="67.11"></circle></clipPath></defs></svg>