<svg xmlns="http://www.w3.org/2000/svg" version="1.1" xmlns:xlink="http://www.w3.org/1999/xlink" xmlns:svgjs="http://svgjs.dev/svgjs" width="1440" height="450" preserveAspectRatio="none" viewBox="0 0 1440 450"><g mask="url(&quot;#SvgjsMask23396&quot;)" fill="none"><rect width="192" height="192" clip-path="url(&quot;#SvgjsClipPath23397&quot;)" x="1311.1" y="135.91" fill="url(&quot;#SvgjsPattern23398&quot;)" transform="rotate(246.75, 1407.1, 231.91)"></rect><circle r="37.5" cx="31.03" cy="157.21" fill="rgba(192, 193, 255, 1)"></circle><circle r="37.5" cx="64.73" cy="269.38" fill="rgba(187, 255, 228, 1)"></circle><rect width="117.2" height="117.2" clip-path="url(&quot;#SvgjsClipPath23399&quot;)" x="290.85" y="282.25" fill="url(&quot;#SvgjsPattern23400&quot;)" transform="rotate(195.84, 349.45, 340.85)"></rect><rect width="131" height="131" clip-path="url(&quot;#SvgjsClipPath23401&quot;)" x="103.74" y="117.95" fill="url(&quot;#SvgjsPattern23402&quot;)" transform="rotate(9.9, 169.24, 183.45)"></rect><rect width="121.6" height="121.6" clip-path="url(&quot;#SvgjsClipPath23403&quot;)" x="632.68" y="50.29" fill="url(&quot;#SvgjsPattern23404&quot;)" transform="rotate(40.51, 693.48, 111.09)"></rect><rect width="99.2" height="99.2" clip-path="url(&quot;#SvgjsClipPath23405&quot;)" x="755.86" y="33.69" fill="url(&quot;#SvgjsPattern23406&quot;)" transform="rotate(21.21, 805.46, 83.29)"></rect><path d="M451.58000000000004 210.29000000000002 L446.78000000000003 129.98000000000002L397.007793442218 222.30720655778214z" stroke="rgba(192, 193, 255, 1)" stroke-width="1.34"></path><path d="M133.08 241.59a5.6 5.6 0 1 0-1.09 11.15 5.6 5.6 0 1 0 1.09-11.15zM131.51 257.51a5.6 5.6 0 1 0-1.09 11.15 5.6 5.6 0 1 0 1.09-11.15zM129.94 273.43a5.6 5.6 0 1 0-1.09 11.15 5.6 5.6 0 1 0 1.09-11.15zM128.38 289.36a5.6 5.6 0 1 0-1.1 11.14 5.6 5.6 0 1 0 1.1-11.14zM120.3 208.17a5.6 5.6 0 1 0-1.1 11.15 5.6 5.6 0 1 0 1.1-11.15zM118.73 224.1a5.6 5.6 0 1 0-1.1 11.14 5.6 5.6 0 1 0 1.1-11.14zM117.16 240.02a5.6 5.6 0 1 0-1.1 11.15 5.6 5.6 0 1 0 1.1-11.15zM115.59 255.94a5.6 5.6 0 1 0-1.1 11.15 5.6 5.6 0 1 0 1.1-11.15z" fill="rgba(187, 255, 228, 1)"></path><rect width="264" height="264" clip-path="url(&quot;#SvgjsClipPath23407&quot;)" x="1200" y="305.18" fill="url(&quot;#SvgjsPattern23408&quot;)" transform="rotate(344.13, 1332, 437.18)"></rect><rect width="60" height="60" clip-path="url(&quot;#SvgjsClipPath23409&quot;)" x="1019.89" y="208.26" fill="url(&quot;#SvgjsPattern23410&quot;)" transform="rotate(290.29, 1049.89, 238.26)"></rect><path d="M1034.96 176.86L1024.21 169.91 1028.64 157.89 1017.89 150.93 1022.32 138.91 1011.57 131.96 1016 119.94" stroke="rgba(160, 163, 252, 1)" stroke-width="2.92" stroke-dasharray="2, 2"></path><circle r="37.5" cx="938.41" cy="208.62" stroke="rgba(187, 255, 228, 1)" stroke-width="1" stroke-dasharray="2, 2"></circle><rect width="246" height="246" clip-path="url(&quot;#SvgjsClipPath23411&quot;)" x="765.07" y="65.43" fill="url(&quot;#SvgjsPattern23412&quot;)" transform="rotate(142.33, 888.07, 188.43)"></rect><rect width="128" height="128" clip-path="url(&quot;#SvgjsClipPath23413&quot;)" x="831.16" y="341.82" fill="url(&quot;#SvgjsPattern23414&quot;)" transform="rotate(124.97, 895.16, 405.82)"></rect></g><defs><mask id="SvgjsMask23396"><rect width="1440" height="450" fill="#ffffff"></rect></mask><pattern x="0" y="0" width="192" height="6" patternUnits="userSpaceOnUse" id="SvgjsPattern23398"><rect width="192" height="3" x="0" y="0" fill="rgba(187, 255, 228, 1)"></rect><rect width="192" height="3" x="0" y="3" fill="rgba(0, 0, 0, 0)"></rect></pattern><clipPath id="SvgjsClipPath23397"><circle r="48" cx="1407.1" cy="231.91"></circle></clipPath><pattern x="0" y="0" width="11.72" height="11.72" patternUnits="userSpaceOnUse" id="SvgjsPattern23400"><path d="M0 11.72L5.86 0L11.72 11.72" stroke="rgba(187, 255, 228, 1)" fill="none"></path></pattern><clipPath id="SvgjsClipPath23399"><circle r="29.3" cx="349.45" cy="340.85"></circle></clipPath><pattern x="0" y="0" width="13.1" height="13.1" patternUnits="userSpaceOnUse" id="SvgjsPattern23402"><path d="M6.55 1L6.55 12.1M1 6.55L12.1 6.55" stroke="rgba(192, 193, 255, 1)" fill="none" stroke-width="2.82"></path></pattern><clipPath id="SvgjsClipPath23401"><circle r="32.75" cx="169.24" cy="183.45"></circle></clipPath><pattern x="0" y="0" width="12.16" height="12.16" patternUnits="userSpaceOnUse" id="SvgjsPattern23404"><path d="M0 12.16L6.08 0L12.16 12.16" stroke="rgba(160, 163, 252, 1)" fill="none"></path></pattern><clipPath id="SvgjsClipPath23403"><circle r="30.4" cx="693.48" cy="111.09"></circle></clipPath><pattern x="0" y="0" width="9.92" height="9.92" patternUnits="userSpaceOnUse" id="SvgjsPattern23406"><path d="M0 9.92L4.96 0L9.92 9.92" stroke="rgba(192, 193, 255, 1)" fill="none"></path></pattern><clipPath id="SvgjsClipPath23405"><circle r="24.8" cx="805.46" cy="83.29"></circle></clipPath><pattern x="0" y="0" width="264" height="6" patternUnits="userSpaceOnUse" id="SvgjsPattern23408"><rect width="264" height="3" x="0" y="0" fill="rgba(160, 163, 252, 1)"></rect><rect width="264" height="3" x="0" y="3" fill="rgba(0, 0, 0, 0)"></rect></pattern><clipPath id="SvgjsClipPath23407"><circle r="66" cx="1332" cy="437.18"></circle></clipPath><pattern x="0" y="0" width="6" height="6" patternUnits="userSpaceOnUse" id="SvgjsPattern23410"><path d="M0 6L3 0L6 6" stroke="rgba(187, 255, 228, 1)" fill="none"></path></pattern><clipPath id="SvgjsClipPath23409"><circle r="15" cx="1049.89" cy="238.26"></circle></clipPath><pattern x="0" y="0" width="8.2" height="8.2" patternUnits="userSpaceOnUse" id="SvgjsPattern23412"><path d="M4.1 1L4.1 7.199999999999999M1 4.1L7.199999999999999 4.1" stroke="rgba(160, 163, 252, 1)" fill="none" stroke-width="2.29"></path></pattern><clipPath id="SvgjsClipPath23411"><circle r="61.5" cx="888.07" cy="188.43"></circle></clipPath><pattern x="0" y="0" width="12.8" height="12.8" patternUnits="userSpaceOnUse" id="SvgjsPattern23414"><path d="M0 12.8L6.4 0L12.8 12.8" stroke="rgba(160, 163, 252, 1)" fill="none"></path></pattern><clipPath id="SvgjsClipPath23413"><circle r="32" cx="895.16" cy="405.82"></circle></clipPath></defs></svg>