<svg xmlns="http://www.w3.org/2000/svg" version="1.1" xmlns:xlink="http://www.w3.org/1999/xlink" xmlns:svgjs="http://svgjs.dev/svgjs" width="1440" height="400" preserveAspectRatio="none" viewBox="0 0 1440 400"><g mask="url(&quot;#SvgjsMask12947&quot;)" fill="none"><path d="M369.15 75.62 L309.84 64.6L308.10412460370054 101.50087539629943z" stroke="rgba(192, 193, 255, 1)" stroke-width="2.01" stroke-dasharray="2, 2"></path><path d="M1250.73 158.57L1254.42 146.31 1267.2 147.22 1270.89 134.95 1283.66 135.86 1287.35 123.6 1300.13 124.51" stroke="rgba(192, 193, 255, 1)" stroke-width="2.06"></path><path d="M261.89 285.25L250.86 291.75 242.09 282.41 231.06 288.92 222.3 279.58 211.26 286.09 202.5 276.75M263.03 277.33L251.99 283.83 243.23 274.49 232.2 281 223.43 271.66 212.4 278.17 203.63 268.83" stroke="rgba(192, 193, 255, 1)" stroke-width="1.65" stroke-dasharray="3, 2"></path><path d="M936.5 238.69 L844.02 232.51999999999998L852.1246362056363 273.7403637943637z" fill="rgba(160, 163, 252, 1)"></path><rect width="173.16" height="173.16" clip-path="url(&quot;#SvgjsClipPath12948&quot;)" x="892.89" y="23.71" fill="url(&quot;#SvgjsPattern12949&quot;)" transform="rotate(115.22, 979.47, 110.29)"></rect><path d="M580.39 238.38L574.91 249.95 562.42 247.14 556.94 258.72 544.44 255.91 538.96 267.48 526.46 264.68M576.89 231.19L571.4 242.76 558.91 239.95 553.43 251.53 540.93 248.72 535.45 260.29 522.96 257.49" stroke="rgba(160, 163, 252, 1)" stroke-width="1" stroke-dasharray="3, 2"></path><rect width="136.2" height="136.2" clip-path="url(&quot;#SvgjsClipPath12950&quot;)" x="257.61" y="191.07" fill="url(&quot;#SvgjsPattern12951&quot;)" transform="rotate(157.46, 325.71, 259.17)"></rect><path d="M1310.32 310.57a5.6 5.6 0 1 0 3.36 10.69 5.6 5.6 0 1 0-3.36-10.69zM1315.12 325.83a5.6 5.6 0 1 0 3.37 10.69 5.6 5.6 0 1 0-3.37-10.69zM1319.93 341.09a5.6 5.6 0 1 0 3.37 10.69 5.6 5.6 0 1 0-3.37-10.69zM1324.74 356.35a5.6 5.6 0 1 0 3.37 10.69 5.6 5.6 0 1 0-3.37-10.69z" stroke="rgba(160, 163, 252, 1)" stroke-width="2.23" stroke-dasharray="3, 3"></path><rect width="216" height="216" clip-path="url(&quot;#SvgjsClipPath12952&quot;)" x="111.9" y="11.17" fill="url(&quot;#SvgjsPattern12953&quot;)" transform="rotate(96.74, 219.9, 119.17)"></rect><rect width="163.2" height="163.2" clip-path="url(&quot;#SvgjsClipPath12954&quot;)" x="585.44" y="-20.25" fill="url(&quot;#SvgjsPattern12955&quot;)" transform="rotate(55.64, 667.04, 61.35)"></rect><rect width="264" height="264" clip-path="url(&quot;#SvgjsClipPath12956&quot;)" x="915.07" y="226.37" fill="url(&quot;#SvgjsPattern12957&quot;)" transform="rotate(0.17, 1047.07, 358.37)"></rect><rect width="115.39999999999999" height="115.39999999999999" clip-path="url(&quot;#SvgjsClipPath12958&quot;)" x="1051.67" y="-7.21" fill="url(&quot;#SvgjsPattern12959&quot;)" transform="rotate(185.75, 1109.37, 50.49)"></rect><path d="M956.74 195.75a5.6 5.6 0 1 0-7.28 8.51 5.6 5.6 0 1 0 7.28-8.51zM946.34 207.91a5.6 5.6 0 1 0-7.29 8.5 5.6 5.6 0 1 0 7.29-8.5zM935.93 220.06a5.6 5.6 0 1 0-7.28 8.51 5.6 5.6 0 1 0 7.28-8.51zM925.53 232.21a5.6 5.6 0 1 0-7.29 8.51 5.6 5.6 0 1 0 7.29-8.51zM965.4 161.04a5.6 5.6 0 1 0-7.28 8.51 5.6 5.6 0 1 0 7.28-8.51zM955 173.19a5.6 5.6 0 1 0-7.29 8.51 5.6 5.6 0 1 0 7.29-8.51zM944.59 185.35a5.6 5.6 0 1 0-7.28 8.5 5.6 5.6 0 1 0 7.28-8.5zM934.18 197.5a5.6 5.6 0 1 0-7.28 8.51 5.6 5.6 0 1 0 7.28-8.51zM974.06 126.32a5.6 5.6 0 1 0-7.28 8.51 5.6 5.6 0 1 0 7.28-8.51zM963.65 138.48a5.6 5.6 0 1 0-7.28 8.51 5.6 5.6 0 1 0 7.28-8.51zM953.25 150.63a5.6 5.6 0 1 0-7.29 8.51 5.6 5.6 0 1 0 7.29-8.51zM942.84 162.79a5.6 5.6 0 1 0-7.28 8.5 5.6 5.6 0 1 0 7.28-8.5z" stroke="rgba(160, 163, 252, 1)" stroke-width="1.85" stroke-dasharray="2, 2"></path><path d="M53.53 285.17a5.6 5.6 0 1 0 4.84 10.1 5.6 5.6 0 1 0-4.84-10.1zM60.45 299.6a5.6 5.6 0 1 0 4.84 10.1 5.6 5.6 0 1 0-4.84-10.1zM67.37 314.03a5.6 5.6 0 1 0 4.84 10.1 5.6 5.6 0 1 0-4.84-10.1zM74.29 328.45a5.6 5.6 0 1 0 4.84 10.1 5.6 5.6 0 1 0-4.84-10.1zM25.27 263.24a5.6 5.6 0 1 0 4.84 10.1 5.6 5.6 0 1 0-4.84-10.1zM32.18 277.66a5.6 5.6 0 1 0 4.85 10.1 5.6 5.6 0 1 0-4.85-10.1zM39.1 292.09a5.6 5.6 0 1 0 4.85 10.1 5.6 5.6 0 1 0-4.85-10.1zM46.02 306.52a5.6 5.6 0 1 0 4.84 10.1 5.6 5.6 0 1 0-4.84-10.1zM-3 241.3a5.6 5.6 0 1 0 4.85 10.1 5.6 5.6 0 1 0-4.85-10.1zM3.92 255.73a5.6 5.6 0 1 0 4.84 10.1 5.6 5.6 0 1 0-4.84-10.1zM10.84 270.16a5.6 5.6 0 1 0 4.84 10.1 5.6 5.6 0 1 0-4.84-10.1zM17.76 284.58a5.6 5.6 0 1 0 4.84 10.1 5.6 5.6 0 1 0-4.84-10.1z" fill="rgba(192, 193, 255, 1)"></path><path d="M920.33 457.90999999999997 L978.08 447.72999999999996L984.3645588872962 487.9795588872961z" fill="rgba(187, 255, 228, 1)"></path><circle r="36.687253426746764" cx="203.06" cy="237.58" fill="rgba(160, 163, 252, 1)"></circle><path d="M1140.6 439.3 L1220.02 380.62L1225.53657391166 455.1865739116601z" stroke="rgba(187, 255, 228, 1)" stroke-width="1"></path></g><defs><mask id="SvgjsMask12947"><rect width="1440" height="400" fill="#ffffff"></rect></mask><pattern x="0" y="0" width="9.62" height="9.62" patternUnits="userSpaceOnUse" id="SvgjsPattern12949"><path d="M4.81 1L4.81 8.62M1 4.81L8.62 4.81" stroke="rgba(160, 163, 252, 1)" fill="none" stroke-width="3.42"></path></pattern><clipPath id="SvgjsClipPath12948"><circle r="43.29" cx="979.47" cy="110.29"></circle></clipPath><pattern x="0" y="0" width="13.62" height="13.62" patternUnits="userSpaceOnUse" id="SvgjsPattern12951"><path d="M0 13.62L6.81 0L13.62 13.62" stroke="rgba(192, 193, 255, 1)" fill="none"></path></pattern><clipPath id="SvgjsClipPath12950"><circle r="34.05" cx="325.71" cy="259.17"></circle></clipPath><pattern x="0" y="0" width="6" height="6" patternUnits="userSpaceOnUse" id="SvgjsPattern12953"><path d="M0 6L3 0L6 6" stroke="rgba(187, 255, 228, 1)" fill="none"></path></pattern><clipPath id="SvgjsClipPath12952"><circle r="54" cx="219.9" cy="119.17"></circle></clipPath><pattern x="0" y="0" width="163.2" height="8.16" patternUnits="userSpaceOnUse" id="SvgjsPattern12955"><rect width="163.2" height="4.08" x="0" y="0" fill="rgba(192, 193, 255, 1)"></rect><rect width="163.2" height="4.08" x="0" y="4.08" fill="rgba(0, 0, 0, 0)"></rect></pattern><clipPath id="SvgjsClipPath12954"><circle r="40.8" cx="667.04" cy="61.35"></circle></clipPath><pattern x="0" y="0" width="6" height="6" patternUnits="userSpaceOnUse" id="SvgjsPattern12957"><path d="M0 6L3 0L6 6" stroke="rgba(160, 163, 252, 1)" fill="none"></path></pattern><clipPath id="SvgjsClipPath12956"><circle r="66" cx="1047.07" cy="358.37"></circle></clipPath><pattern x="0" y="0" width="11.54" height="11.54" patternUnits="userSpaceOnUse" id="SvgjsPattern12959"><path d="M0 11.54L5.77 0L11.54 11.54" stroke="rgba(192, 193, 255, 1)" fill="none"></path></pattern><clipPath id="SvgjsClipPath12958"><circle r="28.849999999999998" cx="1109.37" cy="50.49"></circle></clipPath></defs></svg>