<svg xmlns="http://www.w3.org/2000/svg" version="1.1" xmlns:xlink="http://www.w3.org/1999/xlink" xmlns:svgjs="http://svgjs.dev/svgjs" width="1600" height="400" preserveAspectRatio="none" viewBox="0 0 1600 400"><g mask="url(&quot;#SvgjsMask32080&quot;)" fill="none"><path d="M215.22 236.51L204.69 243.8 195.26 235.13 184.74 242.43 175.31 233.76 164.78 241.05 155.36 232.38M215.77 228.53L205.24 235.82 195.81 227.15 185.29 234.45 175.86 225.78 165.34 233.07 155.91 224.4" stroke="rgba(160, 163, 252, 1)" stroke-width="2.59" stroke-dasharray="4, 4"></path><circle r="54.89348336203518" cx="691.48" cy="151.79" fill="rgba(192, 193, 255, 1)"></circle><rect width="139.44" height="139.44" clip-path="url(&quot;#SvgjsClipPath32081&quot;)" x="1338.71" y="91.51" fill="url(&quot;#SvgjsPattern32082&quot;)" transform="rotate(24.5, 1408.43, 161.23)"></rect><rect width="156" height="156" clip-path="url(&quot;#SvgjsClipPath32083&quot;)" x="647.69" y="235.8" fill="url(&quot;#SvgjsPattern32084&quot;)" transform="rotate(329.86, 725.69, 313.8)"></rect><path d="M492.69 317.74a5.6 5.6 0 1 0 9.16-6.45 5.6 5.6 0 1 0-9.16 6.45zM505.77 308.52a5.6 5.6 0 1 0 9.16-6.44 5.6 5.6 0 1 0-9.16 6.44zM518.85 299.31a5.6 5.6 0 1 0 9.16-6.45 5.6 5.6 0 1 0-9.16 6.45zM531.94 290.1a5.6 5.6 0 1 0 9.15-6.45 5.6 5.6 0 1 0-9.15 6.45z" stroke="rgba(192, 193, 255, 1)" stroke-width="2.69" stroke-dasharray="2, 2"></path><rect width="144.76" height="144.76" clip-path="url(&quot;#SvgjsClipPath32085&quot;)" x="584.91" y="122" fill="url(&quot;#SvgjsPattern32086&quot;)" transform="rotate(284.67, 657.29, 194.38)"></rect><rect width="191.88" height="191.88" clip-path="url(&quot;#SvgjsClipPath32087&quot;)" x="262.64" y="300.22" fill="url(&quot;#SvgjsPattern32088&quot;)" transform="rotate(63.12, 358.58, 396.16)"></rect><rect width="60" height="60" clip-path="url(&quot;#SvgjsClipPath32089&quot;)" x="1361.09" y="353.56" fill="url(&quot;#SvgjsPattern32090&quot;)" transform="rotate(267.81, 1391.09, 383.56)"></rect><path d="M949.38 159.21 L844.62 180.76000000000002L837.5771250136188 110.5621250136188z" stroke="rgba(160, 163, 252, 1)" stroke-width="1.43" stroke-dasharray="3, 3"></path><rect width="125.19999999999999" height="125.19999999999999" clip-path="url(&quot;#SvgjsClipPath32091&quot;)" x="235.82" y="283.17" fill="url(&quot;#SvgjsPattern32092&quot;)" transform="rotate(2.39, 298.42, 345.77)"></rect><rect width="60" height="60" clip-path="url(&quot;#SvgjsClipPath32093&quot;)" x="506.27" y="85.71" fill="url(&quot;#SvgjsPattern32094&quot;)" transform="rotate(242.97, 536.27, 115.71)"></rect><rect width="120" height="120" clip-path="url(&quot;#SvgjsClipPath32095&quot;)" x="782.41" y="108.78" fill="url(&quot;#SvgjsPattern32096&quot;)" transform="rotate(1.13, 842.41, 168.78)"></rect><path d="M344.62 159.23 L259.74 201.83999999999997L354.35895850414903 232.713958504149z" stroke="rgba(160, 163, 252, 1)" stroke-width="2.04" stroke-dasharray="3, 3"></path><rect width="96" height="96" clip-path="url(&quot;#SvgjsClipPath32097&quot;)" x="966.99" y="128.9" fill="url(&quot;#SvgjsPattern32098&quot;)" transform="rotate(290.26, 1014.99, 176.9)"></rect><circle r="36.367255900728175" cx="18.17" cy="199.06" stroke="rgba(192, 193, 255, 1)" stroke-width="1" stroke-dasharray="4, 4"></circle><rect width="168" height="168" clip-path="url(&quot;#SvgjsClipPath32099&quot;)" x="1437.69" y="168.33" fill="url(&quot;#SvgjsPattern32100&quot;)" transform="rotate(298.23, 1521.69, 252.33)"></rect><circle r="33.333333333333336" cx="1170.21" cy="119.62" fill="rgba(187, 255, 228, 1)"></circle><rect width="252" height="252" clip-path="url(&quot;#SvgjsClipPath32101&quot;)" x="705.81" y="139" fill="url(&quot;#SvgjsPattern32102&quot;)" transform="rotate(31.07, 831.81, 265)"></rect></g><defs><mask id="SvgjsMask32080"><rect width="1600" height="400" fill="#ffffff"></rect></mask><pattern x="0" y="0" width="139.44" height="9.96" patternUnits="userSpaceOnUse" id="SvgjsPattern32082"><rect width="139.44" height="4.98" x="0" y="0" fill="rgba(187, 255, 228, 1)"></rect><rect width="139.44" height="4.98" x="0" y="4.98" fill="rgba(0, 0, 0, 0)"></rect></pattern><clipPath id="SvgjsClipPath32081"><circle r="34.86" cx="1408.43" cy="161.23"></circle></clipPath><pattern x="0" y="0" width="6" height="6" patternUnits="userSpaceOnUse" id="SvgjsPattern32084"><path d="M0 6L3 0L6 6" stroke="rgba(160, 163, 252, 1)" fill="none"></path></pattern><clipPath id="SvgjsClipPath32083"><circle r="39" cx="725.69" cy="313.8"></circle></clipPath><pattern x="0" y="0" width="144.76" height="10.34" patternUnits="userSpaceOnUse" id="SvgjsPattern32086"><rect width="144.76" height="5.17" x="0" y="0" fill="rgba(187, 255, 228, 1)"></rect><rect width="144.76" height="5.17" x="0" y="5.17" fill="rgba(0, 0, 0, 0)"></rect></pattern><clipPath id="SvgjsClipPath32085"><circle r="36.19" cx="657.29" cy="194.38"></circle></clipPath><pattern x="0" y="0" width="10.66" height="10.66" patternUnits="userSpaceOnUse" id="SvgjsPattern32088"><path d="M0 10.66L5.33 0L10.66 10.66" stroke="rgba(160, 163, 252, 1)" fill="none"></path></pattern><clipPath id="SvgjsClipPath32087"><circle r="47.97" cx="358.58" cy="396.16"></circle></clipPath><pattern x="0" y="0" width="60" height="6" patternUnits="userSpaceOnUse" id="SvgjsPattern32090"><rect width="60" height="3" x="0" y="0" fill="rgba(160, 163, 252, 1)"></rect><rect width="60" height="3" x="0" y="3" fill="rgba(0, 0, 0, 0)"></rect></pattern><clipPath id="SvgjsClipPath32089"><circle r="15" cx="1391.09" cy="383.56"></circle></clipPath><pattern x="0" y="0" width="12.52" height="12.52" patternUnits="userSpaceOnUse" id="SvgjsPattern32092"><path d="M0 12.52L6.26 0L12.52 12.52" stroke="rgba(187, 255, 228, 1)" fill="none"></path></pattern><clipPath id="SvgjsClipPath32091"><circle r="31.299999999999997" cx="298.42" cy="345.77"></circle></clipPath><pattern x="0" y="0" width="6" height="6" patternUnits="userSpaceOnUse" id="SvgjsPattern32094"><path d="M0 6L3 0L6 6" stroke="rgba(160, 163, 252, 1)" fill="none"></path></pattern><clipPath id="SvgjsClipPath32093"><circle r="15" cx="536.27" cy="115.71"></circle></clipPath><pattern x="0" y="0" width="6" height="6" patternUnits="userSpaceOnUse" id="SvgjsPattern32096"><path d="M0 6L3 0L6 6" stroke="rgba(192, 193, 255, 1)" fill="none"></path></pattern><clipPath id="SvgjsClipPath32095"><circle r="30" cx="842.41" cy="168.78"></circle></clipPath><pattern x="0" y="0" width="6" height="6" patternUnits="userSpaceOnUse" id="SvgjsPattern32098"><path d="M3 1L3 5M1 3L5 3" stroke="rgba(160, 163, 252, 1)" fill="none" stroke-width="1"></path></pattern><clipPath id="SvgjsClipPath32097"><circle r="24" cx="1014.99" cy="176.9"></circle></clipPath><pattern x="0" y="0" width="6" height="6" patternUnits="userSpaceOnUse" id="SvgjsPattern32100"><path d="M3 1L3 5M1 3L5 3" stroke="rgba(187, 255, 228, 1)" fill="none" stroke-width="1"></path></pattern><clipPath id="SvgjsClipPath32099"><circle r="42" cx="1521.69" cy="252.33"></circle></clipPath><pattern x="0" y="0" width="6" height="6" patternUnits="userSpaceOnUse" id="SvgjsPattern32102"><path d="M3 1L3 5M1 3L5 3" stroke="rgba(192, 193, 255, 1)" fill="none" stroke-width="1.41"></path></pattern><clipPath id="SvgjsClipPath32101"><circle r="63" cx="831.81" cy="265"></circle></clipPath></defs></svg>