<svg xmlns="http://www.w3.org/2000/svg" version="1.1" xmlns:xlink="http://www.w3.org/1999/xlink" xmlns:svgjs="http://svgjs.dev/svgjs" width="1668" height="450" preserveAspectRatio="none" viewBox="0 0 1668 450"><g mask="url(&quot;#SvgjsMask9460&quot;)" fill="none"><rect width="168" height="168" clip-path="url(&quot;#SvgjsClipPath9461&quot;)" x="923.49" y="315.86" fill="url(&quot;#SvgjsPattern9462&quot;)" transform="rotate(18.1, 1007.49, 399.86)"></rect><rect width="276.64000000000004" height="276.64000000000004" clip-path="url(&quot;#SvgjsClipPath9463&quot;)" x="81.21" y="179.64" fill="url(&quot;#SvgjsPattern9464&quot;)" transform="rotate(288.21, 219.53, 317.96)"></rect><path d="M250.8 128.17 L262.77 113.1L265.03889643491533 128.88889643491535z" stroke="rgba(192, 193, 255, 1)" stroke-width="1.57" stroke-dasharray="2, 2"></path><circle r="37.5" cx="1113.67" cy="358.9" fill="rgba(160, 163, 252, 1)"></circle><rect width="180" height="180" clip-path="url(&quot;#SvgjsClipPath9465&quot;)" x="959.14" y="-75.94" fill="url(&quot;#SvgjsPattern9466&quot;)" transform="rotate(113.17, 1049.14, 14.06)"></rect><rect width="276" height="276" clip-path="url(&quot;#SvgjsClipPath9467&quot;)" x="-32.08" y="84.25" fill="url(&quot;#SvgjsPattern9468&quot;)" transform="rotate(356.72, 105.92, 222.25)"></rect><path d="M851.24 138.51L863.67 141.58 863.4 154.38 875.84 157.46 875.57 170.26 888 173.33 887.73 186.14" stroke="rgba(192, 193, 255, 1)" stroke-width="1" stroke-dasharray="4, 4"></path><rect width="168" height="168" clip-path="url(&quot;#SvgjsClipPath9469&quot;)" x="1117.22" y="120.48" fill="url(&quot;#SvgjsPattern9470&quot;)" transform="rotate(309.5, 1201.22, 204.48)"></rect><path d="M101.09 65.64L92.89 55.81 100.69 45.65 92.48 35.81 100.28 25.65 92.08 15.82 99.87 5.66M109.09 65.48L100.89 55.65 108.68 45.49 100.48 35.65 108.28 25.49 100.07 15.66 107.87 5.49M117.09 65.32L108.89 55.48 116.68 45.32 108.48 35.49 116.27 25.33 108.07 15.49 115.87 5.33" stroke="rgba(160, 163, 252, 1)" stroke-width="2.9" stroke-dasharray="4, 4"></path><rect width="60" height="60" clip-path="url(&quot;#SvgjsClipPath9471&quot;)" x="1589.72" y="52.57" fill="url(&quot;#SvgjsPattern9472&quot;)" transform="rotate(346.27, 1619.72, 82.57)"></rect><rect width="130.6" height="130.6" clip-path="url(&quot;#SvgjsClipPath9473&quot;)" x="895.24" y="227.09" fill="url(&quot;#SvgjsPattern9474&quot;)" transform="rotate(210.22, 960.54, 292.39)"></rect><rect width="260.52" height="260.52" clip-path="url(&quot;#SvgjsClipPath9475&quot;)" x="109.26" y="232.66" fill="url(&quot;#SvgjsPattern9476&quot;)" transform="rotate(260.65, 239.52, 362.92)"></rect><circle r="65.00897976039917" cx="1632.38" cy="292.39" fill="rgba(192, 193, 255, 1)"></circle><rect width="60" height="60" clip-path="url(&quot;#SvgjsClipPath9477&quot;)" x="574.51" y="263.89" fill="url(&quot;#SvgjsPattern9478&quot;)" transform="rotate(260.67, 604.51, 293.89)"></rect><circle r="37.5" cx="165.99" cy="102.65" fill="rgba(187, 255, 228, 1)"></circle><path d="M216.51999999999998 14.77 L348.37 49.019999999999996L333.9813136569287 -19.641313656928737z" fill="rgba(187, 255, 228, 1)"></path><rect width="122" height="122" clip-path="url(&quot;#SvgjsClipPath9479&quot;)" x="1246.15" y="338.88" fill="url(&quot;#SvgjsPattern9480&quot;)" transform="rotate(86.42, 1307.15, 399.88)"></rect></g><defs><mask id="SvgjsMask9460"><rect width="1668" height="450" fill="#ffffff"></rect></mask><pattern x="0" y="0" width="6" height="6" patternUnits="userSpaceOnUse" id="SvgjsPattern9462"><path d="M3 1L3 5M1 3L5 3" stroke="rgba(192, 193, 255, 1)" fill="none" stroke-width="1"></path></pattern><clipPath id="SvgjsClipPath9461"><circle r="42" cx="1007.49" cy="399.86"></circle></clipPath><pattern x="0" y="0" width="9.88" height="9.88" patternUnits="userSpaceOnUse" id="SvgjsPattern9464"><path d="M0 9.88L4.94 0L9.88 9.88" stroke="rgba(160, 163, 252, 1)" fill="none"></path></pattern><clipPath id="SvgjsClipPath9463"><circle r="69.16000000000001" cx="219.53" cy="317.96"></circle></clipPath><pattern x="0" y="0" width="6" height="6" patternUnits="userSpaceOnUse" id="SvgjsPattern9466"><path d="M0 6L3 0L6 6" stroke="rgba(187, 255, 228, 1)" fill="none"></path></pattern><clipPath id="SvgjsClipPath9465"><circle r="45" cx="1049.14" cy="14.06"></circle></clipPath><pattern x="0" y="0" width="6" height="6" patternUnits="userSpaceOnUse" id="SvgjsPattern9468"><path d="M3 1L3 5M1 3L5 3" stroke="rgba(187, 255, 228, 1)" fill="none" stroke-width="1.43"></path></pattern><clipPath id="SvgjsClipPath9467"><circle r="69" cx="105.92" cy="222.25"></circle></clipPath><pattern x="0" y="0" width="6" height="6" patternUnits="userSpaceOnUse" id="SvgjsPattern9470"><path d="M3 1L3 5M1 3L5 3" stroke="rgba(187, 255, 228, 1)" fill="none" stroke-width="1"></path></pattern><clipPath id="SvgjsClipPath9469"><circle r="42" cx="1201.22" cy="204.48"></circle></clipPath><pattern x="0" y="0" width="6" height="6" patternUnits="userSpaceOnUse" id="SvgjsPattern9472"><path d="M0 6L3 0L6 6" stroke="rgba(160, 163, 252, 1)" fill="none"></path></pattern><clipPath id="SvgjsClipPath9471"><circle r="15" cx="1619.72" cy="82.57"></circle></clipPath><pattern x="0" y="0" width="130.6" height="13.06" patternUnits="userSpaceOnUse" id="SvgjsPattern9474"><rect width="130.6" height="6.53" x="0" y="0" fill="rgba(160, 163, 252, 1)"></rect><rect width="130.6" height="6.53" x="0" y="6.53" fill="rgba(0, 0, 0, 0)"></rect></pattern><clipPath id="SvgjsClipPath9473"><circle r="32.65" cx="960.54" cy="292.39"></circle></clipPath><pattern x="0" y="0" width="10.02" height="10.02" patternUnits="userSpaceOnUse" id="SvgjsPattern9476"><path d="M0 10.02L5.01 0L10.02 10.02" stroke="rgba(187, 255, 228, 1)" fill="none"></path></pattern><clipPath id="SvgjsClipPath9475"><circle r="65.13" cx="239.52" cy="362.92"></circle></clipPath><pattern x="0" y="0" width="60" height="6" patternUnits="userSpaceOnUse" id="SvgjsPattern9478"><rect width="60" height="3" x="0" y="0" fill="rgba(192, 193, 255, 1)"></rect><rect width="60" height="3" x="0" y="3" fill="rgba(0, 0, 0, 0)"></rect></pattern><clipPath id="SvgjsClipPath9477"><circle r="15" cx="604.51" cy="293.89"></circle></clipPath><pattern x="0" y="0" width="12.2" height="12.2" patternUnits="userSpaceOnUse" id="SvgjsPattern9480"><path d="M0 12.2L6.1 0L12.2 12.2" stroke="rgba(192, 193, 255, 1)" fill="none"></path></pattern><clipPath id="SvgjsClipPath9479"><circle r="30.5" cx="1307.15" cy="399.88"></circle></clipPath></defs></svg>