<svg xmlns="http://www.w3.org/2000/svg" version="1.1" xmlns:xlink="http://www.w3.org/1999/xlink" xmlns:svgjs="http://svgjs.dev/svgjs" width="1440" height="450" preserveAspectRatio="none" viewBox="0 0 1440 450"><g mask="url(&quot;#SvgjsMask38931&quot;)" fill="none"><path d="M1034.39 244.89 L997.53 263.69L987.2509487721691 225.58094877216908z" fill="rgba(187, 255, 228, 1)"></path><path d="M564.49 139.92L551.85 141.99 547.06 130.12 534.42 132.19 529.63 120.31 516.99 122.38 512.2 110.51M568.41 132.95L555.77 135.02 550.98 123.15 538.34 125.21 533.55 113.34 520.91 115.41 516.12 103.53" stroke="rgba(187, 255, 228, 1)" stroke-width="1" stroke-dasharray="2, 2"></path><path d="M1389.44 19.01a5.6 5.6 0 1 0 3.11 10.76 5.6 5.6 0 1 0-3.11-10.76zM1393.88 34.38a5.6 5.6 0 1 0 3.11 10.76 5.6 5.6 0 1 0-3.11-10.76zM1398.32 49.75a5.6 5.6 0 1 0 3.11 10.76 5.6 5.6 0 1 0-3.11-10.76zM1402.76 65.12a5.6 5.6 0 1 0 3.11 10.76 5.6 5.6 0 1 0-3.11-10.76z" stroke="rgba(187, 255, 228, 1)" stroke-width="1.02" stroke-dasharray="4, 4"></path><circle r="39.97880787038953" cx="994.76" cy="434.27" stroke="rgba(160, 163, 252, 1)" stroke-width="2.72" stroke-dasharray="2, 2"></circle><rect width="134" height="134" clip-path="url(&quot;#SvgjsClipPath38932&quot;)" x="1277.36" y="183.73" fill="url(&quot;#SvgjsPattern38933&quot;)" transform="rotate(158.05, 1344.36, 250.73)"></rect><rect width="72" height="72" clip-path="url(&quot;#SvgjsClipPath38934&quot;)" x="1167.76" y="300.6" fill="url(&quot;#SvgjsPattern38935&quot;)" transform="rotate(100.49, 1203.76, 336.6)"></rect><rect width="90.2" height="90.2" clip-path="url(&quot;#SvgjsClipPath38936&quot;)" x="820.06" y="-42.97" fill="url(&quot;#SvgjsPattern38937&quot;)" transform="rotate(233.12, 865.16, 2.13)"></rect><circle r="67.4601063859673" cx="1184.54" cy="257.67" fill="rgba(160, 163, 252, 1)"></circle><rect width="73.4" height="73.4" clip-path="url(&quot;#SvgjsClipPath38938&quot;)" x="87.17" y="110.22" fill="url(&quot;#SvgjsPattern38939&quot;)" transform="rotate(32.74, 123.87, 146.92)"></rect><circle r="68.79519670573592" cx="1425.38" cy="445.67" fill="rgba(187, 255, 228, 1)"></circle><rect width="279.44" height="279.44" clip-path="url(&quot;#SvgjsClipPath38940&quot;)" x="930.46" y="-98.08" fill="url(&quot;#SvgjsPattern38941&quot;)" transform="rotate(81.26, 1070.18, 41.64)"></rect><rect width="151.04" height="151.04" clip-path="url(&quot;#SvgjsClipPath38942&quot;)" x="654.99" y="253.96" fill="url(&quot;#SvgjsPattern38943&quot;)" transform="rotate(207.76, 730.51, 329.48)"></rect><rect width="288" height="288" clip-path="url(&quot;#SvgjsClipPath38944&quot;)" x="-9.49" y="87.24" fill="url(&quot;#SvgjsPattern38945&quot;)" transform="rotate(357.54, 134.51, 231.24)"></rect><path d="M953.24 174.66 L1045.75 103.61L918.2222216571718 57.86222165717169z" fill="rgba(160, 163, 252, 1)"></path><rect width="146" height="146" clip-path="url(&quot;#SvgjsClipPath38946&quot;)" x="37.63" y="359.26" fill="url(&quot;#SvgjsPattern38947&quot;)" transform="rotate(206.62, 110.63, 432.26)"></rect></g><defs><mask id="SvgjsMask38931"><rect width="1440" height="450" fill="#ffffff"></rect></mask><pattern x="0" y="0" width="13.4" height="13.4" patternUnits="userSpaceOnUse" id="SvgjsPattern38933"><path d="M0 13.4L6.7 0L13.4 13.4" stroke="rgba(192, 193, 255, 1)" fill="none"></path></pattern><clipPath id="SvgjsClipPath38932"><circle r="33.5" cx="1344.36" cy="250.73"></circle></clipPath><pattern x="0" y="0" width="6" height="6" patternUnits="userSpaceOnUse" id="SvgjsPattern38935"><path d="M3 1L3 5M1 3L5 3" stroke="rgba(192, 193, 255, 1)" fill="none" stroke-width="1.63"></path></pattern><clipPath id="SvgjsClipPath38934"><circle r="18" cx="1203.76" cy="336.6"></circle></clipPath><pattern x="0" y="0" width="90.2" height="9.02" patternUnits="userSpaceOnUse" id="SvgjsPattern38937"><rect width="90.2" height="4.51" x="0" y="0" fill="rgba(192, 193, 255, 1)"></rect><rect width="90.2" height="4.51" x="0" y="4.51" fill="rgba(0, 0, 0, 0)"></rect></pattern><clipPath id="SvgjsClipPath38936"><circle r="22.55" cx="865.16" cy="2.13"></circle></clipPath><pattern x="0" y="0" width="7.34" height="7.34" patternUnits="userSpaceOnUse" id="SvgjsPattern38939"><path d="M3.67 1L3.67 6.34M1 3.67L6.34 3.67" stroke="rgba(187, 255, 228, 1)" fill="none" stroke-width="2.16"></path></pattern><clipPath id="SvgjsClipPath38938"><circle r="18.35" cx="123.87" cy="146.92"></circle></clipPath><pattern x="0" y="0" width="9.98" height="9.98" patternUnits="userSpaceOnUse" id="SvgjsPattern38941"><path d="M0 9.98L4.99 0L9.98 9.98" stroke="rgba(160, 163, 252, 1)" fill="none"></path></pattern><clipPath id="SvgjsClipPath38940"><circle r="69.86" cx="1070.18" cy="41.64"></circle></clipPath><pattern x="0" y="0" width="151.04" height="9.44" patternUnits="userSpaceOnUse" id="SvgjsPattern38943"><rect width="151.04" height="4.72" x="0" y="0" fill="rgba(187, 255, 228, 1)"></rect><rect width="151.04" height="4.72" x="0" y="4.72" fill="rgba(0, 0, 0, 0)"></rect></pattern><clipPath id="SvgjsClipPath38942"><circle r="37.76" cx="730.51" cy="329.48"></circle></clipPath><pattern x="0" y="0" width="6" height="6" patternUnits="userSpaceOnUse" id="SvgjsPattern38945"><path d="M3 1L3 5M1 3L5 3" stroke="rgba(187, 255, 228, 1)" fill="none" stroke-width="1"></path></pattern><clipPath id="SvgjsClipPath38944"><circle r="72" cx="134.51" cy="231.24"></circle></clipPath><pattern x="0" y="0" width="7.3" height="7.3" patternUnits="userSpaceOnUse" id="SvgjsPattern38947"><path d="M0 7.3L3.65 0L7.3 7.3" stroke="rgba(192, 193, 255, 1)" fill="none"></path></pattern><clipPath id="SvgjsClipPath38946"><circle r="36.5" cx="110.63" cy="432.26"></circle></clipPath></defs></svg>