<svg xmlns="http://www.w3.org/2000/svg" version="1.1" xmlns:xlink="http://www.w3.org/1999/xlink" xmlns:svgjs="http://svgjs.dev/svgjs" width="1440" height="450" preserveAspectRatio="none" viewBox="0 0 1440 450"><g mask="url(&quot;#SvgjsMask37616&quot;)" fill="none"><circle r="39.19405695099073" cx="821.85" cy="326.91" fill="rgba(160, 163, 252, 1)"></circle><path d="M215.75 310.6a5.6 5.6 0 1 0 10.84-2.82 5.6 5.6 0 1 0-10.84 2.82zM231.23 306.57a5.6 5.6 0 1 0 10.84-2.83 5.6 5.6 0 1 0-10.84 2.83zM246.72 302.53a5.6 5.6 0 1 0 10.83-2.82 5.6 5.6 0 1 0-10.83 2.82zM262.2 298.5a5.6 5.6 0 1 0 10.84-2.83 5.6 5.6 0 1 0-10.84 2.83zM188.82 334.16a5.6 5.6 0 1 0 10.84-2.83 5.6 5.6 0 1 0-10.84 2.83zM204.3 330.12a5.6 5.6 0 1 0 10.84-2.82 5.6 5.6 0 1 0-10.84 2.82zM219.79 326.09a5.6 5.6 0 1 0 10.84-2.83 5.6 5.6 0 1 0-10.84 2.83zM235.27 322.05a5.6 5.6 0 1 0 10.84-2.83 5.6 5.6 0 1 0-10.84 2.83z" fill="rgba(187, 255, 228, 1)"></path><path d="M1160.74 179.1a5.6 5.6 0 1 0 8.55-7.23 5.6 5.6 0 1 0-8.55 7.23zM1172.95 168.77a5.6 5.6 0 1 0 8.55-7.23 5.6 5.6 0 1 0-8.55 7.23zM1185.17 158.44a5.6 5.6 0 1 0 8.55-7.23 5.6 5.6 0 1 0-8.55 7.23zM1197.39 148.11a5.6 5.6 0 1 0 8.55-7.23 5.6 5.6 0 1 0-8.55 7.23zM1146.63 211.98a5.6 5.6 0 1 0 8.55-7.23 5.6 5.6 0 1 0-8.55 7.23zM1158.85 201.65a5.6 5.6 0 1 0 8.55-7.23 5.6 5.6 0 1 0-8.55 7.23zM1171.07 191.32a5.6 5.6 0 1 0 8.55-7.23 5.6 5.6 0 1 0-8.55 7.23zM1183.28 180.99a5.6 5.6 0 1 0 8.56-7.23 5.6 5.6 0 1 0-8.56 7.23z" fill="rgba(187, 255, 228, 1)"></path><rect width="80.39999999999999" height="80.39999999999999" clip-path="url(&quot;#SvgjsClipPath37617&quot;)" x="1087.26" y="356.13" fill="url(&quot;#SvgjsPattern37618&quot;)" transform="rotate(322.82, 1127.46, 396.33)"></rect><rect width="294.32" height="294.32" clip-path="url(&quot;#SvgjsClipPath37619&quot;)" x="624.48" y="-133.6" fill="url(&quot;#SvgjsPattern37620&quot;)" transform="rotate(230.28, 771.64, 13.56)"></rect><path d="M892.25 337.46000000000004 L943.41 428.92L965.1878313000776 335.83216869992236z" stroke="rgba(192, 193, 255, 1)" stroke-width="1.42"></path><rect width="298.24" height="298.24" clip-path="url(&quot;#SvgjsClipPath37621&quot;)" x="-108.2" y="-71.67" fill="url(&quot;#SvgjsPattern37622&quot;)" transform="rotate(338.76, 40.92, 77.45)"></rect><circle r="37.5" cx="305.19" cy="135.59" stroke="rgba(187, 255, 228, 1)" stroke-width="2.75" stroke-dasharray="3, 2"></circle><path d="M1388.22 137 L1447.4299999999998 166.45L1451.6200016340501 117.92999836594979z" fill="rgba(192, 193, 255, 1)"></path><circle r="65.34064845921259" cx="266.87" cy="113.03" stroke="rgba(192, 193, 255, 1)" stroke-width="1" stroke-dasharray="4, 4"></circle><rect width="60" height="60" clip-path="url(&quot;#SvgjsClipPath37623&quot;)" x="1184.3" y="135.14" fill="url(&quot;#SvgjsPattern37624&quot;)" transform="rotate(268.67, 1214.3, 165.14)"></rect><rect width="248.4" height="248.4" clip-path="url(&quot;#SvgjsClipPath37625&quot;)" x="465.14" y="262.5" fill="url(&quot;#SvgjsPattern37626&quot;)" transform="rotate(109.59, 589.34, 386.7)"></rect><rect width="127.92" height="127.92" clip-path="url(&quot;#SvgjsClipPath37627&quot;)" x="941.52" y="100.83" fill="url(&quot;#SvgjsPattern37628&quot;)" transform="rotate(26.9, 1005.48, 164.79)"></rect><rect width="179.96" height="179.96" clip-path="url(&quot;#SvgjsClipPath37629&quot;)" x="68.63" y="344.88" fill="url(&quot;#SvgjsPattern37630&quot;)" transform="rotate(219.94, 158.61, 434.86)"></rect><rect width="208.8" height="208.8" clip-path="url(&quot;#SvgjsClipPath37631&quot;)" x="133.45" y="339.88" fill="url(&quot;#SvgjsPattern37632&quot;)" transform="rotate(197.09, 237.85, 444.28)"></rect></g><defs><mask id="SvgjsMask37616"><rect width="1440" height="450" fill="#ffffff"></rect></mask><pattern x="0" y="0" width="8.04" height="8.04" patternUnits="userSpaceOnUse" id="SvgjsPattern37618"><path d="M0 8.04L4.02 0L8.04 8.04" stroke="rgba(160, 163, 252, 1)" fill="none"></path></pattern><clipPath id="SvgjsClipPath37617"><circle r="20.099999999999998" cx="1127.46" cy="396.33"></circle></clipPath><pattern x="0" y="0" width="11.32" height="11.32" patternUnits="userSpaceOnUse" id="SvgjsPattern37620"><path d="M5.66 1L5.66 10.32M1 5.66L10.32 5.66" stroke="rgba(192, 193, 255, 1)" fill="none" stroke-width="1.02"></path></pattern><clipPath id="SvgjsClipPath37619"><circle r="73.58" cx="771.64" cy="13.56"></circle></clipPath><pattern x="0" y="0" width="298.24" height="9.32" patternUnits="userSpaceOnUse" id="SvgjsPattern37622"><rect width="298.24" height="4.66" x="0" y="0" fill="rgba(160, 163, 252, 1)"></rect><rect width="298.24" height="4.66" x="0" y="4.66" fill="rgba(0, 0, 0, 0)"></rect></pattern><clipPath id="SvgjsClipPath37621"><circle r="74.56" cx="40.92" cy="77.45"></circle></clipPath><pattern x="0" y="0" width="6" height="6" patternUnits="userSpaceOnUse" id="SvgjsPattern37624"><path d="M3 1L3 5M1 3L5 3" stroke="rgba(192, 193, 255, 1)" fill="none" stroke-width="1.06"></path></pattern><clipPath id="SvgjsClipPath37623"><circle r="15" cx="1214.3" cy="165.14"></circle></clipPath><pattern x="0" y="0" width="248.4" height="12.42" patternUnits="userSpaceOnUse" id="SvgjsPattern37626"><rect width="248.4" height="6.21" x="0" y="0" fill="rgba(160, 163, 252, 1)"></rect><rect width="248.4" height="6.21" x="0" y="6.21" fill="rgba(0, 0, 0, 0)"></rect></pattern><clipPath id="SvgjsClipPath37625"><circle r="62.1" cx="589.34" cy="386.7"></circle></clipPath><pattern x="0" y="0" width="10.66" height="10.66" patternUnits="userSpaceOnUse" id="SvgjsPattern37628"><path d="M0 10.66L5.33 0L10.66 10.66" stroke="rgba(192, 193, 255, 1)" fill="none"></path></pattern><clipPath id="SvgjsClipPath37627"><circle r="31.98" cx="1005.48" cy="164.79"></circle></clipPath><pattern x="0" y="0" width="179.96" height="8.18" patternUnits="userSpaceOnUse" id="SvgjsPattern37630"><rect width="179.96" height="4.09" x="0" y="0" fill="rgba(187, 255, 228, 1)"></rect><rect width="179.96" height="4.09" x="0" y="4.09" fill="rgba(0, 0, 0, 0)"></rect></pattern><clipPath id="SvgjsClipPath37629"><circle r="44.99" cx="158.61" cy="434.86"></circle></clipPath><pattern x="0" y="0" width="6.96" height="6.96" patternUnits="userSpaceOnUse" id="SvgjsPattern37632"><path d="M3.48 1L3.48 5.96M1 3.48L5.96 3.48" stroke="rgba(192, 193, 255, 1)" fill="none" stroke-width="1.76"></path></pattern><clipPath id="SvgjsClipPath37631"><circle r="52.2" cx="237.85" cy="444.28"></circle></clipPath></defs></svg>