<svg xmlns="http://www.w3.org/2000/svg" version="1.1" xmlns:xlink="http://www.w3.org/1999/xlink" xmlns:svgjs="http://svgjs.dev/svgjs" width="1440" height="450" preserveAspectRatio="none" viewBox="0 0 1440 450"><g mask="url(&quot;#SvgjsMask41318&quot;)" fill="none"><rect width="60" height="60" clip-path="url(&quot;#SvgjsClipPath41319&quot;)" x="1234.27" y="22.78" fill="url(&quot;#SvgjsPattern41320&quot;)" transform="rotate(12.59, 1264.27, 52.78)"></rect><rect width="106.8" height="106.8" clip-path="url(&quot;#SvgjsClipPath41321&quot;)" x="13.36" y="39.51" fill="url(&quot;#SvgjsPattern41322&quot;)" transform="rotate(159.72, 66.76, 92.91)"></rect><path d="M401.42 418.12L402.6 405.37 415.3 403.72 416.49 390.97 429.19 389.33 430.38 376.58 443.08 374.94" stroke="rgba(192, 193, 255, 1)" stroke-width="1.07" stroke-dasharray="4, 4"></path><rect width="114.96000000000001" height="114.96000000000001" clip-path="url(&quot;#SvgjsClipPath41323&quot;)" x="1290.37" y="-0.94" fill="url(&quot;#SvgjsPattern41324&quot;)" transform="rotate(26.23, 1347.85, 56.54)"></rect><path d="M1059.1000000000001 313.43 L1162 238.82999999999998L1174.6698328654702 340.24983286547007z" stroke="rgba(192, 193, 255, 1)" stroke-width="1" stroke-dasharray="2, 2"></path><path d="M742.65 404.34L733.5 413.3 722.75 406.34 713.6 415.3 702.85 408.34 693.7 417.3 682.95 410.34M741.85 396.38L732.7 405.34 721.95 398.38 712.8 407.34 702.05 400.38 692.9 409.34 682.15 402.38" stroke="rgba(187, 255, 228, 1)" stroke-width="1" stroke-dasharray="3, 2"></path><path d="M1401.37 300.66 L1404.87 290.84000000000003L1409.087600205072 301.71760020507224z" fill="rgba(192, 193, 255, 1)"></path><rect width="288" height="288" clip-path="url(&quot;#SvgjsClipPath41325&quot;)" x="808.36" y="211.65" fill="url(&quot;#SvgjsPattern41326&quot;)" transform="rotate(31.22, 952.36, 355.65)"></rect><path d="M1154.9 97.99L1156.19 110.73 1144.04 114.78 1145.33 127.52 1133.18 131.58 1134.47 144.32 1122.32 148.37" stroke="rgba(192, 193, 255, 1)" stroke-width="2.22" stroke-dasharray="3, 3"></path><rect width="147.12" height="147.12" clip-path="url(&quot;#SvgjsClipPath41327&quot;)" x="30.4" y="80.72" fill="url(&quot;#SvgjsPattern41328&quot;)" transform="rotate(143.08, 103.96, 154.28)"></rect><path d="M314.77 293.33 L249.13 303.96L249.8772703937663 266.5722703937663z" stroke="rgba(192, 193, 255, 1)" stroke-width="1.04" stroke-dasharray="3, 2"></path><rect width="60" height="60" clip-path="url(&quot;#SvgjsClipPath41329&quot;)" x="817.2" y="387.74" fill="url(&quot;#SvgjsPattern41330&quot;)" transform="rotate(290.12, 847.2, 417.74)"></rect><path d="M134.68 329.4 L272.97 311.03L127.00844452986689 243.39844452986685z" stroke="rgba(192, 193, 255, 1)" stroke-width="2.09" stroke-dasharray="3, 3"></path><path d="M788.84 53.11L794.94 41.85 807.26 45.33 813.36 34.07 825.69 37.55 831.79 26.29 844.11 29.77M791.95 60.48L798.05 49.22 810.37 52.7 816.47 41.44 828.8 44.92 834.9 33.66 847.22 37.14M795.06 67.85L801.16 56.59 813.48 60.07 819.58 48.81 831.91 52.29 838.01 41.03 850.33 44.51" stroke="rgba(192, 193, 255, 1)" stroke-width="2.38"></path><rect width="60" height="60" clip-path="url(&quot;#SvgjsClipPath41331&quot;)" x="244.12" y="36.4" fill="url(&quot;#SvgjsPattern41332&quot;)" transform="rotate(4.03, 274.12, 66.4)"></rect></g><defs><mask id="SvgjsMask41318"><rect width="1440" height="450" fill="#ffffff"></rect></mask><pattern x="0" y="0" width="6" height="6" patternUnits="userSpaceOnUse" id="SvgjsPattern41320"><path d="M0 6L3 0L6 6" stroke="rgba(192, 193, 255, 1)" fill="none"></path></pattern><clipPath id="SvgjsClipPath41319"><circle r="15" cx="1264.27" cy="52.78"></circle></clipPath><pattern x="0" y="0" width="106.8" height="10.68" patternUnits="userSpaceOnUse" id="SvgjsPattern41322"><rect width="106.8" height="5.34" x="0" y="0" fill="rgba(192, 193, 255, 1)"></rect><rect width="106.8" height="5.34" x="0" y="5.34" fill="rgba(0, 0, 0, 0)"></rect></pattern><clipPath id="SvgjsClipPath41321"><circle r="26.7" cx="66.76" cy="92.91"></circle></clipPath><pattern x="0" y="0" width="9.58" height="9.58" patternUnits="userSpaceOnUse" id="SvgjsPattern41324"><path d="M0 9.58L4.79 0L9.58 9.58" stroke="rgba(192, 193, 255, 1)" fill="none"></path></pattern><clipPath id="SvgjsClipPath41323"><circle r="28.740000000000002" cx="1347.85" cy="56.54"></circle></clipPath><pattern x="0" y="0" width="6" height="6" patternUnits="userSpaceOnUse" id="SvgjsPattern41326"><path d="M3 1L3 5M1 3L5 3" stroke="rgba(192, 193, 255, 1)" fill="none" stroke-width="1.29"></path></pattern><clipPath id="SvgjsClipPath41325"><circle r="72" cx="952.36" cy="355.65"></circle></clipPath><pattern x="0" y="0" width="12.26" height="12.26" patternUnits="userSpaceOnUse" id="SvgjsPattern41328"><path d="M0 12.26L6.13 0L12.26 12.26" stroke="rgba(187, 255, 228, 1)" fill="none"></path></pattern><clipPath id="SvgjsClipPath41327"><circle r="36.78" cx="103.96" cy="154.28"></circle></clipPath><pattern x="0" y="0" width="60" height="6" patternUnits="userSpaceOnUse" id="SvgjsPattern41330"><rect width="60" height="3" x="0" y="0" fill="rgba(192, 193, 255, 1)"></rect><rect width="60" height="3" x="0" y="3" fill="rgba(0, 0, 0, 0)"></rect></pattern><clipPath id="SvgjsClipPath41329"><circle r="15" cx="847.2" cy="417.74"></circle></clipPath><pattern x="0" y="0" width="6" height="6" patternUnits="userSpaceOnUse" id="SvgjsPattern41332"><path d="M0 6L3 0L6 6" stroke="rgba(187, 255, 228, 1)" fill="none"></path></pattern><clipPath id="SvgjsClipPath41331"><circle r="15" cx="274.12" cy="66.4"></circle></clipPath></defs></svg>