<svg xmlns="http://www.w3.org/2000/svg" version="1.1" xmlns:xlink="http://www.w3.org/1999/xlink" xmlns:svgjs="http://svgjs.dev/svgjs" width="1440" height="560" preserveAspectRatio="none" viewBox="0 0 1440 560"><g mask="url(&quot;#SvgjsMask1244&quot;)" fill="none"><rect width="330.28" height="330.28" clip-path="url(&quot;#SvgjsClipPath1245&quot;)" x="129.86" y="-94.51" fill="url(&quot;#SvgjsPattern1246&quot;)" transform="rotate(7.39, 295, 70.63)"></rect><rect width="312" height="312" clip-path="url(&quot;#SvgjsClipPath1247&quot;)" x="261.37" y="318" fill="url(&quot;#SvgjsPattern1248&quot;)" transform="rotate(266.03, 417.37, 474)"></rect><rect width="135.2" height="135.2" clip-path="url(&quot;#SvgjsClipPath1249&quot;)" x="1151.01" y="200.82" fill="url(&quot;#SvgjsPattern1250&quot;)" transform="rotate(318.65, 1218.61, 268.42)"></rect><path d="M999.37 427.09a5.6 5.6 0 1 0-10.04-4.95 5.6 5.6 0 1 0 10.04 4.95zM985.02 420.02a5.6 5.6 0 1 0-10.05-4.94 5.6 5.6 0 1 0 10.05 4.94zM970.67 412.95a5.6 5.6 0 1 0-10.05-4.94 5.6 5.6 0 1 0 10.05 4.94zM956.31 405.89a5.6 5.6 0 1 0-10.04-4.95 5.6 5.6 0 1 0 10.04 4.95zM1035.15 426.88a5.6 5.6 0 1 0-10.05-4.95 5.6 5.6 0 1 0 10.05 4.95zM1020.8 419.81a5.6 5.6 0 1 0-10.05-4.95 5.6 5.6 0 1 0 10.05 4.95zM1006.44 412.74a5.6 5.6 0 1 0-10.04-4.95 5.6 5.6 0 1 0 10.04 4.95zM992.09 405.67a5.6 5.6 0 1 0-10.05-4.95 5.6 5.6 0 1 0 10.05 4.95zM1070.93 426.66a5.6 5.6 0 1 0-10.05-4.95 5.6 5.6 0 1 0 10.05 4.95zM1056.57 419.59a5.6 5.6 0 1 0-10.04-4.95 5.6 5.6 0 1 0 10.04 4.95zM1042.22 412.52a5.6 5.6 0 1 0-10.05-4.94 5.6 5.6 0 1 0 10.05 4.94zM1027.87 405.45a5.6 5.6 0 1 0-10.05-4.94 5.6 5.6 0 1 0 10.05 4.94z" fill="rgba(187, 255, 228, 1)"></path><rect width="204" height="204" clip-path="url(&quot;#SvgjsClipPath1251&quot;)" x="1176.16" y="-43.86" fill="url(&quot;#SvgjsPattern1252&quot;)" transform="rotate(19.65, 1278.16, 58.14)"></rect><path d="M127.75 245.19L137.9 237.39 147.74 245.59 157.9 237.79 167.74 245.99 177.9 238.19 187.74 246.38M127.59 253.19L137.75 245.39 147.58 253.59 157.74 245.79 167.58 253.98 177.74 246.18 187.58 254.38M127.43 261.19L137.59 253.39 147.42 261.58 157.58 253.79 167.42 261.98 177.58 254.18 187.42 262.38" stroke="rgba(160, 163, 252, 1)" stroke-width="1" stroke-dasharray="3, 2"></path><rect width="324" height="324" clip-path="url(&quot;#SvgjsClipPath1253&quot;)" x="561.56" y="220.46" fill="url(&quot;#SvgjsPattern1254&quot;)" transform="rotate(208.46, 723.56, 382.46)"></rect><path d="M1393.67 48.68L1401.9 58.48 1394.14 68.67 1402.38 78.48 1394.62 88.67 1402.85 98.47 1395.09 108.66M1385.67 48.87L1393.91 58.67 1386.14 68.86 1394.38 78.67 1386.62 88.86 1394.85 98.66 1387.09 108.85M1377.67 49.06L1385.91 58.86 1378.15 69.05 1386.38 78.86 1378.62 89.05 1386.86 98.85 1379.1 109.04" stroke="rgba(187, 255, 228, 1)" stroke-width="1.56" stroke-dasharray="4, 4"></path><rect width="144" height="144" clip-path="url(&quot;#SvgjsClipPath1255&quot;)" x="1273.28" y="161.4" fill="url(&quot;#SvgjsPattern1256&quot;)" transform="rotate(319.32, 1345.28, 233.4)"></rect><rect width="312" height="312" clip-path="url(&quot;#SvgjsClipPath1257&quot;)" x="190.74" y="-55.85" fill="url(&quot;#SvgjsPattern1258&quot;)" transform="rotate(101.16, 346.74, 100.15)"></rect><path d="M1282.95 219.06 L1411.1100000000001 158.83L1253.9473562619162 95.86235626191595z" fill="rgba(160, 163, 252, 1)"></path><circle r="46.666666666666664" cx="402.24" cy="129.36" fill="rgba(192, 193, 255, 1)"></circle></g><defs><mask id="SvgjsMask1244"><rect width="1440" height="560" fill="#ffffff"></rect></mask><pattern x="0" y="0" width="7.18" height="7.18" patternUnits="userSpaceOnUse" id="SvgjsPattern1246"><path d="M3.59 1L3.59 6.18M1 3.59L6.18 3.59" stroke="rgba(192, 193, 255, 1)" fill="none" stroke-width="1"></path></pattern><clipPath id="SvgjsClipPath1245"><circle r="82.57" cx="295" cy="70.63"></circle></clipPath><pattern x="0" y="0" width="6" height="6" patternUnits="userSpaceOnUse" id="SvgjsPattern1248"><path d="M3 1L3 5M1 3L5 3" stroke="rgba(187, 255, 228, 1)" fill="none" stroke-width="1"></path></pattern><clipPath id="SvgjsClipPath1247"><circle r="78" cx="417.37" cy="474"></circle></clipPath><pattern x="0" y="0" width="135.2" height="13.52" patternUnits="userSpaceOnUse" id="SvgjsPattern1250"><rect width="135.2" height="6.76" x="0" y="0" fill="rgba(192, 193, 255, 1)"></rect><rect width="135.2" height="6.76" x="0" y="6.76" fill="rgba(0, 0, 0, 0)"></rect></pattern><clipPath id="SvgjsClipPath1249"><circle r="33.8" cx="1218.61" cy="268.42"></circle></clipPath><pattern x="0" y="0" width="6" height="6" patternUnits="userSpaceOnUse" id="SvgjsPattern1252"><path d="M0 6L3 0L6 6" stroke="rgba(160, 163, 252, 1)" fill="none"></path></pattern><clipPath id="SvgjsClipPath1251"><circle r="51" cx="1278.16" cy="58.14"></circle></clipPath><pattern x="0" y="0" width="6" height="6" patternUnits="userSpaceOnUse" id="SvgjsPattern1254"><path d="M0 6L3 0L6 6" stroke="rgba(187, 255, 228, 1)" fill="none"></path></pattern><clipPath id="SvgjsClipPath1253"><circle r="81" cx="723.56" cy="382.46"></circle></clipPath><pattern x="0" y="0" width="6" height="6" patternUnits="userSpaceOnUse" id="SvgjsPattern1256"><path d="M0 6L3 0L6 6" stroke="rgba(160, 163, 252, 1)" fill="none"></path></pattern><clipPath id="SvgjsClipPath1255"><circle r="36" cx="1345.28" cy="233.4"></circle></clipPath><pattern x="0" y="0" width="6" height="6" patternUnits="userSpaceOnUse" id="SvgjsPattern1258"><path d="M3 1L3 5M1 3L5 3" stroke="rgba(192, 193, 255, 1)" fill="none" stroke-width="1.95"></path></pattern><clipPath id="SvgjsClipPath1257"><circle r="78" cx="346.74" cy="100.15"></circle></clipPath></defs></svg>