<svg xmlns="http://www.w3.org/2000/svg" version="1.1" xmlns:xlink="http://www.w3.org/1999/xlink" xmlns:svgjs="http://svgjs.dev/svgjs" viewBox="0 0 800 800"><circle r="10.5" cx="470" cy="354" stroke-width="2" stroke="hsl(172, 50%, 50%)" fill="none" opacity="0.82"></circle><circle r="9" cx="63" cy="689" stroke-width="2" stroke="hsl(150, 50%, 50%)" fill="none" opacity="0.65"></circle><circle r="10.5" cx="689" cy="616" stroke-width="2" stroke="hsl(153, 50%, 50%)" fill="none" opacity="0.12"></circle><circle r="11" cx="94" cy="72" stroke-width="2" stroke="hsl(187, 50%, 50%)" fill="none" opacity="0.50"></circle><circle r="9" cx="532" cy="533" stroke-width="2" stroke="hsl(159, 50%, 50%)" fill="none" opacity="0.98"></circle><circle r="13" cx="194" cy="731" fill="hsl(263, 50%, 50%)" opacity="0.17"></circle><circle r="15" cx="30" cy="34" fill="hsl(168, 50%, 50%)" opacity="0.92"></circle><circle r="7.5" cx="555" cy="779" stroke-width="2" stroke="hsl(158, 50%, 50%)" fill="none" opacity="0.16"></circle><circle r="15" cx="478" cy="519" fill="hsl(168, 50%, 50%)" opacity="0.34"></circle><circle r="13.5" cx="357" cy="414" stroke-width="2" stroke="hsl(235, 50%, 50%)" fill="none" opacity="0.22"></circle><circle r="15" cx="349" cy="679" stroke-width="2" stroke="hsl(244, 50%, 50%)" fill="none" opacity="0.81"></circle><circle r="11.5" cx="613" cy="25" fill="hsl(168, 50%, 50%)" opacity="0.47"></circle><circle r="8.5" cx="501" cy="389" stroke-width="2" stroke="hsl(162, 50%, 50%)" fill="none" opacity="0.51"></circle><circle r="14.5" cx="255" cy="594" stroke-width="2" stroke="hsl(279, 50%, 50%)" fill="none" opacity="0.91"></circle><circle r="6" cx="552" cy="394" fill="hsl(158, 50%, 50%)" opacity="0.14"></circle><circle r="7" cx="14" cy="437" fill="hsl(121, 50%, 50%)" opacity="0.94"></circle><circle r="11.5" cx="485" cy="57" fill="hsl(241, 50%, 50%)" opacity="0.14"></circle><circle r="10.5" cx="778" cy="191" stroke-width="2" stroke="hsl(152, 50%, 50%)" fill="none" opacity="0.96"></circle><circle r="9.5" cx="629" cy="440" fill="hsl(157, 50%, 50%)" opacity="0.22"></circle><circle r="9" cx="116" cy="243" fill="hsl(197, 50%, 50%)" opacity="0.33"></circle><circle r="16" cx="164" cy="200" fill="hsl(245, 50%, 50%)" opacity="0.68"></circle><circle r="7.5" cx="616" cy="397" stroke-width="2" stroke="hsl(157, 50%, 50%)" fill="none" opacity="0.37"></circle><circle r="7.5" cx="28" cy="387" stroke-width="2" stroke="hsl(126, 50%, 50%)" fill="none" opacity="0.49"></circle><circle r="7" cx="536" cy="664" stroke-width="2" stroke="hsl(159, 50%, 50%)" fill="none" opacity="0.26"></circle><circle r="9" cx="81" cy="244" fill="hsl(161, 50%, 50%)" opacity="0.22"></circle><circle r="12.5" cx="461" cy="406" fill="hsl(176, 50%, 50%)" opacity="0.21"></circle><circle r="12" cx="297" cy="588" fill="hsl(270, 50%, 50%)" opacity="0.38"></circle><circle r="7" cx="424" cy="782" stroke-width="2" stroke="hsl(195, 50%, 50%)" fill="none" opacity="0.63"></circle><circle r="13.5" cx="321" cy="547" stroke-width="2" stroke="hsl(258, 50%, 50%)" fill="none" opacity="0.45"></circle><circle r="10.5" cx="250" cy="408" fill="hsl(279, 50%, 50%)" opacity="0.28"></circle><circle r="12" cx="359" cy="571" fill="hsl(235, 50%, 50%)" opacity="0.72"></circle><circle r="11.5" cx="172" cy="290" stroke-width="2" stroke="hsl(245, 50%, 50%)" fill="none" opacity="0.94"></circle><circle r="9" cx="781" cy="737" stroke-width="2" stroke="hsl(152, 50%, 50%)" fill="none" opacity="0.70"></circle><circle r="15" cx="264" cy="303" fill="hsl(277, 50%, 50%)" opacity="0.51"></circle><circle r="9" cx="659" cy="123" fill="hsl(119, 50%, 50%)" opacity="0.93"></circle><circle r="12" cx="270" cy="109" stroke-width="2" stroke="hsl(245, 50%, 50%)" fill="none" opacity="0.34"></circle><circle r="14" cx="197" cy="319" stroke-width="2" stroke="hsl(263, 50%, 50%)" fill="none" opacity="0.63"></circle><circle r="6" cx="548" cy="259" fill="hsl(158, 50%, 50%)" opacity="0.37"></circle><circle r="9.5" cx="697" cy="445" stroke-width="2" stroke="hsl(153, 50%, 50%)" fill="none" opacity="0.18"></circle><circle r="9.5" cx="49" cy="331" fill="hsl(133, 50%, 50%)" opacity="0.79"></circle><circle r="10.5" cx="63" cy="732" stroke-width="2" stroke="hsl(150, 50%, 50%)" fill="none" opacity="0.56"></circle><circle r="12" cx="244" cy="449" stroke-width="2" stroke="hsl(279, 50%, 50%)" fill="none" opacity="0.45"></circle><circle r="11" cx="234" cy="166" stroke-width="2" stroke="hsl(267, 50%, 50%)" fill="none" opacity="0.62"></circle><circle r="11" cx="337" cy="784" fill="hsl(251, 50%, 50%)" opacity="0.33"></circle><circle r="11" cx="719" cy="324" fill="hsl(152, 50%, 50%)" opacity="0.59"></circle><circle r="11.5" cx="775" cy="480" stroke-width="2" stroke="hsl(152, 50%, 50%)" fill="none" opacity="0.35"></circle><circle r="8" cx="133" cy="297" fill="hsl(210, 50%, 50%)" opacity="0.30"></circle><circle r="7.5" cx="609" cy="508" stroke-width="2" stroke="hsl(157, 50%, 50%)" fill="none" opacity="0.64"></circle><circle r="10.5" cx="709" cy="36" fill="hsl(103, 50%, 50%)" opacity="0.47"></circle><circle r="6.5" cx="13" cy="358" fill="hsl(121, 50%, 50%)" opacity="0.70"></circle><circle r="13" cx="463" cy="615" stroke-width="2" stroke="hsl(172, 50%, 50%)" fill="none" opacity="0.41"></circle><circle r="12.5" cx="401" cy="620" fill="hsl(203, 50%, 50%)" opacity="0.43"></circle><circle r="8.5" cx="626" cy="478" fill="hsl(157, 50%, 50%)" opacity="0.23"></circle><circle r="12" cx="774" cy="672" stroke-width="2" stroke="hsl(151, 50%, 50%)" fill="none" opacity="0.89"></circle></svg>