<svg width="600" height="396" viewBox="0 0 600 396" fill="none" xmlns="http://www.w3.org/2000/svg">
<g clip-path="url(#clip0_363_13727)">
<mask id="mask0_363_13727" style="mask-type:luminance" maskUnits="userSpaceOnUse" x="0" y="0" width="600" height="397">
<path d="M0 0H600V397H0V0Z" fill="white"/>
</mask>
<g mask="url(#mask0_363_13727)">
<path d="M0 0H600V397H0V0Z" fill="url(#paint0_linear_363_13727)"/>
<path d="M303.18 117.78C295.485 121.167 288.342 125.235 282.06 130.011C295.768 127.169 310.545 127.168 324.252 129.98C318.017 125.234 310.874 121.167 303.18 117.78Z" fill="#00C297" stroke="#00C297"/>
<path d="M326.28 130.931C311.34 127.517 294.96 127.517 280.02 130.971C286.8 125.532 294.66 120.966 303.18 117.234C311.7 120.966 319.56 125.532 326.28 130.931Z" fill="#00C297" stroke="#00C297" stroke-width="6" stroke-miterlimit="10" stroke-linecap="round" stroke-linejoin="round"/>
<path d="M278.16 247.289C278.16 257.162 280.5 266.611 284.82 276.22C284.94 276.538 285.12 276.857 285.3 277.228C289.62 286.359 295.8 295.489 303.3 300.851C311.04 295.33 317.34 285.828 321.72 276.432C321.78 276.379 321.78 276.326 321.84 276.22C326.16 266.611 328.5 257.162 328.5 247.289C328.5 244.263 328.26 241.29 327.84 238.211C326.4 227.913 318.48 215.491 308.58 214.164C308.46 214.164 308.34 214.111 308.22 214.111C305.1 213.792 301.92 213.792 298.8 214.058C298.68 214.058 298.5 214.058 298.38 214.111C288.3 215.226 280.2 227.807 278.76 238.211C278.4 241.29 278.16 244.263 278.16 247.289Z" fill="#F4A045"/>
<path d="M278.16 247.289C278.16 257.162 280.5 266.611 284.82 276.22C284.94 276.538 285.12 276.857 285.3 277.228C289.62 286.359 295.8 295.489 303.3 300.851C311.04 295.33 317.34 285.828 321.72 276.432C321.78 276.379 321.78 276.326 321.84 276.22C326.16 266.611 328.5 257.162 328.5 247.289C328.5 244.263 328.26 241.29 327.84 238.211C326.4 227.913 318.48 215.491 308.58 214.164C308.46 214.164 308.34 214.111 308.22 214.111C305.1 213.792 301.92 213.792 298.8 214.058C298.68 214.058 298.5 214.058 298.38 214.111C288.3 215.226 280.2 227.807 278.76 238.211C278.4 241.29 278.16 244.263 278.16 247.289Z" stroke="#121330" stroke-width="6" stroke-miterlimit="10" stroke-linecap="round" stroke-linejoin="round"/>
<path d="M-1.5 396.881C8 403.516 -12.5 351.385 16.5 326.823C23.7314 320.699 35 315.294 43.5001 314.334C67.5001 314.334 88.6201 325.27 100.86 341.779C107.22 339.125 114.3 337.691 121.8 337.691C125.1 337.691 128.28 337.957 131.34 338.541C131.34 338.275 131.34 338.01 131.34 337.691C131.34 324.155 142.14 312.848 156.48 310.14C162 293.419 179.4 281.156 200.1 281.156C217.32 281.156 232.32 289.65 240 302.125C245.34 297.719 252.48 294.958 260.34 294.958C264.84 294.958 269.1 295.861 272.94 297.4C277.62 290.977 281.76 284.235 285.3 277.122C294.06 259.604 298.92 240.069 298.92 219.578C298.92 217.72 298.86 215.915 298.8 214.057C297.78 190.329 290.28 168.086 277.74 148.657H329.64C317.1 168.086 309.6 190.382 308.58 214.11C308.52 215.915 308.46 217.72 308.46 219.525C308.46 239.697 313.2 258.967 321.72 276.379C327.3 287.739 334.44 298.356 343.02 307.964C350.28 300.001 361.38 294.958 373.8 294.958C386.28 294.958 397.38 300.054 404.64 308.017C410.46 304.991 417.18 303.239 424.44 303.239C436.08 303.239 446.58 307.805 453.72 314.971C464.28 301.116 482.16 291.986 502.44 291.986C534.84 291.986 561.12 315.237 561.12 343.902C561.12 344.061 561.12 344.221 561.12 344.38C583.08 354.254 598.5 373.895 600 396.881H458.4H168.06H-1.5Z" fill="white"/>
<path d="M306.06 214.004C311.7 214.641 316.2 221.648 317.04 227.435C317.28 229.133 317.4 230.779 317.4 232.478C317.4 237.998 316.08 243.254 313.68 248.615C311.28 253.871 307.68 259.232 303.36 262.311C298.98 259.232 295.44 253.871 293.04 248.615C290.64 243.254 289.32 237.998 289.32 232.478C289.32 230.779 289.44 229.133 289.68 227.435C290.52 221.595 295.02 214.641 300.66 214.004C302.4 213.845 304.26 213.845 306.06 214.004Z" fill="#E36535"/>
<path d="M306.06 214.004C311.7 214.641 316.2 221.648 317.04 227.435C317.28 229.133 317.4 230.779 317.4 232.478C317.4 237.998 316.08 243.254 313.68 248.615C311.28 253.871 307.68 259.232 303.36 262.311C298.98 259.232 295.44 253.871 293.04 248.615C290.64 243.254 289.32 237.998 289.32 232.478C289.32 230.779 289.44 229.133 289.68 227.435C290.52 221.595 295.02 214.641 300.66 214.004C302.4 213.845 304.26 213.845 306.06 214.004Z" stroke="#121330" stroke-width="6" stroke-miterlimit="10" stroke-linecap="round" stroke-linejoin="round"/>
<path d="M375.72 132.944L395.28 139.686V106.827L335.22 65.3677V127.53L349.74 134.271C357.48 130.662 366.9 129.918 375.72 132.944Z" fill="#00C297"/>
<path d="M401.64 148.286C407.76 140.43 411.3 131.14 411.3 121.213C411.3 108.632 405.72 97.1127 396.42 88.2476C387.12 97.1127 381.48 108.632 381.42 121.213C381.42 131.193 384.96 140.43 391.02 148.286H401.64Z" fill="#00C297"/>
<path opacity="0.72" d="M395.28 139.686L375.84 132.997C375.6 128.432 375.96 123.761 376.92 119.089C378.36 112.082 381.06 105.5 384.78 99.5542L395.28 106.827V139.686Z" fill="#2DFFC9"/>
<path opacity="0.23" d="M392.76 116.01L335.16 76.3031V65.3677L395.28 106.774V139.686L392.76 138.837V116.01Z" fill="#F4A15D"/>
<path opacity="0.72" d="M359.1 131.458C355.8 131.936 352.68 132.891 349.74 134.271L335.22 127.53V65.3677L360.54 82.8325C361.8 89.5742 362.4 96.6345 362.4 103.907C362.34 113.515 361.2 122.805 359.1 131.458Z" fill="#2DFFC9"/>
<path d="M375.72 132.944L395.28 139.686V106.827L335.22 65.3677V127.53L349.74 134.271C357.48 130.662 366.9 129.918 375.72 132.944Z" stroke="#121330" stroke-width="6" stroke-miterlimit="10" stroke-linecap="round" stroke-linejoin="round"/>
<path d="M401.64 148.286C407.76 140.43 411.3 131.14 411.3 121.213C411.3 108.632 405.72 97.1127 396.42 88.2476C387.12 97.1127 381.48 108.632 381.42 121.213C381.42 131.193 384.96 140.43 391.02 148.286H401.64Z" fill="#00C297"/>
<path opacity="0.23" d="M397.32 88.2476C396.6 88.9377 395.88 89.6808 395.22 90.424C401.46 98.9176 405.06 108.897 405.12 119.514C405.12 130.025 403.32 139.846 397.2 148.339H402.72C408.78 140.483 412.32 131.193 412.32 121.266C412.26 108.632 406.62 97.1127 397.32 88.2476Z" fill="#F4A15D"/>
<path opacity="0.32" d="M397.32 88.2476C397.08 88.4599 396.84 88.7253 396.6 88.9907C403.62 98.1744 407.64 108.951 407.7 120.523C407.7 130.556 404.64 140.005 399.3 148.339H402.72C408.78 140.483 412.32 131.193 412.32 121.266C412.26 108.632 406.62 97.1127 397.32 88.2476Z" fill="#F4A15D"/>
<path opacity="0.37" d="M381.42 121.213C381.42 108.632 387.06 97.1658 396.42 88.2476C397.14 88.9377 397.86 89.6808 398.52 90.424C392.28 98.9176 388.68 108.897 388.62 119.514C388.62 130.025 392.1 139.846 398.22 148.339H391.02C384.96 140.43 381.42 131.14 381.42 121.213Z" fill="#2DFFC9"/>
<path opacity="0.72" d="M381.42 121.213C381.42 108.632 387.06 97.1658 396.42 88.2476C396.66 88.4599 396.9 88.7253 397.14 88.9907C390.12 98.1744 386.1 108.951 386.04 120.523C386.04 130.556 389.1 140.005 394.44 148.339H391.02C384.96 140.43 381.42 131.14 381.42 121.213Z" fill="#2DFFC9"/>
<path opacity="0.37" d="M396.42 88.2476C397.14 88.9377 397.86 89.6808 398.52 90.424C392.28 98.9176 388.68 108.897 388.62 119.514C388.62 130.025 392.1 139.846 398.22 148.339H391.02C384.96 140.483 381.42 131.193 381.42 121.266C381.48 108.632 387.12 97.1127 396.42 88.2476Z" fill="#2DFFC9"/>
<path opacity="0.72" d="M396.42 88.2476C396.66 88.4599 396.9 88.7253 397.14 88.9907C390.12 98.1744 386.1 108.951 386.04 120.523C386.04 130.556 389.1 140.005 394.44 148.339H391.02C384.96 140.483 381.42 131.193 381.42 121.266C381.48 108.632 387.12 97.1127 396.42 88.2476Z" fill="#2DFFC9"/>
<path d="M389.58 97.8026C391.8 94.3521 394.44 91.1671 397.5 88.1943C400.56 91.114 403.2 94.3521 405.42 97.8026H389.58Z" fill="#121330"/>
<path d="M401.64 148.286C407.76 140.43 411.3 131.14 411.3 121.213C411.3 108.632 405.72 97.1127 396.42 88.2476C387.12 97.1127 381.48 108.632 381.42 121.213C381.42 131.193 384.96 140.43 391.02 148.286H401.64Z" stroke="#121330" stroke-width="6" stroke-miterlimit="10" stroke-linecap="round" stroke-linejoin="round"/>
<path d="M323.7 189.267C323.7 189.267 330.96 190.647 341.4 199.884C345.18 203.229 351.12 210.023 355.5 215.173C357.3 217.296 361.14 216.234 361.2 213.58L362.64 157.045C362.94 155.452 362.46 153.807 361.32 152.586L345.6 135.28L323.7 189.267Z" fill="#00C297"/>
<path opacity="0.32" d="M361.32 214.695C357.9 214.27 355.32 211.669 355.26 208.59L354.6 156.036C354.9 154.444 354.42 152.798 353.28 151.577L343.44 140.695L345.66 135.28L361.32 152.533C362.46 153.807 362.94 155.399 362.64 156.992L361.32 214.695Z" fill="#F4A15D"/>
<path opacity="0.72" d="M323.7 189.267L345.6 135.28L354.3 144.889C349.62 160.814 342.24 177.005 332.28 193.142C327 189.904 323.7 189.267 323.7 189.267Z" fill="#2DFFC9"/>
<path d="M323.7 189.267C323.7 189.267 330.96 190.647 341.4 199.884C345.18 203.229 351.12 210.023 355.5 215.173C357.3 217.296 361.14 216.234 361.2 213.58L362.64 157.045C362.94 155.452 362.46 153.807 361.32 152.586L345.6 135.28L323.7 189.267Z" stroke="#121330" stroke-width="6" stroke-miterlimit="10" stroke-linecap="round" stroke-linejoin="round"/>
<path d="M407.34 141.279H387.6" stroke="#121330" stroke-width="4" stroke-miterlimit="10" stroke-linecap="round" stroke-linejoin="round"/>
<path d="M401.64 148.286C407.76 140.43 411.3 131.14 411.3 121.213C411.3 108.632 405.72 97.1127 396.42 88.2476C387.12 97.1127 381.48 108.632 381.42 121.213C381.42 131.193 384.96 140.43 391.02 148.286H401.64Z" fill="#00C297"/>
<path d="M401.64 148.286C407.76 140.43 411.3 131.14 411.3 121.213C411.3 108.632 405.72 97.1127 396.42 88.2476C387.12 97.1127 381.48 108.632 381.42 121.213C381.42 131.193 384.96 140.43 391.02 148.286H401.64Z" fill="#00C297"/>
<path opacity="0.23" d="M397.32 88.2476C396.6 88.9377 395.88 89.6808 395.22 90.424C401.46 98.9176 405.06 108.897 405.12 119.514C405.12 130.025 403.32 139.846 397.2 148.339H402.72C408.78 140.483 412.32 131.193 412.32 121.266C412.26 108.632 406.62 97.1127 397.32 88.2476Z" fill="#2DFFC9"/>
<path opacity="0.32" d="M397.32 88.2476C397.08 88.4599 396.84 88.7253 396.6 88.9907C403.62 98.1744 407.64 108.951 407.7 120.523C407.7 130.556 404.64 140.005 399.3 148.339H402.72C408.78 140.483 412.32 131.193 412.32 121.266C412.26 108.632 406.62 97.1127 397.32 88.2476Z" fill="#F4A15D"/>
<path opacity="0.37" d="M381.42 121.213C381.42 108.632 387.06 97.1658 396.42 88.2476C397.14 88.9377 397.86 89.6808 398.52 90.424C392.28 98.9176 388.68 108.897 388.62 119.514C388.62 130.025 392.1 139.846 398.22 148.339H391.02C384.96 140.43 381.42 131.14 381.42 121.213Z" fill="#2DFFC9"/>
<path opacity="0.72" d="M381.42 121.213C381.42 108.632 387.06 97.1658 396.42 88.2476C396.66 88.4599 396.9 88.7253 397.14 88.9907C390.12 98.1744 386.1 108.951 386.04 120.523C386.04 130.556 389.1 140.005 394.44 148.339H391.02C384.96 140.43 381.42 131.14 381.42 121.213Z" fill="#2DFFC9"/>
<path opacity="0.37" d="M396.42 88.2476C397.14 88.9377 397.86 89.6808 398.52 90.424C392.28 98.9176 388.68 108.897 388.62 119.514C388.62 130.025 392.1 139.846 398.22 148.339H391.02C384.96 140.483 381.42 131.193 381.42 121.266C381.48 108.632 387.12 97.1127 396.42 88.2476Z" fill="#2DFFC9"/>
<path opacity="0.72" d="M396.42 88.2476C396.66 88.4599 396.9 88.7253 397.14 88.9907C390.12 98.1744 386.1 108.951 386.04 120.523C386.04 130.556 389.1 140.005 394.44 148.339H391.02C384.96 140.483 381.42 131.193 381.42 121.266C381.48 108.632 387.12 97.1127 396.42 88.2476Z" fill="#2DFFC9"/>
<path d="M388.5 97.8026C390.72 94.3521 393.36 91.1671 396.42 88.1943C399.48 91.114 402.12 94.3521 404.34 97.8026H388.5Z" fill="#121330"/>
<path d="M401.64 148.286C407.76 140.43 411.3 131.14 411.3 121.213C411.3 108.632 405.72 97.1127 396.42 88.2476C387.12 97.1127 381.48 108.632 381.42 121.213C381.42 131.193 384.96 140.43 391.02 148.286H401.64Z" stroke="#121330" stroke-width="6" stroke-miterlimit="10" stroke-linecap="round" stroke-linejoin="round"/>
<path d="M407.34 141.279H387.6" stroke="#121330" stroke-width="4" stroke-miterlimit="10" stroke-linecap="round" stroke-linejoin="round"/>
<path d="M234.42 132.944L214.86 139.686V106.827L274.92 65.3677V127.53L260.4 134.271C252.66 130.662 243.24 129.918 234.42 132.944Z" fill="#00C297"/>
<path opacity="0.72" d="M214.86 139.686L234.3 132.997C234.54 128.432 234.18 123.761 233.22 119.089C231.78 112.082 229.08 105.5 225.36 99.5542L214.86 106.827V139.686Z" fill="#2DFFC9"/>
<path opacity="0.23" d="M217.32 116.01L274.92 76.3031V65.3677L214.86 106.774V139.686L217.32 138.837V116.01Z" fill="#2DFFC9"/>
<path opacity="0.72" d="M251.04 131.458C254.34 131.936 257.46 132.891 260.4 134.271L274.92 127.53V65.3677L249.6 82.8325C248.34 89.5742 247.74 96.6345 247.74 103.907C247.74 113.515 248.88 122.805 251.04 131.458Z" fill="#2DFFC9"/>
<path d="M234.42 132.944L214.86 139.686V106.827L274.92 65.3677V127.53L260.4 134.271C252.66 130.662 243.24 129.918 234.42 132.944Z" stroke="#121330" stroke-width="6" stroke-miterlimit="10" stroke-linecap="round" stroke-linejoin="round"/>
<path d="M286.38 189.267C286.38 189.267 279.12 190.647 268.68 199.884C264.9 203.229 258.96 210.023 254.58 215.173C252.78 217.296 248.94 216.234 248.88 213.58L247.44 157.045C247.14 155.452 247.62 153.807 248.76 152.586L264.48 135.28L286.38 189.267Z" fill="#00C297"/>
<path opacity="0.72" d="M248.82 214.695C252.24 214.27 254.82 211.669 254.88 208.59L255.54 156.036C255.24 154.444 255.72 152.798 256.86 151.577L266.7 140.695L264.48 135.28L248.76 152.586C247.62 153.86 247.14 155.452 247.44 157.045L248.82 214.695Z" fill="#2DFFC9"/>
<path opacity="0.72" d="M286.38 189.267L264.48 135.28L255.78 144.889C260.46 160.814 267.84 177.005 277.8 193.142C283.08 189.904 286.38 189.267 286.38 189.267Z" fill="#2DFFC9"/>
<path d="M286.38 189.267C286.38 189.267 279.12 190.647 268.68 199.884C264.9 203.229 258.96 210.023 254.58 215.173C252.78 217.296 248.94 216.234 248.88 213.58L247.44 157.045C247.14 155.452 247.62 153.807 248.76 152.586L264.48 135.28L286.38 189.267Z" stroke="#121330" stroke-width="6" stroke-miterlimit="10" stroke-linecap="round" stroke-linejoin="round"/>
<path d="M286.68 219.632C286.02 213.315 286.98 207.369 298.98 191.709C300.96 189.214 305.7 189.214 307.68 191.709C319.68 207.422 320.64 213.368 319.98 219.632C319.86 220.428 318.24 221.33 317.22 221.012C310.32 217.88 296.34 217.88 289.44 221.012C288.42 221.33 286.8 220.481 286.68 219.632Z" fill="#4E8280"/>
<g opacity="0.32">
<g opacity="0.32">
<g opacity="0.32">
<path opacity="0.32" d="M313.92 219.631C314.58 213.314 313.62 207.369 301.62 191.709C301.26 191.231 300.78 190.859 300.3 190.594C302.58 189.267 306.06 189.639 307.68 191.709C319.68 207.422 320.64 213.367 319.98 219.631C319.86 220.428 318.24 221.33 317.22 221.011C316.2 220.587 315.06 220.162 313.86 219.844C313.86 219.791 313.92 219.737 313.92 219.631Z" fill="#F4A15D"/>
</g>
<g opacity="0.32">
<path opacity="0.32" d="M300.3 218.782C296.16 219.047 292.26 219.79 289.44 221.011C288.54 221.33 287.1 220.587 286.74 219.844C290.7 218.835 295.62 218.463 300.3 218.782Z" fill="#F4A15D"/>
</g>
</g>
</g>
<path d="M305.58 191.709C305.76 191.497 305.94 191.338 306.12 191.179C303.9 189.215 299.76 189.427 297.96 191.709C285.96 207.423 285 213.367 285.66 219.631C285.78 220.428 287.4 221.331 288.42 221.012C289.8 220.375 291.48 219.897 293.28 219.526C292.62 213.262 293.64 207.316 305.58 191.709Z" fill="#37605D"/>
<path d="M286.68 219.632C286.02 213.315 286.98 207.369 298.98 191.709C300.96 189.214 305.7 189.214 307.68 191.709C319.68 207.422 320.64 213.368 319.98 219.632C319.86 220.428 318.24 221.33 317.22 221.012C310.32 217.88 296.34 217.88 289.44 221.012C288.42 221.33 286.8 220.481 286.68 219.632Z" stroke="#121330" stroke-width="6" stroke-miterlimit="10" stroke-linecap="round" stroke-linejoin="round"/>
<path d="M289.8 200.575C261.54 159.646 251.28 119.461 257.64 85.9651C263.16 56.8747 280.92 35.9063 303.36 22.7944C325.8 35.9063 343.56 56.8747 349.08 85.9651C355.44 119.461 345.12 159.646 316.92 200.575H289.8Z" fill="#00C297"/>
<path opacity="0.23" d="M327.6 86.5481C324 60.2182 314.64 39.3029 302.04 23.6429C302.46 23.3775 302.94 23.1121 303.36 22.8467C325.8 35.9586 343.56 56.927 349.08 86.0173C355.44 119.514 345.12 159.699 316.92 200.627H311.22C326.88 159.699 332.16 120.363 327.6 86.5481Z" fill="#2DFFC9"/>
<path opacity="0.37" d="M257.64 85.9644C263.1 57.0864 280.62 36.2242 302.88 23.1123C298.74 29.0047 293.46 37.4982 289.02 48.2744C280.92 67.8626 280.02 84.0003 279.54 94.1394C277.38 139.739 297.12 190.169 301.26 200.627H289.8C261.54 159.646 251.28 119.461 257.64 85.9644Z" fill="#2DFFC9"/>
<path opacity="0.72" d="M257.64 85.9651C263.16 56.8747 280.92 35.9063 303.36 22.7944C303.96 23.1129 304.5 23.4845 305.1 23.8031C296.58 29.6954 290.1 36.0125 285.18 42.0641C241.02 96.4227 283.38 177.801 289.2 188.577C289.44 181.252 290.52 172.174 293.58 162.035C295.56 155.559 297.96 149.879 300.36 145.048C301.26 163.044 302.16 181.04 303.06 199.035H295.62C295.8 199.566 295.98 200.044 296.22 200.575H289.92C261.54 159.646 251.28 119.461 257.64 85.9651Z" fill="#2DFFC9"/>
<path opacity="0.32" d="M341.52 95.2013C340.68 86.7078 337.56 59.1038 318.3 36.4367C315.24 32.88 310.68 28.0494 311.04 27.7839C311.58 27.3593 322.14 35.7997 329.64 44.771C339.06 55.9718 345.96 69.7207 349.02 85.9646C355.38 119.461 345.06 159.646 316.86 200.574H314.4C322.14 186.931 327.24 174.616 330.72 164.901C333 158.372 337.02 146.8 339.54 131.299C341.16 120.894 342.96 109.746 341.52 95.2013Z" fill="#2DFFC9"/>
<path opacity="0.72" d="M300.12 106.136C291.107 106.136 283.8 99.6722 283.8 91.6973C283.8 83.7229 291.107 77.2583 300.12 77.2583C309.134 77.2583 316.44 83.7229 316.44 91.6973C316.44 99.6722 309.134 106.136 300.12 106.136Z" fill="#2DFFC9" stroke="#2DFFC9" stroke-width="6" stroke-miterlimit="10" stroke-linecap="round" stroke-linejoin="round"/>
<path d="M289.8 200.575C261.54 159.646 251.28 119.461 257.64 85.9651C263.16 56.8747 280.92 35.9063 303.36 22.7944C325.8 35.9063 343.56 56.8747 349.08 85.9651C355.44 119.461 345.12 159.646 316.92 200.575H289.8Z" stroke="#121330" stroke-width="6" stroke-miterlimit="10" stroke-linecap="round" stroke-linejoin="round"/>
<path d="M287.242 91.7821C285.799 83.9107 291.84 76.4938 300.738 75.2166C309.634 73.9388 318.018 79.2844 319.461 87.1558C320.905 95.0277 314.863 102.444 305.967 103.722C297.069 105 288.687 99.654 287.242 91.7821Z" fill="#ABCFD8"/>
<path opacity="0.93" d="M305.58 97.378C300.146 97.378 295.74 93.48 295.74 88.6722C295.74 83.8643 300.146 79.9663 305.58 79.9663C311.014 79.9663 315.42 83.8643 315.42 88.6722C315.42 93.48 311.014 97.378 305.58 97.378Z" fill="#E2F0F2"/>
<path d="M287.242 91.7821C285.799 83.9107 291.84 76.4938 300.738 75.2166C309.634 73.9388 318.018 79.2844 319.461 87.1558C320.905 95.0277 314.863 102.444 305.967 103.722C297.069 105 288.687 99.654 287.242 91.7821Z" stroke="#121330" stroke-width="6" stroke-miterlimit="10" stroke-linecap="round" stroke-linejoin="round"/>
<path d="M303.36 225.418C302.7 225.418 302.16 224.781 302.1 223.932L297.6 158.956C297.12 152.268 299.52 146.057 303.06 144.57C303.3 144.464 303.54 144.464 303.72 144.57C307.26 146.004 309.66 152.215 309.18 158.956L304.68 223.932C304.56 224.781 303.96 225.418 303.36 225.418Z" fill="#2DFFC9"/>
<path opacity="0.74" d="M303.36 225.418C302.7 225.418 302.16 224.781 302.1 223.932L297.6 158.956C297.12 152.268 299.52 146.057 303.06 144.57C303.3 144.464 303.54 144.464 303.72 144.57C307.26 146.004 309.66 152.215 309.18 158.956L304.68 223.932C304.56 224.781 303.96 225.418 303.36 225.418Z" fill="#2DFFC9"/>
<g opacity="0.53">
<g opacity="0.53">
<g opacity="0.53">
<path opacity="0.53" d="M303.66 144.57C307.2 146.004 309.6 152.214 309.12 158.956L304.62 223.932C304.56 224.622 304.2 225.206 303.72 225.365V144.57H303.66Z" fill="#F4A15D"/>
</g>
<g opacity="0.53">
<path opacity="0.53" d="M303.66 144.57H303C303.24 144.464 303.48 144.464 303.66 144.57Z" fill="#F4A15D"/>
</g>
</g>
</g>
<path d="M303.36 225.418C302.7 225.418 302.16 224.781 302.1 223.932L297.6 158.956C297.12 152.268 299.52 146.057 303.06 144.57C303.3 144.464 303.54 144.464 303.72 144.57C307.26 146.004 309.66 152.215 309.18 158.956L304.68 223.932C304.56 224.781 303.96 225.418 303.36 225.418Z" stroke="#121330" stroke-width="6" stroke-miterlimit="10" stroke-linecap="round" stroke-linejoin="round"/>
<path d="M215.28 148.286C221.4 140.43 224.94 131.14 224.94 121.213C224.94 108.632 219.36 97.1127 210.06 88.2476C200.76 97.1127 195.12 108.632 195.06 121.213C195.06 131.193 198.6 140.43 204.66 148.286H215.28Z" fill="#00C297"/>
<path d="M215.28 148.286C221.4 140.43 224.94 131.14 224.94 121.213C224.94 108.632 219.36 97.1127 210.06 88.2476C200.76 97.1127 195.12 108.632 195.06 121.213C195.06 131.193 198.6 140.43 204.66 148.286H215.28Z" fill="#00C297"/>
<path opacity="0.23" d="M210.9 88.2476C210.18 88.9377 209.46 89.6808 208.8 90.424C215.04 98.9176 218.64 108.897 218.7 119.514C218.7 130.025 216.9 139.846 210.78 148.339H216.3C222.36 140.483 225.9 131.193 225.9 121.266C225.9 108.632 220.26 97.1127 210.9 88.2476Z" fill="#2DFFC9"/>
<path opacity="0.32" d="M210.9 88.2476C210.66 88.4599 210.42 88.7253 210.18 88.9907C217.2 98.1744 221.22 108.951 221.28 120.523C221.28 130.556 218.22 140.005 212.88 148.339H216.3C222.36 140.483 225.9 131.193 225.9 121.266C225.9 108.632 220.26 97.1127 210.9 88.2476Z" fill="#F4A15D"/>
<path opacity="0.37" d="M195.06 121.213C195.06 108.632 200.7 97.1658 210.06 88.2476C210.78 88.9377 211.5 89.6808 212.16 90.424C205.92 98.9176 202.32 108.897 202.26 119.514C202.26 130.025 205.74 139.846 211.86 148.339H204.66C198.6 140.43 195.06 131.14 195.06 121.213Z" fill="#2DFFC9"/>
<path opacity="0.72" d="M195.06 121.213C195.06 108.632 200.7 97.1658 210.06 88.2476C210.3 88.4599 210.54 88.7253 210.78 88.9907C203.76 98.1744 199.74 108.951 199.68 120.523C199.68 130.556 202.74 140.005 208.08 148.339H204.66C198.6 140.43 195.06 131.14 195.06 121.213Z" fill="#2DFFC9"/>
<path opacity="0.37" d="M210.06 88.2476C210.78 88.9377 211.5 89.6808 212.16 90.424C205.92 98.9176 202.32 108.897 202.26 119.514C202.26 130.025 205.74 139.846 211.86 148.339H204.66C198.6 140.483 195.06 131.193 195.06 121.266C195.06 108.632 200.7 97.1127 210.06 88.2476Z" fill="#2DFFC9"/>
<path opacity="0.72" d="M210.06 88.2476C210.3 88.4599 210.54 88.7253 210.78 88.9907C203.76 98.1744 199.74 108.951 199.68 120.523C199.68 130.556 202.74 140.005 208.08 148.339H204.66C198.6 140.483 195.06 131.193 195.06 121.266C195.06 108.632 200.7 97.1127 210.06 88.2476Z" fill="#2DFFC9"/>
<path d="M202.08 97.8026C204.3 94.3521 206.94 91.1671 210 88.1943C213.06 91.114 215.7 94.3521 217.92 97.8026H202.08Z" fill="#121330"/>
<path d="M215.28 148.286C221.4 140.43 224.94 131.14 224.94 121.213C224.94 108.632 219.36 97.1127 210.06 88.2476C200.76 97.1127 195.12 108.632 195.06 121.213C195.06 131.193 198.6 140.43 204.66 148.286H215.28Z" stroke="#121330" stroke-width="6" stroke-miterlimit="10" stroke-linecap="round" stroke-linejoin="round"/>
<path d="M219.84 141.279H200.1" stroke="#121330" stroke-width="4" stroke-miterlimit="10" stroke-linecap="round" stroke-linejoin="round"/>
<path opacity="0.41" d="M321.72 129.581C321.72 129.581 317.64 125.333 303.78 118.187C310.2 123.944 311.46 127.556 311.88 127.834C315.96 128.35 321.72 129.581 321.72 129.581Z" fill="white"/>
</g>
</g>
<defs>
<linearGradient id="paint0_linear_363_13727" x1="600" y1="198.5" x2="4.47035e-06" y2="198.5" gradientUnits="userSpaceOnUse">
<stop stop-color="#8588E0"/>
<stop offset="1" stop-color="#FCF8FD" stop-opacity="0.5"/>
<stop offset="1" stop-color="#FCF8FD"/>
</linearGradient>
<clipPath id="clip0_363_13727">
<rect width="600" height="396" fill="white" transform="matrix(-1 0 0 1 600 0)"/>
</clipPath>
</defs>
</svg>
