<svg width="518" height="433" viewBox="0 0 518 433" fill="none" xmlns="http://www.w3.org/2000/svg">
<path d="M508.543 318.621H20.3965C18.9855 318.621 17.7392 318.228 16.8595 317.616C15.9789 317.004 15.5 316.203 15.5 315.368C15.5 314.533 15.9789 313.733 16.8595 313.12C17.7392 312.509 18.9855 312.115 20.3965 312.115H508.603C510.014 312.115 511.261 312.509 512.141 313.12C513.019 313.731 513.497 314.529 513.5 315.361C513.473 316.2 512.976 317.003 512.09 317.615C511.201 318.228 509.954 318.621 508.543 318.621Z" fill="#121330" stroke="#121330"/>
<g style="mix-blend-mode:multiply" opacity="0.11">
<path d="M163.341 185.328H65.9571C64.2405 185.328 62.8491 186.488 62.8491 187.92V279.504C62.8491 280.935 64.2405 282.096 65.9571 282.096H163.341C165.058 282.096 166.449 280.935 166.449 279.504V187.92C166.449 186.488 165.058 185.328 163.341 185.328Z" fill="#161616"/>
<path d="M163.341 185.328H65.9571C64.2405 185.328 62.8491 186.488 62.8491 187.92V279.504C62.8491 280.935 64.2405 282.096 65.9571 282.096H163.341C165.058 282.096 166.449 280.935 166.449 279.504V187.92C166.449 186.488 165.058 185.328 163.341 185.328Z" stroke="#1E223B" stroke-miterlimit="10"/>
</g>
<path d="M160.492 183.6H63.108C61.3913 183.6 60 184.76 60 186.192V277.776C60 279.207 61.3913 280.368 63.108 280.368H160.492C162.209 280.368 163.6 279.207 163.6 277.776V186.192C163.6 184.76 162.209 183.6 160.492 183.6Z" fill="white"/>
<path d="M60 265.68H163.6V277.776C163.6 278.463 163.273 279.123 162.69 279.609C162.107 280.095 161.316 280.368 160.492 280.368H63.108C62.2839 280.368 61.4934 280.095 60.9101 279.609C60.3274 279.123 60 278.463 60 277.776V265.68Z" fill="#EFEFEF"/>
<path d="M160.492 183.6H63.108C61.3913 183.6 60 184.76 60 186.192V277.776C60 279.207 61.3913 280.368 63.108 280.368H160.492C162.209 280.368 163.6 279.207 163.6 277.776V186.192C163.6 184.76 162.209 183.6 160.492 183.6Z" stroke="#121330" stroke-width="2" stroke-linecap="round" stroke-linejoin="round"/>
<path d="M62.8112 183.6H160.789C161.158 183.6 161.524 183.661 161.865 183.778C162.206 183.896 162.516 184.069 162.777 184.286C163.038 184.504 163.245 184.763 163.386 185.047C163.527 185.332 163.6 185.637 163.6 185.945V191.376H60V185.945C60 185.637 60.0725 185.332 60.2139 185.047C60.3548 184.763 60.562 184.504 60.8231 184.286C61.0842 184.069 61.3939 183.896 61.7353 183.778C62.0761 183.661 62.4419 183.6 62.8112 183.6Z" fill="#363D56"/>
<path d="M62.8112 183.6H160.789C161.158 183.6 161.524 183.661 161.865 183.778C162.206 183.896 162.516 184.069 162.777 184.286C163.038 184.504 163.245 184.763 163.386 185.047C163.527 185.332 163.6 185.637 163.6 185.945V191.376H60V185.945C60 185.637 60.0725 185.332 60.2139 185.047C60.3548 184.763 60.562 184.504 60.8231 184.286C61.0842 184.069 61.3939 183.896 61.7353 183.778C62.0761 183.661 62.4419 183.6 62.8112 183.6Z" stroke="#1E223B" stroke-width="2" stroke-linecap="round" stroke-linejoin="round"/>
<path d="M163.6 191.375H60V194.831H163.6V191.375Z" fill="#424960"/>
<path d="M163.6 191.375H60V194.831H163.6V191.375Z" stroke="#1E223B" stroke-width="2" stroke-linecap="round" stroke-linejoin="round"/>
<path d="M65.7845 188.783C66.6428 188.783 67.3385 188.203 67.3385 187.487C67.3385 186.772 66.6428 186.191 65.7845 186.191C64.9261 186.191 64.2305 186.772 64.2305 187.487C64.2305 188.203 64.9261 188.783 65.7845 188.783Z" fill="#F73E39"/>
<path d="M65.7845 188.783C66.6428 188.783 67.3385 188.203 67.3385 187.487C67.3385 186.772 66.6428 186.191 65.7845 186.191C64.9261 186.191 64.2305 186.772 64.2305 187.487C64.2305 188.203 64.9261 188.783 65.7845 188.783Z" stroke="#121330" stroke-linecap="round" stroke-linejoin="round"/>
<path d="M72.1394 188.783C72.9978 188.783 73.6934 188.203 73.6934 187.487C73.6934 186.772 72.9978 186.191 72.1394 186.191C71.2811 186.191 70.5854 186.772 70.5854 187.487C70.5854 188.203 71.2811 188.783 72.1394 188.783Z" fill="#383838"/>
<path d="M72.1394 188.783C72.9978 188.783 73.6934 188.203 73.6934 187.487C73.6934 186.772 72.9978 186.191 72.1394 186.191C71.2811 186.191 70.5854 186.772 70.5854 187.487C70.5854 188.203 71.2811 188.783 72.1394 188.783Z" stroke="#121330" stroke-linecap="round" stroke-linejoin="round"/>
<path d="M77.9549 188.783C78.8132 188.783 79.5089 188.203 79.5089 187.487C79.5089 186.772 78.8132 186.191 77.9549 186.191C77.0966 186.191 76.4009 186.772 76.4009 187.487C76.4009 188.203 77.0966 188.783 77.9549 188.783Z" fill="#C6C6C6"/>
<path d="M77.9549 188.783C78.8132 188.783 79.5089 188.203 79.5089 187.487C79.5089 186.772 78.8132 186.191 77.9549 186.191C77.0966 186.191 76.4009 186.772 76.4009 187.487C76.4009 188.203 77.0966 188.783 77.9549 188.783Z" stroke="#121330" stroke-linecap="round" stroke-linejoin="round"/>
<path opacity="0.28" d="M118.793 186.191H86.677C85.8187 186.191 85.123 186.772 85.123 187.487C85.123 188.203 85.8187 188.783 86.677 188.783H118.793C119.651 188.783 120.347 188.203 120.347 187.487C120.347 186.772 119.651 186.191 118.793 186.191Z" fill="#8289A3"/>
<path opacity="0.32" d="M94.7061 212.543H143.398" stroke="#1E223B" stroke-width="2" stroke-linecap="round" stroke-linejoin="round"/>
<path opacity="0.32" d="M94.7061 216H125.786" stroke="#1E223B" stroke-width="2" stroke-linecap="round" stroke-linejoin="round"/>
<path opacity="0.15" d="M80.2021 232.848H128.894" stroke="#1E223B" stroke-width="2" stroke-linecap="round" stroke-linejoin="round"/>
<path opacity="0.32" d="M80.2021 236.592H111.282" stroke="#1E223B" stroke-width="2" stroke-linecap="round" stroke-linejoin="round"/>
<path opacity="0.32" d="M105.066 240.336H123.196" stroke="#1E223B" stroke-width="2" stroke-linecap="round" stroke-linejoin="round"/>
<path opacity="0.26" d="M80.2021 240.336H101.958" stroke="#1E223B" stroke-width="2" stroke-linecap="round" stroke-linejoin="round"/>
<path opacity="0.15" d="M80.2021 244.08H98.8501" stroke="#1E223B" stroke-width="2" stroke-linecap="round" stroke-linejoin="round"/>
<path d="M82.2741 251.136C81.7246 251.136 81.1977 251.318 80.8092 251.642C80.4202 251.966 80.2021 252.405 80.2021 252.864C80.2021 253.322 80.4202 253.762 80.8092 254.086C81.1977 254.41 81.7246 254.592 82.2741 254.592H124.06V251.136H82.2741Z" fill="#00C297" stroke="#121330" stroke-miterlimit="10"/>
<path d="M147.542 251.136H82.2741C81.1299 251.136 80.2021 251.909 80.2021 252.864C80.2021 253.818 81.1299 254.592 82.2741 254.592H147.542C148.686 254.592 149.614 253.818 149.614 252.864C149.614 251.909 148.686 251.136 147.542 251.136Z" stroke="#121330" stroke-linecap="round" stroke-linejoin="round"/>
<path d="M154.113 127.118H165.62C171.083 127.118 176.322 128.927 180.185 132.149C184.048 135.371 186.218 139.74 186.218 144.296C186.218 146.552 185.685 148.785 184.65 150.869C183.615 152.953 182.098 154.847 180.185 156.442C178.272 158.038 176.002 159.303 173.503 160.166C171.004 161.029 168.325 161.474 165.62 161.474H131.658C128.62 161.474 125.611 161.973 122.803 162.943C119.995 163.912 117.444 165.334 115.296 167.126C113.147 168.918 111.442 171.045 110.279 173.387C109.116 175.728 108.518 178.238 108.518 180.772V182.906" stroke="#121330" stroke-width="2" stroke-linecap="round" stroke-linejoin="round" stroke-dasharray="5.95 7.94"/>
<path d="M151.422 128.018L144.597 126.493L144.593 126.507C144.553 126.014 144.475 125.523 144.361 125.038L144.37 125.05L150.489 122.104C150.73 121.988 150.941 121.834 151.111 121.65C151.28 121.466 151.405 121.255 151.477 121.031C151.549 120.807 151.568 120.573 151.531 120.343C151.495 120.113 151.405 119.89 151.266 119.69L148.794 116.116C148.513 115.71 148.05 115.413 147.508 115.292C146.964 115.17 146.386 115.234 145.899 115.468L139.78 118.414L139.785 118.422C139.342 118.099 138.875 117.8 138.386 117.526H138.395L140.223 111.834C140.369 111.381 140.292 110.899 140.012 110.493C139.73 110.087 139.267 109.791 138.724 109.669L133.947 108.602C133.679 108.542 133.398 108.526 133.122 108.557C132.846 108.587 132.58 108.662 132.339 108.778C132.098 108.894 131.886 109.049 131.717 109.233C131.548 109.417 131.423 109.627 131.351 109.852L129.523 115.543H129.531C128.944 115.577 128.36 115.641 127.783 115.736L127.792 115.731L124.259 110.628C123.978 110.222 123.515 109.926 122.973 109.804C122.429 109.683 121.851 109.746 121.364 109.98L117.08 112.043C116.839 112.159 116.628 112.313 116.458 112.497C116.288 112.681 116.164 112.892 116.092 113.116C116.02 113.34 116.001 113.574 116.038 113.804C116.074 114.034 116.164 114.256 116.303 114.458L119.836 119.56L119.851 119.554C119.461 119.926 119.099 120.319 118.768 120.73L118.773 120.716L111.948 119.19C111.406 119.069 110.827 119.132 110.34 119.367C109.853 119.601 109.498 119.987 109.352 120.44L108.072 124.424C107.927 124.877 108.003 125.36 108.284 125.766C108.565 126.172 109.028 126.468 109.571 126.59L116.396 128.114L116.403 128.093C116.444 128.592 116.522 129.089 116.639 129.58L116.624 129.558L110.505 132.504C110.263 132.62 110.052 132.775 109.883 132.959C109.713 133.143 109.588 133.353 109.516 133.577C109.444 133.802 109.426 134.035 109.462 134.266C109.498 134.496 109.588 134.718 109.728 134.919L112.201 138.491C112.482 138.897 112.945 139.194 113.487 139.315C114.031 139.437 114.609 139.373 115.096 139.139L121.215 136.193L121.197 136.166C121.652 136.498 122.132 136.806 122.635 137.087L122.6 137.079L120.772 142.77C120.7 142.995 120.681 143.228 120.717 143.459C120.753 143.689 120.844 143.911 120.983 144.112C121.122 144.313 121.308 144.489 121.528 144.63C121.749 144.772 122.001 144.876 122.27 144.936L127.048 146.003C127.316 146.063 127.597 146.079 127.873 146.049C128.149 146.018 128.415 145.943 128.656 145.827C128.897 145.711 129.108 145.556 129.278 145.372C129.447 145.188 129.571 144.978 129.643 144.753L131.472 139.062L131.437 139.054C132.041 139.02 132.642 138.954 133.235 138.856L133.203 138.872L136.736 143.974C136.875 144.175 137.06 144.352 137.281 144.493C137.501 144.635 137.754 144.739 138.023 144.799C138.291 144.859 138.572 144.874 138.848 144.844C139.124 144.814 139.39 144.739 139.631 144.622L143.914 142.56C144.156 142.444 144.367 142.29 144.536 142.106C144.706 141.921 144.831 141.711 144.903 141.487C144.975 141.262 144.993 141.029 144.957 140.798C144.921 140.568 144.831 140.346 144.691 140.145L141.158 135.042L141.132 135.055C141.528 134.679 141.894 134.281 142.228 133.865L142.221 133.887L149.046 135.413C149.589 135.534 150.168 135.47 150.654 135.236C151.141 135.001 151.497 134.615 151.642 134.162L152.922 130.179C153.066 129.726 152.989 129.245 152.708 128.839C152.427 128.435 151.964 128.139 151.422 128.018Z" fill="#F8FAF7" stroke="#121330" stroke-width="2" stroke-linecap="round" stroke-linejoin="round"/>
<path d="M130.498 135.552C135.961 135.552 140.389 131.859 140.389 127.302C140.389 122.746 135.961 119.053 130.498 119.053C125.035 119.053 120.606 122.746 120.606 127.302C120.606 131.859 125.035 135.552 130.498 135.552Z" fill="#606174" stroke="#121330" stroke-width="2" stroke-linecap="round" stroke-linejoin="round"/>
<path d="M130.498 130.838C132.839 130.838 134.737 129.255 134.737 127.303C134.737 125.35 132.839 123.767 130.498 123.767C128.156 123.767 126.258 125.35 126.258 127.303C126.258 129.255 128.156 130.838 130.498 130.838Z" fill="#2DFFC9" stroke="#121330" stroke-width="2" stroke-linecap="round" stroke-linejoin="round"/>
<path d="M445.273 183.012H398.86C396.581 183.012 394.716 181.457 394.716 179.556V144.607C394.716 142.707 396.581 141.151 398.86 141.151H445.273C447.552 141.151 449.417 142.707 449.417 144.607V179.556C449.417 181.457 447.552 183.012 445.273 183.012Z" fill="#F8FAF7" stroke="#121330" stroke-width="2" stroke-miterlimit="10" stroke-linecap="round" stroke-linejoin="round"/>
<path d="M444.392 144.694H399.43V169.62H444.392V144.694Z" fill="#8588E0"/>
<path d="M444.392 144.694H399.43V169.62H444.392V144.694Z" fill="#8588E0" stroke="#121330" stroke-width="2" stroke-miterlimit="10" stroke-linecap="round" stroke-linejoin="round"/>
<path d="M399.43 173.595H427.816H399.43Z" fill="#8588E0"/>
<path d="M399.43 173.595H427.816" stroke="#444E59" stroke-width="4" stroke-miterlimit="10" stroke-linecap="round" stroke-linejoin="round"/>
<path d="M399.43 177.569H416.213H399.43Z" fill="#8588E0"/>
<path d="M399.43 177.569H416.213" stroke="#444E59" stroke-width="4" stroke-miterlimit="10" stroke-linecap="round" stroke-linejoin="round"/>
<path d="M403.936 165.171L413.623 157.179L422.636 164.695" fill="#8588E0"/>
<path d="M403.936 165.171L413.623 157.179L422.636 164.695" stroke="#121330" stroke-width="2" stroke-miterlimit="10" stroke-linecap="round" stroke-linejoin="round"/>
<path d="M439.523 165.171L427.816 152.427L418.44 161.153" fill="#8588E0"/>
<path d="M439.523 165.171L427.816 152.427L418.44 161.153" stroke="#121330" stroke-width="2" stroke-miterlimit="10" stroke-linecap="round" stroke-linejoin="round"/>
<path d="M439.419 177.526C440.821 177.526 441.957 176.578 441.957 175.409C441.957 174.24 440.821 173.292 439.419 173.292C438.017 173.292 436.881 174.24 436.881 175.409C436.881 176.578 438.017 177.526 439.419 177.526Z" fill="#8588E0" stroke="#444E59" stroke-width="4" stroke-miterlimit="10" stroke-linecap="round" stroke-linejoin="round"/>
<path d="M416.472 155.105C418.245 155.105 419.683 153.906 419.683 152.426C419.683 150.947 418.245 149.748 416.472 149.748C414.698 149.748 413.26 150.947 413.26 152.426C413.26 153.906 414.698 155.105 416.472 155.105Z" fill="#8588E0"/>
<path d="M416.472 155.105C418.245 155.105 419.683 153.906 419.683 152.426C419.683 150.947 418.245 149.748 416.472 149.748C414.698 149.748 413.26 150.947 413.26 152.426C413.26 153.906 414.698 155.105 416.472 155.105Z" fill="#8588E0" stroke="#444E59" stroke-width="4" stroke-miterlimit="10" stroke-linecap="round" stroke-linejoin="round"/>
<path d="M279.241 120.937H221.665C218.837 120.937 216.524 119.008 216.524 116.65V73.2946C216.524 70.9366 218.837 69.0073 221.665 69.0073H279.241C282.069 69.0073 284.382 70.9366 284.382 73.2946V116.65C284.382 119.008 282.069 120.937 279.241 120.937Z" fill="#F8FAF7" stroke="#121330" stroke-width="2" stroke-miterlimit="10" stroke-linecap="round" stroke-linejoin="round"/>
<path d="M385.91 219.775H409.288C411.32 219.775 413.332 219.522 415.209 219.028C417.086 218.534 418.792 217.809 420.228 216.897C421.665 215.984 422.805 214.9 423.582 213.708C424.36 212.515 424.76 211.237 424.76 209.946V183.919" stroke="#121330" stroke-width="2" stroke-linecap="round" stroke-linejoin="round"/>
<path d="M273.103 78.5112C260.119 78.5112 264.397 91.9832 251.87 91.9832C245.302 91.9832 247.746 101.793 242.093 101.793C235.526 101.793 238.274 87.5358 230.636 87.5358" stroke="#121330" stroke-width="2"/>
<path d="M273.104 79.4282V113.304" stroke="#121330" stroke-width="2"/>
<path d="M251.839 92.5078V113.304" stroke="#121330" stroke-width="2"/>
<path d="M230.561 88.8447V113.304" stroke="#121330" stroke-width="2"/>
<path d="M228.956 113.173H274.632" stroke="#121330" stroke-width="2" stroke-linecap="round" stroke-linejoin="round"/>
<path d="M232.614 88.0316C232.614 88.9143 231.75 89.7553 230.517 89.7553C229.282 89.7553 228.42 88.9146 228.42 88.0316C228.42 87.1505 229.282 86.3096 230.517 86.3096C231.751 86.3096 232.614 87.1507 232.614 88.0316Z" fill="#8588E0" stroke="#121330"/>
<path d="M253.923 92.4791C253.923 93.362 253.061 94.2028 251.826 94.2028C250.593 94.2028 249.729 93.3618 249.729 92.4791C249.729 91.5978 250.593 90.7554 251.826 90.7554C253.061 90.7554 253.923 91.5975 253.923 92.4791Z" fill="#8588E0" stroke="#121330"/>
<path d="M275.157 79.0074C275.157 79.8904 274.295 80.7311 273.06 80.7311C271.827 80.7311 270.963 79.8901 270.963 79.0074C270.963 78.1261 271.827 77.2837 273.06 77.2837C274.295 77.2837 275.157 78.1259 275.157 79.0074Z" fill="#8588E0" stroke="#121330"/>
<path d="M323.75 180.463H316.738C311.847 180.463 307.157 178.778 303.699 175.778C300.241 172.778 298.298 168.71 298.298 164.468C298.298 162.367 297.821 160.287 296.894 158.346C295.967 156.405 294.609 154.642 292.897 153.157C291.185 151.672 289.151 150.494 286.914 149.69C284.677 148.886 282.279 148.472 279.857 148.472H269.67C264.779 148.472 260.089 146.787 256.631 143.787C253.173 140.788 251.23 136.719 251.23 132.477V120.847" stroke="#121330" stroke-width="2" stroke-linecap="round" stroke-linejoin="round" stroke-dasharray="6 8"/>
<path opacity="0.28" d="M216.369 281.422H200.829V287.902C200.829 291.963 204.765 295.289 209.686 295.289H219.891C219.891 295.246 219.891 295.203 219.891 295.159V284.359C219.891 282.718 218.337 281.422 216.369 281.422Z" fill="#1F3969" stroke="#1F3969" stroke-width="4" stroke-miterlimit="10" stroke-linecap="round" stroke-linejoin="round"/>
<path d="M306.863 304.62L305.309 290.062H279.72L278.166 304.62C277.803 307.99 275.369 311.23 271.536 313.822V313.865H313.494V313.822C309.66 311.23 307.226 307.99 306.863 304.62Z" fill="#BFCFE2"/>
<path opacity="0.28" d="M279.72 290.062L278.788 298.788H306.242L305.309 290.062H279.72Z" fill="#1F3969" stroke="#1F3969" stroke-width="4" stroke-miterlimit="10" stroke-linecap="round" stroke-linejoin="round"/>
<path d="M306.863 304.62L305.309 290.062H279.72L278.166 304.62C277.803 307.99 275.369 311.23 271.536 313.822V313.865H313.494V313.822C309.66 311.23 307.226 307.99 306.863 304.62Z" stroke="#121330" stroke-width="4" stroke-miterlimit="10" stroke-linecap="round" stroke-linejoin="round"/>
<path d="M374.359 292.222H210.671C207.252 292.222 204.455 289.889 204.455 287.038V198.046C204.455 195.195 207.252 192.862 210.671 192.862H374.359C377.777 192.862 380.575 195.195 380.575 198.046V287.038C380.575 289.932 377.777 292.222 374.359 292.222Z" fill="white"/>
<path d="M374.359 292.222H210.671C207.252 292.222 204.455 289.889 204.455 287.038V198.046C204.455 195.195 207.252 192.862 210.671 192.862H374.359C377.777 192.862 380.575 195.195 380.575 198.046V287.038C380.575 289.932 377.777 292.222 374.359 292.222Z" fill="#BFCFE2"/>
<path d="M374.359 292.222H210.671C207.252 292.222 204.455 289.889 204.455 287.038V198.046C204.455 195.195 207.252 192.862 210.671 192.862H374.359C377.777 192.862 380.575 195.195 380.575 198.046V287.038C380.575 289.932 377.777 292.222 374.359 292.222Z" stroke="#121330" stroke-width="4" stroke-miterlimit="10" stroke-linecap="round" stroke-linejoin="round"/>
<path d="M371.798 275.645V200.218H213.29V275.645H371.798Z" fill="#F6F9FD"/>
<path opacity="0.28" d="M218.958 192.862V252.737C218.958 254.638 220.823 256.193 223.102 256.193H321.056C323.336 256.193 325.2 254.638 325.2 252.737V192.862H218.958Z" fill="#1F3969" stroke="#1F3969" stroke-width="4" stroke-miterlimit="10" stroke-linecap="round" stroke-linejoin="round"/>
<path d="M371.798 275.645V200.218H213.29V275.645H371.798Z" stroke="#121330" stroke-width="4" stroke-miterlimit="10" stroke-linecap="round" stroke-linejoin="round"/>
<path d="M285.573 283.884H299.507" stroke="#1F3969" stroke-width="4" stroke-miterlimit="10" stroke-linecap="round" stroke-linejoin="round"/>
<path d="M325.718 251.441H227.765C225.485 251.441 223.621 249.886 223.621 247.985V183.963C223.621 182.062 225.485 180.507 227.765 180.507H325.718C327.998 180.507 329.862 182.062 329.862 183.963V248.028C329.862 249.929 327.998 251.441 325.718 251.441Z" fill="#2D425E"/>
<path d="M329.862 188.887H223.621V183.919C223.621 182.019 225.485 180.463 227.765 180.463H325.718C327.998 180.463 329.862 182.019 329.862 183.919V188.887Z" stroke="#1F3969" stroke-width="4" stroke-miterlimit="10" stroke-linecap="round" stroke-linejoin="round"/>
<path d="M329.862 190.529H223.621V183.919C223.621 182.019 225.485 180.463 227.765 180.463H325.718C327.998 180.463 329.862 182.019 329.862 183.919V190.529Z" fill="#D0DDF0"/>
<path d="M329.862 190.529H223.621V183.919C223.621 182.019 225.485 180.463 227.765 180.463H325.718C327.998 180.463 329.862 182.019 329.862 183.919V190.529Z" stroke="#1F3969" stroke-width="4" stroke-miterlimit="10" stroke-linecap="round" stroke-linejoin="round"/>
<path d="M329.862 190.529H223.621V183.919C223.621 182.019 225.485 180.463 227.765 180.463H325.718C327.998 180.463 329.862 182.019 329.862 183.919V190.529Z" stroke="#121330" stroke-width="4" stroke-miterlimit="10" stroke-linecap="round" stroke-linejoin="round"/>
<path d="M325.718 251.441H227.765C225.485 251.441 223.621 249.886 223.621 247.985V183.963C223.621 182.062 225.485 180.507 227.765 180.507H325.718C327.998 180.507 329.862 182.062 329.862 183.963V248.028C329.862 249.929 327.998 251.441 325.718 251.441Z" stroke="#121330" stroke-width="4" stroke-miterlimit="10" stroke-linecap="round" stroke-linejoin="round"/>
<path opacity="0.28" d="M376.845 266.734H316.757C314.478 266.734 312.613 265.179 312.613 263.278V210.185C312.613 208.284 314.478 206.729 316.757 206.729H376.845C379.124 206.729 380.989 208.284 380.989 210.185V263.278C380.989 265.222 379.124 266.734 376.845 266.734Z" fill="#1F3969" stroke="#1F3969" stroke-width="4" stroke-miterlimit="10" stroke-linecap="round" stroke-linejoin="round"/>
<path d="M380.989 263.71H320.901C318.622 263.71 316.757 262.155 316.757 260.254V207.161C316.757 205.26 318.622 203.705 320.901 203.705H380.989C383.268 203.705 385.133 205.26 385.133 207.161V260.254C385.133 262.198 383.268 263.71 380.989 263.71Z" fill="#8588E0"/>
<path d="M380.989 263.71H320.901C318.622 263.71 316.757 262.155 316.757 260.254V207.161C316.757 205.26 318.622 203.705 320.901 203.705H380.989C383.268 203.705 385.133 205.26 385.133 207.161V260.254C385.133 262.198 383.268 263.71 380.989 263.71Z" stroke="#121330" stroke-width="4" stroke-miterlimit="10" stroke-linecap="round" stroke-linejoin="round"/>
<path opacity="0.34" d="M372.027 220.164H329.759C328.256 220.164 327.065 219.171 327.065 217.918V214.548C327.065 213.295 328.256 212.302 329.759 212.302H372.027C373.53 212.302 374.721 213.295 374.721 214.548V217.918C374.721 219.171 373.53 220.164 372.027 220.164Z" stroke="white" stroke-width="2" stroke-miterlimit="10" stroke-linecap="round" stroke-linejoin="round"/>
<g opacity="0.34">
<path opacity="0.34" d="M353.483 232.822H329.862C328.36 232.822 327.168 231.828 327.168 230.575V227.206C327.168 225.953 328.36 224.959 329.862 224.959H353.483C354.985 224.959 356.176 225.953 356.176 227.206V230.575C356.125 231.828 354.933 232.822 353.483 232.822Z" stroke="white" stroke-width="2" stroke-miterlimit="10" stroke-linecap="round" stroke-linejoin="round"/>
<path opacity="0.34" d="M372.079 232.822H362.91C361.408 232.822 360.217 231.828 360.217 230.575V227.206C360.217 225.953 361.408 224.959 362.91 224.959H372.079C373.581 224.959 374.773 225.953 374.773 227.206V230.575C374.773 231.828 373.581 232.822 372.079 232.822Z" stroke="white" stroke-width="2" stroke-miterlimit="10" stroke-linecap="round" stroke-linejoin="round"/>
</g>
<path d="M327.117 245.955H374.721" stroke="white" stroke-width="2" stroke-miterlimit="10" stroke-linecap="round" stroke-linejoin="round"/>
<path d="M327.117 250.62H374.721" stroke="white" stroke-width="2" stroke-miterlimit="10" stroke-linecap="round" stroke-linejoin="round"/>
<path d="M327.117 255.286H356.125" stroke="white" stroke-width="2" stroke-miterlimit="10" stroke-linecap="round" stroke-linejoin="round"/>
<path d="M234.032 187.246C235.177 187.246 236.104 186.472 236.104 185.518C236.104 184.563 235.177 183.79 234.032 183.79C232.888 183.79 231.96 184.563 231.96 185.518C231.96 186.472 232.888 187.246 234.032 187.246Z" fill="#121330"/>
<path d="M241.233 187.246C242.377 187.246 243.305 186.472 243.305 185.518C243.305 184.563 242.377 183.79 241.233 183.79C240.088 183.79 239.161 184.563 239.161 185.518C239.161 186.472 240.088 187.246 241.233 187.246Z" fill="#121330"/>
<path d="M248.433 187.246C249.577 187.246 250.505 186.472 250.505 185.518C250.505 184.563 249.577 183.79 248.433 183.79C247.289 183.79 246.361 184.563 246.361 185.518C246.361 186.472 247.289 187.246 248.433 187.246Z" fill="#121330"/>
<path d="M284.641 198.521H291.375" stroke="white" stroke-width="4" stroke-miterlimit="10" stroke-linecap="round" stroke-linejoin="round"/>
<path d="M250.505 198.521H279.668" stroke="#7BFFA0" stroke-width="4" stroke-miterlimit="10" stroke-linecap="round" stroke-linejoin="round"/>
<path d="M236.104 198.521H246.361" stroke="#9169FF" stroke-width="4" stroke-miterlimit="10" stroke-linecap="round" stroke-linejoin="round"/>
<path d="M249.469 241.073H271.743" stroke="#9169FF" stroke-width="4" stroke-miterlimit="10" stroke-linecap="round" stroke-linejoin="round"/>
<path d="M236.104 241.073H243.305" stroke="#7BFFA0" stroke-width="4" stroke-miterlimit="10" stroke-linecap="round" stroke-linejoin="round"/>
<path d="M279.668 203.834H283.864" stroke="white" stroke-width="4" stroke-miterlimit="10" stroke-linecap="round" stroke-linejoin="round"/>
<path d="M260.605 203.834H274.695" stroke="#9169FF" stroke-width="4" stroke-miterlimit="10" stroke-linecap="round" stroke-linejoin="round"/>
<path d="M241.232 203.834H255.581" stroke="#FFC47D" stroke-width="4" stroke-miterlimit="10" stroke-linecap="round" stroke-linejoin="round"/>
<path d="M263.455 209.148H275.835" stroke="white" stroke-width="4" stroke-miterlimit="10" stroke-linecap="round" stroke-linejoin="round"/>
<path d="M247.915 209.148H259.57" stroke="#FF5757" stroke-width="4" stroke-miterlimit="10" stroke-linecap="round" stroke-linejoin="round"/>
<path d="M265.112 214.462H267.651" stroke="white" stroke-width="4" stroke-miterlimit="10" stroke-linecap="round" stroke-linejoin="round"/>
<path d="M254.856 214.462H260.606" stroke="#9169FF" stroke-width="4" stroke-miterlimit="10" stroke-linecap="round" stroke-linejoin="round"/>
<path d="M241.232 214.462H250.505" stroke="#7BFFA0" stroke-width="4" stroke-miterlimit="10" stroke-linecap="round" stroke-linejoin="round"/>
<path d="M261.124 219.818H277.648" stroke="#FFC47D" stroke-width="4" stroke-miterlimit="10" stroke-linecap="round" stroke-linejoin="round"/>
<path d="M241.232 219.818H256.047" stroke="#FF5757" stroke-width="4" stroke-miterlimit="10" stroke-linecap="round" stroke-linejoin="round"/>
<path d="M280.238 225.132H289.2" stroke="#9169FF" stroke-width="4" stroke-miterlimit="10" stroke-linecap="round" stroke-linejoin="round"/>
<path d="M261.124 225.132H275.473" stroke="#FF5757" stroke-width="4" stroke-miterlimit="10" stroke-linecap="round" stroke-linejoin="round"/>
<path d="M247.915 225.132H256.048" stroke="#7BFFA0" stroke-width="4" stroke-miterlimit="10" stroke-linecap="round" stroke-linejoin="round"/>
<path d="M267.651 230.446H275.473" stroke="white" stroke-width="4" stroke-miterlimit="10" stroke-linecap="round" stroke-linejoin="round"/>
<path d="M247.915 230.446H262.264" stroke="#9169FF" stroke-width="4" stroke-miterlimit="10" stroke-linecap="round" stroke-linejoin="round"/>
<path d="M288.008 235.759H296.969" stroke="white" stroke-width="4" stroke-miterlimit="10" stroke-linecap="round" stroke-linejoin="round"/>
<path d="M260.605 235.759H283.138" stroke="#FFC47D" stroke-width="4" stroke-miterlimit="10" stroke-linecap="round" stroke-linejoin="round"/>
<path d="M241.232 235.759H255.581" stroke="white" stroke-width="4" stroke-miterlimit="10" stroke-linecap="round" stroke-linejoin="round"/>
<path d="M164 252.82H176.082C181.589 252.82 186.87 250.783 190.764 247.158C194.657 243.533 196.845 238.616 196.845 233.489V225.35C196.845 220.249 199.022 215.357 202.896 211.75C206.769 208.144 212.023 206.118 217.502 206.117H224" stroke="#1E223B" stroke-width="2" stroke-linecap="round" stroke-linejoin="round"/>
</svg>
