<svg width="213" height="253" viewBox="0 0 213 253" fill="none" xmlns="http://www.w3.org/2000/svg">
<circle cx="74" cy="100" r="10" fill="#121330"/>
<circle cx="139" cy="99" r="10" fill="#121330"/>
<path fill-rule="evenodd" clip-rule="evenodd" d="M174.773 45.8218C178.503 54.8275 180.423 64.4797 180.423 74.2274H106.196L31.9685 74.2274C31.9685 64.4797 33.8885 54.8275 37.6187 45.8218C41.349 36.8161 46.8166 28.6334 53.7092 21.7407C60.6019 14.8481 68.7846 9.3805 77.7903 5.65023C86.796 1.91995 96.4482 0 106.196 0C115.944 0 125.596 1.91995 134.602 5.65022C143.607 9.3805 151.79 14.8481 158.683 21.7407C165.575 28.6334 171.043 36.8161 174.773 45.8218ZM91.8127 58C89.6036 58 87.8127 59.7909 87.8127 62V73.9281H126.14V62C126.14 59.7909 124.349 58 122.14 58H91.8127Z" fill="#121330"/>
<rect x="88" y="68" width="38" height="6" fill="#2DFFC9"/>
<path d="M102.551 179.586C105 180.976 108 180.976 110.449 179.586L172.378 144.437C179.523 140.382 176.645 129.48 168.429 129.48L44.5709 129.48C36.3548 129.48 33.4767 140.382 40.6221 144.437L102.551 179.586Z" fill="#F2994A"/>
<path fill-rule="evenodd" clip-rule="evenodd" d="M44.192 134.895C42.0382 134.895 41.1072 138.421 42.7374 139.829C47.5865 144.015 50.5112 149.434 50.5112 155.353C50.5112 161.272 47.5863 166.691 42.7369 170.877C41.1066 172.285 42.0377 175.81 44.1915 175.81L168.81 175.81C170.963 175.81 171.894 172.285 170.264 170.877C165.415 166.691 162.49 161.272 162.49 155.353C162.49 149.434 165.415 144.015 170.264 139.829C171.894 138.421 170.963 134.895 168.809 134.895L44.192 134.895Z" fill="#F2994A"/>
<mask id="path-7-inside-1_751_19" fill="white">
<path d="M172.279 184.279C178.654 182.356 179.775 174.28 173.704 171.543C167.487 168.74 160.502 166.305 152.903 164.305C138.765 160.583 122.911 158.474 106.656 158.153C90.4012 157.832 74.2153 159.308 59.4418 162.458C51.36 164.181 43.8285 166.379 37.0231 168.986C30.7057 171.406 31.3141 179.739 37.6761 182.039L56.4316 188.819C58.6768 189.63 61.1518 189.365 63.2975 188.318C67.9823 186.033 73.5762 184.174 79.7894 182.849C87.547 181.195 96.0463 180.42 104.582 180.589C113.117 180.757 121.442 181.865 128.866 183.819C134.663 185.345 139.779 187.352 143.966 189.733C146.111 190.953 148.649 191.408 151.012 190.696L172.279 184.279Z"/>
</mask>
<path d="M172.279 184.279C178.654 182.356 179.775 174.28 173.704 171.543C167.487 168.74 160.502 166.305 152.903 164.305C138.765 160.583 122.911 158.474 106.656 158.153C90.4012 157.832 74.2153 159.308 59.4418 162.458C51.36 164.181 43.8285 166.379 37.0231 168.986C30.7057 171.406 31.3141 179.739 37.6761 182.039L56.4316 188.819C58.6768 189.63 61.1518 189.365 63.2975 188.318C67.9823 186.033 73.5762 184.174 79.7894 182.849C87.547 181.195 96.0463 180.42 104.582 180.589C113.117 180.757 121.442 181.865 128.866 183.819C134.663 185.345 139.779 187.352 143.966 189.733C146.111 190.953 148.649 191.408 151.012 190.696L172.279 184.279Z" fill="#F2994A" stroke="#F0903C" stroke-width="2" mask="url(#path-7-inside-1_751_19)"/>
</svg>
