<svg width="1027" height="220" viewBox="0 0 1027 220" fill="none" xmlns="http://www.w3.org/2000/svg">
<g clip-path="url(#clip0_746_2687)">
<ellipse cx="77.847" cy="116.752" rx="7.68022" ry="10.7523" fill="#121330"/>
<ellipse cx="150.809" cy="116.752" rx="7.68022" ry="10.7523" fill="#121330"/>
<path d="M192.282 90.1062C192.282 79.7178 190.236 69.4312 186.261 59.8336C182.285 50.236 176.458 41.5154 169.113 34.1697C161.767 26.824 153.046 20.9971 143.449 17.0216C133.851 13.0461 123.564 11 113.176 11C102.788 11 92.501 13.0461 82.9034 17.0216C73.3058 20.9971 64.5852 26.824 57.2395 34.1697C49.8938 41.5154 44.0669 50.236 40.0914 59.8336C36.116 69.4312 34.0698 79.7178 34.0698 90.1062L113.176 90.1062H192.282Z" fill="#121330"/>
<path d="M93.5845 77.0648C93.5845 74.8557 95.3753 73.0648 97.5845 73.0648H130.431C132.64 73.0648 134.431 74.8557 134.431 77.0648V90.0398H93.5845V77.0648Z" fill="white"/>
<rect x="93.5845" y="83.1437" width="40.8461" height="6.89609" fill="#2DFFC9"/>
<path d="M109.551 196.143C112 197.533 115 197.533 117.449 196.143L185.44 157.554C192.585 153.498 189.707 142.596 181.491 142.596L45.5088 142.596C37.2927 142.596 34.4145 153.498 41.5599 157.554L109.551 196.143Z" fill="#F2994A"/>
<path fill-rule="evenodd" clip-rule="evenodd" d="M46.4858 148.367C44.332 148.367 43.4222 151.856 45.0806 153.231C50.5263 157.744 53.8311 163.674 53.8311 170.169C53.8311 176.665 50.526 182.595 45.08 187.108C43.4216 188.482 44.3314 191.972 46.4852 191.972L180.516 191.972C182.669 191.972 183.579 188.482 181.921 187.108C176.475 182.595 173.17 176.665 173.17 170.169C173.17 163.674 176.475 157.744 181.921 153.231C183.579 151.857 182.669 148.367 180.516 148.367L46.4858 148.367Z" fill="#F2994A"/>
<mask id="path-8-inside-1_746_2687" fill="white">
<path d="M184.632 200.686C191.007 198.763 192.143 190.665 186.099 187.87C179.232 184.695 171.453 181.947 162.953 179.71C147.886 175.743 130.989 173.496 113.666 173.153C96.3431 172.811 79.0933 174.384 63.3488 177.742C54.322 179.667 45.9392 182.146 38.4164 185.102C32.1199 187.576 32.7411 195.93 39.1032 198.23L60.3737 205.919C62.619 206.731 65.0951 206.467 67.2361 205.411C72.2737 202.925 78.3138 200.906 85.0338 199.473C93.3012 197.71 102.359 196.884 111.456 197.064C120.552 197.244 129.424 198.424 137.336 200.506C143.617 202.16 149.149 204.344 153.652 206.938C155.79 208.169 158.329 208.622 160.691 207.91L184.632 200.686Z"/>
</mask>
<path d="M184.632 200.686C191.007 198.763 192.143 190.665 186.099 187.87C179.232 184.695 171.453 181.947 162.953 179.71C147.886 175.743 130.989 173.496 113.666 173.153C96.3431 172.811 79.0933 174.384 63.3488 177.742C54.322 179.667 45.9392 182.146 38.4164 185.102C32.1199 187.576 32.7411 195.93 39.1032 198.23L60.3737 205.919C62.619 206.731 65.0951 206.467 67.2361 205.411C72.2737 202.925 78.3138 200.906 85.0338 199.473C93.3012 197.71 102.359 196.884 111.456 197.064C120.552 197.244 129.424 198.424 137.336 200.506C143.617 202.16 149.149 204.344 153.652 206.938C155.79 208.169 158.329 208.622 160.691 207.91L184.632 200.686Z" fill="#F2994A" stroke="#F0903C" stroke-width="2" mask="url(#path-8-inside-1_746_2687)"/>
<path d="M301.016 87.28C327.56 87.28 330.36 109.568 330.36 118.752C330.36 127.152 327.448 150.224 301.016 150.224C289.256 150.224 282.088 146.864 277.832 141.376H277.048V173.968H260.024V87.28H277.048V96.464H277.944C282.2 90.976 289.368 87.28 301.016 87.28ZM296.088 135.552C312.328 135.552 314.12 123.232 314.12 118.752C314.12 113.824 312.328 101.952 296.088 101.952C281.304 101.952 278.28 110.24 278.28 118.752C278.28 128.272 281.304 135.552 296.088 135.552ZM386.945 96.464H387.729V87.168H404.753V150H387.729V141.264H387.169C382.913 146.752 375.745 150 363.873 150C337.553 150 334.641 127.04 334.641 118.64C334.641 109.456 337.441 87.168 363.985 87.168C375.633 87.168 382.689 90.864 386.945 96.464ZM368.913 135.44C383.585 135.44 386.609 128.16 386.609 118.64C386.609 110.128 383.585 101.84 368.913 101.84C352.561 101.84 350.881 113.712 350.881 118.64C350.881 123.12 352.673 135.44 368.913 135.44ZM435.344 101.728V124.016V125.36C435.344 134.432 439.376 133.2 455.728 132.304V148.88C455.728 148.88 452.368 150 435.344 150C418.208 150 418.208 136 418.208 126.928V101.728H409.92V87.392H418.208V69.248H435.344V87.392H455.728V101.728H435.344ZM498.078 87.168C502.558 87.168 506.254 88.176 509.166 88.848L506.478 104.864C504.91 104.416 500.542 103.52 495.166 103.52C482.51 103.52 478.814 113.376 478.814 121.888V150H461.79V87.168H478.814V96.464H479.822C483.406 90.416 487.214 87.168 498.078 87.168ZM529.588 150H512.676V87.616H529.588V150ZM529.588 83.136H512.676V67.904H529.588V83.136ZM585.282 126.48H602.082C600.738 141.6 587.41 150 569.378 150C550.898 150 535.89 139.36 535.89 118.528C535.89 98.256 550.898 87.056 569.378 87.056C587.41 87.056 600.626 95.792 602.082 110.688H585.394C583.938 105.984 579.794 102.4 569.378 102.4C558.29 102.4 552.466 107.888 552.466 118.528C552.466 129.728 558.29 134.768 569.378 134.768C580.13 134.768 584.05 130.848 585.282 126.48ZM626.109 150H609.197V87.616H626.109V150ZM626.109 83.136H609.197V67.904H626.109V83.136ZM667.136 86.048C686.288 86.048 702.192 96.24 702.192 118.08C702.192 140.144 686.288 150 667.136 150C648.096 150 632.192 139.808 632.192 118.08C632.192 96.464 648.096 86.048 667.136 86.048ZM667.136 134.544C677.888 134.544 685.504 129.392 685.504 118.08C685.504 106.432 677.888 101.616 667.136 101.616C656.496 101.616 648.88 106.208 648.88 118.08C648.88 129.84 656.496 134.544 667.136 134.544ZM776.749 71.6H801.165V150H784.141V91.648H782.461L767.565 150H743.037L728.141 91.648H726.461V150H709.437V71.6H734.525V71.712H738.669L754.237 134.432H755.805L771.485 71.712H776.749V71.6ZM875.088 122.56H824.912C826.144 130.96 831.184 135.104 842.16 135.104C852.352 135.104 857.392 132.304 858.96 128.16H875.424C873.744 141.712 862.768 150 842.16 150C820.656 150 808.448 139.248 808.448 118.304C808.448 97.808 820.992 86.608 842.16 86.608C851.008 86.608 858.176 88.848 863.44 92.544V92.432C875.536 100.72 876.656 113.936 875.76 122.56H875.088ZM842.16 101.504C832.752 101.504 827.6 104.976 825.584 111.36H858.736C857.392 106.656 854.256 101.504 842.16 101.504ZM920.182 87.168C946.726 87.168 947.398 109.456 947.398 118.64V150H930.486V118.64C930.486 113.712 931.494 101.84 915.254 101.84C900.47 101.84 898.342 111.248 898.342 119.76V150H881.318V87.168H898.342V96.464H899.126C903.158 90.864 908.87 87.168 920.182 87.168ZM1005.18 96.464H1005.96V87.168H1022.98V150H1005.96V141.264H1005.4C1001.14 146.752 993.977 150 982.105 150C955.785 150 952.873 127.04 952.873 118.64C952.873 109.456 955.673 87.168 982.217 87.168C993.865 87.168 1000.92 90.864 1005.18 96.464ZM987.145 135.44C1001.82 135.44 1004.84 128.16 1004.84 118.64C1004.84 110.128 1001.82 101.84 987.145 101.84C970.793 101.84 969.113 113.712 969.113 118.64C969.113 123.12 970.905 135.44 987.145 135.44Z" fill="#121330"/>
</g>
<defs>
<clipPath id="clip0_746_2687">
<rect width="1027" height="220" fill="white"/>
</clipPath>
</defs>
</svg>
