<svg id="visual" viewBox="0 0 960 540" width="960" height="540" xmlns="http://www.w3.org/2000/svg" xmlns:xlink="http://www.w3.org/1999/xlink" version="1.1"><rect x="0" y="0" width="960" height="540" fill="#F8F5F2"></rect><path d="M0 70L20 74.8C40 79.7 80 89.3 120 102.8C160 116.3 200 133.7 240 129C280 124.3 320 97.7 360 84.2C400 70.7 440 70.3 480 81.3C520 92.3 560 114.7 600 112.2C640 109.7 680 82.3 720 77.7C760 73 800 91 840 94.2C880 97.3 920 85.7 940 79.8L960 74L960 0L940 0C920 0 880 0 840 0C800 0 760 0 720 0C680 0 640 0 600 0C560 0 520 0 480 0C440 0 400 0 360 0C320 0 280 0 240 0C200 0 160 0 120 0C80 0 40 0 20 0L0 0Z" fill="#E6F9F5" stroke-linecap="round" stroke-linejoin="miter"></path></svg>